# https://github.com/mikedh/trimesh
v -0.03750000 0.05311643 -0.00750000
v -0.03750000 0.05761642 0.01356226
v -0.03750000 0.05754806 -0.00378142
v -0.03750000 0.05734504 -0.00453909
v -0.03750000 0.05761642 -0.00300000
v -0.03750000 0.05701354 -0.00525000
v -0.03750000 0.05656363 -0.00589254
v -0.03750000 0.05600897 -0.00644720
v -0.03750000 0.05536642 -0.00689711
v -0.03750000 0.05465552 -0.00722862
v -0.03750000 0.05389784 -0.00743163
v -0.03700000 0.05311643 -0.00800000
v -0.03750000 0.03375581 0.01356226
v -0.03744316 0.03523437 0.01506909
v -0.03738389 0.05761642 0.01571425
v -0.03700000 0.05804047 -0.00386824
v -0.03700000 0.05781489 -0.00471010
v -0.03700000 0.05744655 -0.00550000
v -0.03700000 0.05694665 -0.00621394
v -0.03700000 0.05633036 -0.00683022
v -0.03700000 0.05561642 -0.00733013
v -0.03700000 0.05482653 -0.00769846
v -0.03700000 0.05398466 -0.00792404
v 0.03700000 0.05311643 -0.00800000
v -0.03736532 0.03591305 0.01587936
v -0.03724969 0.03654853 0.01671658
v -0.03696123 0.05761642 0.01817318
v 0.03750000 0.05761642 0.01356226
v 0.03750000 0.03375581 0.01356226
v 0.03750000 0.05311643 -0.00750000
v -0.01642466 0.05794114 -0.00431228
v -0.01595506 0.05791160 -0.00441644
v -0.01547920 0.05789265 -0.00447908
v -0.01500000 0.05788612 -0.00450000
v 0.01500000 0.05788612 -0.00450000
v 0.03700000 0.05781489 -0.00471010
v 0.03700000 0.05744655 -0.00550000
v 0.03700000 0.05694665 -0.00621394
v 0.03700000 0.05633036 -0.00683022
v 0.03700000 0.05561642 -0.00733013
v 0.03700000 0.05482653 -0.00769846
v 0.03700000 0.05398466 -0.00792404
v 0.03750000 0.05761642 -0.00300000
v 0.03738389 0.05761642 0.01571425
v 0.03738557 0.03576755 0.01569867
v 0.03744363 0.03522889 0.01506287
v 0.03750000 0.05734504 -0.00453909
v 0.03750000 0.05754806 -0.00378142
v 0.03750000 0.05389784 -0.00743163
v 0.01547908 0.05789265 -0.00447909
v 0.01452080 0.05789265 -0.00447908
v -0.01357631 0.05794108 -0.00431254
v 0.01595506 0.05791160 -0.00441644
v 0.01642369 0.05794108 -0.00431254
v 0.03700000 0.05804047 -0.00386824
v 0.03750000 0.05701354 -0.00525000
v 0.03750000 0.05656363 -0.00589254
v 0.03750000 0.05600897 -0.00644720
v 0.03750000 0.05536642 -0.00689711
v 0.03750000 0.05465552 -0.00722862
v 0.03725279 0.03653442 0.01669710
v 0.03696123 0.05761642 0.01817318
v -0.00478676 0.02567709 0.06030963
v -0.00206985 0.02567709 0.06081147
v 0.00069118 0.02567709 0.06091237
v 0.00343748 0.02567709 0.06061020
v 0.00611051 0.02567709 0.05991137
v -0.03750000 -0.00000000 0.00950000
v -0.03750000 -0.00000000 -0.00750000
v -0.03730760 -0.00379381 -0.00750000
v -0.03730760 -0.00379381 0.00950000
v -0.03681016 -0.00374323 -0.00800000
v -0.03700000 -0.00000000 -0.00800000
v -0.03673237 -0.00754869 -0.00750000
v -0.03624261 -0.00744805 -0.00800000
v -0.03673237 -0.00754869 0.00950000
v -0.03578022 -0.01122612 -0.00750000
v -0.03530315 -0.01107644 -0.00800000
v -0.03578022 -0.01122612 0.00950000
v -0.03235082 -0.01795617 -0.00800000
v -0.03400144 -0.01459117 -0.00800000
v 0.03700000 -0.00000000 -0.00800000
v -0.03446092 -0.01478835 -0.00750000
v -0.03446092 -0.01478835 0.00950000
v -0.03036825 -0.02113692 -0.00800000
v -0.03278800 -0.01819882 -0.00750000
v 0.03681016 -0.00374323 -0.00800000
v 0.03750000 -0.00000000 -0.00750000
v 0.03730760 -0.00379381 -0.00750000
v -0.03278800 -0.01819882 0.00950000
v 0.03750000 -0.00000000 0.00950000
v -0.03077863 -0.02142256 0.00950000
v -0.02845343 -0.02442647 0.00950000
v -0.01629458 -0.03321877 0.01000000
v -0.01285029 -0.03469683 0.01000000
v -0.02264792 -0.02925870 0.01000000
v -0.01957167 -0.03139983 0.01000000
v -0.02807405 -0.02410078 -0.00800000
v -0.03077863 -0.02142256 -0.00750000
v 0.03624261 -0.00744805 -0.00800000
v 0.03530315 -0.01107644 -0.00800000
v 0.03400144 -0.01459117 -0.00800000
v 0.03235082 -0.01795617 -0.00800000
v 0.03673237 -0.00754869 -0.00750000
v 0.03730760 -0.00379381 0.00950000
v 0.03673237 -0.00754869 0.00950000
v -0.02583626 -0.02717973 0.00950000
v -0.02845343 -0.02442647 -0.00750000
v -0.02583626 -0.02717973 -0.00750000
v -0.01651478 -0.03366767 0.00950000
v -0.01302395 -0.03516570 0.00950000
v -0.00927414 -0.03581886 0.01000000
v -0.00939947 -0.03630289 0.00950000
v 0.01957167 -0.03139983 0.01000000
v 0.01629458 -0.03321877 0.01000000
v 0.01285029 -0.03469683 0.01000000
v 0.02264792 -0.02925870 0.01000000
v -0.02295397 -0.02965409 0.00950000
v -0.01983615 -0.03182416 0.00950000
v -0.02549178 -0.02681733 -0.00800000
v 0.03578022 -0.01122612 -0.00750000
v 0.03446092 -0.01478835 -0.00750000
v 0.03278800 -0.01819882 -0.00750000
v 0.03036825 -0.02113692 -0.00800000
v 0.03077863 -0.02142256 -0.00750000
v 0.03578022 -0.01122612 0.00950000
v -0.02295397 -0.02965409 -0.00750000
v -0.02264792 -0.02925870 -0.00800000
v -0.01651478 -0.03366767 -0.00750000
v -0.01302395 -0.03516570 -0.00750000
v -0.00939947 -0.03630289 -0.00750000
v -0.00560283 -0.03657333 0.01000000
v -0.00567854 -0.03706756 0.00950000
v -0.00567854 -0.03706756 -0.00750000
v 0.01983615 -0.03182416 0.00950000
v 0.02295397 -0.02965409 0.00950000
v 0.01651478 -0.03366767 0.00950000
v 0.00927414 -0.03581886 0.01000000
v 0.01302395 -0.03516570 0.00950000
v 0.02583626 -0.02717973 0.00950000
v 0.02845343 -0.02442647 0.00950000
v 0.03077863 -0.02142256 0.00950000
v -0.01983615 -0.03182416 -0.00750000
v 0.03446092 -0.01478835 0.00950000
v 0.03278800 -0.01819882 0.00950000
v 0.02807405 -0.02410078 -0.00800000
v 0.02845343 -0.02442647 -0.00750000
v -0.01957167 -0.03139983 -0.00800000
v -0.01285029 -0.03469683 -0.00800000
v -0.01629458 -0.03321877 -0.00800000
v -0.00927414 -0.03581886 -0.00800000
v -0.00560283 -0.03657333 -0.00800000
v -0.00187402 -0.03695251 0.01000000
v -0.00189934 -0.03745187 0.00950000
v -0.00189934 -0.03745187 -0.00750000
v -0.00187402 -0.03695251 -0.00800000
v 0.01983615 -0.03182416 -0.00750000
v 0.02295397 -0.02965409 -0.00750000
v 0.02583626 -0.02717973 -0.00750000
v 0.01651478 -0.03366767 -0.00750000
v 0.00560283 -0.03657333 0.01000000
v 0.00939947 -0.03630289 0.00950000
v 0.01302395 -0.03516570 -0.00750000
v 0.02549178 -0.02681733 -0.00800000
v 0.00187402 -0.03695251 0.01000000
v 0.00189934 -0.03745187 0.00950000
v 0.00189934 -0.03745187 -0.00750000
v 0.00187402 -0.03695251 -0.00800000
v 0.02264792 -0.02925870 -0.00800000
v 0.01957167 -0.03139983 -0.00800000
v 0.01629458 -0.03321877 -0.00800000
v 0.00567854 -0.03706756 0.00950000
v 0.00939947 -0.03630289 -0.00750000
v 0.01285029 -0.03469683 -0.00800000
v 0.00567854 -0.03706756 -0.00750000
v 0.00560283 -0.03657333 -0.00800000
v 0.00927414 -0.03581886 -0.00800000
v -0.01929276 0.08839071 0.10302489
v -0.02029276 0.08743371 0.10331497
v 0.02070724 0.08839071 0.10302489
v -0.01929276 0.08840515 0.10307770
v 0.02170724 0.08743371 0.10331497
v -0.01929276 0.08682563 0.10410884
v -0.01929276 0.08686998 0.10414093
v -0.01929276 0.08691603 0.10417055
v -0.01929276 0.08696363 0.10419759
v -0.01929276 0.08701264 0.10422200
v -0.01929276 0.08706291 0.10424368
v -0.01929276 0.08711429 0.10426258
v -0.01929276 0.08716664 0.10427865
v -0.01929276 0.08721978 0.10429182
v -0.01929276 0.08727355 0.10430206
v -0.01929276 0.08732782 0.10430935
v -0.01929276 0.08738240 0.10431365
v -0.01929276 0.08743713 0.10431497
v -0.01929276 0.08749186 0.10431328
v -0.01929276 0.08754640 0.10430860
v -0.01929276 0.08760062 0.10430094
v -0.01929276 0.08765433 0.10429033
v -0.01929276 0.08770738 0.10427679
v -0.01929276 0.08775960 0.10426038
v -0.01929276 0.08781085 0.10424113
v -0.01929276 0.08786098 0.10421909
v -0.01929276 0.08790981 0.10419436
v -0.01929276 0.08795723 0.10416698
v -0.01929276 0.08800308 0.10413706
v -0.01929276 0.08804721 0.10410466
v -0.01929276 0.08808951 0.10406991
v -0.01929276 0.08812985 0.10403288
v -0.01929276 0.08816808 0.10399371
v -0.01929276 0.08820413 0.10395250
v -0.01929276 0.08823787 0.10390939
v -0.01929276 0.08826919 0.10386448
v -0.01929276 0.08829802 0.10381793
v -0.01929276 0.08832425 0.10376988
v -0.01929276 0.08834781 0.10372046
v -0.01929276 0.08836863 0.10366982
v -0.01929276 0.08838665 0.10361812
v -0.01929276 0.08840181 0.10356551
v -0.01929276 0.08841408 0.10351215
v -0.01929276 0.08842339 0.10345821
v -0.01929276 0.08842975 0.10340383
v -0.01929276 0.08843313 0.10334919
v -0.01929276 0.08843350 0.10329444
v -0.01929276 0.08843087 0.10323975
v -0.01929276 0.08842526 0.10318529
v -0.01929276 0.08841668 0.10313122
v 0.02070724 0.08840515 0.10307770
v 0.02070724 0.08841668 0.10313122
v 0.02070724 0.08842526 0.10318529
v 0.02070724 0.08843087 0.10323975
v 0.02070724 0.08843350 0.10329444
v 0.02070724 0.08843313 0.10334919
v 0.02070724 0.08842975 0.10340383
v 0.02070724 0.08842339 0.10345821
v 0.02070724 0.08841408 0.10351215
v 0.02070724 0.08840181 0.10356551
v 0.02070724 0.08838665 0.10361812
v 0.02070724 0.08836863 0.10366982
v 0.02070724 0.08834781 0.10372046
v 0.02070724 0.08832425 0.10376988
v 0.02070724 0.08829802 0.10381793
v 0.02070724 0.08826919 0.10386448
v 0.02070724 0.08823787 0.10390939
v 0.02070724 0.08820413 0.10395250
v 0.02070724 0.08816808 0.10399371
v 0.02070724 0.08812985 0.10403288
v 0.02070724 0.08808951 0.10406991
v 0.02070724 0.08804721 0.10410466
v 0.02070724 0.08800308 0.10413706
v 0.02070724 0.08795723 0.10416698
v 0.02070724 0.08790981 0.10419436
v 0.02070724 0.08786098 0.10421909
v 0.02070724 0.08781085 0.10424113
v 0.02070724 0.08775960 0.10426038
v 0.02070724 0.08770738 0.10427679
v 0.02070724 0.08765433 0.10429033
v 0.02070724 0.08760062 0.10430094
v 0.02070724 0.08754640 0.10430860
v 0.02070724 0.08749186 0.10431328
v 0.02070724 0.08743713 0.10431497
v 0.02070724 0.08738240 0.10431365
v 0.02070724 0.08732782 0.10430935
v 0.02070724 0.08727355 0.10430206
v 0.02070724 0.08721978 0.10429182
v 0.02070724 0.08716664 0.10427865
v 0.02070724 0.08711429 0.10426258
v 0.02070724 0.08706291 0.10424368
v 0.02070724 0.08701264 0.10422200
v 0.02070724 0.08696363 0.10419759
v 0.02070724 0.08691603 0.10417055
v 0.02070724 0.08686998 0.10414093
v 0.02070724 0.08682563 0.10410884
f 165 161 65
f 273 272 65
f 115 273 116
f 116 273 67
f 179 26 68
f 179 68 71
f 71 76 179
f 179 76 79
f 183 96 97
f 153 132 154
f 153 165 65
f 154 132 133
f 64 153 65
f 132 153 64
f 161 165 166
f 166 172 161
f 94 183 97
f 95 183 94
f 272 273 182
f 271 272 182
f 126 106 182
f 182 106 105
f 105 91 182
f 62 44 182
f 182 44 28
f 161 172 138
f 116 138 139
f 12 1 11
f 15 26 27
f 27 179 15
f 26 179 27
f 15 179 2
f 2 179 5
f 2 14 15
f 28 44 46
f 68 14 13
f 14 2 13
f 68 26 25
f 25 14 68
f 25 26 15
f 15 14 25
f 112 111 113
f 95 111 112
f 132 64 112
f 113 133 112
f 112 133 132
f 63 183 95
f 63 64 183
f 95 112 63
f 63 112 64
f 273 117 136
f 66 116 67
f 66 138 116
f 66 273 65
f 67 273 66
f 65 161 66
f 161 138 66
f 162 138 172
f 162 139 138
f 93 107 183
f 96 183 118
f 183 107 118
f 97 96 118
f 20 21 8
f 16 4 3
f 5 179 3
f 3 226 16
f 179 226 3
f 17 4 16
f 16 181 17
f 181 178 17
f 7 20 8
f 19 20 7
f 227 181 16
f 16 226 227
f 28 46 29
f 29 46 91
f 61 44 62
f 62 182 61
f 61 182 91
f 141 142 273
f 92 93 183
f 110 94 97
f 110 111 95
f 95 94 110
f 19 7 18
f 4 17 18
f 12 11 23
f 21 22 10
f 10 23 11
f 22 23 10
f 45 46 44
f 44 61 45
f 91 46 45
f 45 61 91
f 197 198 179
f 179 198 199
f 179 205 206
f 179 192 193
f 179 189 190
f 179 183 184
f 65 272 184
f 184 64 65
f 183 64 184
f 179 186 187
f 114 136 117
f 114 135 136
f 114 117 273
f 114 273 115
f 115 116 137
f 116 139 137
f 137 114 115
f 135 114 137
f 271 182 270
f 182 269 270
f 182 266 267
f 265 266 182
f 182 264 265
f 257 258 182
f 212 213 179
f 179 211 212
f 179 213 214
f 214 215 179
f 140 141 273
f 273 136 140
f 126 182 144
f 90 183 179
f 90 92 183
f 97 118 119
f 119 110 97
f 4 18 6
f 6 18 7
f 8 21 9
f 21 10 9
f 179 218 219
f 219 220 179
f 221 222 179
f 179 220 221
f 225 226 179
f 179 224 225
f 179 222 223
f 223 224 179
f 196 179 195
f 196 197 179
f 182 258 259
f 200 201 179
f 179 199 200
f 207 208 179
f 179 206 207
f 179 201 202
f 202 203 179
f 204 205 179
f 179 203 204
f 250 182 249
f 250 251 182
f 195 179 194
f 179 193 194
f 263 264 182
f 191 192 179
f 179 190 191
f 185 186 179
f 179 184 185
f 188 189 179
f 179 187 188
f 268 269 182
f 182 267 268
f 249 182 248
f 182 247 248
f 182 244 245
f 179 208 209
f 182 241 242
f 217 218 179
f 233 234 182
f 182 232 233
f 87 89 100
f 124 125 146
f 146 125 147
f 123 102 122
f 125 124 123
f 100 89 104
f 101 104 121
f 100 104 101
f 101 121 122
f 122 102 101
f 84 179 79
f 84 90 179
f 31 17 178
f 237 238 182
f 182 236 237
f 182 234 235
f 235 236 182
f 182 230 231
f 231 232 182
f 261 182 260
f 182 259 260
f 182 255 256
f 256 257 182
f 254 255 182
f 182 253 254
f 182 251 252
f 252 253 182
f 262 182 261
f 262 263 182
f 246 247 182
f 182 245 246
f 243 244 182
f 182 242 243
f 182 238 239
f 179 215 216
f 216 217 179
f 177 173 175
f 163 173 177
f 73 72 70
f 143 148 129
f 82 88 89
f 89 87 82
f 145 144 182
f 145 182 273
f 273 142 145
f 102 123 103
f 103 123 124
f 17 31 32
f 178 52 32
f 32 31 178
f 210 211 179
f 179 209 210
f 240 241 182
f 182 239 240
f 163 177 174
f 174 160 163
f 171 160 174
f 170 158 157
f 170 169 158
f 157 160 170
f 170 160 171
f 159 158 164
f 158 169 164
f 164 147 159
f 146 147 164
f 69 73 70
f 109 120 127
f 148 143 127
f 180 228 36
f 34 17 33
f 17 32 33
f 149 130 129
f 75 74 70
f 70 72 75
f 148 127 128
f 128 127 120
f 180 36 54
f 228 229 55
f 55 36 228
f 55 229 230
f 41 60 42
f 175 167 176
f 167 168 176
f 176 177 175
f 129 148 150
f 150 149 129
f 131 130 151
f 130 149 151
f 151 134 131
f 81 86 83
f 78 83 77
f 81 83 78
f 78 77 74
f 74 75 78
f 80 86 81
f 80 85 86
f 99 85 98
f 86 85 99
f 48 230 182
f 48 55 230
f 40 60 41
f 49 30 24
f 24 42 49
f 49 42 60
f 134 151 152
f 155 134 152
f 152 156 155
f 108 99 98
f 98 120 108
f 108 120 109
f 53 54 36
f 36 50 53
f 35 50 36
f 36 55 47
f 55 48 47
f 37 36 47
f 43 182 28
f 43 48 182
f 51 53 50
f 50 35 51
f 57 38 37
f 57 39 38
f 37 47 56
f 56 57 37
f 39 57 58
f 58 40 39
f 60 40 59
f 40 58 59
f 165 153 166
f 166 153 154
f 228 178 181
f 180 178 228
f 269 187 270
f 270 187 186
f 266 190 267
f 267 190 189
f 198 258 257
f 257 199 198
f 229 227 226
f 226 230 229
f 229 228 181
f 181 227 229
f 88 91 105
f 105 89 88
f 121 144 122
f 126 144 121
f 259 258 198
f 198 197 259
f 250 207 206
f 249 207 250
f 250 206 205
f 205 251 250
f 263 193 192
f 192 264 263
f 191 264 192
f 191 265 264
f 191 190 266
f 266 265 191
f 185 270 186
f 271 270 185
f 185 272 271
f 185 184 272
f 268 187 269
f 268 188 187
f 268 267 189
f 189 188 268
f 248 207 249
f 208 207 248
f 244 212 245
f 245 212 211
f 208 248 209
f 209 248 247
f 242 241 215
f 215 214 242
f 233 223 222
f 222 234 233
f 233 232 224
f 224 223 233
f 160 137 139
f 139 163 160
f 135 137 160
f 160 157 135
f 173 163 139
f 139 162 173
f 173 162 172
f 172 175 173
f 135 157 158
f 136 135 158
f 158 140 136
f 158 159 140
f 140 159 147
f 141 140 147
f 147 125 142
f 142 141 147
f 104 89 105
f 105 106 104
f 126 121 104
f 104 106 126
f 237 219 218
f 218 238 237
f 220 219 237
f 237 236 220
f 235 234 222
f 222 221 235
f 220 236 235
f 235 221 220
f 231 230 226
f 226 225 231
f 224 232 231
f 231 225 224
f 260 196 195
f 195 261 260
f 260 259 197
f 197 196 260
f 201 200 256
f 256 255 201
f 199 257 256
f 256 200 199
f 201 255 254
f 254 202 201
f 203 202 254
f 254 253 203
f 252 251 205
f 205 204 252
f 203 253 252
f 252 204 203
f 262 261 195
f 195 194 262
f 193 263 262
f 262 194 193
f 243 212 244
f 213 212 243
f 243 242 214
f 243 214 213
f 239 238 218
f 218 217 239
f 167 175 172
f 172 166 167
f 167 166 154
f 154 155 167
f 110 119 143
f 129 110 143
f 142 125 145
f 125 123 145
f 122 144 145
f 145 123 122
f 210 245 211
f 210 246 245
f 210 209 247
f 247 246 210
f 215 241 240
f 240 216 215
f 240 239 217
f 217 216 240
f 134 155 154
f 154 133 134
f 134 133 113
f 113 131 134
f 130 110 129
f 111 110 130
f 130 131 113
f 113 111 130
f 71 70 74
f 74 76 71
f 12 73 69
f 69 1 12
f 68 13 69
f 69 7 8
f 69 2 5
f 8 9 69
f 5 3 69
f 69 13 2
f 69 11 1
f 69 3 4
f 4 6 69
f 69 10 11
f 69 6 7
f 69 9 10
f 69 70 71
f 71 68 69
f 107 109 127
f 127 118 107
f 127 143 119
f 127 119 118
f 36 37 18
f 36 18 17
f 18 37 38
f 19 18 38
f 168 167 155
f 155 156 168
f 76 74 77
f 79 76 77
f 54 178 180
f 54 52 178
f 19 38 39
f 39 20 19
f 82 24 30
f 88 82 30
f 22 41 42
f 42 23 22
f 42 24 12
f 12 23 42
f 83 86 90
f 90 84 83
f 79 77 83
f 83 84 79
f 90 86 99
f 92 90 99
f 40 41 22
f 40 22 21
f 20 39 40
f 21 20 40
f 12 24 152
f 102 103 152
f 152 87 100
f 152 73 12
f 152 124 146
f 152 75 72
f 152 170 171
f 100 101 152
f 152 120 98
f 146 164 152
f 152 101 102
f 171 174 152
f 148 128 152
f 177 176 152
f 72 73 152
f 98 85 152
f 152 82 87
f 152 103 124
f 152 174 177
f 152 24 82
f 169 170 152
f 152 164 169
f 152 168 156
f 152 150 148
f 152 80 81
f 81 78 152
f 152 128 120
f 152 176 168
f 149 150 152
f 152 151 149
f 152 78 75
f 85 80 152
f 108 109 107
f 107 93 108
f 92 99 108
f 93 92 108
f 52 54 53
f 53 32 52
f 35 36 17
f 35 17 34
f 32 53 51
f 51 33 32
f 51 35 34
f 34 33 51
f 91 88 59
f 28 29 59
f 59 29 91
f 88 30 59
f 59 43 28
f 59 49 60
f 30 49 59
f 59 47 48
f 48 43 59
f 59 56 47
f 57 56 59
f 59 58 57

