# https://github.com/mikedh/trimesh
v -0.00133354 0.00250000 -0.00068679
v -0.00125721 0.00250000 -0.00081818
v -0.00125721 -0.00250000 -0.00081818
v -0.00116799 -0.00250000 -0.00094117
v -0.00116799 0.00250000 -0.00094117
v -0.00095463 0.00250000 -0.00115702
v -0.00095463 -0.00250000 -0.00115702
v -0.00070218 0.00250000 -0.00132550
v -0.00070218 -0.00250000 -0.00132550
v -0.00042098 0.00250000 -0.00143971
v -0.00042098 -0.00250000 -0.00143971
v -0.00012255 0.00250000 -0.00149499
v -0.00012255 -0.00250000 -0.00149499
v 0.00018089 0.00250000 -0.00148905
v 0.00018089 -0.00250000 -0.00148905
v 0.00047693 0.00250000 -0.00142216
v 0.00047693 -0.00250000 -0.00142216
v 0.00075345 0.00250000 -0.00129704
v 0.00075345 -0.00250000 -0.00129704
v 0.00099912 0.00250000 -0.00111882
v 0.00099912 -0.00250000 -0.00111882
v 0.00120388 0.00250000 -0.00089480
v 0.00120388 -0.00250000 -0.00089480
v 0.00135936 0.00250000 -0.00063414
v 0.00135936 -0.00250000 -0.00063414
v 0.00145919 0.00250000 -0.00034752
v 0.00145919 -0.00250000 -0.00034752
v 0.00149927 0.00250000 -0.00004668
v 0.00149927 -0.00250000 -0.00004668
v 0.00147798 0.00250000 0.00025608
v 0.00147798 -0.00250000 0.00025608
v 0.00139618 0.00250000 0.00054835
v 0.00139618 -0.00250000 0.00054835
v 0.00125721 0.00250000 0.00081818
v 0.00125721 -0.00250000 0.00081818
v 0.00106678 0.00250000 0.00105450
v 0.00106678 -0.00250000 0.00105450
v 0.00083267 0.00250000 0.00124766
v 0.00083267 -0.00250000 0.00124766
v 0.00056448 0.00250000 0.00138974
v 0.00056448 -0.00250000 0.00138974
v 0.00027317 0.00250000 0.00147492
v 0.00027317 -0.00250000 0.00147492
v -0.00002932 0.00250000 0.00149971
v -0.00002932 -0.00250000 0.00149971
v -0.00033061 0.00250000 0.00146311
v -0.00033061 -0.00250000 0.00146311
v -0.00061836 0.00250000 0.00136661
v -0.00061836 -0.00250000 0.00136661
v -0.00088080 0.00250000 0.00121416
v -0.00088080 -0.00250000 0.00121416
v -0.00110718 0.00250000 0.00101200
v -0.00110718 -0.00250000 0.00101200
v -0.00128823 0.00250000 0.00076841
v -0.00128823 -0.00250000 0.00076841
v -0.00141654 0.00250000 0.00049336
v -0.00141654 -0.00250000 0.00049336
v -0.00148686 0.00250000 0.00019812
v -0.00148686 -0.00250000 0.00019812
v -0.00149630 0.00250000 -0.00010524
v -0.00149630 -0.00250000 -0.00010524
v -0.00144449 0.00250000 -0.00040429
v -0.00144449 -0.00250000 -0.00040429
v -0.00133354 -0.00250000 -0.00068679
f 63 61 62
f 62 61 60
f 64 62 1
f 63 62 64
f 58 61 59
f 60 61 58
f 56 58 57
f 57 58 59
f 3 64 2
f 2 64 1
f 4 2 5
f 3 2 4
f 4 5 6
f 6 7 4
f 11 10 12
f 12 13 11
f 30 31 29
f 30 29 28
f 35 34 36
f 35 36 37
f 51 50 52
f 51 52 53
f 48 50 51
f 51 49 48
f 44 46 47
f 47 45 44
f 47 46 48
f 48 49 47
f 9 7 6
f 6 8 9
f 9 8 10
f 10 11 9
f 33 30 32
f 31 30 33
f 32 34 33
f 34 35 33
f 52 54 55
f 53 52 55
f 56 57 55
f 55 54 56
f 37 36 39
f 36 38 39
f 39 38 40
f 40 41 39
f 43 42 44
f 44 45 43
f 40 42 43
f 43 41 40
f 19 18 20
f 19 20 21
f 16 18 19
f 19 17 16
f 12 10 14
f 28 26 14
f 14 22 20
f 14 62 60
f 6 5 14
f 14 38 36
f 60 58 14
f 36 34 14
f 14 8 6
f 14 30 28
f 14 54 52
f 14 46 44
f 14 34 32
f 52 50 14
f 14 2 1
f 20 18 14
f 1 62 14
f 14 58 56
f 48 46 14
f 14 50 48
f 5 2 14
f 10 8 14
f 44 42 14
f 32 30 14
f 56 54 14
f 40 38 14
f 14 42 40
f 14 18 16
f 24 22 14
f 14 26 24
f 20 22 23
f 21 20 23
f 23 22 24
f 24 25 23
f 28 29 27
f 27 26 28
f 24 26 27
f 27 25 24
f 7 9 15
f 31 33 15
f 15 19 21
f 15 64 3
f 53 55 15
f 59 61 15
f 15 35 37
f 45 47 15
f 3 4 15
f 29 31 15
f 15 61 63
f 63 64 15
f 15 57 59
f 37 39 15
f 15 51 53
f 15 4 7
f 15 11 13
f 15 43 45
f 21 23 15
f 49 51 15
f 15 47 49
f 15 9 11
f 15 27 29
f 15 33 35
f 15 55 57
f 15 39 41
f 41 43 15
f 17 19 15
f 15 23 25
f 25 27 15
f 15 13 12
f 12 14 15
f 16 17 15
f 15 14 16

