# https://github.com/mikedh/trimesh
v -0.01400000 0.01000000 -0.01080000
v -0.01400000 -0.00131957 -0.01080000
v -0.01400000 -0.00480000 -0.00953323
v -0.01400000 -0.00998447 0.00252988
v -0.01400000 -0.00989632 -0.00285534
v -0.01400000 -0.01029862 -0.00016859
v -0.01400000 -0.00269297 0.00994173
v -0.01400000 -0.00897573 0.00505235
v -0.01400000 -0.00734256 0.00722335
v -0.01400000 -0.00519859 0.00889183
v -0.01400000 -0.00710220 -0.00745981
v -0.01400000 -0.00880555 -0.00534344
v 0.01400000 0.04530000 -0.01080000
v 0.01400000 0.05418319 -0.01080000
v 0.01400000 0.06578471 -0.00682474
v 0.01400000 0.05608317 -0.01061406
v 0.01400000 0.05791105 -0.01006328
v 0.01400000 0.05921805 -0.00952570
v 0.01400000 0.06690000 -0.00028284
v 0.01400000 0.06690000 -0.00516006
v 0.01400000 0.06424692 0.00510320
v 0.01400000 0.06676242 -0.00585026
v 0.01400000 0.06637069 -0.00643495
v 0.01400000 0.06261176 0.00725452
v 0.01400000 0.06047335 0.00890654
v 0.01400000 0.05797886 0.00994554
v -0.01473822 0.04860000 -0.00786137
v -0.01542360 0.04860000 -0.00749647
v -0.01583470 0.04860000 -0.00683777
v 0.01086847 0.04775404 -0.01160000
v 0.01009208 0.04774347 -0.01160000
v 0.01154612 0.04737500 -0.01160000
v 0.01194347 0.04670791 -0.01160000
v 0.01195404 0.04593153 -0.01160000
v 0.00442500 0.04734612 -0.01160000
v 0.00404596 0.04666847 -0.01160000
v 0.00509208 0.04774347 -0.01160000
v 0.00586847 0.04775404 -0.01160000
v -0.01194347 0.00859208 -0.01160000
v -0.01154612 0.00792500 -0.01160000
v -0.01086847 0.00754596 -0.01160000
v -0.01195404 0.00936847 -0.01160000
v -0.00586847 0.00754596 -0.01160000
v -0.00404596 0.00863153 -0.01160000
v -0.00442500 0.00795388 -0.01160000
v -0.00509208 0.00755653 -0.01160000
v 0.00936901 0.01611508 -0.01042885
v 0.00927774 0.01602357 -0.01043539
v 0.01080000 0.06710000 -0.00020000
v 0.00370000 0.06710000 -0.00516006
v 0.01080000 0.06710000 -0.00516006
v 0.01080000 0.06694713 -0.00592695
v 0.00370000 0.06694712 -0.00592695
v 0.01080000 0.06651188 -0.00657660
v 0.00370000 0.06651188 -0.00657660
v 0.01080000 0.06586079 -0.00700970
v 0.00370000 0.06586079 -0.00700971
v 0.00370000 0.06710000 -0.00020000
v -0.01380000 -0.00468555 -0.00978772
v -0.01380000 -0.00135483 -0.01100000
v -0.00370000 -0.00135483 -0.01100000
v -0.01380000 0.01000000 -0.01100000
v -0.00370000 -0.00468555 -0.00978772
v -0.00370000 -0.00724010 -0.00760466
v -0.01380000 -0.00724010 -0.00760466
v -0.00370000 -0.00897653 -0.00544720
v -0.01380000 -0.00897653 -0.00544720
v -0.00370000 -0.01008848 -0.00291078
v -0.01380000 -0.01008848 -0.00291078
v -0.00370000 -0.01049859 -0.00017186
v -0.01380000 -0.01049859 -0.00017187
v -0.00370000 -0.01017835 0.00257900
v -0.01380000 -0.01017835 0.00257900
v -0.00370000 -0.00915002 0.00515046
v -0.01380000 -0.00915002 0.00515046
v -0.00370000 -0.00748514 0.00736361
v -0.01380000 -0.00748514 0.00736361
v -0.00370000 -0.00529954 0.00906449
v -0.01380000 -0.00529954 0.00906448
v -0.00370000 -0.00274526 0.01013477
v -0.01380000 -0.00274526 0.01013477
v -0.00370000 0.00000000 0.01050000
v -0.01380000 0.00000000 0.01050000
v 0.01570701 0.01400147 -0.00770720
v 0.01585653 0.01401502 -0.00751609
v 0.01595469 0.01405480 -0.00729760
v 0.01600000 0.01414120 -0.00700000
v 0.01380000 0.05530000 0.01050000
v 0.00370000 0.05530000 0.01050000
v 0.00370000 0.06442065 0.00520229
v 0.01380000 0.06442065 0.00520229
v 0.00370000 0.06275374 0.00739539
v 0.01380000 0.06275374 0.00739539
v 0.00370000 0.06057380 0.00907948
v 0.01380000 0.06057381 0.00907948
v 0.00370000 0.05803088 0.01013865
v 0.01380000 0.05803088 0.01013865
v 0.01380000 0.05929413 -0.00971066
v 0.01380000 0.05798712 -0.01024825
v 0.00370000 0.05798713 -0.01024825
v 0.01380000 0.05612195 -0.01081026
v 0.00370000 0.05612194 -0.01081026
v 0.01380000 0.05418320 -0.01100000
v 0.00370000 0.05418319 -0.01100000
v 0.01380000 0.04530000 -0.01100000
v -0.00350000 -0.00880555 -0.00534344
v -0.00350000 -0.00989632 -0.00285534
v -0.00350000 -0.01029862 -0.00016859
v 0.01309629 0.01000000 0.01069600
v 0.01585442 0.01000000 0.00919895
v 0.01585442 0.01000000 0.00850000
v 0.01581566 0.01000000 0.00988815
v 0.01564498 0.01000000 0.01008839
v 0.01585442 0.01000029 0.00973225
v 0.01518452 0.01000000 0.01034277
v 0.01433292 0.01000000 0.01057443
v -0.01550000 0.04566602 -0.00850000
v -0.01586603 0.04530000 -0.00850000
v -0.01600000 0.04480000 -0.00850000
v -0.01600000 0.01000000 -0.00850000
v 0.01586602 0.01500000 -0.00850000
v 0.01600000 0.01550000 -0.00850000
v 0.01600000 0.04480000 -0.00850000
v 0.01600000 0.03015000 -0.00850000
v -0.01157500 0.04734612 -0.00910000
v -0.00936901 0.04418492 -0.01042885
v -0.00927774 0.04427642 -0.01043539
v -0.00940242 0.04405992 -0.01042646
v -0.01715836 0.04800000 0.00850000
v -0.01774274 0.01000000 0.00850000
v -0.01768445 0.01700159 0.00850000
v -0.01728515 0.04388044 0.00850000
v 0.01635260 0.01491687 0.00850000
v 0.01720199 0.04800000 0.00850000
v 0.01708476 0.02850137 0.00850000
v 0.01674172 0.01983761 0.00850000
v -0.01705373 0.01000000 0.01033473
v -0.01751344 0.01000000 0.01007878
v -0.01774273 0.01000000 0.00919895
v -0.01774274 0.01000027 0.00969282
v -0.01771786 0.01000000 0.00982299
v 0.01400442 0.04530248 0.01144439
v 0.00500442 0.04330268 0.01162520
v 0.01200442 0.04330268 0.01162520
v 0.01387898 0.04460540 0.01151048
v 0.01341038 0.04388020 0.01157576
v 0.01267969 0.04342012 0.01161533
v -0.01648957 0.04800000 0.01079123
v -0.01564800 0.04800000 0.01102756
v -0.01416054 0.04800000 0.01115764
v -0.01443337 0.04800000 0.01115379
v -0.01715836 0.04800055 0.01016623
v -0.01711845 0.04800000 0.01032872
v -0.01694700 0.04800000 0.01053261
v 0.01720199 0.04800000 0.00915764
v 0.01720197 0.04800000 0.01014380
v 0.01720136 0.04800000 0.01016463
v 0.01500442 0.04800107 0.01112031
v 0.01542795 0.04800000 0.01106873
v 0.01615938 0.04800000 0.01091180
v 0.01716083 0.04800000 0.01031254
v 0.01695444 0.04800000 0.01054665
v 0.01642272 0.04800000 0.01082486
v 0.01712625 0.03205988 0.00917497
v 0.01711737 0.03088916 0.00917624
v 0.01708475 0.02850133 0.00917884
v 0.01678018 0.02046067 0.00918758
v 0.01674171 0.01983760 0.00918826
v -0.01728452 0.04388037 0.00916212
v -0.01430976 0.04213978 0.01171795
v 0.01370330 0.01927975 0.01170479
v -0.01461879 0.01852008 0.01164436
v 0.01330972 0.01451417 0.01126125
v -0.01442088 0.02390596 0.01198919
v 0.01395712 0.02406478 0.01199642
v -0.01441936 0.02397900 0.01199253
v 0.01413104 0.03846439 0.01195136
v -0.01432487 0.03945949 0.01189711
v -0.01432346 0.03611565 0.01205315
v 0.01413259 0.03366496 0.01212007
v -0.01433343 0.03008289 0.01214581
v 0.01409083 0.02886250 0.01213505
v -0.01434286 0.02898533 0.01213658
v -0.01441789 0.02405195 0.01199583
v 0.01413997 0.04325606 0.01162910
v 0.00400442 0.04357060 0.01160254
v 0.00359026 0.04388835 0.01157504
v 0.00448474 0.04337137 0.01161944
v 0.00327237 0.04430258 0.01153817
v 0.00307238 0.04478562 0.01149371
v 0.01494666 0.04800047 0.01112533
v 0.01452183 0.04787803 0.01116509
v -0.01768307 0.01704160 0.01050114
v -0.01776364 0.01344820 0.01013247
v -0.01730961 0.04209467 0.01072078
v 0.01629532 0.01432912 0.01026747
v 0.01709039 0.02882414 0.01113519
v 0.01695470 0.02398961 0.01099755
v 0.01677968 0.02046154 0.01080128
v 0.01669640 0.01915329 0.01070796
v 0.01713259 0.03363884 0.01112026
v 0.01674237 0.04792887 0.01069001
v 0.01632120 0.04795776 0.01086545
v 0.01626149 0.04321925 0.01133781
v 0.01440869 0.01441474 0.01118213
v 0.01718713 0.04786890 0.01025003
v 0.01712785 0.04316270 0.01072223
v 0.01524432 0.04324377 0.01155957
v 0.01711893 0.03842126 0.01104230
v 0.01712048 0.03364059 0.01121002
v 0.01707826 0.02882320 0.01122489
v 0.01694244 0.02398610 0.01108683
v 0.01668388 0.01914733 0.01079631
v 0.01628238 0.01432090 0.01035437
v 0.01714939 0.04788031 0.01034201
v 0.01708997 0.04317060 0.01081412
v 0.01708099 0.03842593 0.01113428
v 0.01708256 0.03364244 0.01130212
v 0.01704032 0.02882266 0.01131695
v 0.01690441 0.02398352 0.01117846
v 0.01664565 0.01914295 0.01088705
v 0.01624385 0.01431493 0.01044369
v 0.01698916 0.04790507 0.01052778
v 0.01692951 0.04318707 0.01099979
v 0.01692048 0.03843525 0.01132016
v 0.01692205 0.03364637 0.01148825
v 0.01687981 0.02882300 0.01150299
v 0.01674384 0.02398164 0.01136373
v 0.01648496 0.01913972 0.01107067
v 0.01608302 0.01431097 0.01062476
v 0.01625247 0.03845183 0.01165874
v 0.01625404 0.03365442 0.01182725
v 0.01621190 0.02883005 0.01184190
v 0.01607643 0.02399321 0.01170170
v 0.01581867 0.01915909 0.01140666
v 0.01541861 0.01433994 0.01095766
v 0.01523540 0.03846205 0.01188118
v 0.01523695 0.03366105 0.01204990
v 0.01519502 0.02884454 0.01206464
v 0.01506057 0.02402385 0.01192469
v 0.01480506 0.01921069 0.01163021
v 0.01706481 0.04796695 0.01044957
v 0.01716888 0.04794711 0.01029740
v -0.01775155 0.01343766 0.01022184
v -0.01771365 0.01342673 0.01031344
v -0.01755316 0.01340424 0.01049851
v -0.01688510 0.01336147 0.01083543
v -0.01767124 0.01703275 0.01059134
v -0.01763357 0.01702275 0.01068376
v -0.01737030 0.02400604 0.01117237
v -0.01747349 0.01699955 0.01087035
v -0.01720989 0.02399406 0.01135868
v -0.01680576 0.01694382 0.01120921
v -0.01578864 0.01688653 0.01142995
v -0.01709456 0.02398769 0.01144399
v -0.01654196 0.02396427 0.01169773
v -0.01552494 0.02393243 0.01191990
v -0.01625300 0.02409827 0.01178811
v -0.01535244 0.02400049 0.01194368
v -0.01535098 0.02407299 0.01194696
v -0.01732690 0.02407329 0.01123959
v -0.01732545 0.02414436 0.01124286
v -0.01709160 0.02413031 0.01145055
v -0.01653900 0.02410779 0.01170428
v -0.01729741 0.04210133 0.01081021
v -0.01541397 0.04214565 0.01164726
v -0.01643080 0.04213913 0.01142498
v -0.01709878 0.04212031 0.01108722
v -0.01725940 0.04210789 0.01090190
v -0.01542774 0.03611136 0.01198303
v -0.01543769 0.03009129 0.01207564
v -0.01644479 0.03610181 0.01176051
v -0.01711283 0.03608871 0.01142169
v -0.01727338 0.03608184 0.01123565
v -0.01731132 0.03607851 0.01114359
v -0.01645471 0.03009978 0.01185296
v -0.01712274 0.03010626 0.01151393
v -0.01728328 0.03010832 0.01132778
v -0.01732122 0.03010903 0.01123567
f 43 61 60
f 120 130 119
f 135 122 134
f 50 29 129
f 129 29 119
f 119 132 129
f 194 130 140
f 194 140 244
f 119 130 131
f 131 132 119
f 131 130 194
f 194 132 131
f 73 71 70
f 61 43 46
f 60 61 63
f 63 64 65
f 169 132 194
f 195 169 194
f 50 129 152
f 169 195 152
f 152 129 132
f 132 169 152
f 119 29 118
f 118 126 119
f 62 42 60
f 119 42 62
f 119 126 128
f 128 42 119
f 126 42 128
f 41 43 60
f 41 46 43
f 139 140 130
f 78 79 77
f 141 244 140
f 81 79 78
f 72 73 70
f 70 114 72
f 6 69 71
f 6 73 4
f 71 73 6
f 6 139 130
f 4 140 6
f 140 139 6
f 130 120 11
f 11 12 130
f 11 65 67
f 67 12 11
f 171 173 241
f 241 236 235
f 45 46 44
f 45 44 61
f 61 46 45
f 47 34 122
f 122 34 105
f 32 34 44
f 167 135 198
f 167 136 135
f 167 168 136
f 60 63 59
f 59 63 65
f 134 123 23
f 23 22 134
f 92 94 95
f 95 94 96
f 94 149 96
f 88 96 89
f 164 135 134
f 276 272 277
f 267 272 270
f 272 276 270
f 277 272 273
f 267 149 148
f 148 149 94
f 94 92 148
f 28 118 29
f 60 2 1
f 1 62 60
f 119 62 1
f 1 120 119
f 1 2 120
f 60 42 39
f 46 41 39
f 42 36 39
f 78 77 76
f 76 77 74
f 74 77 75
f 75 72 74
f 73 72 75
f 10 77 79
f 79 81 10
f 171 174 83
f 138 141 7
f 7 81 138
f 141 10 7
f 7 10 81
f 277 273 278
f 244 249 248
f 194 244 248
f 138 81 137
f 81 83 137
f 138 137 246
f 69 6 5
f 67 69 5
f 5 12 67
f 130 12 5
f 5 6 130
f 230 236 115
f 230 229 235
f 235 236 230
f 115 236 116
f 116 78 115
f 205 241 173
f 236 241 205
f 205 116 236
f 109 116 205
f 44 34 48
f 34 47 48
f 61 44 48
f 48 47 61
f 103 105 34
f 64 84 66
f 66 84 85
f 66 69 67
f 65 11 3
f 3 59 65
f 3 11 120
f 120 2 3
f 3 2 60
f 60 59 3
f 37 36 35
f 155 164 134
f 134 22 20
f 20 155 134
f 19 155 20
f 153 90 58
f 58 152 153
f 50 152 58
f 15 123 17
f 15 23 123
f 22 23 52
f 52 20 22
f 190 88 89
f 95 96 97
f 96 88 97
f 198 135 166
f 166 197 198
f 135 197 166
f 135 164 165
f 165 197 135
f 165 164 201
f 201 197 165
f 274 278 273
f 268 272 267
f 268 273 272
f 267 148 268
f 118 28 27
f 40 41 60
f 60 39 40
f 40 39 41
f 4 73 8
f 73 75 8
f 8 140 4
f 8 75 77
f 80 83 81
f 80 81 78
f 78 116 80
f 80 116 109
f 277 278 262
f 249 278 279
f 279 248 249
f 278 274 279
f 193 195 194
f 194 248 193
f 193 248 195
f 245 249 244
f 244 141 245
f 245 141 138
f 138 246 245
f 168 167 199
f 199 167 198
f 136 168 200
f 200 133 136
f 168 199 200
f 200 199 213
f 113 230 115
f 115 78 113
f 78 76 113
f 113 76 74
f 196 200 213
f 133 200 196
f 196 111 133
f 229 230 222
f 230 113 222
f 34 32 33
f 33 103 34
f 32 103 33
f 30 103 32
f 134 122 124
f 124 123 134
f 122 105 13
f 105 103 13
f 13 124 122
f 123 124 13
f 17 123 16
f 17 16 101
f 107 111 108
f 108 114 70
f 133 111 87
f 136 133 87
f 122 135 87
f 135 136 87
f 64 63 121
f 121 84 64
f 121 63 61
f 85 84 121
f 61 47 121
f 121 47 122
f 106 85 107
f 107 66 106
f 106 66 85
f 69 66 68
f 68 66 107
f 70 71 68
f 71 69 68
f 68 108 70
f 107 108 68
f 127 35 36
f 127 42 126
f 127 36 42
f 126 118 127
f 19 20 51
f 51 52 50
f 20 52 51
f 95 97 25
f 91 58 90
f 23 15 54
f 54 52 23
f 176 259 174
f 184 259 176
f 235 229 234
f 177 185 170
f 170 190 89
f 177 180 237
f 180 238 237
f 237 185 177
f 160 97 88
f 198 197 211
f 201 157 210
f 210 157 209
f 210 197 201
f 210 211 197
f 172 83 174
f 174 259 172
f 172 259 83
f 247 137 83
f 247 246 137
f 248 279 275
f 275 279 274
f 269 274 273
f 273 268 269
f 154 268 148
f 154 148 92
f 153 269 154
f 154 269 268
f 154 90 153
f 154 92 90
f 9 8 77
f 77 10 9
f 9 10 141
f 9 141 140
f 140 8 9
f 82 205 173
f 82 173 171
f 109 205 82
f 82 80 109
f 171 83 82
f 83 80 82
f 250 278 249
f 249 262 250
f 250 262 278
f 110 196 114
f 111 196 110
f 114 108 110
f 110 108 111
f 229 222 221
f 214 196 213
f 213 221 214
f 214 221 222
f 114 196 214
f 112 222 113
f 112 113 74
f 114 214 112
f 112 214 222
f 74 72 112
f 112 72 114
f 37 30 31
f 31 30 32
f 38 30 37
f 123 13 14
f 14 13 103
f 14 16 123
f 103 101 14
f 14 101 16
f 86 87 111
f 107 85 86
f 86 111 107
f 122 87 86
f 86 121 122
f 85 121 86
f 156 155 19
f 19 157 156
f 156 157 201
f 201 164 156
f 164 155 156
f 161 242 215
f 25 242 161
f 161 24 25
f 157 24 161
f 19 91 21
f 21 157 19
f 21 24 157
f 49 91 19
f 58 91 49
f 19 51 49
f 93 92 95
f 90 92 93
f 93 91 90
f 24 21 93
f 93 21 91
f 95 25 93
f 25 24 93
f 18 15 17
f 18 98 15
f 15 98 56
f 56 54 15
f 271 183 181
f 271 270 276
f 240 241 235
f 235 234 240
f 171 241 240
f 228 234 229
f 229 221 228
f 179 180 177
f 181 180 179
f 179 271 181
f 270 271 179
f 188 170 143
f 143 170 185
f 266 149 267
f 267 270 266
f 89 96 151
f 151 96 149
f 149 266 151
f 151 266 170
f 26 25 97
f 97 242 26
f 26 242 25
f 204 160 208
f 185 237 208
f 204 224 202
f 185 146 147
f 88 190 145
f 145 146 185
f 198 211 212
f 212 211 219
f 212 199 198
f 213 199 212
f 217 226 218
f 218 209 217
f 218 210 209
f 218 226 219
f 219 211 218
f 211 210 218
f 265 269 153
f 153 152 265
f 265 152 195
f 195 248 265
f 248 275 265
f 265 275 274
f 274 269 265
f 57 100 27
f 57 27 28
f 98 100 57
f 57 56 98
f 27 100 102
f 102 100 101
f 101 100 99
f 99 100 98
f 17 101 99
f 99 18 17
f 98 18 99
f 206 207 209
f 209 157 206
f 183 271 260
f 260 259 184
f 184 183 260
f 182 183 184
f 182 180 181
f 181 183 182
f 182 238 180
f 175 174 171
f 171 240 175
f 175 176 174
f 184 176 175
f 175 182 184
f 270 179 178
f 178 266 270
f 170 266 178
f 177 170 178
f 178 179 177
f 150 170 89
f 89 151 150
f 150 151 170
f 225 224 204
f 225 232 226
f 225 226 217
f 217 224 225
f 216 224 217
f 217 209 216
f 209 207 216
f 216 161 215
f 215 242 216
f 242 224 216
f 159 160 88
f 159 208 160
f 162 242 97
f 97 202 162
f 162 202 224
f 163 202 97
f 204 202 163
f 144 147 188
f 185 147 144
f 188 143 144
f 144 143 185
f 146 187 186
f 186 147 146
f 188 147 186
f 186 170 188
f 186 187 170
f 88 145 142
f 142 145 185
f 142 192 88
f 185 208 142
f 208 192 142
f 189 187 146
f 146 145 189
f 189 145 190
f 190 170 189
f 170 187 189
f 220 228 221
f 220 221 213
f 213 212 220
f 220 212 219
f 234 228 233
f 83 259 254
f 261 262 249
f 262 261 252
f 277 262 252
f 249 245 251
f 251 245 246
f 251 261 249
f 251 252 261
f 55 57 28
f 52 54 55
f 118 27 117
f 27 102 117
f 125 127 118
f 125 102 127
f 118 117 125
f 125 117 102
f 104 101 103
f 104 102 101
f 103 30 104
f 30 38 104
f 104 38 37
f 37 35 104
f 35 127 104
f 127 102 104
f 207 206 243
f 243 216 207
f 161 216 243
f 157 161 243
f 243 206 157
f 231 225 204
f 232 225 231
f 204 208 231
f 231 208 237
f 231 237 238
f 238 232 231
f 158 159 88
f 208 159 158
f 223 224 242
f 242 162 223
f 223 162 224
f 97 160 203
f 203 163 97
f 203 160 204
f 204 163 203
f 226 232 227
f 232 233 227
f 219 226 227
f 227 233 228
f 227 220 219
f 228 220 227
f 239 175 240
f 182 175 239
f 239 240 234
f 234 233 239
f 238 182 239
f 239 232 238
f 239 233 232
f 258 264 256
f 258 271 276
f 276 264 258
f 253 247 83
f 83 254 253
f 253 258 256
f 254 258 253
f 246 247 253
f 253 251 246
f 53 29 50
f 50 52 53
f 52 55 53
f 53 28 29
f 53 55 28
f 191 192 208
f 208 158 191
f 88 192 191
f 191 158 88
f 257 254 259
f 257 258 254
f 259 260 257
f 257 260 271
f 271 258 257
f 252 251 255
f 251 253 255
f 255 253 256
f 277 252 263
f 252 255 263
f 263 276 277
f 263 264 276
f 256 264 263
f 263 255 256
f 65 64 66
f 67 65 66
f 44 46 31
f 46 39 31
f 31 32 44
f 31 36 37
f 31 39 36
f 49 51 50
f 50 58 49
f 56 57 55
f 54 56 55

