# https://github.com/mikedh/trimesh
v 0.00864069 -0.00696260 0.04610000
v 0.00885040 -0.00679507 0.04610000
v 0.01070148 -0.00400000 0.03808446
v 0.01105764 -0.00400000 0.03259164
v 0.01096044 0.00400000 0.03478383
v 0.01027950 -0.00400000 0.01862822
v 0.01056057 0.00400000 0.02080225
v 0.01076983 -0.00400000 0.02283861
v 0.01076983 0.00400000 0.02283861
v 0.01088053 -0.00400000 0.02419622
v 0.01083397 0.00400000 0.02359041
v 0.01103633 -0.00400000 0.02699216
v 0.01101079 0.00400000 0.02638630
v 0.01109538 -0.00400000 0.02979182
v 0.01109083 0.00400000 0.02918722
v 0.01109516 -0.00400000 0.03046315
v 0.01109516 0.00400000 0.03046315
v 0.01107393 0.00400000 0.03198925
v 0.00987126 0.00697924 0.03749138
v 0.01007906 0.00697924 0.03473278
v 0.01020831 0.00697924 0.02919716
v 0.01012895 0.00697924 0.02642677
v 0.01035307 0.00689503 0.02919553
v 0.01027356 0.00689503 0.02642013
v 0.01056257 0.00664524 0.02919317
v 0.01048286 0.00664524 0.02641053
v 0.01075195 0.00625084 0.02919104
v 0.01067205 0.00625084 0.02640185
v 0.01090717 0.00573268 0.02918929
v 0.01082712 0.00573268 0.02639472
v 0.01104728 0.00487551 0.02918771
v 0.01096709 0.00487551 0.02638830
v 0.01030698 0.00664524 0.02363288
v 0.01049576 0.00625084 0.02361766
v 0.01065049 0.00573268 0.02360518
v 0.01079015 0.00487551 0.02359392
v 0.00971167 0.00689503 0.04026296
v 0.01001541 0.00689503 0.03750474
v 0.01022403 0.00664524 0.03752407
v 0.01022358 0.00689503 0.03474116
v 0.01043275 0.00664524 0.03475327
v 0.01062182 0.00625084 0.03476422
v 0.01077680 0.00573268 0.03477319
v 0.01091668 0.00487551 0.03478130
v 0.01019154 0.00697924 0.03196865
v 0.01033627 0.00689503 0.03197204
v 0.01054573 0.00664524 0.03197692
v 0.01073507 0.00625084 0.03198133
v 0.01089026 0.00573268 0.03198496
v 0.01103035 0.00487551 0.03198823
v 0.01037764 0.00573268 0.02082340
v 0.01051683 0.00487551 0.02080731
v 0.00921362 -0.00689503 0.04360608
v 0.00942015 -0.00664524 0.04364134
v 0.01015440 -0.00697924 0.02702602
v 0.01021283 -0.00697924 0.02979517
v 0.01017547 -0.00697924 0.03256449
v 0.01004244 -0.00697924 0.03533086
v 0.00981381 -0.00697924 0.03809191
v 0.01029123 -0.00625084 0.02144340
v 0.01044556 -0.00573268 0.02142674
v 0.01058487 -0.00487552 0.02141169
v 0.01014468 -0.00689503 0.02424999
v 0.01035364 -0.00664524 0.02423473
v 0.01054253 -0.00625084 0.02422092
v 0.01069734 -0.00573268 0.02420960
v 0.01083709 -0.00487552 0.02419940
v 0.01029906 -0.00689503 0.02702047
v 0.01050842 -0.00664524 0.02701243
v 0.01069767 -0.00625084 0.02700517
v 0.01085278 -0.00573268 0.02699921
v 0.01099280 -0.00487552 0.02699383
v 0.01035760 -0.00689503 0.02979462
v 0.01056711 -0.00664524 0.02979382
v 0.01075650 -0.00625084 0.02979311
v 0.01091173 -0.00573268 0.02979251
v 0.01105185 -0.00487552 0.02979198
v 0.01032018 -0.00689503 0.03256895
v 0.01052959 -0.00664524 0.03257539
v 0.01071890 -0.00625084 0.03258122
v 0.01087406 -0.00573268 0.03258599
v 0.01101410 -0.00487552 0.03259030
v 0.01018690 -0.00689503 0.03534032
v 0.01039597 -0.00664524 0.03535400
v 0.01058496 -0.00625084 0.03536636
v 0.01073986 -0.00573268 0.03537650
v 0.01087967 -0.00487552 0.03538565
v 0.00995785 -0.00689503 0.03810634
v 0.01016632 -0.00664524 0.03812724
v 0.01035477 -0.00625084 0.03814614
v 0.01050922 -0.00573268 0.03816162
v 0.00963327 -0.00689503 0.04086281
v 0.00984089 -0.00664524 0.04089089
v -0.01160044 -0.00231144 0.04828810
v -0.01160044 -0.00308076 0.04818302
v -0.01160044 -0.00369446 0.04770734
v -0.01160044 -0.00398810 0.04698855
v -0.01160044 0.00248423 0.04829992
v -0.01160044 0.00323631 0.04810684
v -0.01160044 0.00379108 0.04756361
v -0.01160044 0.00399992 0.04681576
v -0.00203516 -0.00815000 0.00117500
v -0.00117500 -0.00815000 0.00203516
v 0.00000000 -0.00815000 0.00235000
v 0.00117500 -0.00815000 0.00203516
v 0.00203516 -0.00815000 0.00117500
v 0.00235000 -0.00815000 0.00000000
v 0.00203516 -0.00815000 -0.00117500
v 0.00117500 -0.00815000 -0.00203516
v 0.00000000 -0.00815000 -0.00235000
v -0.00117500 -0.00815000 -0.00203516
v -0.00203516 -0.00815000 -0.00117500
v -0.00235000 -0.00815000 0.00000000
v -0.01210000 -0.00568856 0.00851190
v -0.01210000 -0.00640735 0.00880554
v -0.01210000 -0.00688301 0.00941925
v -0.01210000 -0.00698810 0.01018856
v -0.01210000 -0.00669446 0.01090734
v -0.01210000 -0.00608076 0.01138301
v -0.01210000 -0.00531144 0.01148810
v -0.00583930 0.00750000 -0.00546833
v -0.00495328 0.00750000 -0.00628212
v 0.00067863 0.00750000 -0.00797117
v 0.00186625 0.00750000 -0.00777928
v 0.00793127 0.00750000 -0.00104644
v 0.00768467 0.00750000 -0.00222392
v 0.00726430 0.00750000 -0.00335111
v 0.00667965 0.00750000 -0.00440253
v 0.00594395 0.00750000 -0.00535438
v 0.00507384 0.00750000 -0.00618515
v 0.00408899 0.00750000 -0.00687606
v 0.00301167 0.00750000 -0.00741147
v -0.00052435 0.00750000 -0.00798280
v -0.00171546 0.00750000 -0.00781391
v -0.00286778 0.00750000 -0.00746832
v -0.00395526 0.00750000 -0.00695384
v -0.00659326 0.00750000 -0.00453088
v -0.00719813 0.00750000 -0.00349097
v -0.00764023 0.00750000 -0.00237212
v -0.00750000 0.00800000 0.01420000
v -0.00750000 0.00800000 0.00000000
v -0.00268855 0.00800000 -0.00700155
v -0.00370805 0.00800000 -0.00651923
v 0.00742195 0.00800000 0.01420000
v -0.00464370 0.00800000 -0.00588948
v -0.00547434 0.00800000 -0.00512656
v -0.00618118 0.00800000 -0.00424770
v -0.00674825 0.00800000 -0.00327279
v -0.00716271 0.00800000 -0.00222386
v -0.00741520 0.00800000 -0.00112465
v -0.00160824 0.00800000 -0.00732554
v -0.00049158 0.00800000 -0.00748387
v 0.00626217 0.00800000 -0.00412737
v 0.00681028 0.00800000 -0.00314167
v 0.00720438 0.00800000 -0.00208493
v 0.00743556 0.00800000 -0.00098104
v 0.00747110 0.00800000 -0.00022487
v 0.00383343 0.00800000 -0.00644630
v 0.00475673 0.00800000 -0.00579859
v 0.00557246 0.00800000 -0.00501973
v 0.00282344 0.00800000 -0.00694825
v 0.00174961 0.00800000 -0.00729307
v 0.00063621 0.00800000 -0.00747297
v -0.00766237 0.00793301 -0.00116213
v -0.00740147 0.00793301 -0.00229799
v -0.00697319 0.00793301 -0.00338188
v -0.00638723 0.00793301 -0.00438929
v -0.00565682 0.00793301 -0.00529744
v -0.00479849 0.00793301 -0.00608580
v -0.00383165 0.00793301 -0.00673654
v -0.00277816 0.00793301 -0.00723494
v -0.00166186 0.00793301 -0.00756972
v -0.00050796 0.00793301 -0.00773334
v 0.00065742 0.00793301 -0.00772206
v 0.00180793 0.00793301 -0.00753617
v 0.00291756 0.00793301 -0.00717986
v 0.00396121 0.00793301 -0.00666118
v 0.00491528 0.00793301 -0.00599187
v 0.00575820 0.00793301 -0.00518706
v 0.00647091 0.00793301 -0.00426495
v 0.00703729 0.00793301 -0.00324640
v 0.00744452 0.00793301 -0.00215442
v 0.00768341 0.00793301 -0.00101374
v -0.00757625 0.00775000 -0.00235225
v -0.00713786 0.00775000 -0.00346174
v -0.00653806 0.00775000 -0.00449294
v -0.00579040 0.00775000 -0.00542254
v -0.00491181 0.00775000 -0.00622951
v -0.00392213 0.00775000 -0.00689562
v -0.00284377 0.00775000 -0.00740579
v -0.00170110 0.00775000 -0.00774848
v -0.00051996 0.00775000 -0.00791595
v 0.00067294 0.00775000 -0.00790442
v 0.00185062 0.00775000 -0.00771414
v 0.00298645 0.00775000 -0.00734941
v 0.00405475 0.00775000 -0.00681848
v 0.00503136 0.00775000 -0.00613336
v 0.00589418 0.00775000 -0.00530954
v 0.00662372 0.00775000 -0.00436567
v 0.00720347 0.00775000 -0.00332306
v 0.00762032 0.00775000 -0.00220530
v 0.00786485 0.00775000 -0.00103768
v 0.00772093 0.00793301 -0.00021557
v 0.00760833 0.00796343 0.01416805
v -0.01210000 0.00568856 0.01148810
v -0.01210000 0.00531144 0.00851190
v -0.01210000 0.00608076 0.00861699
v -0.01210000 0.00669446 0.00909265
v -0.01210000 0.00640735 0.01119445
v -0.01210000 0.00688301 0.01058076
v -0.01210000 0.00698810 0.00981145
v 0.00158675 0.00805000 0.01316100
v 0.00141325 0.00805000 0.01183900
v 0.00216100 0.00805000 0.01241324
v 0.00202906 0.00805000 0.01209437
v 0.00175536 0.00805000 0.01188418
v 0.00190563 0.00805000 0.01302906
v 0.00211582 0.00805000 0.01275536
v -0.00416100 0.00805000 0.01258676
v -0.00402906 0.00805000 0.01290563
v -0.00375536 0.00805000 0.01311582
v -0.00341324 0.00805000 0.01316100
v -0.00358676 0.00805000 0.01183900
v -0.00390563 0.00805000 0.01197094
v -0.00411582 0.00805000 0.01224463
v -0.00700000 -0.00800000 0.00000000
v 0.00793127 -0.00700000 -0.00104644
v 0.00779844 -0.00750000 -0.00102892
v 0.00755598 -0.00750000 -0.00218668
v 0.00743556 -0.00786603 -0.00098104
v 0.00720438 -0.00786603 -0.00208493
v 0.00693986 -0.00800000 -0.00091564
v 0.00672409 -0.00800000 -0.00194594
v 0.00635626 -0.00800000 -0.00293223
v 0.00681028 -0.00786603 -0.00314167
v 0.00584469 -0.00800000 -0.00385221
v 0.00626217 -0.00786603 -0.00412737
v 0.00520096 -0.00800000 -0.00468508
v 0.00557246 -0.00786603 -0.00501973
v 0.00443961 -0.00800000 -0.00541201
v 0.00475673 -0.00786603 -0.00579859
v 0.00357787 -0.00800000 -0.00601655
v 0.00383343 -0.00786603 -0.00644630
v 0.00263521 -0.00800000 -0.00648503
v 0.00282344 -0.00786603 -0.00694825
v 0.00163297 -0.00800000 -0.00680687
v 0.00174961 -0.00786603 -0.00729307
v 0.00059380 -0.00800000 -0.00697477
v 0.00063621 -0.00786603 -0.00747297
v -0.00045880 -0.00800000 -0.00698495
v -0.00049158 -0.00786603 -0.00748387
v -0.00150103 -0.00800000 -0.00683717
v -0.00160824 -0.00786603 -0.00732554
v -0.00250931 -0.00800000 -0.00653478
v -0.00268855 -0.00786603 -0.00700155
v -0.00346085 -0.00800000 -0.00608461
v -0.00370805 -0.00786603 -0.00651923
v -0.00433412 -0.00800000 -0.00549685
v -0.00464370 -0.00786603 -0.00588948
v -0.00510938 -0.00800000 -0.00478479
v -0.00547434 -0.00786603 -0.00512656
v -0.00576911 -0.00800000 -0.00396452
v -0.00618118 -0.00786603 -0.00424770
v -0.00629837 -0.00800000 -0.00305460
v -0.00674825 -0.00786603 -0.00327279
v -0.00668520 -0.00800000 -0.00207560
v -0.00716271 -0.00786603 -0.00222386
v -0.00692085 -0.00800000 -0.00104967
v -0.00741520 -0.00786603 -0.00112465
v 0.00714264 -0.00750000 -0.00329500
v 0.00656779 -0.00750000 -0.00432880
v 0.00584441 -0.00750000 -0.00526471
v 0.00498887 -0.00750000 -0.00608157
v 0.00402051 -0.00750000 -0.00676090
v 0.00296124 -0.00750000 -0.00728735
v 0.00183500 -0.00750000 -0.00764900
v 0.00066726 -0.00750000 -0.00783768
v -0.00051556 -0.00750000 -0.00784911
v -0.00168673 -0.00750000 -0.00768305
v -0.00281976 -0.00750000 -0.00734325
v -0.00388902 -0.00750000 -0.00683739
v -0.00487033 -0.00750000 -0.00617691
v -0.00574151 -0.00750000 -0.00537675
v -0.00648285 -0.00750000 -0.00445500
v -0.00707759 -0.00750000 -0.00343250
v -0.00751228 -0.00750000 -0.00233239
v 0.00768467 -0.00700000 -0.00222392
v 0.00726430 -0.00700000 -0.00335111
v 0.00667965 -0.00700000 -0.00440253
v 0.00594395 -0.00700000 -0.00535438
v 0.00507384 -0.00700000 -0.00618515
v 0.00408899 -0.00700000 -0.00687606
v 0.00301167 -0.00700000 -0.00741147
v 0.00186625 -0.00700000 -0.00777928
v 0.00067863 -0.00700000 -0.00797117
v -0.00052435 -0.00700000 -0.00798280
v -0.00171546 -0.00700000 -0.00781391
v -0.00286778 -0.00700000 -0.00746832
v -0.00395526 -0.00700000 -0.00695384
v -0.00495328 -0.00700000 -0.00628212
v -0.00583930 -0.00700000 -0.00546833
v -0.00659326 -0.00700000 -0.00453088
v -0.00719813 -0.00700000 -0.00349097
v -0.00764023 -0.00700000 -0.00237212
v 0.00697145 -0.00800000 -0.00024348
v 0.00747110 -0.00786603 -0.00022487
v -0.01100000 -0.00400000 0.05990877
v -0.01100000 0.00550000 0.05990877
v -0.01050000 0.00600000 0.05990877
v -0.01050000 -0.00450000 0.05990877
v -0.01071892 0.00550000 0.06117662
v -0.01026577 0.00600000 0.06096531
v -0.00992836 0.00550000 0.06220690
v -0.00960697 0.00600000 0.06182388
v -0.00960697 -0.00450000 0.06182388
v -0.00992836 -0.00400000 0.06220690
v -0.01071892 -0.00400000 0.06117662
v -0.01026577 -0.00450000 0.06096531
v 0.00950000 -0.00400000 0.05580000
v 0.00437500 -0.00450000 0.06381073
v 0.00462500 -0.00400000 0.06424374
v 0.00629074 -0.00450000 0.06234074
v 0.00664429 -0.00400000 0.06269429
v 0.00776073 -0.00450000 0.06042501
v 0.00819375 -0.00400000 0.06067500
v 0.00868481 -0.00450000 0.05819408
v 0.00916778 -0.00400000 0.05832348
v -0.00075000 -0.00450000 0.06609999
v -0.00095711 -0.00400000 0.06660000
v -0.00432890 -0.00400000 0.06660000
v -0.00432890 -0.00450000 0.06609999
v -0.00467092 -0.00400000 0.06653970
v -0.00449991 -0.00450000 0.06606985
v -0.00497169 -0.00400000 0.06636604
v -0.00465029 -0.00450000 0.06598302
v -0.00465029 0.00600000 0.06598302
v -0.00497169 0.00550000 0.06636604
v -0.00467092 0.00550000 0.06653970
v -0.00449991 0.00600000 0.06606985
v -0.00432890 0.00550000 0.06660000
v -0.00432890 0.00600000 0.06609999
v -0.00095711 0.00550000 0.06660000
v -0.00075000 0.00600000 0.06609999
v 0.00462500 0.00550000 0.06424374
v 0.00437500 0.00600000 0.06381073
v 0.00664429 0.00550000 0.06269429
v 0.00629074 0.00600000 0.06234074
v 0.00819375 0.00550000 0.06067500
v 0.00776073 0.00600000 0.06042501
v 0.00916778 0.00550000 0.05832348
v 0.00868481 0.00600000 0.05819408
v 0.00950000 0.00550000 0.05580000
v 0.00900000 0.00600000 0.05580000
v -0.00075000 -0.00379289 0.06660000
v -0.00075000 0.00529289 0.06660000
v 0.00700000 -0.00800000 0.01464120
v 0.00733635 -0.00794174 0.01454619
v -0.00735642 -0.00793433 0.01454199
v -0.00700000 0.00800000 0.04595879
v -0.00547129 0.00800000 0.04610000
v -0.00738268 0.00792388 0.04606325
v 0.00729760 -0.00795469 0.04604521
v 0.00700000 -0.00800000 0.04595879
v 0.00547129 -0.00800000 0.04610000
v 0.00750000 -0.00786603 0.04608282
v 0.00770710 -0.00770712 0.04609852
v 0.00547129 0.00800000 0.04610000
v 0.00700000 0.00800000 0.04595879
v 0.00770711 0.00770711 0.04609852
v 0.00738268 0.00792388 0.04606325
v -0.00547129 -0.00800000 0.04610000
v -0.00700000 -0.00800000 0.04595879
v -0.00729760 -0.00795469 0.04604521
v -0.00770711 -0.00770710 0.04609852
v -0.00750000 -0.00786603 0.04608282
f 98 307 308
f 98 94 307
f 94 98 120
f 101 100 308
f 308 100 99
f 99 98 308
f 361 140 211
f 361 359 140
f 140 359 219
f 205 120 98
f 98 99 205
f 94 120 95
f 307 94 95
f 119 95 120
f 211 140 141
f 140 219 141
f 347 368 345
f 368 343 345
f 367 343 368
f 6 8 227
f 201 125 126
f 362 357 56
f 351 349 348
f 348 349 347
f 18 17 50
f 316 317 315
f 100 101 210
f 308 211 210
f 210 101 308
f 96 97 307
f 307 95 96
f 288 287 270
f 362 320 328
f 328 363 362
f 322 320 362
f 362 324 322
f 321 354 329
f 321 322 323
f 320 322 321
f 329 328 321
f 321 328 320
f 314 311 313
f 18 50 5
f 5 4 18
f 87 4 5
f 86 87 319
f 319 5 352
f 78 56 73
f 70 76 75
f 75 76 80
f 368 204 144
f 144 214 368
f 203 204 21
f 370 204 368
f 370 37 38
f 370 349 351
f 370 368 347
f 347 349 370
f 368 214 218
f 218 217 368
f 212 367 368
f 368 217 212
f 350 352 351
f 351 348 350
f 325 326 327
f 324 326 325
f 323 322 325
f 325 322 324
f 346 348 347
f 8 6 7
f 7 9 8
f 227 125 7
f 7 6 227
f 318 315 317
f 318 317 307
f 95 119 118
f 118 96 95
f 209 99 100
f 100 210 209
f 209 205 99
f 293 292 275
f 293 275 294
f 289 288 271
f 288 270 271
f 229 287 227
f 229 270 287
f 290 272 273
f 289 271 290
f 290 271 272
f 150 141 219
f 211 141 150
f 150 164 211
f 155 214 156
f 327 326 2
f 359 314 336
f 308 311 312
f 311 314 312
f 359 361 312
f 312 314 359
f 87 5 3
f 3 319 87
f 5 319 3
f 365 366 326
f 365 324 362
f 365 326 324
f 85 79 80
f 88 89 92
f 92 365 88
f 93 319 327
f 93 89 319
f 92 89 93
f 71 76 70
f 72 76 71
f 77 76 72
f 80 76 81
f 86 85 81
f 81 85 80
f 76 77 81
f 81 87 86
f 356 357 362
f 356 305 357
f 362 363 356
f 70 69 64
f 64 65 70
f 89 88 83
f 74 69 70
f 70 75 74
f 80 79 74
f 74 75 80
f 74 78 73
f 74 79 78
f 157 203 156
f 204 203 157
f 157 144 204
f 156 214 157
f 214 144 157
f 352 38 353
f 38 37 353
f 351 352 353
f 353 37 351
f 351 37 369
f 369 370 351
f 37 370 369
f 25 47 48
f 48 47 41
f 359 360 222
f 347 345 344
f 344 346 347
f 344 345 343
f 14 77 12
f 12 77 72
f 8 9 11
f 15 17 14
f 14 12 15
f 15 12 13
f 52 7 125
f 9 7 52
f 48 43 49
f 49 43 50
f 44 5 50
f 50 43 44
f 352 5 44
f 44 43 352
f 310 318 307
f 374 375 310
f 310 375 318
f 272 271 239
f 274 292 273
f 274 275 292
f 171 170 142
f 190 136 189
f 135 136 190
f 189 170 190
f 170 171 190
f 298 297 279
f 295 278 296
f 279 297 296
f 296 278 279
f 273 292 291
f 291 290 273
f 201 126 127
f 207 138 206
f 184 208 211
f 184 207 208
f 147 146 168
f 142 170 143
f 214 155 154
f 214 154 215
f 330 332 333
f 333 332 334
f 53 365 92
f 366 365 53
f 327 2 53
f 341 360 359
f 309 211 308
f 308 312 309
f 309 361 211
f 309 312 361
f 86 319 91
f 319 89 90
f 89 85 90
f 90 91 319
f 90 85 86
f 86 91 90
f 84 85 89
f 79 85 84
f 89 83 84
f 78 79 84
f 84 83 78
f 16 77 14
f 14 17 16
f 16 17 18
f 18 4 16
f 82 4 87
f 87 81 82
f 82 81 77
f 82 16 4
f 77 16 82
f 357 305 306
f 306 56 357
f 306 55 56
f 66 65 60
f 60 61 66
f 70 65 66
f 66 71 70
f 72 71 66
f 227 8 62
f 62 66 61
f 62 61 227
f 228 229 227
f 65 64 228
f 60 65 228
f 228 64 63
f 227 61 228
f 228 61 60
f 57 365 362
f 362 56 57
f 56 78 57
f 59 88 365
f 59 83 88
f 201 182 183
f 156 203 183
f 183 155 156
f 182 155 183
f 19 370 38
f 19 20 370
f 47 25 46
f 46 41 47
f 24 183 203
f 39 38 352
f 352 41 39
f 39 41 38
f 42 43 48
f 48 41 42
f 352 43 42
f 42 41 352
f 220 219 359
f 13 12 10
f 10 11 13
f 8 11 10
f 10 12 72
f 13 11 32
f 33 34 202
f 183 24 202
f 202 35 125
f 202 34 35
f 202 125 201
f 201 183 202
f 125 35 51
f 51 52 125
f 36 11 9
f 9 52 36
f 36 32 11
f 36 51 35
f 52 51 36
f 27 25 48
f 48 49 27
f 49 29 27
f 237 271 270
f 237 239 271
f 275 274 243
f 124 123 194
f 123 193 194
f 195 131 132
f 195 194 175
f 132 124 195
f 124 194 195
f 213 216 163
f 189 136 122
f 277 278 295
f 295 294 277
f 247 246 249
f 278 277 249
f 191 134 135
f 135 190 191
f 191 171 172
f 191 190 171
f 133 134 191
f 304 114 303
f 304 115 114
f 116 267 117
f 226 358 117
f 117 375 374
f 374 310 117
f 117 310 307
f 307 97 117
f 284 302 301
f 264 266 265
f 265 266 267
f 264 265 262
f 262 265 263
f 259 258 261
f 282 259 261
f 261 262 263
f 281 259 282
f 281 299 298
f 201 127 200
f 211 164 165
f 165 184 211
f 165 150 149
f 164 150 165
f 138 207 139
f 207 184 139
f 187 122 121
f 149 150 225
f 225 150 219
f 159 215 160
f 216 215 159
f 158 216 159
f 330 333 331
f 372 371 331
f 331 333 372
f 335 333 334
f 363 328 364
f 366 53 1
f 1 53 2
f 326 366 1
f 1 2 326
f 54 93 327
f 327 53 54
f 92 93 54
f 54 53 92
f 342 355 344
f 342 344 343
f 338 340 339
f 340 341 339
f 337 338 339
f 339 336 337
f 359 336 339
f 339 341 359
f 73 56 68
f 56 55 68
f 55 306 68
f 68 74 73
f 69 74 68
f 63 64 68
f 68 64 69
f 72 66 67
f 66 62 67
f 67 10 72
f 67 62 8
f 8 10 67
f 58 59 365
f 83 59 58
f 365 57 58
f 78 83 58
f 58 57 78
f 45 46 21
f 370 20 45
f 21 204 45
f 204 370 45
f 40 19 38
f 20 19 40
f 38 41 40
f 41 46 40
f 40 45 20
f 46 45 40
f 22 203 21
f 21 24 22
f 22 24 203
f 23 46 25
f 25 24 23
f 21 46 23
f 23 24 21
f 26 24 25
f 26 34 33
f 33 202 26
f 26 202 24
f 359 222 221
f 221 220 359
f 31 15 13
f 13 32 31
f 31 50 17
f 17 15 31
f 31 49 50
f 31 29 49
f 35 34 30
f 30 27 29
f 30 36 35
f 32 36 30
f 29 31 30
f 30 31 32
f 270 229 231
f 229 228 231
f 241 239 240
f 273 272 241
f 272 239 241
f 241 274 273
f 241 243 274
f 242 241 240
f 243 241 242
f 192 123 133
f 192 193 123
f 133 191 192
f 176 195 175
f 158 176 161
f 161 176 175
f 161 216 158
f 151 171 142
f 172 171 151
f 142 223 151
f 189 122 188
f 188 170 189
f 188 169 170
f 122 187 188
f 168 169 188
f 188 187 168
f 276 294 275
f 276 277 294
f 247 249 276
f 276 249 277
f 250 249 248
f 248 249 246
f 253 255 279
f 116 115 286
f 115 304 286
f 286 267 116
f 286 265 267
f 267 266 268
f 226 117 268
f 300 281 282
f 299 281 300
f 260 261 258
f 262 261 260
f 282 261 283
f 284 301 283
f 283 263 284
f 283 261 263
f 301 300 283
f 283 300 282
f 259 281 257
f 257 281 255
f 257 258 259
f 280 298 279
f 280 281 298
f 279 255 280
f 255 281 280
f 129 130 197
f 197 198 129
f 197 130 131
f 199 127 128
f 199 200 127
f 199 128 129
f 129 198 199
f 181 155 182
f 181 154 155
f 181 182 201
f 201 200 181
f 200 199 181
f 146 147 224
f 147 225 224
f 224 223 142
f 142 143 224
f 372 333 373
f 333 335 373
f 373 335 315
f 375 117 373
f 315 318 373
f 318 375 373
f 373 117 358
f 373 226 372
f 373 358 226
f 27 30 28
f 25 27 28
f 28 26 25
f 34 26 28
f 28 30 34
f 230 231 228
f 230 228 63
f 232 231 230
f 63 68 230
f 230 68 306
f 230 305 232
f 230 306 305
f 233 231 232
f 233 234 231
f 235 234 237
f 231 234 235
f 235 237 270
f 270 231 235
f 240 239 238
f 245 246 247
f 243 242 245
f 275 243 245
f 245 276 275
f 247 276 245
f 174 163 175
f 175 194 174
f 174 194 193
f 175 163 162
f 162 161 175
f 162 163 216
f 216 161 162
f 172 151 173
f 163 174 173
f 173 191 172
f 173 192 191
f 193 192 173
f 173 174 193
f 251 249 250
f 278 249 251
f 279 278 251
f 251 253 279
f 252 251 250
f 253 251 252
f 252 254 255
f 255 253 252
f 285 304 303
f 285 286 304
f 303 302 285
f 285 302 284
f 265 286 285
f 284 263 285
f 263 265 285
f 269 117 267
f 267 268 269
f 269 268 117
f 258 257 256
f 255 254 256
f 256 257 255
f 198 197 178
f 180 181 199
f 149 225 148
f 148 225 147
f 148 165 149
f 148 166 165
f 167 147 168
f 167 148 147
f 166 148 167
f 146 224 145
f 145 224 143
f 168 146 145
f 145 169 168
f 145 143 170
f 170 169 145
f 239 237 236
f 236 238 239
f 237 234 236
f 246 245 244
f 244 245 242
f 163 173 152
f 152 173 151
f 152 151 223
f 223 213 152
f 213 163 152
f 158 159 177
f 159 178 177
f 177 176 158
f 198 178 179
f 179 199 198
f 179 180 199
f 160 180 179
f 179 159 160
f 179 178 159
f 153 180 160
f 160 215 153
f 153 215 154
f 154 181 153
f 181 180 153
f 168 187 186
f 186 167 168
f 121 137 186
f 186 187 121
f 195 176 196
f 176 177 196
f 131 195 196
f 196 197 131
f 196 178 197
f 196 177 178
f 166 167 185
f 167 186 185
f 185 137 138
f 185 186 137
f 138 139 185
f 185 139 184
f 184 165 185
f 165 166 185
f 363 364 104
f 104 364 371
f 104 371 372
f 246 244 109
f 109 244 242
f 109 242 240
f 240 238 109
f 372 102 103
f 103 104 372
f 110 248 246
f 246 109 110
f 250 248 110
f 110 252 250
f 238 236 108
f 108 109 238
f 108 236 234
f 234 233 108
f 254 252 111
f 252 110 111
f 111 256 254
f 258 256 111
f 111 260 258
f 107 233 232
f 107 108 233
f 232 305 107
f 305 356 107
f 107 356 363
f 262 260 112
f 260 111 112
f 264 262 112
f 112 266 264
f 106 107 363
f 113 268 266
f 266 112 113
f 226 268 113
f 372 226 113
f 113 102 372
f 363 104 105
f 105 106 363
f 334 337 313
f 313 316 334
f 227 287 126
f 126 125 227
f 332 337 334
f 332 338 337
f 307 317 311
f 308 307 311
f 316 313 311
f 311 317 316
f 338 332 340
f 340 332 330
f 350 319 352
f 327 319 350
f 327 350 325
f 325 350 348
f 346 325 348
f 323 325 346
f 132 293 294
f 294 124 132
f 131 293 132
f 131 292 293
f 128 290 129
f 289 290 128
f 138 114 206
f 303 114 138
f 336 313 337
f 336 314 313
f 222 360 367
f 367 212 222
f 323 346 344
f 344 321 323
f 124 294 123
f 123 294 295
f 296 123 295
f 133 123 296
f 297 298 134
f 134 298 135
f 133 296 134
f 134 296 297
f 127 126 287
f 127 287 288
f 289 128 127
f 127 288 289
f 303 138 137
f 137 302 303
f 321 344 355
f 354 321 355
f 343 367 341
f 367 360 341
f 135 298 299
f 299 136 135
f 211 208 117
f 117 210 211
f 205 209 117
f 206 114 117
f 120 205 117
f 117 119 120
f 117 207 206
f 114 115 117
f 117 118 119
f 117 209 210
f 117 115 116
f 208 207 117
f 97 96 117
f 96 118 117
f 302 137 301
f 301 137 121
f 129 290 130
f 290 291 130
f 292 131 130
f 130 291 292
f 329 330 331
f 331 328 329
f 334 316 335
f 316 315 335
f 328 331 364
f 364 331 371
f 343 341 342
f 342 341 340
f 329 354 342
f 342 330 329
f 342 340 330
f 354 355 342
f 136 299 300
f 300 122 136
f 300 301 121
f 121 122 300
f 214 215 224
f 224 218 214
f 224 213 223
f 219 220 224
f 217 218 224
f 224 212 217
f 224 216 213
f 224 222 212
f 224 215 216
f 224 225 219
f 224 221 222
f 220 221 224
f 102 113 105
f 105 103 102
f 104 103 105
f 105 110 109
f 109 108 105
f 105 111 110
f 108 107 105
f 105 112 111
f 107 106 105
f 105 113 112

