# https://github.com/mikedh/trimesh
v -0.01100000 0.00550000 0.00201332
v -0.01439541 0.00469133 -0.01292768
v -0.01393991 0.00516954 -0.01358248
v -0.01419843 0.00491556 -0.01330470
v -0.01433690 0.00476265 -0.01306938
v -0.01341400 0.00562039 -0.01389025
v -0.01331566 0.00569840 -0.01392703
v -0.00870685 -0.00666405 0.00084422
v -0.01034344 -0.00621437 0.00138183
v -0.00888896 -0.00746916 0.00088250
v -0.01015111 -0.00647308 0.00129121
v -0.01160382 -0.00113516 0.00218224
v -0.01156899 -0.00158404 0.00216660
v -0.01155453 -0.00174351 0.00215931
v -0.01069487 -0.00559738 0.00157352
v -0.01160382 0.00113516 0.00218224
v -0.01160425 0.00037166 0.00218347
v -0.01161854 0.00113545 0.00218584
v -0.01164604 0.00113596 0.00218949
v -0.01171269 0.00114065 0.00218232
v -0.01170675 0.00114039 0.00218390
v -0.01167164 0.00159297 0.00216833
v -0.01182092 0.00114441 0.00210626
v -0.01179688 0.00114382 0.00213404
v -0.01176171 0.00159863 0.00211856
v -0.01177326 0.00114306 0.00215350
v -0.01181527 0.00159951 0.00203051
v -0.01185079 0.00114476 0.00204418
v -0.01165713 0.00175315 0.00216107
v -0.01174721 0.00175912 0.00211136
v -0.01180085 0.00175985 0.00202335
v -0.01158781 0.00305416 0.00201285
v -0.01164233 0.00305308 0.00192532
v -0.01142122 0.00420316 0.00176380
v -0.00949310 0.00722809 0.00100829
v -0.01022390 0.00667723 0.00118738
v -0.01011061 0.00680196 0.00114025
v -0.01004494 0.00686937 0.00111417
v -0.00955173 0.00728402 0.00094406
v -0.01056091 0.00631117 0.00122960
v -0.01035805 0.00658396 0.00113396
v -0.01030375 0.00664945 0.00111002
v -0.01028994 0.00666564 0.00110403
v -0.01028648 0.00666968 0.00110254
v -0.01027257 0.00668579 0.00109656
v -0.01015791 0.00681194 0.00104886
v -0.01009141 0.00688015 0.00102246
v -0.00959131 0.00729998 0.00084989
v -0.00893819 0.00755763 0.00086142
v -0.00892556 0.00753710 0.00087152
v -0.00901745 0.00763972 0.00069743
v -0.00933979 0.00746326 0.00077808
v -0.00899508 0.00762939 0.00077139
v -0.00898521 0.00762004 0.00079369
v -0.00896282 0.00759336 0.00083251
v -0.00872067 0.00751838 0.00081111
v -0.00867938 0.00753023 0.00078085
v -0.00858462 0.00755721 0.00067943
v -0.00853659 0.00757091 0.00059551
v -0.00850781 0.00757930 0.00051394
v -0.00864396 0.00702641 0.00077425
v -0.00867516 0.00702641 0.00080186
v -0.00878290 0.00702641 0.00086877
v -0.00800000 0.00804280 -0.04670000
v -0.00800000 0.00803154 -0.04680499
v -0.00800000 0.00796842 -0.04696117
v -0.00800000 0.00770621 -0.04717137
v -0.00800000 0.00785566 -0.04708852
v -0.00800000 0.00753776 -0.04720000
v -0.00800000 -0.00753776 -0.04720000
v -0.00800000 -0.00765339 -0.04718672
v -0.00800000 -0.00773098 -0.04716196
v -0.00800000 -0.00801476 -0.04686426
v -0.00800000 -0.00793401 -0.04701000
v -0.00800000 -0.00780928 -0.04712159
v -0.00800000 -0.00804280 -0.04670000
v -0.00769355 -0.00808037 -0.00408997
v -0.00721630 -0.00807383 -0.00484872
v -0.00877038 -0.00776862 0.00038288
v -0.00882340 -0.00773695 0.00056480
v -0.00889006 -0.00770329 0.00063623
v -0.01092782 -0.00566726 0.00142978
v -0.01080813 -0.00615567 0.00068407
v -0.01169826 -0.00530908 -0.00070548
v -0.01422329 -0.00488805 -0.01325558
v -0.01411941 -0.00499565 -0.01339425
v -0.01400606 -0.00504810 -0.01285470
v -0.01380697 -0.00528955 -0.01367638
v -0.01439348 -0.00469134 -0.01290898
v -0.01409167 -0.00469117 -0.01056439
v -0.01164233 -0.00305308 0.00192532
v -0.01180085 -0.00175985 0.00202335
v -0.01181527 -0.00159951 0.00203051
v -0.01185079 -0.00114476 0.00204418
v -0.01142122 -0.00420316 0.00176380
v -0.01122332 -0.00491677 0.00162077
v -0.01116659 -0.00508471 0.00158183
v -0.01117092 -0.00635920 -0.00164977
v -0.01028648 -0.00666968 0.00110254
v -0.01028994 -0.00666565 0.00110403
v -0.01030375 -0.00664945 0.00111002
v -0.01035805 -0.00658396 0.00113396
v -0.01056091 -0.00631117 0.00122960
v -0.00990575 -0.00727494 -0.00081046
v -0.00959131 -0.00729998 0.00084989
v -0.01025702 -0.00697598 -0.00037567
v -0.01009141 -0.00688015 0.00102246
v -0.01015791 -0.00681194 0.00104886
v -0.00898119 -0.00765786 0.00068670
v -0.00901745 -0.00763972 0.00069743
v -0.00933979 -0.00746326 0.00077808
v -0.00878256 -0.00775896 0.00047876
v -0.00861406 -0.00788878 -0.00157055
v -0.00874910 -0.00781710 -0.00059644
v -0.00875710 -0.00781020 -0.00048818
v -0.01144684 -0.00588224 -0.00114629
v -0.01202500 -0.00559545 -0.00289764
v -0.01135781 -0.00654861 -0.00387223
v -0.01177217 -0.00635806 -0.00562593
v -0.01096054 -0.00692494 -0.00427501
v -0.01132995 -0.00679028 -0.00603131
v -0.01050486 -0.00724543 -0.00452644
v -0.01084610 -0.00715840 -0.00628446
v -0.00998074 -0.00751717 -0.00456764
v -0.01031489 -0.00746236 -0.00632614
v -0.00973598 -0.00770389 -0.00616162
v -0.00801224 -0.00804390 -0.00356555
v -0.01027257 -0.00668579 0.00109656
v -0.01085560 -0.00675548 -0.00214341
v -0.01048598 -0.00708661 -0.00255467
v -0.01004717 -0.00736811 -0.00281105
v -0.00839581 -0.00796023 -0.00243883
v -0.00808165 -0.00803107 -0.00329811
v -0.00874716 -0.00799886 -0.00717716
v -0.00936658 -0.00787854 -0.00770246
v -0.00996088 -0.00769234 -0.00806549
v -0.01053165 -0.00743528 -0.00823859
v -0.01108049 -0.00710241 -0.00819409
v -0.01160841 -0.00669150 -0.00792644
v -0.01170864 -0.00610819 -0.00338936
v -0.00720488 -0.00807149 -0.00480369
v -0.00769355 0.00808037 -0.00408997
v -0.00721630 0.00807382 -0.00484872
v -0.01400605 0.00504810 -0.01285461
v -0.01080791 0.00615575 0.00068469
v -0.00891304 0.00769184 0.00065274
v -0.00990555 0.00727500 -0.00080988
v -0.01025681 0.00697605 -0.00037509
v -0.01085545 0.00675554 -0.00214292
v -0.01117076 0.00635927 -0.00164929
v -0.01144667 0.00588231 -0.00114580
v -0.01409167 0.00469117 -0.01056439
v -0.00839581 0.00796023 -0.00243883
v -0.00808165 0.00803107 -0.00329811
v -0.00801212 0.00804392 -0.00356515
v -0.00861406 0.00788878 -0.00157055
v -0.00882865 0.00773425 0.00057229
v -0.00878067 0.00776009 0.00047207
v -0.00877038 0.00776862 0.00038288
v -0.00874910 0.00781710 -0.00059644
v -0.01202487 0.00559552 -0.00289723
v -0.01170852 0.00610825 -0.00338896
v -0.01177210 0.00635809 -0.00562559
v -0.01135771 0.00654866 -0.00387184
v -0.01132989 0.00679031 -0.00603096
v -0.01096044 0.00692498 -0.00427461
v -0.01084605 0.00715842 -0.00628413
v -0.01050476 0.00724546 -0.00452605
v -0.01031484 0.00746237 -0.00632581
v -0.00998065 0.00751719 -0.00456724
v -0.00973592 0.00770389 -0.00616129
v -0.01048584 0.00708666 -0.00255419
v -0.01004703 0.00736815 -0.00281057
v -0.00874712 0.00799886 -0.00717688
v -0.00936655 0.00787854 -0.00770219
v -0.00996086 0.00769234 -0.00806521
v -0.01053163 0.00743529 -0.00823830
v -0.01160837 0.00669151 -0.00792615
v -0.01108046 0.00710241 -0.00819381
v -0.00720488 0.00807149 -0.00480369
v -0.00942058 0.00600000 0.00122586
v -0.01050000 0.00600000 0.00176404
v -0.00798376 -0.00450000 0.00050948
v -0.01050000 -0.00450000 0.00176404
v -0.00798376 -0.00120000 0.00050948
v -0.00851081 -0.00757841 0.00052500
v -0.00853656 -0.00757092 0.00059543
v -0.00857618 -0.00755962 0.00066709
v -0.00868361 -0.00752902 0.00078426
v -0.00883052 -0.00748643 0.00086571
v -0.00719430 -0.00806073 -0.00474697
v -0.00719089 -0.00804884 -0.00470615
v -0.00720742 -0.00798077 -0.00455263
v -0.00719300 -0.00802074 -0.00463347
v -0.00719300 0.00802074 -0.00463347
v -0.00720742 0.00798077 -0.00455263
v -0.00719089 0.00804884 -0.00470615
v -0.00719430 0.00806073 -0.00474697
v -0.00762235 -0.00806912 -0.00405246
v -0.00867389 -0.00778396 0.00037914
v -0.00860945 -0.00764540 0.00067444
v -0.00886853 -0.00755708 0.00085823
v -0.00899508 -0.00762939 0.00077139
v -0.00895052 -0.00765036 0.00076082
v -0.00898521 -0.00762004 0.00079369
v -0.00891082 -0.00761485 0.00082128
v -0.00892556 -0.00753710 0.00087152
v -0.00893819 -0.00755763 0.00086142
v -0.00896282 -0.00759336 0.00083251
v -0.00872146 -0.00760756 0.00078606
v -0.00877552 -0.00766978 0.00075759
v -0.00883552 -0.00770385 0.00070427
v -0.00867103 -0.00771178 0.00065653
v -0.00874779 -0.00774463 0.00061719
v -0.00853824 -0.00766994 0.00053271
v -0.00860355 -0.00773980 0.00052607
v -0.00869175 -0.00777193 0.00050659
v -0.01177326 -0.00114306 0.00215350
v -0.01179688 -0.00114382 0.00213404
v -0.01176171 -0.00159863 0.00211856
v -0.01182092 -0.00114441 0.00210626
v -0.01164599 -0.00113745 0.00218947
v -0.01170675 -0.00114039 0.00218390
v -0.01167164 -0.00159298 0.00216833
v -0.01171269 -0.00114065 0.00218232
v -0.01161852 -0.00113598 0.00218584
v -0.01165713 -0.00175315 0.00216107
v -0.01149761 -0.00304559 0.00206214
v -0.01158781 -0.00305416 0.00201285
v -0.01174721 -0.00175912 0.00211136
v -0.01127629 -0.00419292 0.00190046
v -0.01111159 -0.00508617 0.00166930
v -0.01136603 -0.00420547 0.00185101
v -0.01102361 -0.00506728 0.00172005
v -0.01087378 -0.00566658 0.00151791
v -0.01078854 -0.00564101 0.00157049
v -0.01050934 -0.00630628 0.00131908
v -0.01042976 -0.00627086 0.00137479
v -0.01030844 -0.00657648 0.00122438
v -0.01023272 -0.00653590 0.00128193
v -0.01025473 -0.00664129 0.00120069
v -0.01018011 -0.00659940 0.00125873
v -0.01024108 -0.00665731 0.00119477
v -0.01016675 -0.00661509 0.00125293
v -0.01023765 -0.00666130 0.00119330
v -0.01016339 -0.00661901 0.00125149
v -0.01022390 -0.00667723 0.00118738
v -0.01014992 -0.00663461 0.00124571
v -0.01011061 -0.00680196 0.00114025
v -0.01003908 -0.00675669 0.00119963
v -0.01004494 -0.00686937 0.00111417
v -0.00997487 -0.00682264 0.00117415
v -0.00955173 -0.00728402 0.00094406
v -0.00949310 -0.00722810 0.00100829
v -0.01169531 -0.00113675 0.00218648
v -0.01171281 -0.00113700 0.00218238
v -0.01177344 -0.00113765 0.00215359
v -0.01183761 -0.00113778 0.00207902
v -0.01182114 -0.00113785 0.00210638
v -0.01173633 -0.00000000 0.00217274
v -0.01177927 0.00037181 0.00215046
v -0.01182114 0.00113785 0.00210638
v -0.01183766 0.00037212 0.00208004
v -0.01183761 0.00113778 0.00207902
v -0.01169564 0.00037164 0.00218752
v -0.01171281 0.00113700 0.00218238
v -0.01177344 0.00113765 0.00215359
v -0.01169531 0.00113675 0.00218648
v -0.00867389 0.00778396 0.00037914
v -0.00868907 0.00777335 0.00049782
v -0.00860031 0.00774124 0.00051567
v -0.00853486 0.00767117 0.00052148
v -0.00875485 0.00774132 0.00062656
v -0.00867947 0.00770837 0.00066750
v -0.00886498 0.00769021 0.00072345
v -0.00881035 0.00765575 0.00077949
v -0.00861844 0.00764236 0.00068645
v -0.00875912 0.00759476 0.00081061
v -0.00762235 0.00806912 -0.00405246
v -0.01100000 -0.00400000 0.00201332
v -0.01449601 -0.00452042 -0.01230000
v -0.01422769 -0.00452042 -0.01035215
v -0.01478823 0.00467149 -0.04840499
v -0.01485766 0.00458519 -0.04838172
v -0.01478212 0.00473482 -0.04840703
v -0.01476483 -0.00476869 -0.04841283
v -0.01492677 -0.00444630 -0.04835857
v -0.01184503 0.00451372 -0.04939119
v -0.01138730 0.00764249 -0.04954456
v -0.01200817 0.00750258 -0.04933652
v -0.01257879 0.00728151 -0.04914532
v -0.01426725 0.00565541 -0.04857955
v -0.01434694 -0.00552660 -0.04855286
v -0.01266167 0.00723988 -0.04911754
v -0.01316262 0.00692064 -0.04894970
v -0.01452285 0.00488057 -0.04849391
v -0.01138730 -0.00764249 -0.04954456
v -0.01381705 0.00628162 -0.04873040
v -0.01361768 0.00650717 -0.04879721
v -0.01152921 -0.00257533 -0.04949701
v -0.01152921 0.00179385 -0.04949701
v -0.01385285 -0.00623793 -0.04871841
v -0.01323855 -0.00686058 -0.04892425
v -0.01285752 -0.00500000 -0.04905193
v -0.01250671 -0.00731553 -0.04916947
v -0.01195713 -0.00751755 -0.04935362
v -0.01411602 -0.00501075 -0.01353482
v -0.01425840 -0.00486454 -0.01335851
v -0.01429696 -0.00499673 -0.01574828
v -0.01431477 -0.00410775 -0.00874897
v -0.01455555 -0.00415831 -0.01031445
v -0.01591481 -0.00101783 -0.00920735
v -0.01603136 -0.00098307 -0.01005031
v -0.01599014 -0.00116054 -0.01001990
v -0.01119741 -0.00815244 -0.04908901
v -0.01109172 -0.00816621 -0.04911616
v -0.01085586 -0.00817396 -0.04827449
v -0.01315595 -0.00742738 -0.04848645
v -0.01338794 -0.00725293 -0.04841787
v -0.01506643 -0.00496603 -0.04792044
v -0.01461350 -0.00578850 -0.04805823
v -0.01505000 -0.00499817 -0.04792555
v -0.01407806 -0.00655679 -0.04821573
v -0.01373332 -0.00694074 -0.04831646
v -0.01045863 -0.00818479 -0.04710980
v -0.01025751 -0.00819167 -0.04691125
v -0.01020649 -0.00819295 -0.04687548
v -0.01130263 -0.00813679 -0.04905777
v -0.01283848 -0.00762589 -0.04858118
v -0.01254860 -0.00777270 -0.04866910
v -0.01214960 -0.00793087 -0.04879194
v -0.01192998 -0.00799951 -0.04886029
v -0.01621000 -0.00266397 -0.04754206
v -0.01655079 -0.00190210 -0.04742844
v -0.01656290 -0.00187201 -0.04742441
v -0.01563577 -0.00093961 -0.00770000
v -0.01574465 -0.00100204 -0.00823647
v -0.01575776 -0.00113950 -0.00845090
v -0.01541215 -0.00178555 -0.00770000
v -0.01551875 -0.00189803 -0.00835188
v -0.01519725 -0.00234415 -0.00770000
v -0.01519463 -0.00264972 -0.00831479
v -0.01505448 -0.00264986 -0.00770000
v -0.01477785 -0.00315166 -0.00770000
v -0.01479126 -0.00338839 -0.00842139
v -0.01462670 -0.00339038 -0.00770000
v -0.01474543 -0.00424895 -0.01230909
v -0.01435307 -0.00475912 -0.01319573
v -0.01488884 -0.00433206 -0.01500328
v -0.01460429 -0.00467142 -0.01534347
v -0.01441968 -0.00467823 -0.01303704
v -0.01443718 -0.00465544 -0.01298399
v -0.01450358 -0.00454965 -0.01262309
v -0.01350000 -0.00555594 -0.01392959
v -0.01367696 -0.00540952 -0.01385249
v -0.01386578 -0.00524537 -0.01374370
v -0.01362955 -0.00560316 -0.01667598
v -0.00994786 -0.00819601 -0.04675121
v -0.00988713 -0.00819585 -0.04673330
v -0.00960084 -0.00819064 -0.04669673
v -0.00837937 -0.00809295 -0.04669964
v -0.01537483 -0.00361329 -0.01458727
v -0.01514670 -0.00397913 -0.01474661
v -0.01500523 -0.00389498 -0.01207166
v -0.01523874 -0.00353058 -0.01191686
v -0.01481149 -0.00380266 -0.01009886
v -0.01504542 -0.00343950 -0.00995422
v -0.01557424 -0.00323597 -0.01451524
v -0.01544634 -0.00315700 -0.01183656
v -0.01574711 -0.00284882 -0.01451351
v -0.01562933 -0.00277563 -0.01181667
v -0.01602200 -0.00205166 -0.01465278
v -0.01592670 -0.00199494 -0.01190177
v -0.01621700 -0.00123503 -0.01486886
v -0.01614126 -0.00119946 -0.01205942
v -0.01628325 -0.00078598 -0.01410000
v -0.01618766 -0.00088782 -0.01178096
v -0.01576080 -0.00193249 -0.00989919
v -0.01544663 -0.00269484 -0.00984569
v -0.01581871 -0.00286213 -0.01841517
v -0.01565791 -0.00325080 -0.01838705
v -0.01546980 -0.00362956 -0.01843962
v -0.01525172 -0.00399679 -0.01859326
v -0.01500228 -0.00435106 -0.01886022
v -0.01472452 -0.00469168 -0.01922500
v -0.01481156 0.00380269 -0.01009947
v -0.01455563 0.00415834 -0.01031508
v -0.01474551 0.00424900 -0.01231033
v -0.01596132 0.00100785 -0.00951885
v -0.01569733 0.00097972 -0.00799650
v -0.01575781 0.00113950 -0.00845115
v -0.01350000 0.00555594 -0.01392959
v -0.01315919 0.00742513 -0.04848549
v -0.01330116 0.00732129 -0.04844348
v -0.01403851 0.00660491 -0.04822728
v -0.01381664 0.00685504 -0.04829209
v -0.01373503 0.00693903 -0.04831596
v -0.01506775 0.00496344 -0.04792003
v -0.01481663 0.00540295 -0.04749037
v -0.01452854 0.00592559 -0.04808347
v -0.01362964 0.00560320 -0.01667842
v -0.01382715 0.00527973 -0.01376866
v -0.01429706 0.00499677 -0.01575063
v -0.01399694 0.00512529 -0.01364598
v -0.01449130 0.00457513 -0.01274042
v -0.01439828 0.00470509 -0.01309417
v -0.01488893 0.00433210 -0.01500559
v -0.01437875 0.00472881 -0.01314070
v -0.01460439 0.00467147 -0.01534581
v -0.01425756 0.00486544 -0.01335974
v -0.01408455 0.00504161 -0.01356675
v -0.01431481 0.00410776 -0.00874922
v -0.01422769 0.00452042 -0.01035212
v -0.01479131 0.00338840 -0.00842163
v -0.01455937 0.00349061 -0.00770000
v -0.01519468 0.00264972 -0.00831503
v -0.01499970 0.00275746 -0.00770000
v -0.01551880 0.00189803 -0.00835213
v -0.01535442 0.00195097 -0.00770000
v -0.01560045 0.00110772 -0.00770000
v -0.01563577 0.00093961 -0.00770000
v -0.01656323 0.00187118 -0.04742430
v -0.01632192 0.00242734 -0.04750459
v -0.01614125 0.00280534 -0.04756513
v -0.01272535 0.00768675 -0.04861534
v -0.01263069 0.00773410 -0.04864407
v -0.01250644 0.00779167 -0.04868199
v -0.01198687 0.00798287 -0.04884254
v -0.01085586 0.00817396 -0.04827449
v -0.01109172 0.00816621 -0.04911616
v -0.01119741 0.00815244 -0.04908901
v -0.01130263 0.00813679 -0.04905777
v -0.01047263 0.00818423 -0.04712863
v -0.01027645 0.00819114 -0.04692572
v -0.00990889 0.00819595 -0.04673928
v -0.00997022 0.00819598 -0.04675878
v -0.01022596 0.00819249 -0.04688860
v -0.00960084 0.00819063 -0.04669673
v -0.00837937 0.00809295 -0.04669964
v -0.01504550 0.00343953 -0.00995483
v -0.01500532 0.00389503 -0.01207288
v -0.01449885 0.00456061 -0.01267828
v -0.01628325 0.00078598 -0.01410000
v -0.01621703 0.00123504 -0.01487127
v -0.01614132 0.00119948 -0.01206070
v -0.01602205 0.00205169 -0.01465514
v -0.01592677 0.00199497 -0.01190302
v -0.01574717 0.00284886 -0.01451583
v -0.01562941 0.00277567 -0.01181790
v -0.01557431 0.00323601 -0.01451755
v -0.01544642 0.00315705 -0.01183778
v -0.01537491 0.00361333 -0.01458956
v -0.01523883 0.00353063 -0.01191808
v -0.01514678 0.00397917 -0.01474890
v -0.01614300 0.00092100 -0.01116336
v -0.01599021 0.00116056 -0.01002054
v -0.01576087 0.00193251 -0.00989981
v -0.01544671 0.00269486 -0.00984630
v -0.01449601 0.00452042 -0.01230000
v -0.01581876 0.00286211 -0.01841949
v -0.01565797 0.00325077 -0.01839134
v -0.01546988 0.00362953 -0.01844388
v -0.01525180 0.00399677 -0.01859752
v -0.01500237 0.00435103 -0.01886448
v -0.01472463 0.00469166 -0.01922926
v -0.01634603 -0.00000000 -0.01336350
v -0.01660073 -0.00177594 -0.04741178
v -0.01586935 -0.00000000 -0.00821044
v -0.01602350 -0.00000000 -0.00904903
v -0.01574363 0.00020570 -0.00770000
v -0.01572882 -0.00036422 -0.00770000
v -0.01575098 -0.00000002 -0.00770000
v -0.01690163 0.00086016 -0.04731191
v -0.01700542 0.00028223 -0.04728073
v -0.01687914 -0.00094571 -0.04731901
v -0.01699978 -0.00033682 -0.04728235
v -0.01701887 -0.00000001 -0.04727691
v -0.01685126 0.00104481 -0.04732794
v -0.01620793 -0.00000000 -0.01060616
v -0.01505585 -0.00418356 -0.04831532
v -0.01553629 -0.00321356 -0.04815433
v -0.01629419 -0.00159374 -0.04790038
v -0.01655629 -0.00081310 -0.04781255
v -0.01585188 0.00258398 -0.04804859
v -0.01511675 0.00405889 -0.04829491
v -0.01625835 -0.00168481 -0.04791239
v -0.01653079 0.00090379 -0.04782110
v -0.01625896 0.00168324 -0.04791218
v -0.01602786 0.00221581 -0.04798961
v -0.01657664 0.00073569 -0.04780573
v -0.01666224 -0.00028051 -0.04777705
v -0.01666697 0.00023464 -0.04777546
v -0.01127110 -0.00765692 -0.04958089
v -0.01127110 0.00765692 -0.04958089
v -0.01115393 -0.00766967 -0.04961237
v -0.01115393 0.00766967 -0.04961237
v -0.01128440 -0.00790267 -0.04950850
v -0.01114361 -0.00809858 -0.04935940
v -0.01125747 -0.00808373 -0.04932877
v -0.01116633 -0.00791814 -0.04954018
v -0.01140142 -0.00788640 -0.04947119
v -0.01137052 -0.00806683 -0.04929352
v -0.01653520 -0.00183287 -0.04763383
v -0.01642702 -0.00176637 -0.04780717
v -0.01569717 -0.00331231 -0.04805174
v -0.01579902 -0.00339282 -0.04788056
v -0.01198767 -0.00792760 -0.04909398
v -0.01199755 -0.00775219 -0.04927353
v -0.01259284 -0.00770023 -0.04890028
v -0.01340785 -0.00718429 -0.04864386
v -0.01407701 -0.00649629 -0.04843549
v -0.01257765 -0.00753443 -0.04908174
v -0.01335402 -0.00704292 -0.04882631
v -0.01399635 -0.00638209 -0.04861553
v -0.01459871 -0.00573605 -0.04827245
v -0.01450366 -0.00564267 -0.04844881
v -0.01502785 -0.00495077 -0.04813586
v -0.01492644 -0.00486917 -0.04830914
v -0.01137052 0.00806683 -0.04929352
v -0.01128440 0.00790267 -0.04950850
v -0.01140142 0.00788640 -0.04947119
v -0.01125747 0.00808373 -0.04932877
v -0.01114361 0.00809858 -0.04935940
v -0.01116636 0.00791698 -0.04954088
v -0.01646370 -0.00167311 -0.04779489
v -0.01657259 -0.00173783 -0.04762134
v -0.01684744 -0.00091794 -0.04752952
v -0.01696932 0.00027218 -0.04749081
v -0.01696394 -0.00032494 -0.04749246
v -0.01686937 0.00083407 -0.04752240
v -0.01682017 0.00101530 -0.04753844
v -0.01653586 0.00183123 -0.04763362
v -0.01673278 -0.00087084 -0.04770481
v -0.01684415 -0.00030495 -0.04766803
v -0.01684921 0.00025529 -0.04766638
v -0.01675395 0.00078987 -0.04769778
v -0.01670635 0.00096521 -0.04771361
v -0.01642766 0.00176477 -0.04780696
v -0.01204347 0.00791084 -0.04907602
v -0.01493433 0.00444547 -0.04835599
v -0.01494383 0.00483489 -0.04830337
v -0.01499171 0.00432952 -0.04833676
v -0.01601406 0.00268046 -0.04794547
v -0.01629655 0.00238315 -0.04771351
v -0.01611685 0.00275910 -0.04777373
v -0.01619209 0.00230801 -0.04788581
v -0.01504539 0.00491618 -0.04813021
v -0.01451564 0.00587189 -0.04829855
v -0.01403860 0.00654384 -0.04844745
v -0.01382333 0.00679098 -0.04851441
v -0.01332376 0.00725194 -0.04867012
v -0.01276503 0.00761454 -0.04884563
v -0.01267286 0.00766172 -0.04887485
v -0.01442242 0.00577549 -0.04847556
v -0.01395926 0.00642801 -0.04862770
v -0.01375191 0.00666610 -0.04869574
v -0.01327380 0.00710747 -0.04885265
v -0.01274197 0.00745267 -0.04902755
v -0.01265405 0.00749767 -0.04905653
v -0.01205122 0.00773608 -0.04925575
v -0.01089023 -0.00814663 -0.04916997
v -0.01089374 -0.00814776 -0.04916903
v -0.01099997 -0.00790747 -0.04956549
v -0.01064014 -0.00777212 -0.04941750
v -0.01067812 -0.00766967 -0.04947823
v -0.01079921 -0.00785637 -0.04952701
v -0.01081208 -0.00766967 -0.04957505
v -0.01089829 -0.00766967 -0.04960822
v -0.01101636 -0.00766967 -0.04962666
v -0.01095514 -0.00808227 -0.04939817
v -0.01076401 -0.00799361 -0.04939565
v -0.01101636 0.00766967 -0.04962666
v -0.01089829 0.00766967 -0.04960822
v -0.01081208 0.00766967 -0.04957505
v -0.01067812 0.00766967 -0.04947823
v -0.01095514 0.00808227 -0.04939817
v -0.01076401 0.00799361 -0.04939565
v -0.01079921 0.00785637 -0.04952701
v -0.01064014 0.00777212 -0.04941750
v -0.01089374 0.00814776 -0.04916903
v -0.01089023 0.00814663 -0.04916997
v -0.01099997 0.00790747 -0.04956549
f 447 446 445
f 1 33 32
f 34 33 1
f 470 472 264
f 420 34 1
f 33 34 420
f 415 417 1
f 486 481 505
f 76 73 192
f 137 125 123
f 504 486 505
f 369 362 365
f 444 445 446
f 477 529 476
f 475 476 527
f 527 476 529
f 527 529 533
f 335 380 467
f 467 380 475
f 467 503 335
f 344 116 84
f 369 379 371
f 371 379 378
f 477 476 466
f 466 476 376
f 475 380 372
f 93 221 258
f 378 379 340
f 312 469 313
f 312 337 469
f 468 472 470
f 91 92 471
f 472 468 471
f 92 93 471
f 469 337 471
f 471 468 469
f 258 472 471
f 336 471 337
f 336 95 91
f 91 471 336
f 448 446 447
f 194 193 186
f 186 193 183
f 193 194 183
f 580 438 439
f 263 472 258
f 263 264 472
f 18 1 19
f 18 16 1
f 63 181 185
f 185 62 63
f 181 63 182
f 185 181 182
f 185 195 196
f 196 60 185
f 195 60 196
f 1 417 419
f 419 420 1
f 33 420 421
f 470 31 421
f 421 31 33
f 151 415 1
f 151 40 150
f 67 69 575
f 192 73 74
f 74 75 192
f 71 70 192
f 576 580 581
f 422 423 544
f 130 129 120
f 130 105 106
f 106 129 130
f 105 107 106
f 106 107 129
f 316 359 358
f 363 362 383
f 364 365 363
f 363 365 362
f 473 444 446
f 525 527 533
f 486 504 525
f 490 535 536
f 528 529 477
f 528 536 535
f 334 380 335
f 334 381 380
f 333 381 334
f 335 503 334
f 503 333 334
f 503 467 526
f 527 525 526
f 475 527 526
f 526 467 475
f 526 504 503
f 526 525 504
f 369 365 367
f 367 379 369
f 345 116 346
f 346 344 345
f 116 344 346
f 84 116 83
f 83 116 103
f 368 362 369
f 369 371 368
f 445 444 443
f 313 469 479
f 475 372 374
f 374 476 475
f 376 476 374
f 376 374 375
f 375 374 372
f 314 312 313
f 378 312 314
f 313 375 314
f 337 312 338
f 378 340 338
f 338 312 378
f 94 93 258
f 258 471 94
f 94 471 93
f 450 452 462
f 450 451 452
f 446 448 460
f 215 194 186
f 215 201 216
f 215 216 192
f 192 194 215
f 581 580 65
f 65 576 581
f 66 576 65
f 439 64 65
f 65 580 439
f 142 435 436
f 142 437 434
f 436 437 142
f 434 437 429
f 150 164 162
f 162 413 387
f 164 413 162
f 27 31 470
f 258 221 259
f 259 263 258
f 30 32 33
f 33 31 30
f 1 32 30
f 61 62 185
f 57 62 61
f 185 58 61
f 61 58 57
f 1 182 38
f 38 182 39
f 39 182 35
f 185 60 59
f 59 58 185
f 447 457 449
f 449 448 447
f 449 450 448
f 451 450 449
f 452 451 453
f 458 449 457
f 451 449 458
f 150 40 41
f 41 40 1
f 1 40 145
f 145 151 1
f 40 151 145
f 192 75 72
f 72 71 192
f 578 574 573
f 575 574 578
f 68 67 578
f 424 462 398
f 424 544 423
f 550 556 549
f 393 551 394
f 558 294 557
f 557 551 558
f 557 550 551
f 556 550 557
f 292 541 554
f 422 544 532
f 532 544 546
f 492 535 490
f 492 491 535
f 535 491 534
f 533 529 534
f 534 483 533
f 491 483 534
f 529 528 534
f 534 528 535
f 487 492 490
f 491 492 487
f 490 536 487
f 221 93 220
f 220 93 92
f 16 18 17
f 1 16 17
f 280 17 12
f 183 184 8
f 216 201 213
f 98 101 102
f 98 102 103
f 103 116 98
f 124 131 125
f 122 123 125
f 125 131 122
f 122 131 130
f 130 120 122
f 122 120 123
f 359 316 360
f 73 76 562
f 562 76 361
f 361 360 562
f 562 360 316
f 123 120 121
f 323 324 350
f 506 504 505
f 503 504 506
f 506 333 503
f 506 517 333
f 518 506 505
f 517 506 518
f 322 517 515
f 530 473 531
f 536 528 530
f 342 367 345
f 379 367 342
f 345 344 342
f 344 343 342
f 342 343 341
f 341 340 342
f 342 340 379
f 370 368 371
f 370 372 380
f 380 381 370
f 381 368 370
f 444 473 474
f 474 443 444
f 474 528 477
f 477 466 474
f 466 443 474
f 473 530 474
f 474 530 528
f 466 479 455
f 445 443 455
f 455 443 466
f 447 445 455
f 313 479 377
f 377 375 313
f 377 479 466
f 377 466 376
f 376 375 377
f 378 314 373
f 373 314 375
f 373 371 378
f 373 375 372
f 373 370 371
f 372 370 373
f 339 338 340
f 339 340 341
f 339 336 337
f 337 338 339
f 95 336 339
f 341 96 339
f 96 95 339
f 448 450 461
f 461 460 448
f 461 450 462
f 462 424 461
f 461 424 423
f 461 423 422
f 422 460 461
f 478 460 422
f 531 473 478
f 478 473 446
f 446 460 478
f 478 532 531
f 422 532 478
f 398 462 399
f 399 400 398
f 462 400 399
f 549 400 395
f 395 550 549
f 396 550 395
f 433 142 434
f 434 429 433
f 433 429 142
f 153 156 269
f 388 387 459
f 387 413 459
f 470 264 28
f 28 27 470
f 264 27 28
f 264 263 262
f 263 259 262
f 1 30 29
f 48 148 47
f 47 39 48
f 47 38 39
f 57 278 56
f 56 278 182
f 56 182 63
f 56 62 57
f 56 63 62
f 49 182 50
f 50 278 49
f 182 278 50
f 57 58 277
f 277 278 57
f 58 59 277
f 441 387 388
f 418 458 457
f 457 391 418
f 420 419 418
f 418 391 420
f 440 453 451
f 451 458 440
f 390 421 420
f 420 391 390
f 470 421 390
f 390 468 470
f 469 468 390
f 390 391 469
f 172 148 48
f 169 176 177
f 42 43 150
f 150 41 42
f 1 43 42
f 42 41 1
f 162 412 161
f 161 151 150
f 150 162 161
f 582 573 572
f 582 578 573
f 572 496 582
f 579 67 575
f 575 578 579
f 579 578 67
f 577 576 66
f 577 66 68
f 68 578 577
f 577 582 576
f 578 582 577
f 524 496 494
f 494 520 524
f 524 582 496
f 576 582 524
f 177 176 426
f 544 424 545
f 541 543 545
f 546 544 545
f 545 543 546
f 463 400 462
f 462 452 463
f 403 394 397
f 397 409 403
f 396 409 397
f 397 394 551
f 551 550 397
f 397 550 396
f 291 294 558
f 295 557 294
f 294 291 295
f 295 299 556
f 556 557 295
f 295 291 290
f 296 299 295
f 556 299 555
f 549 556 555
f 548 400 549
f 549 555 548
f 548 555 554
f 398 400 548
f 540 543 541
f 538 532 546
f 482 483 491
f 491 487 482
f 486 525 482
f 482 487 296
f 482 525 533
f 533 483 482
f 296 487 484
f 484 284 485
f 540 284 484
f 289 520 494
f 289 521 520
f 290 560 289
f 560 521 289
f 192 216 191
f 191 76 192
f 191 141 76
f 359 360 78
f 78 360 361
f 361 76 78
f 76 141 78
f 112 214 80
f 80 124 112
f 359 78 77
f 77 141 199
f 77 78 141
f 358 359 77
f 200 77 199
f 133 77 200
f 199 141 200
f 113 200 79
f 233 95 96
f 186 183 187
f 183 188 187
f 187 215 186
f 201 215 187
f 187 188 201
f 129 98 118
f 118 120 129
f 119 121 118
f 118 121 120
f 131 124 110
f 110 111 131
f 126 124 125
f 79 112 126
f 126 112 124
f 130 131 104
f 131 111 104
f 104 105 130
f 104 111 105
f 328 135 332
f 328 134 135
f 137 329 330
f 99 98 128
f 108 107 251
f 251 249 108
f 108 249 128
f 128 98 108
f 129 107 108
f 108 98 129
f 123 121 138
f 137 123 138
f 138 329 137
f 138 318 329
f 319 318 138
f 138 357 319
f 309 324 319
f 319 357 309
f 350 324 309
f 302 303 514
f 303 513 514
f 293 303 302
f 382 381 333
f 383 362 382
f 362 368 382
f 382 368 381
f 333 517 320
f 517 322 320
f 320 382 333
f 322 382 320
f 469 391 389
f 389 479 469
f 389 455 479
f 389 391 457
f 69 67 197
f 197 67 68
f 68 66 197
f 66 65 197
f 197 65 64
f 64 198 197
f 438 435 143
f 435 142 143
f 439 438 143
f 143 64 439
f 175 428 176
f 175 432 428
f 174 432 175
f 153 174 175
f 175 156 153
f 48 39 52
f 39 53 52
f 54 53 39
f 153 269 154
f 154 269 142
f 154 174 153
f 142 269 279
f 152 413 164
f 164 459 152
f 152 459 413
f 31 27 25
f 25 30 31
f 38 47 46
f 271 197 198
f 458 418 416
f 416 440 458
f 416 419 417
f 416 418 419
f 386 441 453
f 453 440 386
f 387 441 386
f 386 162 387
f 386 412 162
f 148 172 149
f 149 164 150
f 149 47 148
f 150 46 149
f 149 46 47
f 402 165 178
f 580 576 523
f 576 524 523
f 523 524 520
f 155 154 142
f 174 154 155
f 393 177 425
f 177 426 425
f 553 425 426
f 396 395 465
f 465 409 396
f 407 409 465
f 454 463 452
f 452 453 454
f 453 441 454
f 388 407 454
f 454 441 388
f 464 395 400
f 400 463 464
f 407 465 464
f 464 465 395
f 464 454 407
f 463 454 464
f 559 560 290
f 290 291 559
f 559 291 558
f 559 553 560
f 300 295 301
f 290 289 301
f 304 295 300
f 296 295 304
f 298 299 292
f 298 555 299
f 292 554 298
f 554 555 298
f 547 554 541
f 547 548 554
f 541 545 547
f 398 548 547
f 547 424 398
f 547 545 424
f 543 540 542
f 542 484 543
f 540 484 542
f 537 487 536
f 537 538 487
f 537 530 531
f 536 530 537
f 531 532 537
f 532 538 537
f 285 541 292
f 285 540 541
f 285 284 540
f 296 484 283
f 283 484 485
f 283 299 296
f 485 284 283
f 292 299 283
f 283 285 292
f 284 285 283
f 487 538 488
f 488 484 487
f 316 326 317
f 317 77 316
f 127 133 134
f 127 77 133
f 127 134 316
f 316 77 127
f 358 77 327
f 327 77 326
f 327 316 358
f 327 326 316
f 216 213 217
f 217 213 214
f 217 191 216
f 214 112 217
f 141 191 217
f 217 200 141
f 217 112 79
f 79 200 217
f 135 113 114
f 114 113 79
f 114 126 135
f 133 200 132
f 200 113 132
f 134 133 132
f 135 134 132
f 132 113 135
f 267 266 20
f 226 18 19
f 19 222 226
f 226 17 18
f 12 17 226
f 226 280 12
f 219 259 221
f 221 220 219
f 267 257 260
f 260 266 267
f 256 266 260
f 260 257 256
f 230 92 91
f 230 220 92
f 280 228 231
f 231 228 233
f 231 234 280
f 256 257 225
f 227 228 280
f 184 280 190
f 280 10 190
f 190 8 184
f 252 249 251
f 117 98 116
f 117 116 345
f 345 310 117
f 81 124 80
f 316 134 315
f 134 328 315
f 332 135 331
f 509 330 329
f 329 318 509
f 509 331 330
f 101 98 100
f 98 99 100
f 232 233 96
f 232 231 233
f 234 231 232
f 103 102 239
f 383 323 384
f 384 363 383
f 384 349 363
f 385 323 350
f 350 349 385
f 385 384 323
f 349 384 385
f 139 138 121
f 357 138 139
f 571 74 73
f 73 570 571
f 75 74 571
f 73 562 561
f 561 570 73
f 562 570 561
f 352 349 350
f 353 349 352
f 321 322 515
f 321 382 322
f 321 323 383
f 383 382 321
f 515 514 511
f 511 321 515
f 323 321 511
f 324 323 511
f 511 514 513
f 286 293 518
f 518 293 516
f 516 514 515
f 302 514 516
f 516 293 302
f 515 517 516
f 517 518 516
f 456 389 457
f 455 389 456
f 456 457 447
f 447 455 456
f 156 175 160
f 51 52 53
f 147 172 48
f 48 52 147
f 55 54 39
f 39 35 55
f 55 182 49
f 55 35 182
f 180 279 269
f 180 198 64
f 64 143 180
f 180 143 142
f 142 279 180
f 405 407 388
f 405 409 407
f 23 25 27
f 23 27 264
f 264 262 23
f 22 29 30
f 30 25 22
f 22 268 19
f 19 1 22
f 1 29 22
f 1 36 45
f 45 46 150
f 38 46 37
f 1 38 37
f 37 36 1
f 37 45 36
f 46 45 37
f 49 278 276
f 276 55 49
f 54 55 276
f 275 273 157
f 53 54 275
f 54 276 275
f 275 276 273
f 272 60 195
f 272 59 60
f 272 277 59
f 272 271 277
f 195 197 272
f 197 271 272
f 270 271 198
f 198 180 270
f 270 180 269
f 277 271 274
f 273 276 274
f 274 270 273
f 271 270 274
f 278 277 274
f 274 276 278
f 440 416 414
f 414 386 440
f 417 415 414
f 414 416 417
f 412 386 414
f 414 161 412
f 415 151 414
f 151 161 414
f 166 165 164
f 164 149 166
f 166 149 172
f 166 172 168
f 164 165 163
f 163 5 2
f 163 459 164
f 163 2 459
f 404 402 403
f 401 394 403
f 403 402 401
f 178 165 179
f 393 394 179
f 179 177 393
f 394 401 179
f 179 401 178
f 580 523 430
f 438 580 430
f 430 435 438
f 142 429 430
f 430 155 142
f 174 155 430
f 436 435 430
f 430 437 436
f 430 429 437
f 428 432 519
f 427 553 426
f 176 428 427
f 427 426 176
f 393 425 552
f 425 553 552
f 552 551 393
f 558 551 552
f 552 559 558
f 553 559 552
f 288 295 290
f 290 301 288
f 288 301 295
f 305 304 300
f 300 297 305
f 297 306 305
f 305 513 303
f 484 488 489
f 546 543 489
f 543 484 489
f 489 538 546
f 489 488 538
f 326 77 325
f 325 317 326
f 77 317 325
f 79 126 115
f 115 114 79
f 126 114 115
f 265 266 256
f 265 222 19
f 19 268 265
f 218 219 220
f 257 219 218
f 218 225 257
f 24 23 262
f 25 23 24
f 229 230 91
f 233 228 229
f 228 227 229
f 229 227 230
f 91 95 229
f 95 233 229
f 14 227 280
f 222 227 14
f 224 227 222
f 225 218 224
f 224 218 220
f 220 230 224
f 230 227 224
f 8 190 189
f 183 8 189
f 189 188 183
f 201 188 189
f 98 117 140
f 140 117 310
f 140 118 98
f 118 140 282
f 282 140 311
f 347 311 364
f 347 349 353
f 364 363 347
f 363 349 347
f 109 110 124
f 124 81 109
f 330 331 136
f 135 126 136
f 136 331 135
f 137 330 136
f 136 125 137
f 136 126 125
f 502 328 332
f 332 331 507
f 331 509 507
f 507 502 332
f 97 232 96
f 97 96 341
f 341 343 97
f 82 83 103
f 82 97 343
f 84 83 82
f 82 343 344
f 82 344 84
f 232 97 235
f 97 82 235
f 102 101 241
f 241 239 102
f 71 72 564
f 350 348 351
f 351 352 350
f 309 356 307
f 307 356 121
f 355 139 121
f 355 309 357
f 355 356 309
f 324 511 510
f 510 511 513
f 319 324 510
f 510 318 319
f 510 509 318
f 481 486 480
f 486 482 480
f 303 293 480
f 480 482 296
f 296 304 480
f 480 305 303
f 304 305 480
f 287 518 505
f 287 286 518
f 505 481 287
f 481 480 287
f 293 286 287
f 287 480 293
f 159 269 156
f 156 160 159
f 159 270 269
f 171 175 176
f 171 160 175
f 171 159 160
f 176 169 171
f 169 170 171
f 173 51 170
f 173 169 168
f 173 170 169
f 52 51 173
f 173 147 52
f 168 172 173
f 172 147 173
f 410 5 4
f 403 409 410
f 2 5 406
f 409 405 406
f 406 405 2
f 459 2 442
f 2 405 442
f 388 459 442
f 442 405 388
f 44 43 1
f 1 45 44
f 150 43 44
f 44 45 150
f 146 51 53
f 53 275 146
f 146 275 157
f 157 170 146
f 170 51 146
f 165 404 144
f 144 163 165
f 4 5 144
f 5 163 144
f 165 402 3
f 3 404 165
f 402 404 3
f 392 402 178
f 392 401 402
f 165 166 167
f 167 179 165
f 167 166 168
f 168 169 167
f 167 169 177
f 177 179 167
f 431 430 523
f 431 432 174
f 174 430 431
f 428 519 539
f 539 427 428
f 553 427 539
f 560 553 539
f 539 521 560
f 539 519 521
f 266 265 21
f 21 265 268
f 21 20 266
f 268 22 21
f 21 22 20
f 222 265 255
f 255 224 222
f 26 24 267
f 25 24 26
f 26 22 25
f 267 20 26
f 20 22 26
f 261 219 257
f 261 257 267
f 261 24 219
f 267 24 261
f 13 226 222
f 222 14 13
f 280 226 13
f 13 14 280
f 80 214 212
f 212 81 80
f 210 189 190
f 210 213 201
f 201 189 210
f 207 10 280
f 253 107 105
f 251 107 253
f 105 111 253
f 366 140 310
f 311 140 366
f 345 367 366
f 366 310 345
f 364 311 366
f 366 365 364
f 366 367 365
f 118 282 90
f 281 282 311
f 311 347 281
f 281 347 353
f 281 90 282
f 118 90 281
f 119 118 281
f 508 507 509
f 508 306 297
f 101 100 243
f 243 241 101
f 70 71 565
f 71 564 565
f 352 351 89
f 119 281 89
f 89 351 348
f 353 352 89
f 89 281 353
f 309 307 308
f 308 348 350
f 350 309 308
f 121 356 88
f 88 355 121
f 356 355 88
f 357 139 354
f 354 355 357
f 139 355 354
f 500 493 495
f 75 571 566
f 566 565 564
f 566 72 75
f 566 564 72
f 159 171 158
f 270 159 158
f 158 170 157
f 158 171 170
f 157 273 158
f 273 270 158
f 5 410 408
f 408 406 5
f 408 410 409
f 409 406 408
f 4 144 411
f 411 144 404
f 411 410 4
f 411 404 403
f 403 410 411
f 178 401 7
f 522 431 523
f 522 523 520
f 522 519 432
f 432 431 522
f 520 521 522
f 521 519 522
f 225 224 223
f 224 255 223
f 256 225 223
f 223 265 256
f 223 255 265
f 206 212 211
f 213 210 211
f 214 213 211
f 211 212 214
f 202 190 10
f 10 207 202
f 202 210 190
f 206 211 202
f 202 211 210
f 254 252 251
f 251 253 254
f 254 207 252
f 203 253 111
f 111 110 203
f 110 109 203
f 512 508 509
f 512 510 513
f 509 510 512
f 513 305 512
f 512 305 306
f 306 508 512
f 502 507 501
f 507 508 501
f 501 508 297
f 11 238 240
f 240 207 11
f 237 238 235
f 103 239 237
f 239 240 237
f 237 240 238
f 237 82 103
f 237 235 82
f 280 234 236
f 235 238 236
f 234 232 236
f 232 235 236
f 9 238 11
f 9 207 280
f 11 207 9
f 9 236 238
f 245 100 99
f 245 243 100
f 87 121 119
f 87 307 121
f 119 89 87
f 563 495 569
f 563 500 495
f 569 568 563
f 568 566 563
f 570 500 563
f 563 571 570
f 563 566 571
f 498 500 570
f 498 562 316
f 498 570 562
f 316 315 498
f 567 566 568
f 565 566 567
f 401 392 6
f 6 7 401
f 6 392 178
f 178 7 6
f 207 254 208
f 206 202 208
f 208 202 207
f 209 254 253
f 206 208 209
f 209 208 254
f 204 212 206
f 204 203 109
f 204 109 81
f 81 212 204
f 297 493 497
f 497 501 297
f 493 500 497
f 280 236 15
f 15 9 280
f 236 9 15
f 247 99 128
f 247 245 99
f 128 249 247
f 247 248 245
f 348 308 85
f 85 89 348
f 85 87 89
f 253 203 205
f 205 209 253
f 203 204 205
f 206 209 205
f 205 204 206
f 502 501 499
f 501 497 499
f 499 498 315
f 500 498 499
f 499 497 500
f 499 315 328
f 328 502 499
f 252 207 250
f 207 248 250
f 249 252 250
f 250 247 249
f 248 247 250
f 207 240 242
f 239 241 242
f 242 240 239
f 307 87 86
f 87 85 86
f 86 308 307
f 86 85 308
f 246 248 207
f 207 242 246
f 245 248 246
f 243 245 246
f 243 246 244
f 244 246 242
f 241 243 244
f 244 242 241
f 183 194 195
f 183 195 185
f 184 183 185
f 185 182 184
f 280 182 1
f 280 184 182
f 1 17 280
f 195 194 197
f 197 194 192
f 192 70 197
f 70 69 197
f 289 297 301
f 301 297 300
f 24 262 259
f 259 219 24
f 572 569 495
f 495 496 572
f 568 569 572
f 572 573 568
f 565 69 70
f 575 69 565
f 493 297 289
f 493 289 494
f 496 495 493
f 494 496 493
f 567 568 573
f 573 574 567
f 575 565 567
f 567 574 575

