# https://github.com/mikedh/trimesh
v -0.01678908 -0.04944813 -0.00300000
v -0.01596006 -0.03930046 -0.00300000
v -0.01462130 -0.04652555 -0.00300000
v -0.01749854 -0.04905325 -0.00300000
v -0.01749316 -0.04909933 -0.00300000
v -0.01036549 -0.00286441 -0.00300000
v -0.01045818 -0.00298701 -0.00300000
v -0.01745654 -0.04138998 -0.00300000
v 0.01045818 -0.00298701 -0.00300000
v 0.01036549 -0.00286441 -0.00300000
v -0.00959913 -0.00196035 -0.00300000
v -0.00875152 -0.00115713 -0.00300000
v -0.00782151 -0.00045876 -0.00300000
v -0.00765228 -0.00034828 -0.00300000
v 0.00782151 -0.00045876 -0.00300000
v 0.00875152 -0.00115713 -0.00300000
v 0.00959913 -0.00196036 -0.00300000
v -0.01477459 -0.01418180 -0.00300000
v -0.01401741 -0.01099025 -0.00300000
v -0.01308894 -0.00808968 -0.00300000
v -0.01121675 -0.00411278 -0.00300000
v -0.01190121 -0.00534275 -0.00300000
v -0.01252275 -0.00667047 -0.00300000
v -0.00537479 0.00076970 -0.00300000
v -0.00656178 0.00026411 -0.00300000
v -0.01534643 -0.01741385 -0.00300000
v -0.01584905 -0.02066102 -0.00300000
v -0.01667077 -0.02718118 -0.00300000
v -0.01719651 -0.03373169 -0.00300000
v -0.01736640 -0.03755991 -0.00300000
v 0.00765228 -0.00034828 -0.00300000
v 0.00656178 0.00026411 -0.00300000
v 0.00537479 0.00076969 -0.00300000
v 0.01401741 -0.01099026 -0.00300000
v 0.01308894 -0.00808969 -0.00300000
v 0.01252275 -0.00667048 -0.00300000
v 0.01132781 -0.00553901 -0.00300000
v 0.01190120 -0.00534275 -0.00300000
v 0.01121675 -0.00411277 -0.00300000
v 0.01687536 -0.04895493 -0.00300000
v 0.01749316 -0.04909933 -0.00300000
v 0.01749854 -0.04905325 -0.00300000
v 0.01689836 -0.04833932 -0.00300000
v 0.01745654 -0.04138998 -0.00300000
v -0.00139897 0.00162066 -0.00300000
v -0.00285820 0.00143833 -0.00300000
v -0.00426507 0.00112463 -0.00300000
v 0.00426507 0.00112462 -0.00300000
v 0.00285820 0.00143833 -0.00300000
v 0.00068613 0.00106162 -0.00300000
v 0.00139897 0.00162065 -0.00300000
v -0.00000000 0.00167481 -0.00300000
v 0.01736640 -0.03755991 -0.00300000
v 0.01719650 -0.03373170 -0.00300000
v 0.01667077 -0.02718118 -0.00300000
v 0.01584905 -0.02066102 -0.00300000
v 0.01534642 -0.01741386 -0.00300000
v 0.01477459 -0.01418181 -0.00300000
v -0.00175179 -0.00640937 -0.01146003
v -0.00159127 -0.00839507 -0.01201803
v -0.00321981 -0.00911700 -0.01205623
v -0.00452037 0.00132265 -0.00469558
v -0.00332522 0.00165618 -0.00400000
v -0.00221324 0.00183833 -0.00400000
v -0.01057795 -0.00270989 -0.00470686
v -0.01020676 -0.00218968 -0.00400000
v -0.00924158 -0.00118806 -0.00400000
v -0.01197803 -0.00484148 -0.00400000
v -0.01091853 -0.00311069 -0.00400000
v -0.01221317 -0.00529479 -0.00400000
v -0.01251084 -0.00591010 -0.00400000
v -0.01279080 -0.00653446 -0.00400000
v -0.01305443 -0.00716651 -0.00400000
v -0.01330282 -0.00780462 -0.00400000
v -0.01337035 -0.00798572 -0.00400000
v -0.01373795 -0.00903545 -0.00404224
v -0.00465619 0.00045747 -0.00694939
v -0.00459570 -0.00058451 -0.00819410
v -0.00589484 -0.00002119 -0.00702979
v -0.00583476 -0.00111309 -0.00828608
v -0.00713258 -0.00119238 -0.00774775
v -0.00708021 -0.00180673 -0.00835175
v -0.00830025 -0.00268572 -0.00837396
v -0.00459914 0.00113735 -0.00550168
v -0.00586315 0.00039728 -0.00631964
v -0.00713293 -0.00065174 -0.00708785
v -0.00835411 -0.00203810 -0.00777005
v -0.00943817 -0.00375017 -0.00834688
v -0.00221034 0.00005824 -0.00800780
v -0.00225151 0.00103445 -0.00678739
v -0.00110712 0.00116153 -0.00673387
v -0.00225218 0.00164551 -0.00540305
v -0.00111384 0.00175821 -0.00537050
v -0.00223559 0.00179710 -0.00464613
v -0.00000000 0.00193771 -0.00462385
v -0.00443739 -0.00192831 -0.00925535
v -0.00563503 -0.00249316 -0.00934379
v -0.00684039 -0.00322576 -0.00940579
v -0.00802244 -0.00414394 -0.00942443
v -0.00912594 -0.00524600 -0.00939399
v -0.01010252 -0.00650246 -0.00932133
v -0.00952227 -0.00810884 -0.01018808
v -0.01053704 -0.00717034 -0.00927599
v -0.00638419 -0.01197703 -0.01202905
v -0.00792442 -0.00856402 -0.01096571
v -0.00563660 -0.01108681 -0.01206047
v -0.00697650 -0.00750910 -0.01099777
v -0.00202873 -0.00277187 -0.00999880
v -0.00189940 -0.00451690 -0.01079039
v -0.00390626 -0.00528026 -0.01090569
v -0.00357288 -0.00716786 -0.01153389
v -0.00493658 -0.00586957 -0.01095999
v -0.00449782 -0.00774170 -0.01156675
v -0.00596727 -0.00660934 -0.01099459
v -0.00541787 -0.00845062 -0.01158448
v -0.00484737 -0.01031069 -0.01207381
v -0.00000000 0.00175642 -0.00548517
v -0.00000000 0.00113412 -0.00682104
v 0.00000000 0.00010202 -0.00806770
v -0.00213423 -0.00122867 -0.00907477
v -0.00248182 -0.01301390 -0.01282101
v -0.00124161 -0.01244583 -0.01282837
v -0.01123547 -0.00374939 -0.00470257
v -0.01115126 -0.00408162 -0.00627743
v -0.01127227 -0.00480672 -0.00697520
v -0.01179730 -0.00614858 -0.00695866
v -0.01122858 -0.00631590 -0.00821032
v -0.00750571 0.00009447 -0.00400000
v -0.00784410 -0.00016034 -0.00474514
v -0.00885559 -0.00089750 -0.00473941
v -0.00916041 -0.00134107 -0.00558821
v -0.01012082 -0.00230602 -0.00555458
v -0.01035001 -0.00290995 -0.00632270
v -0.01170970 -0.00534513 -0.00626437
v -0.01092286 -0.00338137 -0.00552229
v -0.00977760 -0.00175254 -0.00472280
v -0.00852804 -0.00059379 -0.00400000
v -0.01089088 -0.00562367 -0.00823356
v -0.01092215 -0.00416394 -0.00699398
v -0.01050254 -0.00424811 -0.00768088
v -0.01047423 -0.00355906 -0.00703039
v -0.00947134 -0.00243145 -0.00708775
v -0.00936295 -0.00185452 -0.00636981
v -0.00825777 -0.00094215 -0.00638672
v -0.00809400 -0.00050835 -0.00560003
v -0.00695662 0.00017757 -0.00558654
v -0.00676948 0.00045083 -0.00473824
v -0.00565755 0.00094045 -0.00472024
v -0.00553690 0.00102962 -0.00400000
v -0.00578530 0.00072040 -0.00555079
v -0.00707603 -0.00019252 -0.00636859
v -0.00834221 -0.00145449 -0.00710885
v -0.00949370 -0.00306547 -0.00774560
v -0.01044399 -0.00497187 -0.00827737
v -0.01086471 -0.00787764 -0.00925100
v -0.01065137 -0.00274471 -0.00400000
v -0.01025357 -0.00946075 -0.01012059
v -0.00877568 -0.00974903 -0.01090342
v -0.00859968 -0.00686769 -0.01025747
v -0.00756308 -0.00577109 -0.01028934
v -0.00645543 -0.00484717 -0.01027755
v -0.00532564 -0.00409937 -0.01022705
v -0.00420101 -0.00351364 -0.01015269
v -0.00326521 -0.00151070 -0.00916009
v -0.00338191 -0.00019856 -0.00809568
v -0.00343590 0.00080506 -0.00686373
v -0.00341568 0.00144275 -0.00544950
v -0.00000000 -0.00101729 -0.00899329
v 0.00000000 -0.00157992 -0.00937166
v -0.00000000 -0.00254057 -0.00992925
v 0.00000000 -0.00366509 -0.01047787
v 0.00000000 -0.00638539 -0.01149813
v -0.00000000 -0.01018744 -0.01246312
v -0.00000000 -0.01225169 -0.01283017
v -0.00084432 0.00195572 -0.00400000
v -0.00000000 0.00197481 -0.00400000
v 0.00000000 -0.02249387 -0.01423504
v -0.01382331 -0.00929822 -0.00412767
v -0.01405906 -0.01017361 -0.00483482
v -0.01427119 -0.01141963 -0.00582299
v -0.01434266 -0.01267864 -0.00680545
v -0.01433078 -0.01317413 -0.00718795
v -0.01394799 -0.01550049 -0.00894778
v -0.01413316 -0.01475290 -0.00838927
v -0.01420623 -0.01435867 -0.00809197
v -0.01355646 -0.01659399 -0.00975166
v -0.01323426 -0.01726597 -0.01023914
v -0.01268174 -0.01817193 -0.01089045
v -0.01202888 -0.01899886 -0.01148156
v -0.01143906 -0.01959707 -0.01190905
v -0.01065746 -0.02023525 -0.01236805
v -0.00990251 -0.02072580 -0.01272611
v -0.00897642 -0.02119931 -0.01308032
v -0.00797450 -0.02158878 -0.01338312
v -0.00561115 -0.02215389 -0.01386411
v -0.00624693 -0.02204069 -0.01376090
v -0.00683403 -0.02191311 -0.01364983
v -0.00432179 -0.02231832 -0.01402665
v -0.00296541 -0.02241997 -0.01414122
v -0.00154199 -0.02247440 -0.01421041
v -0.01375912 -0.00909956 -0.00405269
v -0.01375723 -0.00909380 -0.00405136
v -0.01382054 -0.00928951 -0.00412360
v -0.01380142 -0.00922967 -0.00409710
v -0.01378053 -0.00916504 -0.00407215
v 0.00124160 -0.01244582 -0.01282837
v 0.00532564 -0.00409936 -0.01022705
v 0.00420101 -0.00351364 -0.01015269
v 0.00443740 -0.00192830 -0.00925535
v 0.00084433 0.00195572 -0.00400000
v 0.00221324 0.00183833 -0.00400000
v 0.00223559 0.00179710 -0.00464613
v 0.01373796 -0.00903545 -0.00404224
v 0.01337035 -0.00798572 -0.00400000
v 0.01330282 -0.00780462 -0.00400000
v 0.01251084 -0.00591010 -0.00400000
v 0.01279080 -0.00653446 -0.00400000
v 0.01305443 -0.00716652 -0.00400000
v 0.01123547 -0.00374939 -0.00470257
v 0.01091853 -0.00311070 -0.00400000
v 0.01197803 -0.00484148 -0.00400000
v 0.01065137 -0.00274471 -0.00400000
v 0.01057795 -0.00270988 -0.00470687
v 0.01020676 -0.00218967 -0.00400000
v 0.00977760 -0.00175254 -0.00472280
v 0.00924158 -0.00118806 -0.00400000
v 0.00885559 -0.00089751 -0.00473941
v 0.00852804 -0.00059379 -0.00400000
v 0.00784410 -0.00016033 -0.00474514
v 0.00750571 0.00009446 -0.00400000
v 0.00676948 0.00045083 -0.00473823
v 0.00565755 0.00094045 -0.00472024
v 0.00553690 0.00102962 -0.00400000
v 0.00452037 0.00132266 -0.00469558
v 0.00332522 0.00165617 -0.00400000
v 0.00583476 -0.00111307 -0.00828608
v 0.00459570 -0.00058451 -0.00819410
v 0.00465619 0.00045747 -0.00694939
v 0.00343590 0.00080506 -0.00686373
v 0.00341568 0.00144275 -0.00544949
v 0.00225218 0.00164550 -0.00540305
v 0.00111384 0.00175821 -0.00537050
v 0.00110712 0.00116153 -0.00673387
v 0.00225151 0.00103445 -0.00678739
v 0.00221034 0.00005825 -0.00800780
v 0.01044399 -0.00497187 -0.00827737
v 0.01010252 -0.00650246 -0.00932134
v 0.00912594 -0.00524600 -0.00939399
v 0.00859968 -0.00686768 -0.01025747
v 0.00802244 -0.00414394 -0.00942443
v 0.00756308 -0.00577109 -0.01028934
v 0.00684039 -0.00322575 -0.00940579
v 0.00645543 -0.00484717 -0.01027755
v 0.00563503 -0.00249317 -0.00934379
v 0.00596728 -0.00660934 -0.01099459
v 0.00493658 -0.00586957 -0.01095999
v 0.00792441 -0.00856401 -0.01096571
v 0.00638419 -0.01197703 -0.01202905
v 0.00697650 -0.00750910 -0.01099777
v 0.00563660 -0.01108680 -0.01206047
v 0.00484737 -0.01031069 -0.01207381
v 0.00338190 -0.00019856 -0.00809568
v 0.00326521 -0.00151070 -0.00916009
v 0.00213423 -0.00122866 -0.00907477
v 0.00202873 -0.00277186 -0.00999880
v 0.00189940 -0.00451691 -0.01079039
v 0.00541786 -0.00845062 -0.01158448
v 0.00449782 -0.00774171 -0.01156675
v 0.00390626 -0.00528026 -0.01090569
v 0.00357288 -0.00716786 -0.01153389
v 0.00175179 -0.00640937 -0.01146004
v 0.00248182 -0.01301390 -0.01282101
v 0.00321981 -0.00911700 -0.01205623
v 0.00159127 -0.00839509 -0.01201804
v 0.01179730 -0.00614858 -0.00695865
v 0.01127227 -0.00480673 -0.00697520
v 0.01170970 -0.00534514 -0.00626437
v 0.01092285 -0.00338137 -0.00552229
v 0.01035001 -0.00290995 -0.00632270
v 0.01012082 -0.00230602 -0.00555458
v 0.00936295 -0.00185451 -0.00636981
v 0.00916041 -0.00134107 -0.00558821
v 0.00825777 -0.00094216 -0.00638672
v 0.00809400 -0.00050836 -0.00560003
v 0.00707603 -0.00019252 -0.00636859
v 0.00695662 0.00017757 -0.00558654
v 0.00586315 0.00039727 -0.00631964
v 0.00578530 0.00072040 -0.00555079
v 0.00459914 0.00113734 -0.00550168
v 0.01092215 -0.00416394 -0.00699398
v 0.01115126 -0.00408162 -0.00627743
v 0.01221316 -0.00529480 -0.00400000
v 0.00589484 -0.00002119 -0.00702979
v 0.00713293 -0.00065174 -0.00708785
v 0.00713258 -0.00119237 -0.00774775
v 0.00834221 -0.00145449 -0.00710885
v 0.00835411 -0.00203809 -0.00777005
v 0.00947134 -0.00243145 -0.00708775
v 0.00949370 -0.00306547 -0.00774560
v 0.01047423 -0.00355906 -0.00703039
v 0.01050254 -0.00424811 -0.00768088
v 0.00708020 -0.00180674 -0.00835174
v 0.00830025 -0.00268571 -0.00837396
v 0.00943817 -0.00375018 -0.00834689
v 0.01025357 -0.00946074 -0.01012059
v 0.01086471 -0.00787765 -0.00925100
v 0.01122858 -0.00631590 -0.00821032
v 0.00877569 -0.00974904 -0.01090342
v 0.01089088 -0.00562368 -0.00823356
v 0.01053704 -0.00717035 -0.00927599
v 0.00952227 -0.00810884 -0.01018808
v 0.01382054 -0.00928951 -0.00412360
v 0.01382331 -0.00929823 -0.00412767
v 0.01380142 -0.00922968 -0.00409710
v 0.01375723 -0.00909379 -0.00405136
v 0.01378053 -0.00916503 -0.00407215
v 0.01375912 -0.00909956 -0.00405269
v 0.00154199 -0.02247440 -0.01421041
v 0.01405905 -0.01017361 -0.00483482
v 0.01427119 -0.01141963 -0.00582299
v 0.01434266 -0.01267864 -0.00680545
v 0.01433078 -0.01317412 -0.00718795
v 0.01420623 -0.01435868 -0.00809197
v 0.01413316 -0.01475290 -0.00838927
v 0.00561115 -0.02215389 -0.01386411
v 0.00624693 -0.02204068 -0.01376090
v 0.00683403 -0.02191311 -0.01364983
v 0.00797450 -0.02158877 -0.01338312
v 0.00897642 -0.02119931 -0.01308032
v 0.00990251 -0.02072580 -0.01272611
v 0.01065746 -0.02023525 -0.01236805
v 0.01143906 -0.01959708 -0.01190905
v 0.01202888 -0.01899886 -0.01148156
v 0.01268174 -0.01817193 -0.01089045
v 0.01323426 -0.01726597 -0.01023914
v 0.01355646 -0.01659398 -0.00975166
v 0.01394799 -0.01550049 -0.00894778
v 0.00432179 -0.02231832 -0.01402665
v 0.00296540 -0.02241998 -0.01414122
v -0.00000000 0.00197481 -0.00330000
v 0.00142261 0.00191972 -0.00330000
v 0.01065137 -0.00274472 -0.00330000
v 0.01279823 -0.00655167 -0.00330000
v 0.01337035 -0.00798572 -0.00330000
v 0.01216856 -0.00520666 -0.00330000
v 0.01197803 -0.00484148 -0.00330000
v 0.01147285 -0.00395653 -0.00330000
v 0.01069856 -0.00280751 -0.00330000
v 0.00750571 0.00009448 -0.00330000
v 0.00781389 -0.00009553 -0.00330000
v 0.00798791 -0.00020914 -0.00330000
v 0.00894503 -0.00092789 -0.00330000
v 0.00924158 -0.00118807 -0.00330000
v 0.00981737 -0.00175452 -0.00330000
v 0.01060370 -0.00268205 -0.00330000
v 0.00332522 0.00165618 -0.00330000
v 0.00434465 0.00141388 -0.00330000
v 0.00547812 0.00105134 -0.00330000
v 0.00553690 0.00102961 -0.00330000
v 0.00669392 0.00053345 -0.00330000
v 0.00290930 0.00173394 -0.00330000
v -0.00332522 0.00165617 -0.00330000
v -0.00290930 0.00173395 -0.00330000
v -0.00142260 0.00191973 -0.00330000
v -0.00547812 0.00105133 -0.00330000
v -0.00434465 0.00141387 -0.00330000
v -0.00781389 -0.00009553 -0.00330000
v -0.00750571 0.00009447 -0.00330000
v -0.00669392 0.00053345 -0.00330000
v -0.00553690 0.00102962 -0.00330000
v -0.01065137 -0.00274472 -0.00330000
v -0.01060370 -0.00268205 -0.00330000
v -0.00981737 -0.00175451 -0.00330000
v -0.00924158 -0.00118805 -0.00330000
v -0.00894503 -0.00092789 -0.00330000
v -0.00798791 -0.00020914 -0.00330000
v -0.01069855 -0.00280751 -0.00330000
v -0.01147285 -0.00395654 -0.00330000
v -0.01337035 -0.00798572 -0.00330000
v -0.01279822 -0.00655167 -0.00330000
v -0.01197803 -0.00484148 -0.00330000
v -0.01216856 -0.00520667 -0.00330000
v 0.01057178 -0.00270648 -0.00315000
v 0.00000000 0.00182480 -0.00304019
v 0.00000000 0.00193461 -0.00315000
v 0.00141078 0.00177019 -0.00304019
v 0.00290246 0.00169435 -0.00315000
v 0.00141944 0.00187965 -0.00315000
v 0.00433399 0.00137512 -0.00315000
v 0.00546428 0.00101360 -0.00315000
v 0.00667621 0.00049737 -0.00315000
v 0.00891910 -0.00095860 -0.00315000
v 0.00796561 -0.00024258 -0.00315000
v 0.00779224 -0.00012940 -0.00315000
v 0.00978813 -0.00178209 -0.00315000
v 0.01066635 -0.00283155 -0.00315000
v 0.01143854 -0.00397746 -0.00315000
v 0.00288375 0.00158614 -0.00304019
v 0.00430486 0.00126925 -0.00304019
v 0.00542646 0.00091052 -0.00304019
v 0.00662785 0.00039877 -0.00304019
v 0.00773308 -0.00022191 -0.00304019
v 0.00790471 -0.00033395 -0.00304019
v 0.00884827 -0.00104251 -0.00304019
v 0.00970825 -0.00185744 -0.00304019
v 0.01048459 -0.00277324 -0.00304019
v 0.01057837 -0.00289727 -0.00304019
v 0.01134480 -0.00403465 -0.00304019
v 0.01203488 -0.00527471 -0.00304019
v 0.01266049 -0.00661108 -0.00304019
v 0.01322964 -0.00803770 -0.00304019
v 0.01213274 -0.00522489 -0.00315000
v 0.01276132 -0.00656759 -0.00315000
v 0.01333265 -0.00799964 -0.00315000
v -0.00141944 0.00187966 -0.00315000
v -0.00141079 0.00177019 -0.00304019
v -0.00290246 0.00169435 -0.00315000
v -0.00433399 0.00137513 -0.00315000
v -0.00546428 0.00101361 -0.00315000
v -0.00667621 0.00049736 -0.00315000
v -0.00779224 -0.00012939 -0.00315000
v -0.00796561 -0.00024258 -0.00315000
v -0.00891910 -0.00095860 -0.00315000
v -0.00978813 -0.00178208 -0.00315000
v -0.01057178 -0.00270648 -0.00315000
v -0.01066635 -0.00283155 -0.00315000
v -0.01213274 -0.00522490 -0.00315000
v -0.01143854 -0.00397747 -0.00315000
v -0.01276132 -0.00656759 -0.00315000
v -0.01333265 -0.00799964 -0.00315000
v -0.00288375 0.00158614 -0.00304019
v -0.00430486 0.00126925 -0.00304019
v -0.00542646 0.00091052 -0.00304019
v -0.00662785 0.00039878 -0.00304019
v -0.00773308 -0.00022191 -0.00304019
v -0.00790471 -0.00033395 -0.00304019
v -0.00884827 -0.00104251 -0.00304019
v -0.00970825 -0.00185744 -0.00304019
v -0.01048459 -0.00277322 -0.00304019
v -0.01057837 -0.00289727 -0.00304019
v -0.01134480 -0.00403465 -0.00304019
v -0.01203488 -0.00527471 -0.00304019
v -0.01266049 -0.00661107 -0.00304019
v -0.01322964 -0.00803770 -0.00304019
v -0.01459129 -0.01199637 -0.00330000
v -0.01506866 -0.01412247 -0.00330000
v -0.01502926 -0.01413042 -0.00315000
v -0.01771067 -0.04905325 -0.00308787
v -0.01764854 -0.04905325 -0.00304019
v -0.01760652 -0.04138767 -0.00304019
v -0.01430658 -0.01091038 -0.00330000
v -0.01426784 -0.01092109 -0.00315000
v -0.01416200 -0.01095032 -0.00304019
v -0.01777570 -0.04905325 -0.00318520
v -0.01775835 -0.04905324 -0.00315000
v -0.01771631 -0.04138598 -0.00315000
v -0.01775650 -0.04138536 -0.00330000
v -0.01779854 -0.04905324 -0.00330000
v -0.01762607 -0.03755135 -0.00315000
v -0.01766624 -0.03755002 -0.00330000
v -0.01692919 -0.02715427 -0.00315000
v -0.01722531 -0.02986763 -0.00330000
v -0.01745590 -0.03371698 -0.00315000
v -0.01749603 -0.03371471 -0.00330000
v -0.01765679 -0.03727015 -0.00330000
v -0.01751632 -0.03755496 -0.00304019
v -0.01734626 -0.03372320 -0.00304019
v -0.01681997 -0.02716565 -0.00304019
v -0.01599748 -0.02063932 -0.00304019
v -0.01549447 -0.01738974 -0.00304019
v -0.01610613 -0.02062343 -0.00315000
v -0.01560285 -0.01737208 -0.00315000
v -0.01550827 -0.01655120 -0.00330000
v -0.01564252 -0.01736563 -0.00330000
v -0.01614590 -0.02061762 -0.00330000
v -0.01647221 -0.02295788 -0.00330000
v -0.01696916 -0.02715011 -0.00330000
v -0.01492163 -0.01415214 -0.00304019
v -0.01732887 -0.04955078 -0.00340688
v -0.01735355 -0.04955021 -0.00343295
v -0.01738083 -0.04954643 -0.00342266
v -0.01739690 -0.04947965 -0.00320183
v -0.01749002 -0.04938115 -0.00309979
v -0.01745614 -0.04922500 -0.00301742
v -0.01755483 -0.04927038 -0.00304486
v -0.01760487 -0.04912578 -0.00302284
v -0.01730408 -0.04954707 -0.00338119
v -0.01744931 -0.04949998 -0.00325042
v -0.01756378 -0.04940910 -0.00315985
v -0.01764229 -0.04929878 -0.00310886
v -0.01769958 -0.04914821 -0.00308787
v -0.01749842 -0.04950364 -0.00330605
v -0.01762462 -0.04941300 -0.00323802
v -0.01770632 -0.04930624 -0.00320049
v -0.01776286 -0.04916319 -0.00318520
v -0.01754123 -0.04949040 -0.00336531
v -0.01760647 -0.04944718 -0.00334387
v -0.01766589 -0.04939244 -0.00332577
v -0.01773800 -0.04929172 -0.00330697
v -0.01778508 -0.04916845 -0.00330000
v -0.01459129 -0.01199637 -0.00400000
v -0.01550827 -0.01655121 -0.00400000
v -0.01647221 -0.02295789 -0.00400000
v -0.01722531 -0.02986763 -0.00400000
v -0.01765679 -0.03727015 -0.00400000
v -0.01779854 -0.04905325 -0.00400000
v -0.01472401 -0.01276959 -0.00506552
v -0.01456650 -0.01291195 -0.00621111
v -0.01512843 -0.01567636 -0.00628075
v 0.00000000 -0.02756638 -0.01466611
v -0.01657701 -0.02410425 -0.00518402
v -0.01747943 -0.04389936 -0.00838354
v -0.01773609 -0.04903713 -0.00683030
v -0.01768427 -0.04386353 -0.00694983
v -0.01779021 -0.04905080 -0.00546666
v -0.01776963 -0.04384109 -0.00542429
v -0.01711937 -0.04394636 -0.00969474
v -0.01745052 -0.04897037 -0.00892098
v -0.01760244 -0.04900527 -0.00810184
v -0.01584807 -0.04406502 -0.01187632
v -0.01666134 -0.04880127 -0.01102502
v -0.01658010 -0.04400232 -0.01086286
v -0.01682114 -0.04883423 -0.01072748
v -0.01718645 -0.04891185 -0.00985731
v -0.01379675 -0.04420181 -0.01343112
v -0.01515494 -0.04851059 -0.01276108
v -0.01491903 -0.04413226 -0.01273140
v -0.01554861 -0.04858375 -0.01242636
v -0.01615471 -0.04869995 -0.01177354
v -0.00766367 -0.04445896 -0.01491050
v -0.01015384 -0.04771820 -0.01464163
v -0.00940314 -0.04440227 -0.01470614
v -0.01164669 -0.04792602 -0.01433974
v -0.01102043 -0.04433903 -0.01440363
v -0.01288800 -0.04811861 -0.01396775
v -0.01249182 -0.04427148 -0.01398414
v -0.01335271 -0.04819506 -0.01378869
v -0.01431565 -0.04835987 -0.01332073
v -0.00378081 -0.04714571 -0.01508834
v -0.00658667 -0.04733373 -0.01499726
v -0.00824485 -0.04749240 -0.01487878
v -0.00331160 -0.02634676 -0.01447786
v -0.00959976 -0.02569307 -0.01342978
v -0.00657333 -0.02607574 -0.01411690
v -0.01035356 -0.02053255 -0.01253301
v -0.01153989 -0.02021234 -0.01195291
v -0.01427297 -0.01929531 -0.00958225
v -0.01351080 -0.01958355 -0.01047765
v -0.01487832 -0.01903808 -0.00858731
v -0.00348241 -0.03089662 -0.01477251
v -0.00520988 -0.03080586 -0.01463792
v -0.00689603 -0.03068820 -0.01443223
v -0.00851604 -0.03054908 -0.01414391
v -0.01004562 -0.03039393 -0.01376144
v -0.01146184 -0.03022818 -0.01327413
v -0.01274410 -0.03005725 -0.01267296
v -0.01221266 -0.02525525 -0.01234449
v -0.01387496 -0.02988659 -0.01195137
v -0.01331647 -0.02503332 -0.01163576
v -0.01259666 -0.01989261 -0.01126835
v -0.01426603 -0.02481878 -0.01081225
v -0.01484103 -0.02972162 -0.01110606
v -0.01505221 -0.02461871 -0.00987526
v -0.01563389 -0.02956776 -0.01013783
v -0.01567104 -0.02444016 -0.00883039
v -0.01625093 -0.02943046 -0.00905236
v -0.01612445 -0.02429019 -0.00768824
v -0.01712744 -0.02917215 -0.00524001
v -0.01698172 -0.02922722 -0.00658187
v -0.01578551 -0.01855417 -0.00512588
v -0.01642106 -0.02417587 -0.00646518
v -0.01669630 -0.02931513 -0.00786107
v -0.01532709 -0.01882203 -0.00750236
v -0.01562531 -0.01865733 -0.00634186
v -0.01528786 -0.01555026 -0.00509777
v -0.01748017 -0.03399368 -0.00529055
v -0.01734889 -0.03403989 -0.00668633
v -0.01708144 -0.03411367 -0.00801423
v -0.01665314 -0.03421044 -0.00924666
v -0.01604879 -0.03432566 -0.01036429
v -0.01526178 -0.03445477 -0.01135508
v -0.00377428 -0.03998702 -0.01507382
v 0.00000000 -0.04705320 -0.01510952
v -0.00392144 -0.04454391 -0.01510477
v -0.00071177 -0.04705648 -0.01510925
v -0.00562506 -0.03992479 -0.01497630
v -0.00000000 -0.03097575 -0.01486987
v 0.00000000 -0.03619276 -0.01506815
v -0.00000000 -0.04004127 -0.01513629
v -0.01767986 -0.03880470 -0.00535458
v -0.01756955 -0.03884246 -0.00681367
v -0.01733031 -0.03890274 -0.00819441
v -0.01693216 -0.03898180 -0.00946750
v -0.01635574 -0.03907594 -0.01061282
v -0.01559119 -0.03918142 -0.01161837
v -0.01463701 -0.03929453 -0.01247926
v -0.01349902 -0.03941154 -0.01319674
v -0.01218918 -0.03952873 -0.01377714
v -0.01072455 -0.03964237 -0.01423088
v -0.00912612 -0.03974874 -0.01457144
v -0.00741775 -0.03984413 -0.01481438
v -0.01774865 -0.04927095 -0.00400000
v -0.01760896 -0.04944522 -0.00400000
v -0.01740732 -0.04954127 -0.00400000
v 0.01526178 -0.03445477 -0.01135508
v 0.01559119 -0.03918142 -0.01161837
v 0.01463701 -0.03929453 -0.01247926
v 0.01459129 -0.01199637 -0.00400000
v 0.01722531 -0.02986764 -0.00400000
v 0.01712744 -0.02917215 -0.00524001
v 0.01657701 -0.02410426 -0.00518402
v 0.00824485 -0.04749240 -0.01487878
v 0.00766367 -0.04445897 -0.01491050
v 0.00940314 -0.04440227 -0.01470614
v 0.00658667 -0.04733373 -0.01499726
v 0.00378081 -0.04714571 -0.01508834
v 0.00392144 -0.04454391 -0.01510477
v 0.00071177 -0.04705647 -0.01510925
v 0.01015384 -0.04771820 -0.01464163
v 0.01102043 -0.04433903 -0.01440363
v 0.01164669 -0.04792601 -0.01433974
v 0.01249182 -0.04427148 -0.01398414
v 0.01288800 -0.04811861 -0.01396775
v 0.01335271 -0.04819506 -0.01378869
v 0.01379675 -0.04420182 -0.01343112
v 0.01431565 -0.04835987 -0.01332073
v 0.01491903 -0.04413226 -0.01273140
v 0.01515494 -0.04851058 -0.01276108
v 0.01554861 -0.04858375 -0.01242637
v 0.01584807 -0.04406502 -0.01187632
v 0.01615471 -0.04869995 -0.01177354
v 0.01658010 -0.04400231 -0.01086286
v 0.01666134 -0.04880126 -0.01102502
v 0.01682114 -0.04883423 -0.01072748
v 0.01711937 -0.04394636 -0.00969474
v 0.01718645 -0.04891184 -0.00985731
v 0.01745052 -0.04897038 -0.00892098
v 0.01747943 -0.04389935 -0.00838354
v 0.01760244 -0.04900526 -0.00810184
v 0.01768427 -0.04386352 -0.00694983
v 0.01773610 -0.04903712 -0.00683030
v 0.01776963 -0.04384108 -0.00542429
v 0.01779021 -0.04905080 -0.00546666
v 0.01778414 -0.04383416 -0.00400000
v 0.01779854 -0.04905325 -0.00400000
v 0.01647221 -0.02295789 -0.00400000
v 0.01578551 -0.01855417 -0.00512588
v 0.01550827 -0.01655120 -0.00400000
v 0.01528786 -0.01555026 -0.00509777
v 0.01472401 -0.01276959 -0.00506552
v 0.01562531 -0.01865733 -0.00634186
v 0.01532709 -0.01882203 -0.00750236
v 0.01512843 -0.01567637 -0.00628075
v 0.01456650 -0.01291196 -0.00621111
v 0.01487832 -0.01903808 -0.00858731
v 0.01259666 -0.01989261 -0.01126835
v 0.01351079 -0.01958355 -0.01047765
v 0.01427297 -0.01929531 -0.00958225
v 0.01153989 -0.02021234 -0.01195291
v 0.01035355 -0.02053255 -0.01253301
v 0.00959976 -0.02569306 -0.01342978
v 0.00657334 -0.02607574 -0.01411690
v 0.00331160 -0.02634677 -0.01447787
v 0.00348241 -0.03089662 -0.01477251
v 0.00520988 -0.03080585 -0.01463792
v 0.01146184 -0.03022818 -0.01327413
v 0.01004561 -0.03039393 -0.01376144
v 0.00851604 -0.03054908 -0.01414391
v 0.00689603 -0.03068820 -0.01443223
v 0.01642106 -0.02417587 -0.00646518
v 0.01698172 -0.02922722 -0.00658187
v 0.01612445 -0.02429019 -0.00768824
v 0.01669630 -0.02931513 -0.00786107
v 0.01567104 -0.02444016 -0.00883039
v 0.01625093 -0.02943045 -0.00905236
v 0.01505221 -0.02461871 -0.00987526
v 0.01563389 -0.02956776 -0.01013783
v 0.01426603 -0.02481878 -0.01081225
v 0.01484103 -0.02972162 -0.01110606
v 0.01331647 -0.02503332 -0.01163576
v 0.01387496 -0.02988659 -0.01195137
v 0.01221266 -0.02525525 -0.01234449
v 0.01274410 -0.03005726 -0.01267296
v 0.01635574 -0.03907594 -0.01061282
v 0.01604879 -0.03432566 -0.01036429
v 0.01693216 -0.03898180 -0.00946750
v 0.01665313 -0.03421044 -0.00924666
v 0.01733031 -0.03890273 -0.00819441
v 0.01708144 -0.03411366 -0.00801423
v 0.01756955 -0.03884247 -0.00681367
v 0.01734889 -0.03403990 -0.00668633
v 0.01767986 -0.03880471 -0.00535458
v 0.01748017 -0.03399368 -0.00529055
v 0.01765679 -0.03727015 -0.00400000
v 0.00377428 -0.03998702 -0.01507382
v 0.01349902 -0.03941154 -0.01319674
v 0.01218918 -0.03952873 -0.01377714
v 0.01072455 -0.03964236 -0.01423088
v 0.00912612 -0.03974875 -0.01457144
v 0.00741775 -0.03984413 -0.01481438
v 0.00562506 -0.03992479 -0.01497630
v -0.00070996 -0.04724525 -0.01506884
v -0.01150168 -0.04839128 -0.01404543
v -0.01270665 -0.04858706 -0.01368509
v -0.01315529 -0.04866499 -0.01351258
v -0.01407993 -0.04883413 -0.01306446
v -0.01488022 -0.04898982 -0.01253235
v -0.01525415 -0.04906555 -0.01221522
v -0.01582916 -0.04918576 -0.01159705
v -0.01631078 -0.04929009 -0.01088593
v -0.01646324 -0.04932383 -0.01060202
v -0.01681330 -0.04940266 -0.00976688
v -0.01706818 -0.04946131 -0.00886028
v -0.01721570 -0.04949576 -0.00806119
v -0.01734616 -0.04952660 -0.00681171
v -0.01739920 -0.04953928 -0.00546182
v -0.00654823 -0.04768459 -0.01485065
v -0.00819303 -0.04784494 -0.01473433
v -0.01008329 -0.04807348 -0.01450148
v -0.01155796 -0.04828446 -0.01420553
v -0.01278095 -0.04848086 -0.01384177
v -0.01323792 -0.04855914 -0.01366702
v -0.01418342 -0.04872911 -0.01321137
v -0.01500643 -0.04888586 -0.01266728
v -0.01539246 -0.04896227 -0.01234174
v -0.01598739 -0.04908382 -0.01170562
v -0.01648579 -0.04918953 -0.01097344
v -0.01664328 -0.04922376 -0.01068150
v -0.01700385 -0.04930381 -0.00982496
v -0.01726494 -0.04936344 -0.00889956
v -0.01741525 -0.04939852 -0.00808757
v -0.01754747 -0.04943002 -0.00682378
v -0.01760086 -0.04944309 -0.00546496
v -0.00377070 -0.04733488 -0.01504854
v -0.00656804 -0.04752385 -0.01495895
v -0.00822059 -0.04768344 -0.01484200
v -0.01012239 -0.04791083 -0.01460763
v -0.01160904 -0.04812059 -0.01430919
v -0.01284492 -0.04831560 -0.01394149
v -0.01330762 -0.04839323 -0.01376450
v -0.01426681 -0.04856133 -0.01330203
v -0.01510384 -0.04871594 -0.01274838
v -0.01549700 -0.04879122 -0.01241670
v -0.01610320 -0.04891100 -0.01176840
v -0.01661071 -0.04901534 -0.01102300
v -0.01677088 -0.04904921 -0.01072622
v -0.01713701 -0.04912866 -0.00985723
v -0.01740146 -0.04918815 -0.00892123
v -0.01755336 -0.04922336 -0.00810209
v -0.01768673 -0.04925521 -0.00683042
v -0.01774049 -0.04926865 -0.00546668
v 0.01777570 -0.04905324 -0.00318520
v 0.01779854 -0.04905324 -0.00330000
v 0.01775650 -0.04138536 -0.00330000
v 0.01416199 -0.01095032 -0.00304019
v 0.01426784 -0.01092109 -0.00315000
v 0.01771632 -0.04138598 -0.00315000
v 0.01775835 -0.04905324 -0.00315000
v 0.01760652 -0.04138767 -0.00304019
v 0.01764854 -0.04905324 -0.00304019
v 0.01771067 -0.04905325 -0.00308787
v 0.01766624 -0.03755002 -0.00330000
v 0.01762607 -0.03755134 -0.00315000
v 0.01765679 -0.03727015 -0.00330000
v 0.01745590 -0.03371698 -0.00315000
v 0.01647221 -0.02295788 -0.00330000
v 0.01610613 -0.02062343 -0.00315000
v 0.01692919 -0.02715428 -0.00315000
v 0.01749603 -0.03371471 -0.00330000
v 0.01722531 -0.02986764 -0.00330000
v 0.01696916 -0.02715011 -0.00330000
v 0.01430658 -0.01091038 -0.00330000
v 0.01459129 -0.01199638 -0.00330000
v 0.01502926 -0.01413042 -0.00315000
v 0.01614590 -0.02061762 -0.00330000
v 0.01564252 -0.01736562 -0.00330000
v 0.01560285 -0.01737209 -0.00315000
v 0.01550827 -0.01655121 -0.00330000
v 0.01506866 -0.01412248 -0.00330000
v 0.01492163 -0.01415214 -0.00304019
v 0.01549447 -0.01738974 -0.00304019
v 0.01599748 -0.02063932 -0.00304019
v 0.01681997 -0.02716565 -0.00304019
v 0.01734627 -0.03372320 -0.00304019
v 0.01751632 -0.03755497 -0.00304019
v 0.00070996 -0.04724525 -0.01506884
v 0.00377070 -0.04733488 -0.01504854
v 0.00656804 -0.04752385 -0.01495895
v 0.00822059 -0.04768344 -0.01484200
v 0.01012239 -0.04791082 -0.01460763
v 0.01160904 -0.04812058 -0.01430919
v 0.01284492 -0.04831559 -0.01394149
v 0.01330762 -0.04839322 -0.01376450
v 0.01426681 -0.04856133 -0.01330203
v 0.01510384 -0.04871593 -0.01274838
v 0.01549700 -0.04879122 -0.01241670
v 0.01610320 -0.04891100 -0.01176840
v 0.01661071 -0.04901535 -0.01102300
v 0.01677088 -0.04904921 -0.01072622
v 0.01713701 -0.04912866 -0.00985723
v 0.01740145 -0.04918815 -0.00892124
v 0.01755336 -0.04922335 -0.00810209
v 0.01768672 -0.04925521 -0.00683042
v 0.01774049 -0.04926865 -0.00546668
v 0.01774865 -0.04927095 -0.00400000
v 0.00654823 -0.04768459 -0.01485065
v 0.00819303 -0.04784494 -0.01473433
v 0.01008329 -0.04807348 -0.01450148
v 0.01155796 -0.04828446 -0.01420553
v 0.01278094 -0.04848085 -0.01384177
v 0.01323792 -0.04855913 -0.01366702
v 0.01418342 -0.04872911 -0.01321137
v 0.01500643 -0.04888586 -0.01266728
v 0.01539246 -0.04896227 -0.01234174
v 0.01598739 -0.04908382 -0.01170562
v 0.01648579 -0.04918953 -0.01097344
v 0.01664329 -0.04922376 -0.01068150
v 0.01700385 -0.04930381 -0.00982496
v 0.01726494 -0.04936344 -0.00889956
v 0.01741525 -0.04939853 -0.00808757
v 0.01754747 -0.04943002 -0.00682378
v 0.01760086 -0.04944309 -0.00546496
v 0.01760896 -0.04944522 -0.00400000
v 0.01150168 -0.04839128 -0.01404543
v 0.01270665 -0.04858706 -0.01368509
v 0.01315529 -0.04866499 -0.01351258
v 0.01407993 -0.04883412 -0.01306446
v 0.01488022 -0.04898982 -0.01253235
v 0.01525415 -0.04906554 -0.01221522
v 0.01582916 -0.04918577 -0.01159705
v 0.01631078 -0.04929009 -0.01088593
v 0.01646324 -0.04932383 -0.01060202
v 0.01681330 -0.04940266 -0.00976687
v 0.01706818 -0.04946131 -0.00886028
v 0.01721570 -0.04949576 -0.00806119
v 0.01734616 -0.04952660 -0.00681171
v 0.01739920 -0.04953928 -0.00546182
v 0.01740732 -0.04954127 -0.00400000
v 0.01775797 -0.04925054 -0.00330299
v 0.01778508 -0.04916845 -0.00330000
v 0.01776286 -0.04916319 -0.00318520
v 0.01760859 -0.04944551 -0.00334320
v 0.01766589 -0.04939244 -0.00332577
v 0.01762462 -0.04941300 -0.00323802
v 0.01735355 -0.04955021 -0.00343295
v 0.01732887 -0.04955079 -0.00340688
v 0.01730408 -0.04954708 -0.00338119
v 0.01727952 -0.04953915 -0.00335623
v 0.01738493 -0.04954572 -0.00342113
v 0.01749842 -0.04950364 -0.00330604
v 0.01744931 -0.04949998 -0.00325042
v 0.01739690 -0.04947965 -0.00320183
v 0.01754123 -0.04949040 -0.00336531
v 0.01741140 -0.04933222 -0.00306442
v 0.01735454 -0.04942995 -0.00314660
v 0.01773800 -0.04929173 -0.00330697
v 0.01770632 -0.04930624 -0.00320049
v 0.01756378 -0.04940910 -0.00315985
v 0.01764229 -0.04929878 -0.00310886
v 0.01749002 -0.04938115 -0.00309979
v 0.01755483 -0.04927038 -0.00304486
v 0.01760487 -0.04912578 -0.00302284
v 0.01769958 -0.04914821 -0.00308787
v 0.01745614 -0.04922500 -0.00301742
f 716 481 604
f 601 532 600
f 695 664 701
f 695 617 589
f 527 520 595
f 527 526 528
f 528 520 527
f 528 529 520
f 3 4 43
f 57 54 55
f 488 481 479
f 479 716 846
f 514 512 519
f 591 512 514
f 479 481 480
f 480 716 479
f 481 716 480
f 562 563 561
f 561 558 562
f 712 729 728
f 728 711 712
f 530 532 601
f 719 808 720
f 538 526 527
f 527 525 538
f 616 617 615
f 615 788 616
f 615 695 701
f 617 695 615
f 540 539 735
f 584 539 540
f 540 582 584
f 584 582 589
f 701 664 665
f 662 669 665
f 588 695 589
f 664 695 588
f 589 582 588
f 704 824 825
f 533 531 738
f 527 595 596
f 558 556 596
f 743 528 526
f 559 556 558
f 558 561 559
f 1 4 5
f 5 4 486
f 40 4 1
f 40 43 4
f 416 45 384
f 384 385 416
f 386 385 384
f 62 149 366
f 135 65 132
f 69 65 135
f 785 784 54
f 763 784 785
f 34 43 54
f 50 37 31
f 32 400 33
f 15 31 16
f 249 251 248
f 1 488 487
f 487 488 479
f 487 847 1
f 479 846 487
f 487 846 847
f 482 488 1
f 489 488 482
f 604 481 496
f 496 716 604
f 1 485 483
f 483 482 1
f 489 482 483
f 489 483 490
f 490 483 485
f 752 754 757
f 763 785 757
f 757 785 759
f 753 840 645
f 753 754 752
f 841 753 752
f 840 753 841
f 623 621 622
f 613 615 701
f 696 625 697
f 697 625 622
f 517 524 518
f 518 512 517
f 519 512 518
f 592 512 591
f 592 577 578
f 591 577 592
f 578 593 592
f 517 512 592
f 592 593 517
f 548 559 561
f 185 573 182
f 185 549 573
f 746 728 729
f 845 846 837
f 837 846 716
f 716 715 837
f 837 715 836
f 754 694 762
f 763 757 762
f 762 757 754
f 586 582 540
f 540 530 586
f 586 530 601
f 601 551 586
f 532 530 541
f 541 531 532
f 541 530 540
f 597 556 555
f 555 598 597
f 597 598 525
f 597 596 556
f 597 525 527
f 527 596 597
f 525 598 536
f 536 598 599
f 621 791 619
f 539 584 585
f 589 583 585
f 585 584 589
f 616 788 787
f 808 719 718
f 259 251 249
f 270 268 273
f 720 824 703
f 703 704 720
f 824 704 703
f 581 596 595
f 595 580 581
f 562 558 581
f 558 596 581
f 564 563 562
f 562 581 564
f 564 581 580
f 564 580 566
f 566 580 579
f 579 593 578
f 594 595 520
f 594 580 595
f 593 579 594
f 594 579 580
f 742 743 526
f 526 538 742
f 529 528 744
f 528 743 744
f 743 726 744
f 556 559 557
f 555 556 557
f 74 179 75
f 72 124 134
f 131 130 145
f 176 210 95
f 486 485 484
f 484 5 486
f 484 485 1
f 1 5 484
f 340 210 176
f 438 437 424
f 147 150 146
f 62 366 63
f 46 45 416
f 25 14 13
f 13 47 25
f 47 24 25
f 376 137 375
f 128 137 376
f 149 147 369
f 128 368 369
f 369 147 128
f 135 124 68
f 67 137 130
f 375 137 67
f 136 132 65
f 65 66 136
f 136 67 130
f 136 130 131
f 131 132 136
f 65 69 156
f 156 66 65
f 156 69 377
f 759 44 862
f 862 760 759
f 55 54 783
f 54 784 783
f 53 44 759
f 759 785 53
f 53 785 54
f 54 57 58
f 58 34 54
f 37 34 36
f 36 34 35
f 17 405 16
f 13 50 52
f 52 47 13
f 45 46 52
f 52 46 47
f 52 384 45
f 52 50 31
f 282 225 280
f 227 225 282
f 298 300 299
f 276 320 275
f 305 311 310
f 333 311 305
f 310 306 305
f 481 488 492
f 492 496 481
f 492 488 489
f 498 603 497
f 603 496 497
f 496 492 497
f 506 500 458
f 515 500 506
f 506 516 515
f 458 500 454
f 494 490 491
f 491 448 455
f 491 485 486
f 491 490 485
f 847 846 851
f 41 1 864
f 864 862 41
f 758 841 752
f 752 757 758
f 760 862 863
f 841 758 863
f 859 844 857
f 857 863 859
f 841 863 857
f 840 841 839
f 839 857 856
f 841 857 839
f 720 808 809
f 809 824 720
f 825 824 809
f 622 625 624
f 624 623 622
f 793 623 624
f 792 623 793
f 792 791 621
f 621 623 792
f 622 621 620
f 621 619 620
f 668 699 669
f 668 669 662
f 700 613 701
f 701 665 700
f 700 665 669
f 669 699 700
f 576 577 591
f 568 577 576
f 572 567 566
f 572 579 578
f 566 579 572
f 573 549 565
f 565 567 573
f 566 567 565
f 565 549 563
f 565 564 566
f 563 564 565
f 519 518 749
f 731 750 749
f 499 602 498
f 500 602 499
f 498 494 499
f 731 713 714
f 513 750 515
f 513 514 519
f 519 749 513
f 513 749 750
f 515 516 513
f 513 516 514
f 515 750 751
f 751 500 515
f 751 602 500
f 498 602 751
f 732 750 731
f 731 714 732
f 732 714 715
f 732 751 750
f 187 548 186
f 563 549 547
f 549 183 547
f 183 186 547
f 547 561 563
f 547 548 561
f 547 186 548
f 184 183 549
f 549 185 184
f 521 746 523
f 523 524 517
f 711 728 727
f 727 744 726
f 845 837 838
f 793 812 811
f 811 792 793
f 683 682 680
f 680 682 333
f 827 811 812
f 534 536 599
f 533 536 534
f 599 600 534
f 534 600 532
f 532 531 534
f 534 531 533
f 790 619 791
f 790 809 808
f 791 809 790
f 613 700 614
f 614 700 699
f 699 620 614
f 614 620 619
f 618 585 583
f 618 617 616
f 616 787 618
f 589 617 618
f 618 583 589
f 734 735 539
f 539 585 734
f 808 718 807
f 735 718 736
f 540 735 736
f 736 541 540
f 736 718 719
f 105 193 192
f 193 543 192
f 192 543 555
f 551 542 550
f 550 588 582
f 582 586 550
f 550 586 551
f 601 600 552
f 552 551 601
f 555 543 554
f 554 598 555
f 599 598 554
f 664 588 587
f 588 550 587
f 256 268 270
f 261 273 267
f 267 273 268
f 249 311 257
f 257 259 249
f 60 172 274
f 270 273 274
f 61 111 60
f 741 740 723
f 741 742 538
f 533 738 739
f 525 536 537
f 537 538 525
f 537 741 538
f 740 741 537
f 522 594 520
f 522 529 521
f 520 529 522
f 521 523 522
f 522 523 517
f 517 593 522
f 593 594 522
f 75 179 178
f 379 74 75
f 72 134 73
f 73 134 179
f 179 74 73
f 74 379 73
f 182 573 509
f 509 181 182
f 507 509 575
f 158 105 191
f 158 102 105
f 189 559 560
f 189 557 559
f 131 145 144
f 80 81 79
f 79 78 80
f 77 78 79
f 77 165 78
f 176 95 175
f 175 340 176
f 105 102 159
f 2 4 3
f 12 437 438
f 373 136 66
f 67 136 373
f 146 145 129
f 129 147 146
f 128 147 129
f 129 145 130
f 129 137 128
f 130 137 129
f 148 147 149
f 150 147 148
f 148 149 62
f 62 84 148
f 84 150 148
f 364 175 64
f 340 175 364
f 362 63 366
f 432 24 47
f 14 25 434
f 149 369 370
f 429 427 380
f 72 73 380
f 380 73 379
f 441 427 442
f 442 21 441
f 442 427 429
f 123 69 135
f 135 68 123
f 123 68 69
f 377 69 378
f 69 68 378
f 378 426 377
f 41 862 42
f 42 862 44
f 44 53 42
f 42 53 54
f 54 43 42
f 43 40 42
f 42 1 41
f 42 40 1
f 55 783 782
f 37 36 9
f 16 31 9
f 31 37 9
f 9 17 16
f 9 38 39
f 36 38 9
f 9 39 408
f 35 34 755
f 320 319 650
f 650 319 608
f 354 353 395
f 353 392 395
f 407 9 408
f 227 229 228
f 404 392 393
f 16 405 404
f 405 395 404
f 404 395 392
f 352 392 353
f 386 384 51
f 384 52 51
f 49 52 31
f 49 32 33
f 31 32 49
f 49 51 52
f 33 48 49
f 48 398 49
f 49 398 386
f 386 51 49
f 400 32 401
f 401 32 31
f 212 95 210
f 210 211 212
f 212 235 234
f 211 235 212
f 210 340 341
f 341 211 210
f 399 398 48
f 33 400 399
f 399 48 33
f 208 254 207
f 256 207 253
f 234 232 289
f 280 225 223
f 223 278 280
f 220 278 223
f 226 225 227
f 226 352 353
f 226 353 354
f 354 225 226
f 227 228 226
f 228 352 226
f 231 229 286
f 296 294 283
f 280 278 279
f 300 298 279
f 299 300 301
f 248 246 247
f 310 311 247
f 249 248 247
f 247 311 249
f 307 306 310
f 276 275 307
f 321 275 320
f 321 307 275
f 493 492 489
f 493 497 492
f 498 497 493
f 493 494 498
f 489 490 493
f 493 490 494
f 455 448 456
f 456 454 455
f 494 491 495
f 495 454 500
f 455 454 495
f 495 491 455
f 495 499 494
f 500 499 495
f 1 847 848
f 848 851 1
f 847 851 848
f 1 851 852
f 853 838 837
f 842 844 850
f 850 853 842
f 1 860 854
f 854 864 1
f 861 860 859
f 862 864 861
f 861 854 860
f 864 854 861
f 859 863 861
f 861 863 862
f 843 844 842
f 856 857 843
f 843 857 844
f 860 852 858
f 858 852 851
f 859 860 858
f 858 844 859
f 851 850 858
f 858 850 844
f 822 837 836
f 822 853 837
f 641 802 639
f 803 802 641
f 761 758 757
f 761 863 758
f 761 757 759
f 759 760 761
f 760 863 761
f 645 840 643
f 803 641 643
f 698 697 622
f 622 620 698
f 667 697 698
f 698 668 667
f 698 620 699
f 699 668 698
f 666 682 683
f 666 697 667
f 696 697 666
f 666 683 696
f 590 576 591
f 591 514 590
f 514 516 590
f 568 576 504
f 477 568 504
f 504 462 477
f 504 464 462
f 576 464 504
f 569 577 568
f 578 577 569
f 569 572 578
f 748 749 518
f 748 518 524
f 751 732 733
f 733 603 498
f 498 751 733
f 716 496 733
f 733 496 603
f 733 715 716
f 733 732 715
f 125 134 124
f 183 184 127
f 126 125 127
f 127 184 185
f 127 185 182
f 127 181 126
f 182 181 127
f 724 741 723
f 742 741 724
f 711 727 710
f 709 830 710
f 726 709 710
f 710 727 726
f 744 727 745
f 745 746 521
f 728 746 745
f 745 727 728
f 521 529 745
f 529 744 745
f 792 811 810
f 810 809 791
f 791 792 810
f 825 809 810
f 793 624 794
f 794 812 793
f 656 680 333
f 708 830 709
f 816 817 832
f 811 827 826
f 825 810 826
f 826 810 811
f 706 705 826
f 826 827 706
f 631 797 629
f 815 797 816
f 815 830 814
f 619 790 612
f 615 613 612
f 613 614 612
f 612 614 619
f 787 734 702
f 702 734 585
f 585 618 702
f 789 790 808
f 808 807 789
f 789 807 788
f 789 612 790
f 788 615 789
f 615 612 789
f 806 735 788
f 806 807 718
f 788 807 806
f 737 736 719
f 737 738 531
f 531 541 737
f 541 736 737
f 737 719 720
f 720 738 737
f 193 106 194
f 194 543 193
f 116 61 121
f 116 106 115
f 115 61 116
f 104 193 105
f 105 106 104
f 104 106 193
f 191 105 545
f 105 192 545
f 545 192 555
f 555 557 545
f 545 557 191
f 553 554 543
f 543 194 553
f 553 552 600
f 553 600 599
f 599 554 553
f 259 267 255
f 256 253 255
f 268 256 255
f 255 267 268
f 251 259 255
f 255 253 251
f 332 311 333
f 269 266 208
f 208 207 269
f 269 207 256
f 269 256 270
f 171 266 172
f 122 61 60
f 121 61 122
f 122 199 121
f 270 274 271
f 271 274 172
f 172 266 271
f 271 269 270
f 266 269 271
f 121 199 198
f 198 199 542
f 740 739 722
f 723 740 722
f 722 706 723
f 722 705 706
f 535 536 533
f 535 537 536
f 533 739 535
f 535 739 740
f 740 537 535
f 76 379 75
f 76 203 204
f 75 178 76
f 178 203 76
f 429 380 430
f 430 380 379
f 573 567 574
f 574 509 573
f 575 509 574
f 126 181 180
f 180 507 179
f 180 125 126
f 179 134 180
f 134 125 180
f 179 507 501
f 191 557 546
f 557 189 546
f 102 158 190
f 190 189 102
f 190 158 191
f 190 546 189
f 191 546 190
f 188 189 560
f 188 548 187
f 560 559 188
f 559 548 188
f 100 88 99
f 99 160 100
f 160 159 100
f 99 88 83
f 83 98 99
f 139 125 124
f 143 132 131
f 131 144 143
f 79 81 86
f 151 145 146
f 151 144 145
f 151 86 144
f 79 86 151
f 112 114 161
f 161 114 160
f 99 98 161
f 161 160 99
f 110 111 112
f 166 77 84
f 165 77 166
f 85 150 84
f 84 77 85
f 85 77 79
f 79 151 85
f 146 150 85
f 85 151 146
f 94 175 95
f 64 175 94
f 94 63 64
f 62 63 94
f 112 111 113
f 113 114 112
f 115 114 113
f 113 61 115
f 111 61 113
f 160 114 107
f 105 159 107
f 107 159 160
f 107 114 115
f 115 106 107
f 107 106 105
f 424 373 372
f 372 373 66
f 66 156 372
f 374 373 424
f 375 67 374
f 67 373 374
f 438 424 425
f 424 372 425
f 13 12 11
f 11 12 438
f 13 11 7
f 441 21 7
f 415 364 417
f 416 385 415
f 385 340 415
f 340 364 415
f 417 364 363
f 363 362 417
f 363 364 64
f 64 63 363
f 63 362 363
f 418 366 419
f 418 432 417
f 418 362 366
f 417 362 418
f 417 432 431
f 416 415 431
f 431 415 417
f 431 46 416
f 47 46 431
f 431 432 47
f 420 434 419
f 419 370 420
f 420 370 369
f 420 369 368
f 368 421 420
f 24 432 433
f 433 25 24
f 433 434 25
f 419 434 433
f 433 418 419
f 432 418 433
f 365 366 149
f 149 370 365
f 419 366 365
f 365 370 419
f 382 380 427
f 443 442 429
f 443 430 444
f 429 430 443
f 21 442 22
f 442 443 22
f 428 427 441
f 426 378 428
f 767 782 783
f 56 57 55
f 55 782 56
f 56 782 57
f 766 767 768
f 768 767 783
f 647 646 611
f 771 646 766
f 766 768 771
f 771 768 770
f 611 646 771
f 411 36 35
f 35 755 411
f 383 395 405
f 17 9 10
f 402 401 31
f 391 401 402
f 400 401 390
f 390 401 391
f 234 235 357
f 357 235 356
f 357 390 358
f 233 232 234
f 234 357 233
f 233 357 358
f 233 231 232
f 211 341 361
f 356 235 361
f 361 235 211
f 304 246 248
f 304 303 299
f 299 301 304
f 304 301 246
f 250 304 248
f 303 304 250
f 250 248 251
f 251 253 250
f 240 212 234
f 234 289 240
f 240 289 239
f 295 294 296
f 224 223 225
f 224 225 354
f 285 283 294
f 285 287 286
f 286 229 284
f 284 285 286
f 283 285 284
f 282 283 284
f 284 229 227
f 227 282 284
f 291 279 278
f 281 279 298
f 281 283 282
f 281 282 280
f 280 279 281
f 281 298 296
f 296 283 281
f 290 301 300
f 290 291 276
f 300 279 290
f 279 291 290
f 306 307 337
f 337 307 324
f 337 336 306
f 309 307 310
f 310 247 309
f 309 247 246
f 246 301 309
f 276 307 309
f 309 290 276
f 301 290 309
f 670 672 651
f 670 647 611
f 651 647 670
f 670 673 672
f 651 672 652
f 652 672 674
f 320 650 654
f 654 321 320
f 306 336 335
f 450 456 448
f 457 590 516
f 457 506 458
f 516 506 457
f 458 454 457
f 454 456 457
f 855 860 1
f 1 852 855
f 855 852 860
f 849 851 846
f 849 850 851
f 849 846 845
f 845 838 849
f 838 853 849
f 853 850 849
f 842 853 823
f 853 822 823
f 823 843 842
f 823 822 843
f 843 822 804
f 803 643 804
f 804 643 840
f 820 802 803
f 820 819 802
f 576 590 505
f 465 464 505
f 505 464 576
f 590 457 505
f 462 464 463
f 467 468 463
f 463 464 465
f 465 459 463
f 747 748 524
f 747 746 729
f 524 523 747
f 747 523 746
f 731 749 730
f 749 748 730
f 730 713 731
f 730 747 729
f 748 747 730
f 730 729 712
f 712 713 730
f 833 713 712
f 712 711 833
f 711 832 833
f 818 819 833
f 833 817 818
f 833 832 817
f 713 833 834
f 819 820 834
f 834 833 819
f 140 88 154
f 88 100 154
f 155 127 103
f 183 127 155
f 155 186 183
f 187 186 155
f 155 188 187
f 802 819 801
f 818 817 799
f 683 680 681
f 674 672 675
f 672 673 675
f 673 687 675
f 640 641 639
f 686 687 689
f 689 687 673
f 686 689 688
f 813 795 814
f 812 794 813
f 813 794 795
f 814 795 796
f 796 815 814
f 797 815 796
f 796 629 797
f 796 795 628
f 628 629 796
f 628 795 626
f 795 794 626
f 626 624 625
f 626 794 624
f 707 708 724
f 723 706 707
f 707 724 723
f 724 708 725
f 725 726 743
f 725 709 726
f 725 708 709
f 743 742 725
f 742 724 725
f 831 710 830
f 816 832 831
f 711 710 831
f 831 832 711
f 831 815 816
f 830 815 831
f 786 618 787
f 787 702 786
f 786 702 618
f 717 718 735
f 735 806 717
f 717 806 718
f 197 194 106
f 106 116 197
f 197 116 196
f 308 257 311
f 311 332 308
f 333 682 659
f 659 332 333
f 60 274 173
f 173 122 60
f 121 198 195
f 196 116 195
f 195 116 121
f 542 199 200
f 199 122 200
f 664 587 510
f 510 550 542
f 510 587 550
f 542 200 510
f 510 200 177
f 721 722 739
f 721 738 720
f 721 739 738
f 720 704 721
f 704 705 721
f 705 722 721
f 575 574 570
f 570 502 575
f 509 507 508
f 507 180 508
f 181 509 508
f 508 180 181
f 453 20 444
f 453 19 20
f 475 474 502
f 502 570 475
f 475 570 503
f 502 474 473
f 102 189 157
f 189 188 157
f 103 102 157
f 157 155 103
f 188 155 157
f 98 83 82
f 82 97 98
f 80 97 82
f 81 80 82
f 82 87 81
f 83 87 82
f 132 143 133
f 133 139 124
f 133 124 135
f 135 132 133
f 111 110 59
f 59 172 60
f 60 111 59
f 162 97 163
f 112 161 162
f 162 161 98
f 98 97 162
f 162 110 112
f 163 110 162
f 96 80 78
f 96 97 80
f 108 163 96
f 163 97 96
f 167 166 84
f 167 84 62
f 167 92 90
f 90 166 167
f 62 94 167
f 167 94 92
f 95 117 93
f 93 94 95
f 92 94 93
f 27 28 26
f 26 28 29
f 29 2 26
f 4 2 29
f 29 468 467
f 29 28 468
f 377 426 371
f 371 156 377
f 371 372 156
f 426 425 371
f 371 425 372
f 441 7 440
f 440 428 441
f 426 428 440
f 423 424 437
f 375 374 423
f 423 374 424
f 14 434 435
f 434 420 435
f 435 420 421
f 367 421 368
f 367 368 128
f 128 376 367
f 72 380 71
f 380 382 71
f 71 124 72
f 23 7 21
f 21 22 23
f 23 19 18
f 20 19 23
f 18 26 23
f 23 22 443
f 444 20 23
f 23 443 444
f 13 7 23
f 381 428 378
f 381 378 68
f 68 382 381
f 381 382 427
f 427 428 381
f 764 762 694
f 694 769 764
f 763 762 764
f 693 769 694
f 765 784 763
f 763 764 765
f 765 764 769
f 765 769 770
f 770 768 765
f 765 783 784
f 765 768 783
f 649 647 651
f 648 647 649
f 608 319 772
f 410 38 36
f 36 411 410
f 277 320 276
f 277 319 320
f 276 291 277
f 277 291 217
f 221 291 278
f 406 407 396
f 396 383 406
f 406 383 405
f 405 17 406
f 17 10 406
f 9 407 406
f 406 10 9
f 396 348 342
f 342 383 396
f 351 352 228
f 351 350 393
f 393 392 351
f 392 352 351
f 229 231 230
f 350 351 230
f 230 228 229
f 230 351 228
f 391 402 394
f 393 350 394
f 31 15 403
f 403 402 31
f 403 15 16
f 16 404 403
f 403 404 393
f 393 394 403
f 403 394 402
f 359 390 391
f 358 390 359
f 359 233 358
f 390 357 389
f 389 399 400
f 400 390 389
f 389 357 356
f 231 233 360
f 360 230 231
f 360 359 391
f 233 359 360
f 387 361 341
f 356 361 387
f 387 389 356
f 398 399 387
f 399 389 387
f 264 263 265
f 208 266 265
f 266 171 265
f 252 250 253
f 252 207 254
f 252 253 207
f 303 250 252
f 95 212 242
f 242 117 95
f 242 243 117
f 294 295 293
f 293 285 294
f 287 285 293
f 286 287 288
f 288 287 289
f 288 289 232
f 232 231 288
f 288 231 286
f 297 295 296
f 299 303 297
f 296 298 297
f 297 298 299
f 220 223 222
f 223 224 222
f 222 348 220
f 222 342 348
f 324 307 323
f 655 652 674
f 655 337 324
f 324 323 655
f 655 323 652
f 674 676 655
f 321 654 653
f 651 652 653
f 653 649 651
f 653 654 650
f 650 649 653
f 334 305 306
f 306 335 334
f 333 305 334
f 334 656 333
f 680 656 334
f 336 337 658
f 337 655 658
f 658 655 676
f 466 459 456
f 456 450 466
f 467 463 466
f 466 463 459
f 466 29 467
f 30 29 466
f 4 29 8
f 8 29 30
f 486 4 8
f 8 450 486
f 30 466 8
f 8 466 450
f 486 450 449
f 449 450 448
f 449 491 486
f 448 491 449
f 856 843 805
f 843 804 805
f 805 839 856
f 840 839 805
f 805 804 840
f 821 820 803
f 803 804 821
f 821 804 822
f 821 822 836
f 465 505 460
f 460 505 457
f 460 459 465
f 456 459 460
f 460 457 456
f 835 834 820
f 835 821 836
f 820 821 835
f 836 715 835
f 715 714 835
f 835 714 713
f 713 834 835
f 140 154 138
f 138 127 125
f 103 127 138
f 138 139 140
f 125 139 138
f 101 154 100
f 101 102 103
f 103 138 101
f 101 138 154
f 101 159 102
f 101 100 159
f 800 819 818
f 800 801 819
f 636 801 800
f 818 799 800
f 630 632 631
f 631 629 630
f 798 817 816
f 798 799 817
f 816 797 798
f 798 797 631
f 696 683 607
f 683 681 607
f 685 675 687
f 645 643 644
f 644 753 645
f 754 753 644
f 642 643 641
f 641 640 642
f 642 644 643
f 754 644 642
f 637 801 636
f 639 802 637
f 802 801 637
f 686 688 635
f 635 632 686
f 635 637 636
f 830 708 829
f 814 830 829
f 829 813 814
f 544 553 194
f 194 197 544
f 552 553 544
f 544 197 196
f 196 195 544
f 551 552 544
f 544 195 198
f 544 542 551
f 544 198 542
f 261 267 260
f 260 267 259
f 259 257 260
f 682 666 660
f 667 668 661
f 661 666 667
f 664 510 663
f 663 665 664
f 662 665 663
f 261 325 272
f 272 273 261
f 205 76 204
f 205 201 76
f 379 76 202
f 76 201 202
f 571 570 574
f 571 574 567
f 567 572 571
f 572 569 571
f 477 462 461
f 462 463 461
f 461 463 468
f 474 475 472
f 472 473 474
f 152 143 144
f 144 86 152
f 152 86 81
f 81 87 152
f 153 88 140
f 153 83 88
f 153 87 83
f 109 59 110
f 108 171 109
f 109 171 172
f 172 59 109
f 109 163 108
f 109 110 163
f 78 165 164
f 164 96 78
f 108 96 164
f 439 440 7
f 439 11 438
f 438 425 439
f 439 425 426
f 426 440 439
f 422 423 437
f 422 435 421
f 422 367 376
f 421 367 422
f 422 376 375
f 375 423 422
f 70 382 68
f 70 71 382
f 70 68 124
f 124 71 70
f 781 58 57
f 57 782 781
f 770 769 609
f 769 693 609
f 609 771 770
f 691 693 690
f 690 688 691
f 691 688 689
f 755 774 756
f 756 411 755
f 38 410 409
f 408 39 409
f 39 38 409
f 319 277 218
f 218 277 217
f 217 343 218
f 219 278 220
f 220 221 219
f 219 221 278
f 217 291 216
f 216 343 217
f 216 345 343
f 383 342 355
f 354 395 355
f 395 383 355
f 355 224 354
f 355 222 224
f 342 222 355
f 350 230 349
f 230 360 349
f 349 360 391
f 391 394 349
f 349 394 350
f 388 387 341
f 388 385 386
f 386 398 388
f 398 387 388
f 388 340 385
f 388 341 340
f 170 171 108
f 170 265 171
f 89 119 168
f 89 166 90
f 165 166 89
f 236 293 295
f 236 237 293
f 118 243 119
f 117 243 118
f 244 240 239
f 287 293 238
f 239 289 238
f 289 287 238
f 293 237 238
f 263 237 209
f 209 254 208
f 209 236 254
f 237 236 209
f 208 265 209
f 209 265 263
f 264 168 245
f 168 119 245
f 119 243 245
f 243 244 245
f 245 244 239
f 321 653 322
f 322 653 652
f 652 323 322
f 307 321 322
f 322 323 307
f 680 334 657
f 657 334 335
f 657 335 336
f 336 658 657
f 631 632 633
f 633 798 631
f 799 798 633
f 606 630 627
f 627 607 606
f 627 629 628
f 627 630 629
f 627 626 625
f 628 626 627
f 627 625 696
f 696 607 627
f 606 685 684
f 684 630 606
f 632 630 684
f 686 632 684
f 684 687 686
f 684 685 687
f 605 685 606
f 606 607 605
f 605 607 681
f 681 679 605
f 675 685 677
f 677 676 674
f 674 675 677
f 677 679 676
f 677 605 679
f 685 605 677
f 692 640 690
f 692 642 640
f 692 693 694
f 690 693 692
f 692 694 754
f 754 642 692
f 638 635 688
f 637 635 638
f 639 637 638
f 638 640 639
f 690 640 638
f 638 688 690
f 708 707 828
f 828 829 708
f 706 827 828
f 828 707 706
f 813 829 828
f 828 827 812
f 812 813 828
f 261 260 327
f 257 329 258
f 258 260 257
f 329 260 258
f 257 308 331
f 331 660 257
f 331 308 332
f 332 659 331
f 331 659 682
f 682 660 331
f 330 329 257
f 257 660 330
f 330 661 329
f 330 660 666
f 666 661 330
f 338 272 325
f 339 272 338
f 338 663 339
f 338 325 662
f 662 663 338
f 122 173 174
f 174 200 122
f 177 200 174
f 503 570 511
f 570 571 511
f 511 568 477
f 477 503 511
f 511 569 568
f 511 571 569
f 477 461 476
f 476 503 477
f 476 475 503
f 470 26 18
f 444 430 452
f 452 453 444
f 473 472 447
f 447 452 445
f 453 452 447
f 501 445 451
f 451 178 179
f 179 501 451
f 445 452 451
f 451 203 178
f 204 203 451
f 451 205 204
f 201 205 451
f 451 430 379
f 451 452 430
f 379 202 451
f 451 202 201
f 139 133 141
f 140 139 141
f 141 153 140
f 142 152 87
f 87 153 142
f 143 152 142
f 153 141 142
f 142 133 143
f 142 141 133
f 6 7 11
f 11 439 6
f 6 439 7
f 436 422 437
f 435 422 436
f 436 12 13
f 437 12 436
f 13 14 436
f 14 435 436
f 58 781 780
f 780 774 755
f 34 58 780
f 780 755 34
f 779 778 648
f 774 778 779
f 648 649 779
f 779 650 608
f 779 649 650
f 777 778 774
f 782 767 777
f 777 781 782
f 774 780 777
f 777 780 781
f 775 767 766
f 766 646 775
f 775 647 648
f 646 647 775
f 671 689 673
f 671 691 689
f 673 670 671
f 671 670 611
f 414 410 411
f 411 756 414
f 414 756 772
f 413 409 410
f 410 414 413
f 413 414 343
f 220 348 347
f 347 221 220
f 347 348 396
f 291 221 292
f 292 216 291
f 221 345 292
f 345 216 292
f 169 170 108
f 169 168 264
f 264 265 169
f 265 170 169
f 120 89 168
f 168 169 120
f 120 164 165
f 165 89 120
f 108 164 120
f 120 169 108
f 302 252 254
f 254 236 302
f 303 252 302
f 302 236 295
f 302 297 303
f 295 297 302
f 119 89 91
f 91 118 119
f 91 89 90
f 90 92 91
f 92 93 91
f 91 93 117
f 117 118 91
f 243 242 241
f 241 244 243
f 240 244 241
f 212 240 241
f 241 242 212
f 262 263 264
f 264 245 262
f 262 237 263
f 262 245 239
f 239 238 262
f 262 238 237
f 676 679 678
f 678 658 676
f 678 657 658
f 680 657 678
f 678 681 680
f 678 679 681
f 799 633 634
f 636 800 634
f 634 800 799
f 634 635 636
f 632 635 634
f 634 633 632
f 328 260 329
f 328 327 260
f 329 661 328
f 328 661 668
f 328 668 662
f 662 327 328
f 326 325 261
f 261 327 326
f 662 325 326
f 326 327 662
f 206 174 173
f 273 272 206
f 206 272 339
f 206 274 273
f 206 173 274
f 471 476 461
f 471 461 468
f 471 472 475
f 475 476 471
f 502 473 446
f 473 447 446
f 575 502 446
f 446 445 501
f 446 447 445
f 446 507 575
f 446 501 507
f 472 470 478
f 478 447 472
f 478 470 18
f 453 447 478
f 18 19 478
f 19 453 478
f 772 756 773
f 608 772 773
f 773 779 608
f 773 756 774
f 774 779 773
f 776 777 767
f 767 775 776
f 778 777 776
f 648 778 776
f 776 775 648
f 693 691 610
f 691 671 610
f 610 609 693
f 610 671 611
f 611 771 610
f 771 609 610
f 344 218 343
f 343 414 344
f 344 414 772
f 346 345 221
f 221 347 346
f 397 347 396
f 397 407 408
f 396 407 397
f 397 346 347
f 177 174 318
f 174 206 318
f 318 206 339
f 339 663 318
f 318 510 177
f 318 663 510
f 469 471 468
f 469 470 472
f 472 471 469
f 468 28 469
f 28 27 469
f 469 27 26
f 26 470 469
f 345 346 412
f 346 397 412
f 409 413 412
f 408 409 412
f 412 397 408
f 343 345 412
f 412 413 343
f 344 213 214
f 315 344 772
f 315 213 344
f 218 344 215
f 344 214 215
f 319 218 215
f 215 214 319
f 317 315 772
f 319 214 313
f 313 214 213
f 313 772 319
f 213 315 316
f 315 317 316
f 316 317 772
f 213 316 314
f 314 316 772
f 312 313 213
f 213 314 312
f 772 313 312
f 312 314 772
f 734 787 788
f 788 735 734
f 826 705 704
f 826 704 825
f 3 43 23
f 23 50 13
f 43 34 23
f 23 34 37
f 37 50 23
f 23 2 3
f 26 2 23

