# https://github.com/mikedh/trimesh
v -0.01010000 -0.04048800 0.03708939
v -0.01010000 -0.04038334 0.03632001
v 0.01368101 -0.04050000 0.10810958
v 0.01126495 -0.04050000 0.11018657
v 0.00828964 -0.04050000 0.11132618
v 0.00510429 -0.04050000 0.11139467
v -0.00079336 -0.04050000 0.11030000
v -0.00090669 -0.04050000 0.11027777
v -0.00100322 -0.04050000 0.11021439
v 0.01544250 0.00980000 0.11140651
v 0.01544250 -0.00030000 0.11140651
v 0.01383544 0.00980000 0.11423667
v 0.01383544 -0.00030000 0.11423667
v 0.01136742 0.00980000 0.11635832
v 0.01136742 -0.00030000 0.11635832
v 0.00832813 0.00980000 0.11752244
v 0.00832813 -0.00030000 0.11752244
v 0.00507427 0.00980000 0.11759241
v 0.00507427 -0.00030000 0.11759241
v -0.00079336 -0.00030000 0.11650000
v -0.00079336 0.00980000 0.11650000
v -0.00125218 -0.00030000 0.11619872
v -0.00125218 0.00980000 0.11619872
v -0.00098223 0.00980000 0.11646295
v -0.00098223 -0.00030000 0.11646295
v -0.00114312 0.00980000 0.11635731
v -0.00114312 -0.00030000 0.11635731
v 0.01544250 -0.04030000 0.10540651
v 0.01383544 -0.04030000 0.10823667
v 0.01136742 -0.04030000 0.11035832
v 0.00832813 -0.04030000 0.11152244
v 0.00507427 -0.04030000 0.11159240
v -0.00079336 -0.04030000 0.11050000
v -0.00098223 -0.04030000 0.11046296
v -0.00114312 -0.04030000 0.11035731
v 0.00911854 0.03361497 0.02100000
v 0.01566945 0.03275670 0.02100000
v 0.01482149 0.03301310 0.02100000
v 0.01057799 0.03359028 0.02100000
v 0.01278142 0.03340557 0.02100000
v 0.01716823 0.03212756 0.02100000
v 0.01965104 0.02943293 0.02100000
v 0.01894727 0.03065587 0.02100000
v 0.01863608 0.03103580 0.02100000
v 0.01775648 0.03178811 0.02100000
v 0.02281693 -0.02695821 0.08516417
v 0.02279763 -0.02648337 0.08608879
v 0.02030994 -0.04400000 0.08626527
v 0.02008774 -0.04463471 0.08682198
v 0.02016305 -0.04491690 0.07859956
v 0.02059706 -0.03706167 0.03452211
v 0.02057874 -0.03787495 0.03603010
v 0.02053570 -0.03968931 0.03991431
v 0.02193971 -0.03357378 0.03904622
v 0.02197367 -0.03410255 0.04059171
v 0.02200245 -0.03460901 0.04217425
v 0.02052278 -0.04020062 0.04118577
v 0.02202163 -0.03500777 0.04350057
v 0.02204134 -0.03555459 0.04545340
v 0.02046222 -0.04227813 0.04775626
v 0.02049875 -0.04109802 0.04368924
v 0.02204942 -0.03650041 0.04929310
v 0.02042327 -0.04322205 0.05213869
v 0.02205043 -0.03640809 0.04888740
v 0.02204993 -0.03599300 0.04715081
v 0.02202918 -0.03716885 0.05248258
v 0.02200908 -0.03751501 0.05434379
v 0.02037512 -0.04398907 0.05727176
v 0.02199341 -0.03772491 0.05555898
v 0.02198376 -0.03783872 0.05624915
v 0.02195404 -0.03814030 0.05819998
v 0.02192076 -0.03841997 0.06019745
v 0.02031013 -0.04458496 0.06380268
v 0.02188473 -0.03867754 0.06224214
v 0.02188285 -0.03868999 0.06234686
v 0.02175065 -0.03939319 0.06968627
v 0.02022064 -0.04492327 0.07261217
v 0.02176857 -0.03931395 0.06866204
v 0.02023724 -0.04489342 0.07095300
v 0.02180780 -0.03912488 0.06647417
v 0.02184680 -0.03891264 0.06433429
v 0.02169153 -0.03962136 0.07318283
v 0.02165303 -0.03973899 0.07551634
v 0.02161890 -0.03982146 0.07758851
v 0.02161376 -0.03983209 0.07789901
v 0.02157317 -0.03990023 0.08033115
v 0.02153067 -0.03994263 0.08281306
v 0.02150194 -0.03995591 0.08444279
v 0.02148019 -0.03995844 0.08564781
v 0.02267736 -0.03222366 0.08504111
v 0.02279177 -0.03096195 0.08249779
v 0.02287958 -0.02965107 0.08002464
v 0.02286168 -0.02837842 0.08244041
v 0.02282083 -0.02705902 0.08497006
v 0.02281889 -0.02700865 0.08506703
v 0.02194294 0.03367660 0.04601866
v 0.02195650 0.03273568 0.04115097
v 0.02077036 0.03678558 0.04062142
v 0.02290511 0.02860780 0.04154173
v 0.02291030 0.02969697 0.04696236
v 0.02290833 0.02995611 0.04856394
v 0.02212322 0.03038538 0.09081883
v 0.02220658 0.03055251 0.08875433
v 0.02114933 0.03450000 0.09131991
v 0.02136739 0.03490323 0.08534887
v 0.02090294 0.03522771 0.09215192
v 0.02029380 0.03807359 0.08795225
v 0.02021337 0.03726583 0.09366129
v 0.02070362 0.03582527 0.09266882
v 0.02157030 0.03536096 0.07729840
v 0.02044864 0.03912110 0.07559818
v 0.02171110 0.03549501 0.06992944
v 0.02052262 0.03926902 0.06907983
v 0.02180673 0.03536969 0.06321192
v 0.02059232 0.03915494 0.06252477
v 0.02066526 0.03869189 0.05479092
v 0.02191225 0.03445759 0.05137326
v 0.02069825 0.03830839 0.05081688
v 0.02072225 0.03793076 0.04767968
v 0.02070523 0.03820819 0.04992728
v 0.02228327 0.03070286 0.08673079
v 0.02237253 0.03087176 0.08419028
v 0.02245200 0.03101370 0.08171639
v 0.02252235 0.03112909 0.07930857
v 0.02268558 0.03132408 0.07247593
v 0.02263846 0.03128327 0.07468890
v 0.02258428 0.03121866 0.07696626
v 0.02279142 0.03131679 0.06621771
v 0.02276138 0.03133956 0.06824099
v 0.02272633 0.03134241 0.07032682
v 0.02290577 0.03019124 0.05018248
v 0.02289062 0.03075834 0.05518256
v 0.02289730 0.03059179 0.05348751
v 0.02290222 0.03040295 0.05182224
v 0.02281694 0.03127436 0.06425415
v 0.02282648 0.03125041 0.06344029
v 0.02283835 0.03121201 0.06234605
v 0.02285603 0.03112958 0.06048913
v 0.02287037 0.03102675 0.05867909
v 0.02288177 0.03090315 0.05691167
v 0.02331846 0.02242109 0.08678658
v 0.02322057 0.02043863 0.09027397
v 0.02327721 0.02138168 0.08859528
v 0.02327950 0.02142724 0.08851510
v 0.02303514 0.02410876 0.09036459
v 0.02318873 0.02327333 0.08855868
v 0.02321891 0.01861383 0.09027478
v 0.02295510 0.01347386 0.09085621
v 0.02267655 -0.02260657 0.08804151
v 0.02264629 -0.02303007 0.08805653
v 0.02247030 -0.03504897 0.08105475
v 0.02256181 -0.03401303 0.08300917
v 0.02262437 -0.03294438 0.08506744
v 0.02212054 -0.03692980 0.08532019
v 0.02230454 -0.03601127 0.08316894
v 0.02276584 0.02794668 0.08674657
v 0.02286477 0.02576469 0.09044837
v 0.02283160 0.02677816 0.08871288
v 0.02282814 0.02685599 0.08858082
v 0.02168366 -0.03920787 0.08411454
v 0.02182326 -0.03846588 0.08547139
v 0.02251655 0.02886627 0.08873067
v 0.02224655 0.02975586 0.09075657
v 0.02254064 0.02932699 0.08673862
v 0.01746286 -0.04737661 0.05852445
v 0.01752995 -0.04703805 0.05572661
v 0.01838305 -0.04708419 0.06099417
v 0.01691911 -0.04750678 0.09138986
v 0.01690225 -0.04751117 0.09140667
v 0.01805522 -0.04754770 0.08161523
v 0.01886561 -0.04646315 0.08903980
v 0.01818438 -0.04697033 0.08997007
v 0.01707602 -0.04746271 0.09123091
v 0.01976826 -0.04533567 0.08752520
v 0.01895664 -0.04681185 0.08159227
v 0.01909258 -0.04624350 0.08869451
v 0.01948278 -0.04363177 0.04559234
v 0.01939849 -0.04489251 0.05073531
v 0.01931629 -0.04576409 0.05590385
v 0.01923803 -0.04633559 0.06106247
v 0.01909062 -0.04686885 0.07134266
v 0.02063021 -0.03553867 0.03196968
v 0.01965629 -0.03968667 0.03565525
v 0.01956941 -0.04190693 0.04053699
v 0.01981260 -0.03391191 0.02665807
v 0.01973901 -0.03701261 0.03103207
v 0.01791217 -0.04379818 0.04190339
v 0.01796670 -0.04310876 0.04007211
v 0.01807475 -0.04150506 0.03642549
v 0.01813823 -0.04037804 0.03422533
v 0.01823789 -0.03822052 0.03056441
v 0.01832085 -0.03586355 0.02713228
v 0.01786917 -0.04429818 0.04336917
v 0.01704578 -0.04805840 0.08118194
v 0.01721133 -0.04812042 0.07090642
v 0.01820631 -0.04761577 0.07132481
v 0.01722867 -0.04809862 0.06995745
v 0.01740901 -0.04760927 0.06094290
v 0.01766372 -0.04618778 0.05063191
v 0.01779590 -0.04506528 0.04591387
v 0.01781508 -0.04487482 0.04524276
v 0.00350000 -0.04806176 0.04927170
v 0.00350000 -0.04719508 0.04574288
v 0.00503216 -0.04795828 0.04926794
v 0.00350000 -0.04587863 0.04154468
v 0.00350000 -0.04456651 0.03814862
v 0.00350000 -0.04272589 0.03416046
v 0.00493580 -0.04990403 0.06404202
v 0.00531421 -0.05011554 0.07096855
v 0.00350000 -0.05020101 0.07098921
v 0.00350000 -0.05008290 0.06615648
v 0.00350000 -0.04990568 0.06300619
v 0.00496558 -0.04944120 0.05853075
v 0.00350000 -0.04966192 0.06001533
v 0.00350000 -0.04896431 0.05423563
v 0.01465308 -0.04604962 0.04554215
v 0.01454771 -0.04702841 0.04968682
v 0.01476008 -0.04479409 0.04146542
v 0.01265754 -0.04807649 0.05359270
v 0.01444693 -0.04776454 0.05387611
v 0.01427372 -0.04865840 0.06233040
v 0.01102843 -0.04514037 0.04068859
v 0.01284572 -0.04632760 0.04524610
v 0.01094199 -0.04643826 0.04474614
v 0.01419593 -0.04898460 0.07087533
v 0.01413131 -0.04899884 0.07087536
v 0.01077636 -0.04826290 0.05308366
v 0.00884840 -0.04831270 0.05225551
v 0.00898759 -0.04636321 0.04394445
v 0.00691866 -0.04821484 0.05101476
v 0.01063756 -0.04925024 0.06168990
v 0.00873116 -0.04941097 0.06100527
v 0.00682558 -0.04947602 0.05997732
v 0.00678475 -0.04983973 0.06501583
v 0.00499735 -0.04880266 0.05370864
v 0.00674680 -0.05001779 0.07094944
v 0.00906041 -0.04501268 0.03992798
v 0.01111467 -0.04356293 0.03673902
v 0.00913325 -0.04339858 0.03603179
v 0.01119512 -0.04170940 0.03292963
v 0.00920159 -0.04152939 0.03228843
v 0.00714334 -0.04298062 0.03497373
v 0.00708567 -0.04465389 0.03878852
v 0.00702822 -0.04608406 0.04274320
v 0.00697206 -0.04726697 0.04681712
v 0.01486664 -0.04324116 0.03748878
v 0.01496583 -0.04138952 0.03364380
v 0.01505276 -0.03925800 0.02995356
v 0.01259642 -0.04930141 0.07088115
v 0.01066566 -0.04960297 0.07089850
v 0.01052313 -0.04962234 0.07090008
v 0.00863348 -0.04984689 0.07092363
v 0.01402475 -0.04876672 0.08355161
v 0.00350000 -0.05008731 0.07841615
v 0.01059219 -0.04955875 0.07724991
v 0.00350000 -0.05004619 0.07951637
v 0.00350000 -0.04955341 0.08802965
v 0.00837905 -0.04861692 0.09563649
v 0.00597758 -0.04874849 0.09603028
v 0.00354596 -0.04883989 0.09616926
v 0.00350000 -0.04884125 0.09616923
v 0.01075259 -0.04843733 0.09497880
v 0.01052796 -0.04932262 0.08359234
v 0.01517574 -0.04788503 0.09277835
v 0.01304562 -0.04819833 0.09403407
v 0.00502792 0.04328423 0.05913370
v 0.00680391 0.04330421 0.06062922
v 0.00689116 0.04265198 0.05165276
v 0.00873712 0.04269493 0.05302404
v 0.01058648 0.04266605 0.05399405
v 0.01070761 0.04187768 0.04563481
v 0.01676749 0.04248916 0.06930786
v 0.01689239 0.04239542 0.06405155
v 0.01396115 0.04283865 0.06333608
v 0.00697533 0.04175602 0.04319748
v 0.01368628 0.04071356 0.03900000
v 0.01080583 0.04095565 0.03900000
v 0.01076600 0.04134398 0.04151103
v 0.01745664 0.03984831 0.03900000
v 0.01605527 0.04028282 0.03900000
v 0.01738293 0.04016068 0.04057395
v 0.01444619 0.04060597 0.03900000
v 0.01735234 0.04043672 0.04220064
v 0.01434318 0.04112621 0.04260532
v 0.01427219 0.04164771 0.04672020
v 0.01723374 0.04126064 0.04833141
v 0.01412276 0.04240681 0.05500491
v 0.01707065 0.04198721 0.05618105
v 0.00350000 0.04284298 0.05289809
v 0.00350000 0.04325024 0.05796948
v 0.00350000 0.04363240 0.06516672
v 0.00509180 0.04253373 0.04981154
v 0.00350000 0.04226886 0.04678191
v 0.00350000 0.04127945 0.03900000
v 0.00350000 0.04153880 0.04068162
v 0.00890773 0.04104481 0.03900000
v 0.00884087 0.04186200 0.04461858
v 0.00862835 0.04326348 0.06174129
v 0.01045812 0.04316821 0.06252582
v 0.01670685 0.04248003 0.07179250
v 0.01379296 0.04289126 0.07174211
v 0.01039338 0.04323054 0.07160483
v 0.01032573 0.04323623 0.07160175
v 0.00857266 0.04339854 0.06638431
v 0.00851616 0.04337527 0.07151773
v 0.00675907 0.04349484 0.06560605
v 0.00671367 0.04348958 0.07143518
v 0.00499491 0.04355310 0.06456858
v 0.00496152 0.04357734 0.07136212
v 0.00350000 0.04363102 0.07131214
v 0.01652025 0.04222522 0.07923977
v 0.00998188 0.04121596 0.09403142
v 0.01144014 0.04015049 0.10004668
v 0.01471258 0.04013507 0.09856010
v 0.01022950 0.04287710 0.07910851
v 0.01010645 0.04218510 0.08658755
v 0.01632919 0.04162937 0.08658163
v 0.01612618 0.04070159 0.09401897
v 0.01601881 0.04011887 0.09777391
v 0.00350000 0.04028668 0.10141646
v 0.00556349 0.04023510 0.10134572
v 0.00350000 0.04163778 0.09276703
v 0.00770553 0.04018814 0.10108185
v 0.00350000 0.04345836 0.07530206
v 0.00350000 0.04293029 0.08208165
v 0.00350000 0.04268285 0.08448716
v 0.02195107 0.03222454 0.03900000
v 0.02288339 0.02796613 0.03900000
v 0.02339933 0.02477386 0.03900000
v 0.01774204 0.03973318 0.03900000
v 0.02078865 0.03640754 0.03900000
v 0.02029566 0.03755378 0.03900000
v 0.02021080 0.03769372 0.03900000
v 0.01890532 0.03908214 0.03900000
v 0.01942242 0.03865230 0.03900000
v 0.00148574 0.03881778 0.10161156
v 0.02380618 0.02004773 0.07261668
v 0.02321862 -0.02805538 0.06120402
v 0.02299646 -0.03135353 0.06602059
v 0.02312311 -0.02971890 0.06356174
v 0.02316399 -0.03023626 0.05759973
v 0.02320849 -0.02916080 0.05935140
v 0.02328305 -0.02853439 0.05536458
v 0.02326819 -0.02884722 0.05004231
v 0.02333611 -0.02784595 0.05159181
v 0.02393106 0.02273233 0.06073265
v 0.02395607 0.02138323 0.06256867
v 0.02391196 0.02145682 0.06639984
v 0.02384186 0.02288495 0.06839633
v 0.02384627 0.02147076 0.07047388
v 0.02375381 0.02142635 0.07480749
v 0.02365402 0.02278465 0.07705973
v 0.02295513 -0.03060688 0.07269450
v 0.02282991 -0.03215108 0.07538448
v 0.02395364 0.02228730 0.05381167
v 0.02362822 0.02132134 0.07940428
v 0.02355741 0.01985902 0.08181664
v 0.02360524 0.01853647 0.07943021
v 0.02287048 -0.03092374 0.07764126
v 0.02264210 -0.03448908 0.07124993
v 0.02275470 -0.03333757 0.07325450
v 0.02283703 -0.03294767 0.06858306
v 0.02280965 -0.03356597 0.06238336
v 0.02292206 -0.03247230 0.06414755
v 0.02300650 -0.03191733 0.05993809
v 0.02295427 -0.03232396 0.05438390
v 0.02308055 -0.03128830 0.05594546
v 0.02313426 -0.03059112 0.05216057
v 0.02300203 -0.03080591 0.04718228
v 0.02315767 -0.02983215 0.04857463
v 0.02387196 0.02382772 0.05547984
v 0.02374608 0.02535341 0.05716326
v 0.02386051 0.02405734 0.05893430
v 0.02383431 0.02420783 0.06255451
v 0.02369160 0.02566838 0.06441885
v 0.02378994 0.02428614 0.06638056
v 0.02372382 0.02429824 0.07045068
v 0.02355793 0.02569387 0.07256769
v 0.02363052 0.02424430 0.07478183
v 0.02350347 0.02412053 0.07937758
v 0.02330334 0.02542981 0.08176368
v 0.02266930 -0.03363570 0.07817277
v 0.02387209 0.02351132 0.05215107
v 0.02375004 0.02469963 0.05049268
v 0.02333607 0.02392445 0.08424127
v 0.02346310 0.02115457 0.08426758
v 0.02344751 0.01840134 0.08429687
v 0.02214784 -0.03737311 0.07687452
v 0.02232726 -0.03622507 0.07889907
v 0.02241162 -0.03596707 0.07401679
v 0.02230904 -0.03672080 0.06759041
v 0.02249265 -0.03561387 0.06936489
v 0.02257573 -0.03517063 0.06493541
v 0.02246853 -0.03570908 0.05915043
v 0.02265802 -0.03464236 0.06072080
v 0.02273077 -0.03403383 0.05671396
v 0.02257561 -0.03437104 0.05150549
v 0.02278506 -0.03334991 0.05290717
v 0.02281204 -0.03259445 0.04929111
v 0.02256521 -0.03272893 0.04458595
v 0.02280285 -0.03177143 0.04585613
v 0.02275224 -0.03088609 0.04259451
v 0.02359393 0.02628199 0.05207558
v 0.02339668 0.02784449 0.05366604
v 0.02359052 0.02661666 0.05540994
v 0.02357670 0.02686235 0.05887212
v 0.02336466 0.02835299 0.06061689
v 0.02354900 0.02702566 0.06250104
v 0.02350395 0.02711235 0.06633575
v 0.02327266 0.02853814 0.06831419
v 0.02343790 0.02712704 0.07041343
v 0.02334555 0.02706812 0.07475081
v 0.02308862 0.02841649 0.07700241
v 0.02322049 0.02692961 0.07935171
v 0.02305631 0.02670721 0.08421970
v 0.02339852 0.02766171 0.05200954
v 0.02359281 0.02607910 0.05044417
v 0.02339875 0.02745510 0.05037609
v 0.02386432 0.02310013 0.04890794
v 0.02359040 0.02585130 0.04883009
v 0.02339779 0.02722386 0.04876097
v 0.02339607 0.02696721 0.04715946
v 0.02185324 -0.03870021 0.07981144
v 0.02193494 -0.03850238 0.07497239
v 0.02201343 -0.03820705 0.07034236
v 0.02209335 -0.03781800 0.06591685
v 0.02217234 -0.03733872 0.06169171
v 0.02224298 -0.03677277 0.05766291
v 0.02229779 -0.03612313 0.05382513
v 0.02232934 -0.03539026 0.05016892
v 0.02233020 -0.03457422 0.04668405
v 0.02229599 -0.03367644 0.04336203
v 0.02223168 -0.03270151 0.04019971
v 0.02316996 0.02859258 0.04867214
v 0.02316925 0.02882627 0.05028876
v 0.02316747 0.02903581 0.05192499
v 0.02315902 0.02938527 0.05527446
v 0.02314129 0.02964638 0.05875665
v 0.02311098 0.02982408 0.06240778
v 0.02306478 0.02992220 0.06626406
v 0.02299927 0.02994336 0.07036014
v 0.02290952 0.02988341 0.07471202
v 0.02278968 0.02973371 0.07932400
v 0.02263386 0.02948749 0.08420018
v 0.02374639 0.02447628 0.04887921
v 0.02380497 0.02354167 0.04729430
v 0.02374176 0.02422706 0.04727748
v 0.02358713 0.02559775 0.04722852
v 0.02189481 -0.03861373 0.07736550
v 0.02205308 -0.03802402 0.06810430
v 0.02220917 -0.03706633 0.05965301
v 0.02231694 -0.03576710 0.05197497
v 0.02231729 -0.03413530 0.04500295
v 0.02316999 0.02833407 0.04707062
v 0.02316420 0.02922192 0.05358540
v 0.02312791 0.02974540 0.06055883
v 0.02303470 0.02994239 0.06828045
v 0.02285373 0.02982029 0.07698524
v 0.02053074 0.03740728 0.04061802
v 0.01980816 0.03841675 0.03985988
v 0.01849928 0.03967252 0.04058952
v 0.01876415 0.03924732 0.03929702
v 0.01933122 0.03905504 0.04060116
v 0.02025688 0.03792412 0.04061416
v 0.02017946 0.03904962 0.04770859
v 0.01977279 0.03978119 0.08349919
v 0.01967309 0.03897328 0.09063077
v 0.01796502 0.04210907 0.06928919
v 0.01781770 0.04199241 0.07649426
v 0.01810693 0.04192679 0.06208739
v 0.01824345 0.04147137 0.05489676
v 0.01837317 0.04073957 0.04772624
v 0.01997875 0.03781574 0.09405215
v 0.01944023 0.03859990 0.09482418
v 0.01932747 0.03872213 0.09496903
v 0.01602647 0.04011874 0.09776873
v 0.01766482 0.04154376 0.08368860
v 0.01750528 0.04077583 0.09085771
v 0.01727143 0.03994255 0.09686026
v 0.01843597 0.03944561 0.09586100
v 0.01872263 0.04003258 0.09076800
v 0.01884654 0.04081371 0.08361265
v 0.01896164 0.04127267 0.07643203
v 0.01907078 0.04139737 0.06924127
v 0.01917631 0.04121851 0.06205447
v 0.01927961 0.04075756 0.05487913
v 0.01938156 0.04000713 0.04772448
v 0.01986279 0.04026697 0.07634034
v 0.01994649 0.04041727 0.06916926
v 0.02002664 0.04025873 0.06200035
v 0.02010387 0.03980711 0.05484301
v -0.00950000 0.01816025 0.10133012
v -0.00950000 0.01566025 0.10200000
v -0.00950000 0.03050000 0.09420577
v -0.00950000 0.01050000 0.10200000
v -0.02500000 -0.00000000 0.00020000
v -0.02407936 -0.00593503 -0.00000000
v -0.02427354 -0.00598289 0.00020000
v -0.02195931 -0.01152513 0.00000000
v -0.02213640 -0.01161808 0.00020000
v -0.01856307 -0.01644544 0.00000000
v -0.01871277 -0.01657807 0.00020000
v -0.01408801 -0.02041000 0.00000000
v -0.01420162 -0.02057460 0.00020000
v -0.00879420 -0.02318840 0.00000000
v -0.00886512 -0.02337540 0.00020000
v -0.00298931 -0.02461918 0.00000000
v -0.00301342 -0.02481772 0.00020000
v 0.00298931 -0.02461918 0.00000000
v 0.00301342 -0.02481772 0.00020000
v 0.00879420 -0.02318840 0.00000000
v 0.00886512 -0.02337540 0.00020000
v 0.01408801 -0.02041000 0.00000000
v 0.01420162 -0.02057460 0.00020000
v 0.01856307 -0.01644544 0.00000000
v 0.01871277 -0.01657807 0.00020000
v 0.02195931 -0.01152513 0.00000000
v 0.02213640 -0.01161808 0.00020000
v 0.02407936 -0.00593503 0.00000000
v 0.02427355 -0.00598289 0.00020000
v 0.02480000 -0.00000000 0.00000000
v 0.02500000 -0.00000000 0.00020000
v 0.02407936 0.00593503 0.00000000
v 0.02427355 0.00598289 0.00020000
v 0.02195931 0.01152513 0.00000000
v 0.02213640 0.01161808 0.00020000
v 0.01856307 0.01644544 0.00000000
v 0.01871277 0.01657807 0.00020000
v 0.01408801 0.02041000 0.00000000
v 0.01420162 0.02057460 0.00020000
v 0.00879420 0.02318840 0.00000000
v 0.00886512 0.02337541 0.00020000
v 0.00298931 0.02461918 -0.00000000
v 0.00301342 0.02481772 0.00020000
v -0.00298931 0.02461918 -0.00000000
v -0.00301342 0.02481772 0.00020000
v -0.00879420 0.02318840 -0.00000000
v -0.00886512 0.02337541 0.00020000
v -0.01408801 0.02041000 -0.00000000
v -0.01420162 0.02057460 0.00020000
v -0.01856307 0.01644544 -0.00000000
v -0.01871277 0.01657807 0.00020000
v -0.02195931 0.01152513 -0.00000000
v -0.02213640 0.01161808 0.00020000
v -0.02407936 0.00593503 -0.00000000
v -0.02427354 0.00598289 0.00020000
v -0.02480000 -0.00000000 -0.00000000
v 0.02490989 0.00212069 0.00287805
v 0.02495496 0.00150000 0.00240192
v 0.02498791 0.00077740 0.00210248
v 0.02500000 -0.00000000 0.00200000
v 0.02498791 -0.00077729 0.00210245
v 0.02495496 -0.00150000 0.00240192
v 0.02490989 -0.00212076 0.00287812
v -0.02467266 0.00150000 0.00759808
v -0.02471138 0.00212117 0.00712147
v -0.02465316 -0.00077711 0.00789760
v -0.02464735 -0.00000000 0.00800000
v -0.02465316 0.00077724 0.00789757
v -0.02467266 -0.00150000 0.00759808
v -0.02483306 -0.00288433 0.00582502
v -0.02481645 -0.00276146 0.00617232
v -0.02481935 -0.00300000 0.00500000
v -0.02483149 -0.00289778 0.00422356
v -0.02486463 -0.00259808 0.00350000
v -0.02490989 -0.00212069 0.00287805
v -0.02495496 -0.00150000 0.00240192
v -0.02498791 -0.00077740 0.00210248
v -0.02500000 -0.00000000 0.00200000
v -0.02498791 0.00077729 0.00210245
v -0.02495496 0.00150000 0.00240192
v -0.02490988 0.00212076 0.00287812
v -0.02486463 0.00259808 0.00350000
v -0.02481645 0.00276146 0.00617232
v -0.02483306 0.00288433 0.00582502
v -0.02481935 0.00300000 0.00500000
v -0.02483149 0.00289778 0.00422357
v -0.02427354 0.00598289 0.00582502
v -0.02337540 0.00886512 0.00582502
v -0.02424404 0.00597562 0.00617232
v -0.02427354 -0.00598289 0.00582502
v -0.02337540 -0.00886512 0.00582502
v -0.01160000 -0.04319959 0.09500000
v -0.01160000 -0.04394965 0.09479924
v -0.01160000 -0.04449883 0.09425035
v -0.01160000 -0.04470000 0.09350041
v -0.01110000 0.03774908 0.08637918
v -0.01110000 0.03845530 0.08605646
v -0.01110000 0.03890554 0.08542388
v -0.01110000 0.03897918 0.08465092
v -0.00910000 0.03999360 0.05503847
v -0.00910000 0.03986273 0.05427312
f 207 206 2
f 508 510 207
f 2 215 1
f 583 493 559
f 559 493 587
f 496 498 566
f 581 498 582
f 582 586 581
f 585 581 586
f 561 581 585
f 2 504 506
f 508 207 506
f 506 207 2
f 582 498 500
f 2 1 500
f 500 586 582
f 500 1 586
f 202 215 2
f 256 257 586
f 493 583 495
f 590 579 589
f 590 324 310
f 544 592 542
f 544 546 579
f 579 590 544
f 542 592 540
f 540 592 538
f 538 592 294
f 294 536 538
f 534 536 294
f 27 583 35
f 35 583 584
f 584 585 35
f 322 326 589
f 518 185 516
f 191 512 514
f 562 585 584
f 561 585 562
f 568 569 496
f 561 569 568
f 586 257 261
f 261 585 586
f 502 504 2
f 2 500 502
f 206 239 243
f 218 223 222
f 218 222 246
f 246 222 238
f 2 206 205
f 215 202 235
f 210 586 211
f 586 212 211
f 586 1 214
f 214 212 586
f 214 1 215
f 254 586 210
f 254 256 586
f 257 256 263
f 48 89 49
f 88 89 48
f 33 8 7
f 8 261 7
f 22 583 27
f 22 495 583
f 38 532 534
f 324 590 325
f 589 326 325
f 325 590 589
f 592 544 591
f 591 544 590
f 591 590 310
f 310 291 591
f 591 294 592
f 289 268 292
f 292 268 297
f 36 39 534
f 534 294 36
f 36 294 39
f 530 532 41
f 558 583 559
f 558 557 583
f 558 562 557
f 34 8 33
f 9 35 585
f 9 261 8
f 585 261 9
f 8 34 9
f 9 34 35
f 92 552 93
f 554 520 522
f 155 152 154
f 149 90 47
f 186 185 518
f 192 516 185
f 185 186 192
f 192 186 191
f 514 516 192
f 192 191 514
f 561 566 565
f 565 564 561
f 565 566 498
f 498 564 565
f 563 581 561
f 561 564 563
f 498 581 563
f 563 564 498
f 584 583 560
f 560 562 584
f 583 557 560
f 557 562 560
f 572 546 496
f 579 546 578
f 546 576 578
f 589 579 578
f 574 558 559
f 562 558 574
f 574 588 589
f 587 588 574
f 574 556 587
f 496 566 567
f 567 568 496
f 567 566 561
f 561 568 567
f 257 263 258
f 216 223 218
f 206 207 242
f 242 239 206
f 238 239 240
f 229 222 224
f 224 222 223
f 224 245 229
f 238 222 237
f 237 239 238
f 237 243 239
f 206 243 237
f 237 205 206
f 237 222 229
f 212 214 233
f 160 89 88
f 76 73 78
f 76 79 73
f 50 48 49
f 210 211 209
f 211 234 209
f 209 254 210
f 219 220 221
f 32 19 33
f 33 7 32
f 4 29 30
f 221 220 165
f 175 172 170
f 287 285 270
f 534 39 40
f 40 38 534
f 41 532 37
f 532 38 37
f 289 591 290
f 290 591 291
f 291 266 290
f 290 268 289
f 266 269 290
f 290 269 268
f 293 591 289
f 289 292 293
f 293 292 297
f 528 530 44
f 492 494 588
f 492 587 493
f 492 588 587
f 26 494 492
f 23 26 492
f 492 493 23
f 588 494 336
f 589 588 336
f 336 494 26
f 336 26 24
f 146 142 143
f 143 142 386
f 524 526 331
f 331 526 42
f 522 524 548
f 522 552 553
f 553 554 522
f 343 553 552
f 154 152 153
f 142 10 11
f 191 186 190
f 186 51 183
f 189 190 183
f 183 190 186
f 200 177 178
f 546 572 573
f 496 569 570
f 559 587 555
f 587 556 555
f 555 574 559
f 556 574 555
f 575 573 572
f 575 578 576
f 575 574 589
f 575 570 569
f 575 569 561
f 257 258 259
f 203 245 202
f 203 202 2
f 2 205 203
f 229 245 203
f 202 245 204
f 239 242 241
f 241 240 239
f 241 242 207
f 241 207 510
f 510 240 241
f 510 512 248
f 512 191 248
f 191 190 248
f 228 223 227
f 228 224 223
f 244 237 229
f 205 237 244
f 229 203 244
f 244 203 205
f 213 214 215
f 213 233 214
f 215 235 213
f 235 228 213
f 227 233 213
f 213 228 227
f 212 233 208
f 208 233 234
f 208 211 212
f 208 234 211
f 78 73 80
f 389 155 154
f 79 76 82
f 87 160 88
f 88 48 87
f 48 50 87
f 175 170 196
f 236 234 252
f 236 209 234
f 254 209 236
f 231 219 221
f 227 219 231
f 220 219 217
f 223 216 217
f 227 223 217
f 217 219 227
f 33 19 20
f 19 32 31
f 31 4 30
f 6 7 261
f 6 32 7
f 6 31 32
f 3 4 265
f 29 4 3
f 3 169 29
f 265 4 262
f 262 4 258
f 262 263 265
f 262 258 263
f 89 160 161
f 161 160 423
f 150 90 149
f 150 153 90
f 171 172 175
f 175 176 171
f 174 176 175
f 174 50 49
f 49 89 174
f 173 170 172
f 198 197 221
f 221 165 198
f 255 236 252
f 254 236 255
f 256 254 255
f 255 263 256
f 197 196 195
f 195 196 170
f 265 263 253
f 263 255 253
f 271 278 297
f 270 285 271
f 271 269 270
f 297 268 271
f 268 269 271
f 39 294 296
f 284 271 285
f 278 271 284
f 294 591 295
f 591 293 295
f 295 296 294
f 278 296 295
f 499 502 500
f 499 500 498
f 498 497 499
f 529 530 528
f 532 530 529
f 474 10 473
f 12 10 474
f 474 475 12
f 315 307 324
f 324 325 315
f 310 324 309
f 324 307 309
f 309 291 310
f 45 530 41
f 45 44 530
f 43 526 528
f 528 44 43
f 42 526 43
f 320 322 589
f 589 336 320
f 18 16 320
f 320 21 18
f 24 21 320
f 320 336 24
f 142 146 145
f 145 10 142
f 157 10 145
f 352 386 356
f 352 379 380
f 349 379 352
f 144 146 143
f 143 386 144
f 141 352 380
f 386 352 141
f 146 144 141
f 141 144 386
f 356 386 357
f 349 350 348
f 524 331 327
f 327 331 97
f 327 328 524
f 329 548 524
f 448 548 329
f 524 328 329
f 380 379 378
f 401 402 520
f 342 343 552
f 92 359 342
f 163 103 102
f 102 103 104
f 104 106 102
f 102 106 109
f 104 103 121
f 121 444 122
f 156 444 164
f 164 103 163
f 164 121 103
f 444 121 164
f 157 145 381
f 380 378 381
f 91 359 92
f 90 359 91
f 91 92 93
f 93 94 91
f 91 94 90
f 148 11 149
f 520 55 54
f 518 520 182
f 520 51 182
f 182 186 518
f 182 51 186
f 193 187 177
f 218 187 193
f 193 216 218
f 177 187 184
f 189 183 184
f 52 183 51
f 52 54 55
f 52 51 520
f 520 54 52
f 60 178 177
f 60 64 62
f 65 64 60
f 433 55 520
f 520 432 433
f 577 576 546
f 546 573 577
f 577 575 576
f 573 575 577
f 571 572 496
f 496 570 571
f 571 575 572
f 570 575 571
f 589 578 580
f 580 575 589
f 578 575 580
f 260 261 257
f 257 259 260
f 247 240 510
f 510 248 247
f 247 246 238
f 238 240 247
f 247 248 190
f 189 246 247
f 247 190 189
f 245 224 230
f 224 228 230
f 230 204 245
f 202 204 230
f 230 235 202
f 230 228 235
f 382 153 152
f 393 391 394
f 79 82 83
f 83 77 79
f 84 77 83
f 388 389 154
f 154 161 388
f 388 161 423
f 425 82 76
f 425 76 78
f 391 388 425
f 50 77 86
f 86 87 50
f 423 160 86
f 160 87 86
f 175 196 181
f 181 77 50
f 79 77 181
f 181 174 175
f 50 174 181
f 73 79 181
f 181 180 73
f 232 233 227
f 227 231 232
f 234 233 232
f 232 231 234
f 220 217 199
f 200 178 199
f 199 216 200
f 199 217 216
f 199 178 179
f 264 3 265
f 169 3 264
f 265 253 264
f 264 253 169
f 28 171 176
f 172 171 28
f 176 174 28
f 29 173 28
f 28 173 172
f 28 174 89
f 28 150 149
f 28 161 154
f 154 153 28
f 153 150 28
f 89 161 28
f 149 11 28
f 29 169 168
f 168 173 29
f 180 181 167
f 167 181 196
f 167 198 165
f 167 196 197
f 197 198 167
f 179 180 167
f 225 253 226
f 197 195 225
f 221 197 225
f 225 226 221
f 277 40 39
f 39 296 277
f 277 296 278
f 272 274 301
f 302 315 301
f 301 304 302
f 274 304 301
f 275 293 297
f 275 295 293
f 297 278 275
f 278 295 275
f 528 526 525
f 525 526 524
f 542 540 539
f 539 540 538
f 483 469 482
f 482 469 477
f 12 475 480
f 478 477 317
f 318 478 317
f 313 312 323
f 323 16 313
f 313 16 14
f 307 315 305
f 305 304 307
f 316 325 326
f 316 315 325
f 326 322 316
f 322 312 316
f 317 315 316
f 316 318 317
f 312 318 316
f 299 304 274
f 299 287 270
f 299 274 287
f 306 309 307
f 307 304 306
f 291 309 306
f 308 291 306
f 304 299 306
f 333 43 44
f 321 312 322
f 322 320 321
f 323 312 321
f 321 16 323
f 321 320 16
f 351 352 356
f 356 357 351
f 351 350 349
f 349 352 351
f 47 357 387
f 46 357 47
f 46 47 90
f 551 552 522
f 551 348 350
f 287 274 288
f 285 287 288
f 117 119 120
f 116 115 114
f 114 117 116
f 377 379 349
f 377 378 379
f 400 432 520
f 520 402 400
f 402 401 400
f 394 428 429
f 429 396 394
f 62 64 430
f 353 342 359
f 552 92 338
f 338 342 552
f 92 342 338
f 368 367 366
f 368 370 344
f 554 553 344
f 344 370 554
f 162 164 163
f 156 164 162
f 162 159 156
f 157 381 415
f 156 159 415
f 385 145 146
f 385 381 145
f 380 381 385
f 385 141 380
f 146 141 385
f 19 31 17
f 341 339 365
f 342 339 341
f 343 342 341
f 365 367 341
f 341 367 368
f 368 344 341
f 142 11 147
f 11 148 147
f 147 148 149
f 149 47 147
f 47 387 147
f 147 387 357
f 147 386 142
f 147 357 386
f 201 177 200
f 201 193 177
f 200 216 201
f 216 193 201
f 189 184 188
f 188 184 187
f 188 246 189
f 218 246 188
f 188 187 218
f 53 52 55
f 183 52 53
f 57 184 53
f 53 184 183
f 179 178 63
f 178 60 63
f 61 60 177
f 61 184 57
f 177 184 61
f 65 60 61
f 57 58 61
f 65 61 59
f 59 61 58
f 432 58 56
f 55 433 56
f 56 433 432
f 56 53 55
f 56 58 57
f 57 53 56
f 31 6 5
f 5 260 259
f 5 6 261
f 261 260 5
f 5 259 258
f 258 4 5
f 4 31 5
f 74 72 427
f 394 391 427
f 391 426 427
f 81 426 80
f 81 80 73
f 81 427 426
f 354 353 359
f 339 353 354
f 354 359 90
f 90 153 354
f 153 382 354
f 390 388 391
f 389 388 390
f 394 396 395
f 395 393 394
f 365 339 364
f 78 80 450
f 450 425 78
f 80 426 450
f 450 426 391
f 391 425 450
f 424 83 82
f 82 425 424
f 424 425 388
f 85 77 84
f 85 86 77
f 423 86 85
f 166 165 220
f 220 199 166
f 166 167 165
f 166 199 179
f 179 167 166
f 169 253 194
f 194 168 169
f 194 195 170
f 170 173 194
f 173 168 194
f 194 225 195
f 253 225 194
f 251 255 252
f 251 250 255
f 252 234 251
f 234 231 251
f 231 250 251
f 255 250 249
f 226 253 249
f 249 253 255
f 221 226 249
f 249 231 221
f 249 250 231
f 38 40 282
f 311 315 317
f 311 301 315
f 317 477 311
f 477 469 311
f 527 529 528
f 528 525 527
f 521 524 522
f 522 520 521
f 543 544 542
f 546 544 543
f 538 536 535
f 480 478 479
f 12 480 479
f 479 318 476
f 478 318 479
f 479 14 12
f 479 476 14
f 481 478 480
f 481 480 475
f 481 482 477
f 477 478 481
f 481 466 482
f 476 318 319
f 14 476 319
f 314 318 312
f 312 313 314
f 314 319 318
f 314 313 14
f 14 319 314
f 303 315 302
f 303 305 315
f 302 304 303
f 304 305 303
f 270 269 267
f 267 269 266
f 267 291 308
f 267 266 291
f 44 45 335
f 335 333 44
f 42 43 332
f 43 333 332
f 332 331 42
f 337 351 357
f 337 94 93
f 93 552 337
f 350 351 337
f 552 551 337
f 337 551 350
f 90 94 95
f 95 46 90
f 273 274 272
f 273 288 274
f 472 283 286
f 285 288 286
f 286 284 285
f 286 283 284
f 122 444 123
f 408 410 409
f 109 106 105
f 105 106 104
f 122 123 105
f 105 121 122
f 104 121 105
f 99 329 328
f 99 327 97
f 328 327 99
f 407 410 408
f 139 117 114
f 96 117 131
f 119 117 96
f 134 117 133
f 131 117 134
f 108 157 163
f 163 102 108
f 108 102 109
f 473 10 108
f 108 10 157
f 114 115 113
f 113 112 114
f 118 117 120
f 118 116 117
f 468 273 272
f 468 469 483
f 483 484 468
f 115 116 490
f 447 548 448
f 447 446 548
f 452 429 66
f 62 430 66
f 66 430 452
f 66 60 62
f 66 63 60
f 397 429 452
f 397 430 399
f 452 430 397
f 396 429 397
f 340 339 342
f 342 353 340
f 340 353 339
f 399 366 398
f 398 366 396
f 398 397 399
f 396 397 398
f 369 370 368
f 369 366 399
f 368 366 369
f 399 401 369
f 554 370 369
f 520 554 369
f 369 401 520
f 553 343 345
f 345 344 553
f 343 341 345
f 345 341 344
f 157 415 158
f 158 415 159
f 163 157 158
f 158 162 163
f 159 162 158
f 179 63 68
f 68 180 179
f 73 180 68
f 71 72 68
f 68 74 73
f 68 72 74
f 432 400 453
f 453 58 432
f 453 59 58
f 451 428 394
f 394 427 451
f 451 427 72
f 451 71 428
f 451 72 71
f 74 427 75
f 427 81 75
f 73 74 75
f 75 81 73
f 391 393 392
f 392 390 391
f 389 390 151
f 155 389 151
f 152 155 151
f 151 382 152
f 84 83 449
f 83 424 449
f 423 85 449
f 449 85 84
f 449 388 423
f 449 424 388
f 40 277 276
f 276 282 40
f 276 277 278
f 278 284 276
f 284 282 276
f 284 283 280
f 280 282 284
f 280 37 38
f 38 282 280
f 300 311 469
f 300 468 272
f 469 468 300
f 272 301 300
f 301 311 300
f 523 525 524
f 524 521 523
f 517 520 518
f 518 516 517
f 542 539 541
f 541 543 542
f 546 543 545
f 534 532 533
f 537 539 538
f 538 535 537
f 467 481 475
f 466 481 467
f 475 474 467
f 467 474 473
f 298 299 270
f 270 267 298
f 298 306 299
f 308 306 298
f 298 267 308
f 334 45 41
f 334 335 45
f 331 332 459
f 94 337 358
f 358 337 357
f 358 95 94
f 357 46 358
f 46 95 358
f 412 378 411
f 411 409 410
f 411 413 412
f 410 413 411
f 376 377 349
f 444 413 443
f 443 413 458
f 443 123 444
f 156 415 414
f 414 444 156
f 414 413 444
f 412 413 414
f 414 415 381
f 414 378 412
f 414 381 378
f 129 112 130
f 410 407 440
f 100 454 99
f 100 99 97
f 100 434 454
f 97 96 100
f 406 405 404
f 404 407 406
f 406 407 408
f 408 372 406
f 406 372 405
f 117 139 140
f 438 140 139
f 119 96 98
f 331 459 98
f 98 459 119
f 97 331 98
f 98 96 97
f 131 134 436
f 107 105 110
f 473 108 107
f 109 105 107
f 107 108 109
f 107 467 473
f 466 467 107
f 110 112 111
f 112 113 111
f 111 107 110
f 466 107 111
f 288 273 470
f 273 468 470
f 470 468 484
f 116 118 491
f 491 490 116
f 346 376 349
f 374 376 346
f 349 348 346
f 348 347 346
f 69 429 428
f 69 68 63
f 431 453 400
f 399 430 431
f 431 401 399
f 431 400 401
f 431 64 65
f 431 430 64
f 65 59 431
f 59 453 431
f 360 392 393
f 382 151 360
f 390 392 360
f 360 151 390
f 519 521 520
f 520 517 519
f 515 516 514
f 515 517 516
f 496 546 547
f 546 545 547
f 547 498 496
f 547 497 498
f 532 529 531
f 531 533 532
f 330 334 41
f 41 37 330
f 110 127 126
f 123 443 124
f 124 127 110
f 458 127 124
f 124 443 458
f 110 105 124
f 124 105 123
f 114 112 128
f 112 129 128
f 129 440 128
f 457 441 410
f 410 440 457
f 457 440 129
f 130 441 457
f 457 129 130
f 371 372 373
f 373 372 374
f 374 346 373
f 375 372 408
f 374 372 375
f 408 409 375
f 375 376 374
f 375 411 378
f 409 411 375
f 378 377 375
f 377 376 375
f 405 372 403
f 404 405 403
f 434 100 101
f 101 96 131
f 101 100 96
f 454 434 421
f 434 418 421
f 114 137 138
f 138 139 114
f 439 440 407
f 439 138 137
f 437 407 404
f 437 438 407
f 140 438 437
f 416 436 404
f 404 403 416
f 416 403 418
f 435 418 434
f 131 436 435
f 435 416 418
f 436 416 435
f 435 101 131
f 434 101 435
f 466 111 488
f 483 482 488
f 482 466 488
f 488 484 483
f 488 111 113
f 333 335 460
f 472 487 461
f 461 283 472
f 288 470 471
f 472 286 471
f 471 286 288
f 465 118 120
f 465 491 118
f 120 119 465
f 119 459 465
f 487 491 465
f 465 460 487
f 549 383 371
f 549 419 383
f 522 548 549
f 548 446 549
f 446 419 549
f 67 66 429
f 429 69 67
f 63 66 67
f 67 69 63
f 428 71 70
f 70 69 428
f 71 68 70
f 68 69 70
f 393 395 363
f 363 360 393
f 365 364 363
f 363 367 365
f 363 366 367
f 396 366 363
f 363 395 396
f 382 360 361
f 361 354 382
f 339 354 361
f 514 512 511
f 511 512 510
f 37 280 279
f 279 330 37
f 125 441 130
f 130 112 125
f 125 112 110
f 110 126 125
f 442 127 458
f 442 126 127
f 458 413 442
f 441 125 442
f 442 125 126
f 442 413 410
f 410 441 442
f 114 128 135
f 135 128 440
f 440 439 135
f 384 403 372
f 384 419 446
f 383 419 384
f 371 383 384
f 384 372 371
f 454 421 422
f 448 329 422
f 422 420 448
f 422 421 420
f 329 99 422
f 99 454 422
f 407 438 456
f 456 439 407
f 138 439 456
f 456 438 139
f 139 138 456
f 404 436 455
f 455 437 404
f 133 437 455
f 455 134 133
f 455 436 134
f 132 437 133
f 140 437 132
f 133 117 132
f 117 140 132
f 484 488 489
f 489 488 113
f 489 113 115
f 115 490 489
f 463 460 335
f 487 460 463
f 463 461 487
f 335 334 463
f 334 330 462
f 330 461 462
f 462 463 334
f 461 463 462
f 486 487 472
f 472 471 486
f 486 491 487
f 490 491 486
f 464 332 333
f 333 460 464
f 460 465 464
f 464 459 332
f 464 465 459
f 355 549 371
f 346 549 355
f 371 373 355
f 355 373 346
f 550 551 522
f 522 549 550
f 348 551 550
f 550 347 348
f 550 346 347
f 550 549 346
f 362 361 360
f 362 363 364
f 360 363 362
f 362 364 339
f 339 361 362
f 513 515 514
f 514 511 513
f 330 279 281
f 283 461 281
f 281 461 330
f 281 280 283
f 281 279 280
f 136 439 137
f 136 135 439
f 136 137 114
f 114 135 136
f 417 384 420
f 403 384 417
f 418 403 417
f 420 421 417
f 417 421 418
f 446 447 445
f 445 384 446
f 420 384 445
f 448 420 445
f 445 447 448
f 485 471 470
f 485 486 471
f 485 470 484
f 490 486 485
f 484 489 485
f 485 489 490
f 509 511 510
f 505 507 508
f 508 506 505
f 505 506 504
f 503 505 504
f 504 502 501
f 501 503 504
f 502 499 501
f 27 26 22
f 22 26 23
f 23 493 22
f 493 495 22
f 25 26 27
f 24 26 25
f 27 35 25
f 35 34 25
f 12 13 11
f 11 10 12
f 562 574 575
f 561 562 575
f 18 21 20
f 20 19 18
f 24 25 20
f 20 21 24
f 20 25 34
f 20 34 33
f 15 13 12
f 12 14 15
f 30 29 15
f 29 13 15
f 28 11 13
f 28 13 29
f 18 19 17
f 17 16 18
f 17 15 14
f 14 16 17
f 30 15 17
f 17 31 30
f 533 535 536
f 533 536 534
f 509 510 508
f 508 507 509
f 529 527 501
f 501 499 497
f 525 523 501
f 501 541 539
f 501 527 525
f 501 531 529
f 521 519 501
f 535 533 501
f 501 523 521
f 539 537 501
f 543 541 501
f 501 545 543
f 497 547 501
f 501 537 535
f 501 519 517
f 517 515 501
f 501 547 545
f 533 531 501
f 515 513 501
f 501 513 511
f 511 509 501
f 501 509 507
f 507 505 501
f 505 503 501

