# https://github.com/mikedh/trimesh
v -0.00226983 0.00589273 -0.03111741
v -0.00315000 0.00589273 -0.03129250
v -0.00085000 0.00589273 -0.02899249
v -0.00102508 0.00589273 -0.02987267
v -0.00152365 0.00589273 -0.03061883
v -0.00102508 0.00405000 -0.02987267
v -0.00152365 0.00405000 -0.03061883
v -0.00226983 0.00405000 -0.03111741
v -0.00315000 0.00405000 -0.03129250
v -0.00085000 0.00405000 -0.02899249
v -0.00394833 -0.00184308 0.00007489
v -0.00401090 -0.00246659 -0.00004794
v -0.00240000 -0.00247540 -0.00005004
v -0.00240000 -0.00350066 -0.00038195
v -0.00406914 -0.00301071 -0.00019935
v -0.00411161 -0.00336600 -0.00032838
v -0.00409891 -0.00350066 -0.00038195
v -0.00414834 -0.00349338 -0.00037904
v -0.00389843 -0.00118033 0.00015725
v -0.00240000 -0.00111031 0.00016347
v -0.00389430 -0.00111035 0.00016347
v -0.00387781 0.00064966 0.00018740
v -0.00387422 0.00055301 0.00019254
v -0.00240000 0.00064959 0.00018740
v -0.00386362 -0.00009058 0.00020747
v -0.00387004 -0.00054039 0.00019848
v -0.00401088 0.00234331 -0.00004806
v -0.00398965 0.00214109 -0.00000286
v -0.00240000 0.00214103 -0.00000286
v -0.00396032 0.00184616 0.00005357
v -0.00390697 0.00119017 0.00014400
v -0.00408333 0.00298973 -0.00023443
v -0.00240000 0.00337607 -0.00038195
v -0.00411377 0.00328189 -0.00034358
v -0.00409890 0.00337607 -0.00038195
v -0.00413831 0.00337023 -0.00037956
v -0.00467737 -0.00622878 -0.00283313
v -0.00464905 -0.00623199 -0.00283854
v -0.00460511 -0.00613264 -0.00267214
v -0.00240000 -0.00623199 -0.00283854
v -0.00447027 -0.00565506 -0.00199319
v -0.00436868 -0.00522120 -0.00151820
v -0.00439833 -0.00536640 -0.00166559
v -0.00240000 -0.00536608 -0.00166526
v -0.00240000 -0.00607886 -0.00258458
v -0.00240000 -0.00447171 -0.00090690
v -0.00411404 -0.00354186 -0.00040030
v -0.00417241 -0.00377670 -0.00050753
v -0.00418909 -0.00399093 -0.00061522
v -0.00424809 -0.00445993 -0.00089894
v -0.00424991 -0.00447170 -0.00090690
v -0.00432722 -0.00497339 -0.00129050
v -0.00414858 0.00353289 -0.00045230
v -0.00240000 0.00362873 -0.00049652
v -0.00240000 0.00457976 -0.00107339
v -0.00424074 0.00428765 -0.00086714
v -0.00418172 0.00373314 -0.00054672
v -0.00240000 0.00546012 -0.00190881
v -0.00445105 0.00546000 -0.00190867
v -0.00443849 0.00541162 -0.00185241
v -0.00434404 0.00495715 -0.00138654
v -0.00431582 0.00477369 -0.00122698
v -0.00428599 0.00457967 -0.00107333
v -0.00464903 0.00610739 -0.00283854
v -0.00467728 0.00610420 -0.00283314
v -0.00457361 0.00593969 -0.00256130
v -0.00240000 0.00610739 -0.00283854
v -0.00240000 0.00621999 -0.00304373
v -0.00504187 0.00679492 -0.00439958
v -0.00502983 0.00677736 -0.00434865
v -0.00240000 0.00677738 -0.00434870
v -0.00492441 0.00662030 -0.00392362
v -0.00476005 0.00634470 -0.00329085
v -0.00517484 0.00699060 -0.00502118
v -0.00240000 0.00726360 -0.00609696
v -0.00527360 0.00715312 -0.00562690
v -0.00552951 0.00771381 -0.00879769
v -0.00543160 0.00753562 -0.00753370
v -0.00240000 0.00771380 -0.00879762
v -0.00533530 0.00729153 -0.00622460
v -0.00532531 0.00726353 -0.00609668
v -0.00240000 0.00800108 -0.01192370
v -0.00570541 0.00793203 -0.01097856
v -0.00555230 0.00774828 -0.00908531
v -0.00613506 0.00818703 -0.01610243
v -0.00591170 0.00808899 -0.01346107
v -0.00578337 0.00800109 -0.01192376
v -0.00240000 0.00819346 -0.01635243
v -0.00240000 0.00823749 -0.01893315
v -0.00644474 0.00824466 -0.01971702
v -0.00240000 0.00826276 -0.02669249
v -0.00470000 0.00826273 -0.02639644
v -0.00693187 0.00826249 -0.02531482
v -0.00702640 0.00826273 -0.02639644
v -0.00693183 -0.00838712 -0.02531438
v -0.00702640 -0.00838736 -0.02639648
v -0.00470000 -0.00838736 -0.02639648
v -0.00644470 -0.00836928 -0.01971664
v -0.00470000 -0.00838739 -0.02669249
v -0.00240000 -0.00838739 -0.02669249
v -0.00240000 -0.00835267 -0.01816104
v -0.00631076 -0.00835267 -0.01816103
v -0.00613504 -0.00831164 -0.01610215
v -0.00240000 -0.00828632 -0.01525183
v -0.00591168 -0.00821359 -0.01346083
v -0.00570539 -0.00805662 -0.01097837
v -0.00240000 -0.00805000 -0.01089640
v -0.00569867 -0.00805000 -0.01089641
v -0.00240000 -0.00769978 -0.00778665
v -0.00545086 -0.00769979 -0.00778672
v -0.00555229 -0.00787286 -0.00908515
v -0.00240000 -0.00729984 -0.00571685
v -0.00533530 -0.00741611 -0.00622450
v -0.00543159 -0.00766021 -0.00753357
v -0.00517587 -0.00711674 -0.00502652
v -0.00527387 -0.00727820 -0.00562881
v -0.00528525 -0.00729979 -0.00571664
v -0.00240000 -0.00682544 -0.00413497
v -0.00470446 -0.00635866 -0.00307053
v -0.00487314 -0.00666444 -0.00372522
v -0.00497781 -0.00682541 -0.00413486
v -0.00504440 -0.00692316 -0.00441022
v -0.00240000 -0.00828741 -0.02679250
v -0.00705226 0.00826273 -0.02669252
v -0.00711691 0.00826221 -0.02669305
v -0.00757176 0.00822508 -0.02634872
v -0.00739869 0.00824781 -0.02669244
v -0.00769712 0.00821079 -0.02669179
v -0.00810334 0.00811386 -0.02630222
v -0.00809322 0.00812634 -0.02670826
v -0.00834538 0.00803723 -0.02628104
v -0.00814535 0.00811217 -0.02671352
v -0.00884759 0.00782050 -0.02623713
v -0.00817432 0.00810473 -0.02674615
v -0.00901875 0.00772683 -0.02622215
v -0.00823710 0.00808908 -0.02685961
v -0.00825858 0.00808594 -0.02698737
v -0.00931253 0.00753892 -0.02619646
v -0.00946235 0.00772683 -0.03129250
v -0.00951566 0.00738619 -0.02617870
v -0.01029394 0.00709115 -0.03129250
v -0.01066177 0.00590062 -0.02607851
v -0.01040529 0.00638300 -0.02610092
v -0.01093205 0.00626273 -0.03129250
v -0.01026397 0.00659461 -0.02611327
v -0.00991809 0.00701480 -0.02614351
v -0.01081607 0.00549897 -0.02606502
v -0.01133318 0.00529800 -0.03129250
v -0.01145805 0.00457100 -0.03129250
v -0.01134576 0.00457100 -0.03000899
v -0.01134391 0.00456876 -0.02998587
v -0.01134086 0.00454922 -0.02993444
v -0.01133819 0.00450251 -0.02986857
v -0.01132831 0.00426273 -0.02967308
v -0.01101116 0.00426273 -0.02604802
v -0.01133533 0.00442790 -0.02979249
v -0.01133604 0.00444687 -0.02981006
v -0.00849394 0.00812643 -0.03129250
v -0.00824086 0.00817770 -0.03086580
v -0.00823891 0.00818570 -0.03129250
v -0.00632004 -0.00253464 -0.00077513
v -0.00587913 -0.00278164 -0.00057067
v -0.00590241 -0.00266124 -0.00055553
v -0.00540240 -0.00301459 -0.00043042
v -0.00503449 -0.00304776 -0.00033119
v -0.00517236 -0.00311614 -0.00038846
v -0.00466711 -0.00331696 -0.00034902
v -0.00669868 -0.00229157 -0.00102408
v -0.00651251 -0.00241523 -0.00089186
v -0.00666367 -0.00222948 -0.00098807
v -0.00725981 -0.00185117 -0.00158308
v -0.00722004 -0.00188694 -0.00153267
v -0.00689274 -0.00215255 -0.00118592
v -0.00688118 0.00201951 -0.00117414
v -0.00720868 0.00175176 -0.00151901
v -0.00724622 0.00171778 -0.00156626
v -0.00650093 0.00228427 -0.00088212
v -0.00668855 0.00215863 -0.00101446
v -0.00666836 0.00212237 -0.00099352
v -0.00590699 0.00256343 -0.00056320
v -0.00586772 0.00265354 -0.00056399
v -0.00630848 0.00240463 -0.00076635
v -0.00465657 0.00319271 -0.00034755
v -0.00516140 0.00299051 -0.00038493
v -0.00503809 0.00295782 -0.00034213
v -0.00539125 0.00288824 -0.00042589
v -0.00499444 0.00270264 -0.00025670
v -0.00489540 0.00213074 -0.00010431
v -0.00482824 0.00168542 -0.00001803
v -0.00475860 0.00109046 0.00006117
v -0.00471637 0.00050549 0.00010486
v -0.00470276 -0.00008840 0.00011846
v -0.00471099 -0.00050364 0.00011027
v -0.00661166 0.00197532 -0.00093173
v -0.00648312 0.00160771 -0.00080095
v -0.00701900 0.00108665 -0.00131091
v -0.00639601 0.00129613 -0.00071740
v -0.00692942 0.00072504 -0.00121471
v -0.00630571 0.00085238 -0.00063433
v -0.00687443 0.00033271 -0.00115722
v -0.00625096 0.00039281 -0.00058553
v -0.00685663 -0.00008052 -0.00113885
v -0.00623333 -0.00008326 -0.00057001
v -0.00686740 -0.00037014 -0.00114997
v -0.00624400 -0.00041657 -0.00057939
v -0.00691508 -0.00077057 -0.00119960
v -0.00629137 -0.00088262 -0.00062142
v -0.00699887 -0.00114403 -0.00128900
v -0.00637561 -0.00133652 -0.00069836
v -0.00648312 -0.00173170 -0.00080100
v -0.00658658 -0.00203950 -0.00090577
v -0.00583025 -0.00240493 -0.00046746
v -0.00573399 -0.00200495 -0.00035970
v -0.00563487 -0.00152310 -0.00026149
v -0.00555761 -0.00099154 -0.00019063
v -0.00551430 -0.00046174 -0.00015295
v -0.00550456 -0.00008593 -0.00014460
v -0.00552067 0.00045128 -0.00015843
v -0.00557074 0.00097610 -0.00020236
v -0.00565362 0.00149903 -0.00027929
v -0.00573399 0.00188122 -0.00035968
v -0.00585356 0.00235795 -0.00049365
v -0.00497511 -0.00273483 -0.00022750
v -0.00489540 -0.00225423 -0.00010426
v -0.00481251 -0.00169472 0.00000049
v -0.00474755 -0.00109233 0.00007297
v -0.00817229 0.00258470 -0.00292803
v -0.00804664 0.00239003 -0.00271404
v -0.00628931 0.00255644 -0.00078362
v -0.00562552 0.00292870 -0.00052804
v -0.00490223 0.00325862 -0.00041610
v -0.00686687 0.00215682 -0.00117253
v -0.00812522 0.00277051 -0.00284712
v -0.00760021 0.00394476 -0.00246108
v -0.00772713 0.00373039 -0.00251442
v -0.00770666 0.00332709 -0.00232808
v -0.00787031 0.00345188 -0.00259569
v -0.00795761 0.00325479 -0.00266096
v -0.00692648 0.00479515 -0.00234345
v -0.00728906 0.00438483 -0.00237949
v -0.00714295 0.00420895 -0.00211091
v -0.00639574 0.00497264 -0.00207806
v -0.00674330 0.00497221 -0.00234267
v -0.00587010 0.00561724 -0.00245371
v -0.00632372 0.00531865 -0.00237498
v -0.00655037 0.00514091 -0.00235210
v -0.00517070 0.00595092 -0.00264834
v -0.00546680 0.00582700 -0.00255592
v -0.00551841 0.00556362 -0.00223185
v -0.00565135 0.00573708 -0.00250565
v -0.00494596 0.00344412 -0.00049737
v -0.00513966 0.00440661 -0.00105901
v -0.00503207 0.00395015 -0.00075722
v -0.00531875 0.00502558 -0.00159726
v -0.00518163 0.00458130 -0.00119296
v -0.00614461 0.00447692 -0.00152023
v -0.00597314 0.00407790 -0.00117271
v -0.00592017 0.00392445 -0.00106178
v -0.00578620 0.00352499 -0.00080943
v -0.00567818 0.00309301 -0.00060028
v -0.00686500 0.00379956 -0.00162609
v -0.00667502 0.00347467 -0.00132690
v -0.00661628 0.00335258 -0.00123517
v -0.00646767 0.00303216 -0.00102134
v -0.00634775 0.00269453 -0.00085111
v -0.00743541 0.00303536 -0.00190827
v -0.00724864 0.00280478 -0.00164707
v -0.00719137 0.00272106 -0.00157003
v -0.00704445 0.00249482 -0.00138299
v -0.00692660 0.00226536 -0.00123937
v -0.00739052 0.00182347 -0.00174883
v -0.00748942 0.00193824 -0.00187738
v -0.00761520 0.00206313 -0.00204875
v -0.00766247 0.00210510 -0.00211556
v -0.00782057 0.00223157 -0.00234936
v -0.00690887 -0.00235356 -0.00121892
v -0.00633002 -0.00276840 -0.00082839
v -0.00566222 -0.00315416 -0.00057365
v -0.00485917 -0.00327101 -0.00036567
v -0.00557497 -0.00294667 -0.00047618
v -0.00576482 -0.00580138 -0.00247766
v -0.00565109 -0.00586183 -0.00250572
v -0.00556163 -0.00576080 -0.00233921
v -0.00528512 -0.00603055 -0.00261095
v -0.00479606 -0.00619787 -0.00278522
v -0.00644856 -0.00516712 -0.00218131
v -0.00655055 -0.00526539 -0.00235209
v -0.00642516 -0.00536629 -0.00236326
v -0.00598118 -0.00567523 -0.00243071
v -0.00720138 -0.00439479 -0.00220992
v -0.00701755 -0.00482484 -0.00234783
v -0.00683899 -0.00500655 -0.00234181
v -0.00787047 -0.00357623 -0.00259580
v -0.00782157 -0.00367668 -0.00256497
v -0.00776531 -0.00350001 -0.00242296
v -0.00766731 -0.00395927 -0.00248745
v -0.00736667 -0.00440884 -0.00239459
v -0.00809933 -0.00254788 -0.00280492
v -0.00817243 -0.00270887 -0.00292826
v -0.00802784 -0.00319876 -0.00272618
v -0.00493300 -0.00349495 -0.00046521
v -0.00495820 -0.00368771 -0.00055045
v -0.00569425 -0.00331641 -0.00064005
v -0.00636561 -0.00289299 -0.00088015
v -0.00694343 -0.00243564 -0.00126044
v -0.00740287 -0.00196403 -0.00176458
v -0.00750173 -0.00207576 -0.00189380
v -0.00705856 -0.00264178 -0.00140034
v -0.00648183 -0.00318797 -0.00104067
v -0.00579896 -0.00368835 -0.00083186
v -0.00504240 -0.00411916 -0.00078386
v -0.00763430 -0.00220471 -0.00207561
v -0.00770372 -0.00226405 -0.00217506
v -0.00721446 -0.00287959 -0.00160077
v -0.00729815 -0.00299577 -0.00171477
v -0.00663993 -0.00352673 -0.00127162
v -0.00672564 -0.00369492 -0.00140621
v -0.00594149 -0.00411146 -0.00110582
v -0.00601881 -0.00432166 -0.00126699
v -0.00515658 -0.00460245 -0.00111222
v -0.00521795 -0.00484027 -0.00130504
v -0.00536412 -0.00526932 -0.00172335
v -0.00620096 -0.00471075 -0.00163233
v -0.00692740 -0.00401497 -0.00172593
v -0.00749711 -0.00322637 -0.00199819
v -0.00787375 -0.00239525 -0.00243174
v -0.00883377 -0.00302184 -0.00442651
v -0.00854750 -0.00283069 -0.00369422
v -0.00835843 0.00258776 -0.00329007
v -0.00863321 0.00276140 -0.00389561
v -0.00882955 0.00289430 -0.00441433
v -0.00905180 0.00306592 -0.00515243
v -0.00921689 0.00322807 -0.00592211
v -0.00932008 0.00338136 -0.00671893
v -0.00932435 0.00298306 -0.00676768
v -0.00826548 -0.00265419 -0.00310797
v -0.00905353 -0.00319201 -0.00515908
v -0.00932008 -0.00350594 -0.00671884
v -0.00921734 -0.00335322 -0.00592467
v -0.00932578 0.00282599 -0.00678407
v -0.00635502 0.00714300 -0.00616741
v -0.00561154 0.00607672 -0.00299080
v -0.00641583 0.00562393 -0.00280379
v -0.00712835 0.00501143 -0.00274019
v -0.00770958 0.00427317 -0.00280352
v -0.00812733 0.00345007 -0.00299026
v -0.00842856 0.00367430 -0.00362186
v -0.00801581 0.00454109 -0.00345297
v -0.00741947 0.00531029 -0.00339898
v -0.00667495 0.00593623 -0.00346309
v -0.00582647 0.00638172 -0.00364152
v -0.00597833 0.00657810 -0.00414735
v -0.00864130 0.00383573 -0.00415772
v -0.00823087 0.00472623 -0.00399598
v -0.00762360 0.00551082 -0.00393912
v -0.00685699 0.00614108 -0.00399064
v -0.00888052 0.00403516 -0.00491625
v -0.00847194 0.00494761 -0.00475802
v -0.00785224 0.00574485 -0.00468785
v -0.00706109 0.00637582 -0.00471026
v -0.00614916 0.00680013 -0.00482379
v -0.00905759 0.00421624 -0.00570394
v -0.00865009 0.00514243 -0.00554402
v -0.00802113 0.00594589 -0.00545284
v -0.00721195 0.00657392 -0.00543636
v -0.00627564 0.00698532 -0.00549568
v -0.00916871 0.00438199 -0.00651646
v -0.00876215 0.00531600 -0.00635068
v -0.00812744 0.00612122 -0.00623262
v -0.00730686 0.00674404 -0.00617015
v -0.00934326 -0.00356097 -0.00698377
v -0.00934326 0.00343636 -0.00698377
v -0.00802396 -0.00349468 -0.00279756
v -0.00760379 -0.00429849 -0.00260155
v -0.00702758 -0.00502238 -0.00253046
v -0.00632635 -0.00562739 -0.00258812
v -0.00553783 -0.00608095 -0.00277144
v -0.00575981 -0.00641656 -0.00343449
v -0.00598159 -0.00670681 -0.00415879
v -0.00615048 -0.00692649 -0.00482967
v -0.00627598 -0.00711048 -0.00549784
v -0.00833517 -0.00372949 -0.00341277
v -0.00864585 -0.00396384 -0.00417024
v -0.00888237 -0.00416144 -0.00492306
v -0.00905806 -0.00434143 -0.00570656
v -0.00916871 -0.00450657 -0.00651637
v -0.00792113 -0.00458429 -0.00323944
v -0.00823547 -0.00485480 -0.00400861
v -0.00847380 -0.00507404 -0.00476483
v -0.00865057 -0.00526765 -0.00554663
v -0.00876214 -0.00544058 -0.00635058
v -0.00732953 -0.00534528 -0.00318432
v -0.00762797 -0.00563967 -0.00395159
v -0.00785400 -0.00587135 -0.00469449
v -0.00802158 -0.00607111 -0.00545536
v -0.00812744 -0.00624580 -0.00623251
v -0.00659482 -0.00596813 -0.00325063
v -0.00686088 -0.00626999 -0.00400271
v -0.00706266 -0.00650231 -0.00471659
v -0.00721236 -0.00669912 -0.00543873
v -0.00730685 -0.00686862 -0.00617003
v -0.00635502 -0.00726757 -0.00616731
v -0.00645415 -0.00751397 -0.00746760
v -0.00975546 -0.00421800 -0.01170753
v -0.00975641 -0.00412546 -0.01170619
v -0.00989646 -0.00421833 -0.01330690
v -0.00757176 -0.00834971 -0.02634877
v -0.00889335 -0.00542411 -0.00697644
v -0.00881524 -0.00556821 -0.00697601
v -0.00822556 -0.00726730 -0.01171596
v -0.00851378 -0.00701936 -0.01171544
v -0.00872338 -0.00703743 -0.01327215
v -0.00888373 -0.00661736 -0.01171513
v -0.00867400 -0.00579803 -0.00697535
v -0.00845687 -0.00609494 -0.00697459
v -0.00894225 -0.00532599 -0.00697675
v -0.00921992 -0.00455879 -0.00697947
v -0.00931783 -0.00401695 -0.00698170
v -0.00834539 -0.00816186 -0.02628110
v -0.00810334 -0.00823849 -0.02630226
v -0.00796314 -0.00825080 -0.02522419
v -0.00931253 -0.00766355 -0.02619651
v -0.00901876 -0.00785146 -0.02622220
v -0.00892418 -0.00785118 -0.02514027
v -0.00884759 -0.00794513 -0.02623717
v -0.00974945 -0.00721550 -0.02506831
v -0.00991809 -0.00713944 -0.02614355
v -0.00951566 -0.00751082 -0.02617875
v -0.01066180 -0.00602522 -0.02607855
v -0.01040529 -0.00650763 -0.02610096
v -0.01038270 -0.00638708 -0.02501324
v -0.01026398 -0.00671924 -0.02611332
v -0.01078080 -0.00542238 -0.02497879
v -0.01081902 -0.00561447 -0.02606481
v -0.01091661 -0.00438712 -0.02496730
v -0.00939373 -0.00579078 -0.01171546
v -0.00958340 -0.00529175 -0.01171504
v -0.00975704 -0.00524966 -0.01326883
v -0.00970652 -0.00475933 -0.01171285
v -0.00913283 -0.00626948 -0.01171522
v -0.00935698 -0.00621108 -0.01325698
v -0.00922317 -0.00612071 -0.01171531
v -0.00747560 -0.00823240 -0.01962751
v -0.00716489 -0.00817339 -0.01601574
v -0.00789920 -0.00767269 -0.01331329
v -0.00894944 -0.00713721 -0.01588717
v -0.00812477 -0.00777285 -0.01594241
v -0.00926140 -0.00719678 -0.01947941
v -0.00843631 -0.00783249 -0.01954660
v -0.00818844 -0.00639601 -0.00697392
v -0.00805702 -0.00652301 -0.00697367
v -0.00780905 -0.00673343 -0.00697334
v -0.00740824 -0.00711307 -0.00744854
v -0.00800059 -0.00697894 -0.00880606
v -0.00753317 -0.00732731 -0.00897536
v -0.00817474 -0.00720216 -0.01097122
v -0.00768982 -0.00751323 -0.01084828
v -0.00958288 -0.00630967 -0.01585378
v -0.00989471 -0.00636855 -0.01943052
v -0.00998205 -0.00534647 -0.01584448
v -0.01029312 -0.00540421 -0.01940323
v -0.01042948 -0.00436940 -0.01939943
v -0.01011982 -0.00431305 -0.01585993
v -0.00694030 -0.00807381 -0.01337765
v -0.00673229 -0.00791480 -0.01089989
v -0.00657721 -0.00772890 -0.00901224
v -0.00970588 0.00463871 -0.01171288
v -0.00958246 0.00517021 -0.01171505
v -0.00975706 0.00512506 -0.01326907
v -0.00888373 0.00649275 -0.01171513
v -0.00851376 0.00689476 -0.01171544
v -0.00872340 0.00691283 -0.01327239
v -0.00920907 0.00447636 -0.00697930
v -0.00924138 0.00434451 -0.00697982
v -0.00932239 0.00384946 -0.00698188
v -0.00931771 0.00389334 -0.00698169
v -0.00881548 0.00544311 -0.00697601
v -0.00900599 0.00506223 -0.00697720
v -0.00909956 0.00482745 -0.00697801
v -0.00911517 0.00478359 -0.00697817
v -0.00850058 0.00591527 -0.00697473
v -0.00871991 0.00560245 -0.00697555
v -0.00786154 0.00668320 -0.00745797
v -0.00780567 0.00661143 -0.00697333
v -0.00814955 0.00631021 -0.00697385
v -0.00818852 0.00627132 -0.00697392
v -0.00806991 0.00695087 -0.00964767
v -0.00791169 0.00674761 -0.00792703
v -0.00740825 0.00698849 -0.00744866
v -0.00822162 0.00714576 -0.01171596
v -0.00789922 0.00754809 -0.01331353
v -0.00768984 0.00738864 -0.01084846
v -0.00913110 0.00614757 -0.01171522
v -0.00939240 0.00566908 -0.01171546
v -0.00935700 0.00608648 -0.01325722
v -0.00922317 0.00599611 -0.01171531
v -0.00989648 0.00409373 -0.01330712
v -0.00975641 0.00400085 -0.01170619
v -0.00975537 0.00409759 -0.01170757
v -0.01078084 0.00529775 -0.02497922
v -0.01038274 0.00626245 -0.02501367
v -0.00974948 0.00709087 -0.02506876
v -0.00892422 0.00772655 -0.02514072
v -0.00796318 0.00812617 -0.02522464
v -0.01091665 0.00426249 -0.02496774
v -0.01042952 0.00424478 -0.01939982
v -0.01029315 0.00527959 -0.01940362
v -0.01011984 0.00418845 -0.01586020
v -0.00998207 0.00522187 -0.01584475
v -0.00958291 0.00618507 -0.01585405
v -0.00989475 0.00624393 -0.01943091
v -0.00894947 0.00701260 -0.01588745
v -0.00926144 0.00707216 -0.01947981
v -0.00812479 0.00764824 -0.01594269
v -0.00843634 0.00770787 -0.01954700
v -0.00694032 0.00794921 -0.01337788
v -0.00716491 0.00804879 -0.01601601
v -0.00747564 0.00810778 -0.01962791
v -0.00673231 0.00779021 -0.01090008
v -0.00753318 0.00720272 -0.00897551
v -0.00657722 0.00760432 -0.00901240
v -0.00645416 0.00738939 -0.00746773
v -0.00820681 0.00712673 -0.01149249
v -0.00828110 -0.00656661 -0.00816128
v -0.00908443 -0.00539438 -0.00817646
v -0.00886583 -0.00581342 -0.00817028
v -0.00859636 -0.00620708 -0.00816520
v -0.00925239 -0.00495096 -0.00818381
v -0.00936652 -0.00449258 -0.00819218
v -0.00925096 0.00483099 -0.00818372
v -0.00886331 0.00569299 -0.00817022
v -0.00859378 0.00608609 -0.00816515
v -0.00828021 0.00644291 -0.00816128
v -0.00908366 0.00527140 -0.00817645
v -0.01133189 -0.00408825 -0.02971400
v -0.01135556 -0.00438736 -0.02998453
v -0.01132135 0.00407743 -0.02959354
v -0.00705226 -0.00838736 -0.02669252
v -0.01135773 -0.00440752 -0.03000993
v -0.01146994 -0.00440752 -0.03129250
v -0.01133318 -0.00542263 -0.03129250
v -0.00825099 -0.00821082 -0.02691002
v -0.00820083 -0.00822258 -0.02678382
v -0.00825858 -0.00821057 -0.02698737
v -0.00946235 -0.00785146 -0.03129250
v -0.00849394 -0.00825106 -0.03129250
v -0.00825656 -0.00822282 -0.02742983
v -0.00823891 -0.00831033 -0.03129250
v -0.01029394 -0.00721578 -0.03129250
v -0.01093205 -0.00638736 -0.03129250
v -0.01135687 -0.00440237 -0.02999984
v -0.01135743 -0.00440676 -0.03000641
v -0.00800550 -0.00827318 -0.02670106
v -0.00769712 -0.00833543 -0.02669179
v -0.00711688 -0.00838684 -0.02669305
v -0.00814535 -0.00823680 -0.02671352
v -0.00810785 0.00816702 -0.03129250
v -0.00817179 0.00818752 -0.03129250
v -0.00815133 0.00818350 -0.03129250
v -0.00801128 -0.00818034 -0.03129250
v -0.00801919 -0.00819962 -0.03129250
v -0.00804384 -0.00823909 -0.03129250
v -0.00807308 -0.00826871 -0.03129250
v -0.00809401 -0.00828375 -0.03129250
v -0.00815612 -0.00830928 -0.03129250
f 7 123 561
f 148 149 150
f 154 149 540
f 8 7 561
f 123 7 6
f 79 75 3
f 3 82 79
f 88 82 3
f 146 145 513
f 141 145 146
f 144 145 141
f 144 148 142
f 142 501 144
f 150 149 151
f 149 152 151
f 10 100 123
f 123 6 10
f 10 101 100
f 10 14 46
f 4 91 3
f 4 5 91
f 432 550 549
f 430 550 432
f 100 101 98
f 3 75 71
f 71 68 3
f 67 58 3
f 3 68 67
f 33 29 3
f 3 54 33
f 3 58 55
f 55 54 3
f 3 91 89
f 89 88 3
f 145 144 143
f 143 144 501
f 154 155 156
f 149 154 156
f 156 155 505
f 500 148 150
f 560 9 8
f 560 8 561
f 25 26 20
f 557 1 2
f 5 1 557
f 91 5 557
f 431 550 430
f 388 382 383
f 102 101 103
f 102 98 101
f 95 98 555
f 95 97 100
f 100 98 95
f 53 33 54
f 61 55 58
f 75 80 81
f 140 139 141
f 30 31 29
f 513 512 514
f 88 89 85
f 512 510 470
f 511 143 501
f 511 501 142
f 145 143 511
f 513 145 511
f 511 512 513
f 511 510 512
f 153 152 149
f 418 386 385
f 529 418 439
f 439 418 404
f 537 155 154
f 154 535 537
f 537 535 155
f 142 148 147
f 148 500 147
f 14 10 13
f 10 20 13
f 24 10 3
f 24 20 10
f 3 29 24
f 29 31 24
f 25 20 24
f 24 23 25
f 559 558 91
f 91 557 559
f 429 541 550
f 550 431 429
f 427 432 549
f 337 385 384
f 413 446 412
f 455 466 403
f 103 101 104
f 101 10 104
f 10 107 104
f 32 27 29
f 29 33 32
f 54 55 56
f 66 65 247
f 58 67 66
f 67 65 66
f 131 158 139
f 131 139 133
f 513 140 502
f 502 140 141
f 502 146 513
f 141 146 502
f 515 131 133
f 515 140 513
f 513 514 515
f 348 355 354
f 332 362 333
f 337 332 333
f 29 27 28
f 28 30 29
f 64 67 68
f 64 65 67
f 254 242 256
f 490 514 512
f 350 355 349
f 349 343 350
f 355 348 349
f 364 363 358
f 358 353 354
f 364 365 370
f 364 358 359
f 354 355 359
f 359 358 354
f 484 370 489
f 512 470 472
f 472 470 471
f 472 490 512
f 471 490 472
f 149 156 157
f 157 153 149
f 499 372 475
f 417 418 529
f 386 418 417
f 529 439 417
f 463 439 404
f 462 439 463
f 539 439 462
f 540 541 539
f 507 500 150
f 507 147 500
f 142 147 507
f 507 511 142
f 510 511 507
f 507 509 510
f 475 333 476
f 476 333 362
f 22 24 31
f 23 24 22
f 434 429 461
f 541 429 434
f 458 446 413
f 549 545 428
f 353 330 347
f 346 348 347
f 233 346 347
f 354 353 347
f 347 348 354
f 331 330 353
f 233 347 329
f 329 347 330
f 328 329 330
f 336 329 328
f 328 383 382
f 382 299 328
f 328 299 336
f 413 412 411
f 456 455 454
f 454 411 456
f 456 411 410
f 410 411 412
f 410 412 446
f 444 102 103
f 457 455 456
f 456 410 457
f 457 410 445
f 457 445 465
f 465 466 457
f 466 455 457
f 46 14 49
f 30 28 188
f 188 28 27
f 387 382 388
f 388 393 387
f 393 392 387
f 96 95 555
f 555 538 96
f 97 95 96
f 96 538 99
f 118 112 10
f 10 40 118
f 44 10 46
f 397 392 393
f 105 104 107
f 107 106 105
f 103 104 105
f 105 444 103
f 111 466 465
f 34 32 33
f 57 53 54
f 54 56 57
f 63 56 55
f 252 56 63
f 71 69 70
f 360 365 364
f 364 359 360
f 352 70 69
f 139 140 138
f 140 515 138
f 475 372 334
f 334 333 475
f 175 268 272
f 272 268 267
f 272 307 306
f 244 343 245
f 245 254 244
f 242 254 245
f 255 254 256
f 61 254 255
f 252 63 255
f 59 66 247
f 58 66 59
f 244 254 249
f 249 59 247
f 79 77 78
f 75 79 78
f 78 80 75
f 83 79 82
f 91 558 124
f 357 363 362
f 357 358 363
f 353 358 357
f 357 362 332
f 357 331 353
f 332 331 357
f 341 81 80
f 489 370 341
f 481 532 482
f 482 368 481
f 471 470 533
f 470 532 533
f 533 487 471
f 404 418 371
f 418 338 371
f 371 405 404
f 337 333 339
f 339 385 337
f 333 334 339
f 339 334 338
f 339 418 385
f 339 338 418
f 460 439 461
f 460 438 439
f 461 458 460
f 460 458 436
f 436 525 437
f 437 525 528
f 437 460 436
f 438 460 437
f 528 417 437
f 437 417 439
f 439 438 437
f 536 535 154
f 536 154 540
f 551 536 540
f 435 539 462
f 462 463 435
f 536 551 435
f 435 463 535
f 535 536 435
f 433 539 541
f 439 539 433
f 461 439 433
f 433 434 461
f 541 434 433
f 459 429 431
f 459 431 430
f 461 429 459
f 459 458 461
f 430 432 459
f 446 458 459
f 436 458 441
f 413 440 441
f 441 458 413
f 548 538 555
f 99 538 548
f 548 100 99
f 545 546 419
f 425 545 419
f 426 427 549
f 549 428 426
f 425 419 449
f 394 393 388
f 390 384 385
f 327 332 337
f 327 331 332
f 383 328 327
f 330 331 327
f 327 328 330
f 337 384 327
f 327 384 383
f 298 299 326
f 326 299 300
f 295 325 300
f 300 299 382
f 336 299 227
f 227 329 336
f 227 299 233
f 233 329 227
f 453 454 455
f 453 455 403
f 413 411 524
f 411 454 524
f 465 445 464
f 444 105 464
f 464 106 465
f 464 105 106
f 52 44 46
f 48 49 14
f 286 322 323
f 11 13 20
f 11 12 13
f 187 188 27
f 296 325 295
f 38 40 37
f 45 40 10
f 10 44 45
f 287 375 392
f 392 397 287
f 402 381 401
f 402 453 403
f 401 453 402
f 465 106 108
f 108 111 465
f 108 106 107
f 107 111 108
f 403 466 110
f 466 111 110
f 33 53 35
f 55 61 62
f 62 63 55
f 61 255 62
f 62 255 63
f 65 64 73
f 73 64 68
f 247 65 73
f 356 352 360
f 356 355 350
f 356 359 355
f 356 360 359
f 158 131 137
f 131 515 518
f 518 504 131
f 503 138 515
f 503 515 133
f 340 371 338
f 535 371 340
f 155 535 340
f 340 372 155
f 182 197 221
f 228 275 233
f 326 275 228
f 228 298 326
f 233 299 228
f 299 298 228
f 266 275 274
f 267 262 266
f 313 275 326
f 274 275 313
f 326 300 313
f 313 300 325
f 263 262 267
f 267 268 263
f 268 264 263
f 175 196 174
f 174 200 197
f 175 272 271
f 271 272 306
f 306 171 271
f 243 242 246
f 242 245 246
f 246 245 343
f 60 254 61
f 60 61 58
f 58 59 60
f 60 249 254
f 59 249 60
f 248 249 247
f 523 490 471
f 471 487 523
f 523 492 490
f 487 492 523
f 514 490 491
f 490 492 491
f 516 514 491
f 519 492 521
f 516 491 519
f 519 491 492
f 520 492 487
f 521 492 520
f 521 77 84
f 84 519 521
f 83 519 84
f 84 77 79
f 79 83 84
f 516 519 87
f 87 519 83
f 87 83 82
f 92 93 91
f 467 499 475
f 475 476 467
f 467 507 150
f 509 507 467
f 493 532 470
f 80 78 522
f 522 341 80
f 522 77 521
f 522 78 77
f 489 341 522
f 522 520 489
f 521 520 522
f 74 71 75
f 74 69 71
f 365 360 361
f 360 352 361
f 361 352 69
f 69 74 361
f 532 481 486
f 486 533 532
f 372 499 498
f 499 497 498
f 155 372 498
f 498 497 155
f 505 155 506
f 506 156 505
f 506 157 156
f 153 157 506
f 152 153 506
f 535 463 406
f 406 371 535
f 405 371 406
f 404 405 406
f 406 463 404
f 539 435 552
f 552 435 551
f 540 539 552
f 552 551 540
f 436 441 442
f 442 441 440
f 440 526 442
f 442 525 436
f 442 526 525
f 555 98 407
f 407 548 555
f 427 426 448
f 432 427 448
f 448 426 428
f 448 459 432
f 446 459 448
f 428 449 448
f 422 428 545
f 422 449 428
f 447 410 446
f 445 410 447
f 446 448 447
f 447 448 449
f 447 449 444
f 447 464 445
f 444 464 447
f 444 449 443
f 443 449 419
f 443 407 98
f 98 102 443
f 102 444 443
f 398 397 393
f 393 394 398
f 378 397 398
f 398 379 378
f 395 394 389
f 389 390 395
f 389 394 388
f 384 390 389
f 388 383 389
f 383 384 389
f 385 386 391
f 391 390 385
f 527 440 413
f 527 526 440
f 413 524 527
f 527 524 415
f 373 300 382
f 295 300 373
f 451 524 454
f 320 52 51
f 51 52 46
f 42 322 43
f 43 44 42
f 44 52 42
f 376 287 397
f 311 318 320
f 311 310 318
f 318 310 316
f 316 317 318
f 310 309 316
f 316 309 314
f 318 317 319
f 320 318 319
f 321 323 322
f 321 52 320
f 320 319 321
f 321 319 323
f 321 42 52
f 322 42 321
f 225 11 19
f 19 11 20
f 224 223 12
f 12 11 224
f 224 11 225
f 225 213 224
f 280 223 224
f 190 22 31
f 27 32 183
f 183 187 27
f 32 34 183
f 53 57 183
f 374 296 387
f 173 276 168
f 280 224 212
f 212 224 213
f 214 213 225
f 225 215 214
f 214 209 213
f 214 215 207
f 207 209 214
f 226 215 225
f 225 19 226
f 226 216 215
f 41 44 43
f 41 45 44
f 43 322 41
f 292 287 286
f 375 287 292
f 292 291 375
f 286 323 292
f 323 291 292
f 403 110 114
f 109 111 107
f 109 110 111
f 10 112 109
f 109 107 10
f 109 114 110
f 70 352 72
f 71 70 72
f 68 71 72
f 72 73 68
f 247 73 342
f 342 248 247
f 350 343 342
f 342 343 244
f 159 160 158
f 93 92 94
f 91 124 94
f 94 92 91
f 131 504 136
f 136 137 131
f 158 137 136
f 136 134 158
f 85 518 517
f 517 514 516
f 517 515 514
f 517 518 515
f 90 518 85
f 90 85 89
f 90 89 91
f 91 93 90
f 518 90 126
f 139 138 135
f 138 503 135
f 133 139 135
f 135 503 133
f 338 334 335
f 335 340 338
f 335 334 372
f 372 340 335
f 208 196 175
f 182 221 222
f 207 201 199
f 199 209 207
f 172 171 306
f 306 307 172
f 307 314 172
f 173 208 172
f 172 208 175
f 172 271 171
f 315 314 307
f 325 317 315
f 317 316 315
f 315 316 314
f 273 272 267
f 267 266 273
f 273 266 274
f 307 272 273
f 233 275 238
f 275 266 238
f 238 346 233
f 239 242 243
f 256 242 239
f 345 349 348
f 345 348 346
f 261 266 262
f 269 268 175
f 175 174 269
f 269 264 268
f 200 174 198
f 198 174 196
f 196 208 198
f 244 249 250
f 249 248 250
f 250 342 244
f 248 342 250
f 86 87 82
f 82 88 86
f 88 85 86
f 516 87 86
f 86 517 516
f 85 517 86
f 362 363 478
f 363 368 478
f 367 476 362
f 469 468 509
f 509 467 469
f 469 467 468
f 495 470 510
f 495 493 470
f 81 341 76
f 75 81 76
f 76 74 75
f 365 361 366
f 366 370 365
f 366 341 370
f 366 76 341
f 366 361 74
f 74 76 366
f 369 486 481
f 369 481 368
f 369 363 364
f 369 368 363
f 364 370 369
f 370 484 369
f 488 520 487
f 489 520 488
f 487 533 488
f 155 497 508
f 508 506 155
f 508 497 499
f 499 467 508
f 150 151 508
f 508 467 150
f 508 151 152
f 152 506 508
f 100 548 565
f 565 564 100
f 561 123 562
f 449 422 424
f 425 449 424
f 421 443 419
f 399 398 394
f 399 394 395
f 379 398 399
f 399 380 379
f 415 391 414
f 414 527 415
f 526 527 414
f 525 526 408
f 294 296 295
f 294 373 382
f 382 387 294
f 387 296 294
f 396 391 415
f 401 395 396
f 395 390 396
f 390 391 396
f 415 524 450
f 524 451 450
f 450 396 415
f 451 396 450
f 454 453 452
f 452 451 454
f 452 453 401
f 401 396 452
f 452 396 451
f 286 287 288
f 287 376 288
f 378 379 120
f 120 379 121
f 120 118 40
f 120 121 118
f 49 311 50
f 46 49 50
f 50 51 46
f 320 51 50
f 50 311 320
f 162 163 277
f 280 212 162
f 162 212 163
f 324 319 317
f 323 319 324
f 324 296 290
f 290 291 324
f 324 291 323
f 324 317 325
f 325 296 324
f 12 223 15
f 223 167 15
f 14 13 15
f 13 12 15
f 48 167 302
f 49 48 302
f 302 311 49
f 310 311 302
f 191 190 218
f 191 218 217
f 217 192 191
f 25 23 191
f 191 192 25
f 23 22 191
f 22 190 191
f 188 221 189
f 30 188 189
f 31 30 189
f 189 190 31
f 218 190 219
f 190 189 219
f 219 201 218
f 219 199 201
f 36 183 34
f 36 34 33
f 33 35 36
f 36 35 53
f 53 183 36
f 253 56 252
f 253 57 56
f 297 374 387
f 297 387 392
f 392 375 297
f 375 291 297
f 297 291 290
f 290 296 297
f 296 374 297
f 170 211 173
f 173 168 170
f 161 212 213
f 277 163 161
f 163 212 161
f 205 201 207
f 207 215 205
f 215 216 205
f 216 226 193
f 193 192 217
f 217 216 193
f 193 226 26
f 193 26 25
f 25 192 193
f 26 226 21
f 21 226 19
f 21 20 26
f 21 19 20
f 45 41 39
f 39 41 285
f 39 285 37
f 37 40 39
f 40 45 39
f 121 379 122
f 379 380 122
f 118 121 122
f 351 72 352
f 73 72 351
f 351 342 73
f 350 342 351
f 351 356 350
f 352 356 351
f 130 159 158
f 504 159 130
f 129 136 504
f 134 136 129
f 504 130 129
f 129 130 158
f 504 518 128
f 518 126 128
f 128 159 504
f 160 159 128
f 128 126 160
f 127 90 93
f 127 126 90
f 160 126 127
f 256 261 257
f 257 261 262
f 252 255 257
f 257 255 256
f 259 263 264
f 264 260 259
f 260 184 259
f 308 172 314
f 173 172 308
f 314 309 308
f 175 271 176
f 176 172 175
f 271 172 176
f 307 273 312
f 312 315 307
f 274 313 312
f 312 273 274
f 312 313 325
f 325 315 312
f 240 239 344
f 349 345 344
f 344 345 240
f 344 239 243
f 243 246 344
f 343 349 344
f 344 246 343
f 236 238 266
f 182 222 229
f 229 265 182
f 180 229 222
f 265 229 180
f 182 265 177
f 177 265 264
f 264 269 177
f 195 174 197
f 195 194 174
f 195 177 194
f 195 197 182
f 182 177 195
f 178 177 269
f 362 478 479
f 479 367 362
f 480 367 479
f 468 480 479
f 477 368 482
f 477 478 368
f 468 479 494
f 494 495 510
f 510 509 494
f 509 468 494
f 474 467 476
f 476 367 474
f 468 467 474
f 483 484 489
f 489 488 483
f 533 486 485
f 485 488 533
f 485 483 488
f 484 483 485
f 485 369 484
f 486 369 485
f 563 562 123
f 123 100 563
f 100 564 563
f 423 422 545
f 423 424 422
f 423 545 425
f 425 424 423
f 542 421 419
f 546 548 553
f 553 421 546
f 443 421 553
f 400 395 401
f 400 399 395
f 401 381 400
f 381 380 400
f 380 399 400
f 526 414 409
f 409 408 526
f 409 414 391
f 391 408 409
f 525 408 416
f 416 417 528
f 528 525 416
f 386 417 416
f 416 391 386
f 416 408 391
f 295 373 293
f 293 294 295
f 373 294 293
f 377 397 378
f 377 281 397
f 289 376 397
f 397 281 289
f 289 288 376
f 289 322 286
f 286 288 289
f 119 285 378
f 378 120 119
f 37 285 119
f 119 38 37
f 40 38 119
f 119 120 40
f 304 162 277
f 309 162 304
f 197 199 220
f 199 219 220
f 220 221 197
f 220 189 221
f 220 219 189
f 251 183 57
f 57 253 251
f 253 259 251
f 251 259 184
f 173 211 210
f 213 209 210
f 210 161 213
f 210 204 173
f 209 204 210
f 169 170 168
f 211 170 169
f 309 304 169
f 277 161 169
f 169 304 277
f 169 210 211
f 161 210 169
f 169 308 309
f 201 205 203
f 217 218 203
f 218 201 203
f 203 216 217
f 203 205 216
f 381 402 117
f 158 134 132
f 132 129 158
f 134 129 132
f 93 94 125
f 125 127 93
f 125 94 124
f 160 127 125
f 558 160 125
f 125 124 558
f 206 198 208
f 206 208 173
f 173 204 206
f 200 198 206
f 206 204 200
f 209 199 202
f 202 204 209
f 202 199 197
f 197 200 202
f 200 204 202
f 187 183 185
f 185 184 187
f 263 259 258
f 262 263 258
f 258 257 262
f 258 259 253
f 258 253 252
f 252 257 258
f 187 184 186
f 188 187 186
f 186 184 260
f 260 230 186
f 186 221 188
f 186 222 221
f 305 276 173
f 173 308 305
f 305 168 276
f 305 169 168
f 308 169 305
f 346 238 237
f 238 236 237
f 240 345 234
f 266 261 234
f 181 180 222
f 222 186 181
f 181 186 230
f 181 230 260
f 181 260 264
f 264 265 181
f 265 180 181
f 270 269 174
f 270 178 269
f 174 194 179
f 194 177 179
f 177 178 179
f 493 495 496
f 495 494 496
f 478 477 534
f 534 479 478
f 534 494 479
f 534 496 494
f 530 480 468
f 473 367 480
f 473 474 367
f 480 530 473
f 468 474 473
f 473 530 468
f 544 419 546
f 544 542 419
f 548 407 554
f 554 553 548
f 407 443 554
f 443 553 554
f 322 289 283
f 283 289 281
f 283 41 322
f 47 48 14
f 14 17 47
f 16 15 167
f 14 15 16
f 280 162 278
f 310 302 303
f 302 166 303
f 303 309 310
f 303 162 309
f 303 278 162
f 164 223 280
f 164 166 223
f 280 278 164
f 164 303 166
f 278 303 164
f 279 167 223
f 113 117 402
f 113 402 403
f 403 114 113
f 112 117 113
f 113 109 112
f 114 109 113
f 115 380 381
f 115 122 380
f 112 118 115
f 118 122 115
f 183 251 231
f 231 185 183
f 231 251 184
f 184 185 231
f 240 234 241
f 241 234 261
f 241 239 240
f 256 239 241
f 241 261 256
f 235 236 266
f 266 234 235
f 235 237 236
f 235 234 345
f 235 345 346
f 346 237 235
f 232 270 174
f 178 270 232
f 174 179 232
f 232 179 178
f 531 534 477
f 496 534 531
f 531 477 482
f 493 496 531
f 482 532 531
f 532 493 531
f 421 542 543
f 281 377 282
f 282 283 281
f 378 285 284
f 284 377 378
f 285 41 284
f 41 283 284
f 284 282 377
f 283 282 284
f 18 16 167
f 18 47 17
f 18 17 14
f 14 16 18
f 18 167 48
f 48 47 18
f 301 166 302
f 301 279 166
f 301 302 167
f 167 279 301
f 223 166 165
f 165 279 223
f 166 279 165
f 381 117 116
f 116 115 381
f 116 117 112
f 112 115 116
f 421 543 420
f 420 543 556
f 546 421 420
f 420 556 546
f 542 544 547
f 547 543 542
f 547 544 546
f 546 556 547
f 556 543 547
f 4 10 6
f 3 10 4
f 4 6 7
f 7 5 4
f 1 9 2
f 8 9 1
f 1 5 7
f 7 8 1
f 100 97 96
f 99 100 96
f 563 144 141
f 540 149 563
f 563 557 2
f 141 139 563
f 558 559 563
f 563 560 561
f 149 148 563
f 549 550 563
f 148 144 563
f 2 9 563
f 563 541 540
f 9 560 563
f 563 160 558
f 550 541 563
f 139 158 563
f 563 559 557
f 563 545 549
f 563 546 545
f 563 548 546
f 158 160 563
f 563 565 548
f 564 565 563
f 561 562 563

