# https://github.com/mikedh/trimesh
v 0.00930000 -0.00799146 -0.00263042
v 0.00943397 -0.00786603 -0.00300000
v 0.00950000 -0.00780000 -0.00310000
v 0.00950000 -0.00746178 -0.00338699
v 0.00950000 -0.00700000 -0.00350000
v 0.00930000 0.00799146 -0.00263042
v 0.00943397 0.00786603 -0.00300000
v 0.00950000 0.00780000 -0.00310000
v 0.00950000 0.00746178 -0.00338699
v 0.00950000 0.00700000 -0.00350000
v 0.00950000 0.00780000 -0.00300000
v 0.00950000 -0.00779167 -0.00263966
v 0.00950000 -0.00780000 -0.00300000
v 0.00950000 -0.00752974 -0.00096455
v 0.00950000 0.00779167 -0.00263966
v -0.01250000 -0.00468883 0.01266298
v -0.01250000 -0.00400000 0.01280000
v -0.01250000 0.00468883 0.01266298
v -0.01300000 0.00792388 -0.00288269
v -0.01300000 0.00770711 -0.00320711
v -0.01300000 0.00800000 -0.00250000
v -0.01300000 0.00738268 -0.00342388
v -0.01300000 0.00700000 -0.00350000
v -0.01300000 -0.00800000 -0.00250000
v -0.01300000 -0.00786603 -0.00300000
v -0.01300000 -0.00750000 -0.00336603
v -0.01300000 -0.00700000 -0.00350000
v -0.01300000 -0.00750000 0.00946603
v -0.01300000 -0.00786603 0.00910000
v -0.01300000 -0.00800000 0.00860000
v -0.01300000 0.00800000 0.00860000
v -0.01300000 0.00786603 0.00910000
v -0.01300000 0.00750000 0.00946603
v -0.01017628 -0.00430000 0.02020184
v -0.01063105 -0.00430000 0.01891868
v 0.00773339 -0.00430000 0.02331766
v 0.00870069 -0.00430000 0.02161418
v 0.00929803 -0.00430000 0.01974851
v 0.00950000 -0.00430000 0.01780000
v 0.00950000 0.00580000 0.01780000
v 0.00773339 0.00580000 0.02331766
v 0.00870069 0.00580000 0.02161418
v 0.00929803 0.00580000 0.01974851
v -0.01017628 0.00580000 0.02020184
v -0.01063105 0.00580000 0.01891868
v -0.00729336 -0.00800000 0.02610000
v -0.00729336 0.00800000 0.02610000
v -0.00748223 0.00800000 0.02606295
v -0.00748223 -0.00800000 0.02606295
v -0.00764312 0.00800000 0.02595731
v -0.00764312 -0.00800000 0.02595731
v -0.00775218 0.00800000 0.02579872
v -0.00775218 -0.00800000 0.02579872
v -0.00800000 -0.00800000 0.02522654
v -0.00800000 0.00800000 0.02522654
v 0.00656818 0.00800000 0.02466360
v 0.00643727 0.00800000 0.02478653
v 0.00643727 -0.00800000 0.02478653
v 0.00656818 -0.00800000 0.02466360
v 0.00486742 0.00800000 0.02595832
v 0.00486742 -0.00800000 0.02595832
v 0.00309061 0.00800000 0.02678321
v 0.00309061 -0.00800000 0.02678321
v 0.00118239 0.00800000 0.02722613
v 0.00118239 -0.00800000 0.02722613
v -0.00077612 0.00800000 0.02726824
v -0.00077612 -0.00800000 0.02726824
v 0.00700000 0.00800000 -0.00350000
v 0.00750000 0.00786603 -0.00350000
v -0.00700000 -0.00800000 -0.00350000
v -0.00700000 0.00800000 -0.00350000
v 0.00700000 -0.00800000 -0.00350000
v 0.00738268 -0.00792388 -0.00350000
v -0.01600000 -0.00075000 -0.00129904
v -0.01600000 -0.00129904 -0.00075000
v -0.01600000 -0.00150000 -0.00000000
v -0.01600000 -0.00129904 0.00075000
v -0.01600000 0.00129904 -0.00075000
v -0.01600000 0.00075000 -0.00129904
v -0.01600000 -0.00000000 -0.00150000
v -0.01600000 0.00075000 0.00129904
v -0.01600000 0.00129904 0.00075000
v -0.01600000 0.00150000 -0.00000000
v -0.01600000 -0.00075000 0.00129904
v -0.01600000 -0.00000000 0.00150000
v 0.00786886 -0.00800000 0.01842866
v 0.00797076 -0.00800000 0.01759375
v 0.00786886 0.00800000 0.01842866
v 0.00797076 0.00800000 0.01759375
f 29 30 54
f 77 30 29
f 74 27 26
f 26 25 74
f 73 4 3
f 5 4 73
f 38 87 39
f 86 38 59
f 86 87 38
f 12 87 1
f 1 87 72
f 72 73 3
f 68 7 8
f 6 7 68
f 23 22 71
f 19 21 71
f 55 31 32
f 32 45 55
f 35 54 34
f 24 30 76
f 30 77 76
f 76 25 24
f 13 12 1
f 14 39 87
f 87 12 14
f 24 25 70
f 25 26 70
f 70 26 27
f 2 72 3
f 1 72 2
f 3 13 2
f 2 13 1
f 59 38 37
f 6 68 89
f 80 23 27
f 80 27 74
f 22 23 80
f 71 22 20
f 20 19 71
f 20 78 19
f 55 45 44
f 28 77 29
f 29 54 28
f 28 54 35
f 35 16 28
f 74 25 75
f 25 76 75
f 41 42 56
f 56 42 43
f 40 89 43
f 15 89 40
f 6 89 15
f 69 9 10
f 8 9 69
f 69 68 8
f 22 80 79
f 79 20 22
f 78 20 79
f 45 32 33
f 35 45 85
f 82 32 31
f 82 33 32
f 81 33 82
f 59 37 36
f 56 43 88
f 88 43 89
f 8 7 11
f 11 7 6
f 6 15 11
f 45 33 18
f 18 33 81
f 81 85 18
f 18 85 45
f 77 28 84
f 84 28 16
f 16 85 84
f 17 16 35
f 35 85 17
f 17 85 16
f 83 31 21
f 83 82 31
f 21 19 83
f 19 78 83
f 46 47 48
f 46 48 49
f 66 47 46
f 46 67 66
f 53 52 55
f 55 54 53
f 56 57 58
f 59 56 58
f 61 58 60
f 60 58 57
f 24 70 51
f 51 86 59
f 59 58 51
f 51 30 24
f 65 67 51
f 51 46 49
f 51 63 65
f 51 54 30
f 67 46 51
f 61 63 51
f 87 86 51
f 51 72 87
f 51 53 54
f 51 70 72
f 51 58 61
f 48 50 51
f 49 48 51
f 51 50 52
f 52 53 51
f 44 54 55
f 44 34 54
f 44 45 35
f 35 34 44
f 42 37 43
f 43 37 38
f 39 40 43
f 38 39 43
f 64 67 65
f 66 67 64
f 71 68 69
f 27 23 69
f 5 73 69
f 69 23 71
f 69 10 5
f 73 72 69
f 72 70 69
f 69 70 27
f 36 56 59
f 36 41 56
f 36 37 42
f 42 41 36
f 62 50 48
f 55 52 62
f 62 47 66
f 71 21 62
f 48 47 62
f 62 31 55
f 62 68 71
f 21 31 62
f 52 50 62
f 62 57 56
f 62 60 57
f 66 64 62
f 62 89 68
f 56 88 62
f 62 88 89
f 62 63 61
f 61 60 62
f 65 63 62
f 62 64 65
f 3 4 11
f 5 10 11
f 11 9 8
f 11 4 5
f 11 40 39
f 39 14 11
f 11 13 3
f 12 13 11
f 11 14 12
f 10 9 11
f 11 15 40
f 83 76 77
f 78 79 83
f 83 80 74
f 74 75 83
f 77 84 83
f 83 75 76
f 83 79 80
f 83 85 81
f 81 82 83
f 83 84 85

