# https://github.com/mikedh/trimesh
v -0.00800000 0.00750000 0.01050000
v -0.00750000 0.00800000 0.01050000
v 0.00603137 0.00750000 0.01050000
v -0.00796194 0.00769134 0.01050000
v -0.00785355 0.00785355 0.01050000
v -0.00769134 0.00796194 0.01050000
v -0.00786602 -0.00750000 0.01050000
v -0.00800000 -0.00700000 0.01050000
v -0.00700000 -0.00800000 0.01050000
v -0.00750000 -0.00786603 0.01050000
v 0.00603137 -0.00700000 0.01050000
v 0.00596071 -0.00736787 0.01050000
v 0.00589633 -0.00750007 0.01050000
v 0.00578715 -0.00765274 0.01050000
v 0.00552806 -0.00786592 0.01050000
v 0.00533513 -0.00795125 0.01050000
v 0.00502506 -0.00800000 0.01050000
v 0.00588233 0.00785502 0.01050000
v 0.00598100 0.00771792 0.01050000
v 0.00574382 0.00795163 0.01050000
v 0.00602813 0.00755663 0.01050000
v 0.00564205 0.00798696 0.01050000
v 0.00552787 0.00800000 0.01050000
v -0.01050000 0.00600000 0.05756404
v -0.01100000 0.00550000 0.05781332
v 0.00884886 -0.00679683 0.04610000
v 0.01075689 0.00400000 0.03750379
v 0.01082984 -0.00400000 0.03666075
v 0.01099291 -0.00400000 0.03418475
v 0.01102391 0.00400000 0.03351586
v 0.01102391 -0.00400000 0.03351586
v 0.01105875 0.00400000 0.03255526
v 0.01109122 -0.00400000 0.02922280
v 0.01109596 0.00400000 0.03007635
v 0.01105716 0.00400000 0.02759299
v 0.01105129 -0.00400000 0.02740993
v 0.01105129 0.00400000 0.02740993
v 0.01102632 -0.00400000 0.02674150
v 0.01094224 0.00400000 0.02511197
v 0.00999788 -0.00400000 0.01680782
v 0.00999772 0.00400000 0.01680761
v 0.01061863 -0.00400000 0.02131928
v 0.01061863 0.00400000 0.02131928
v 0.01066883 -0.00400000 0.02179255
v 0.01088548 -0.00400000 0.02426429
v 0.00939387 0.00653986 0.01605568
v 0.00966833 0.00656217 0.01778411
v 0.00985305 0.00612132 0.01775552
v 0.00944240 0.00686965 0.01781908
v 0.00911775 0.00685145 0.01577002
v 0.00931147 0.00665227 0.01596279
v 0.00985692 0.00536066 0.01662645
v 0.00970837 0.00589067 0.01643785
v 0.00959973 0.00616461 0.01630244
v 0.00996526 0.00466641 0.01676568
v 0.01010836 0.00478173 0.01771601
v 0.00999827 0.00556054 0.01773304
v 0.00963921 0.00697013 0.03986406
v 0.00990079 0.00697013 0.03742522
v 0.01008773 0.00697013 0.03497954
v 0.01019980 0.00697013 0.03252921
v 0.01023673 0.00697013 0.03007659
v 0.01019823 0.00697013 0.02761958
v 0.00978889 0.00686965 0.03988243
v 0.01005095 0.00686965 0.03743900
v 0.01023825 0.00686965 0.03498872
v 0.01035053 0.00686965 0.03253378
v 0.01038753 0.00686965 0.03007655
v 0.01034895 0.00686965 0.02761491
v 0.01057746 0.00656217 0.02760784
v 0.01061615 0.00656217 0.03007649
v 0.01057904 0.00656217 0.03254072
v 0.01046644 0.00656217 0.03500263
v 0.01027861 0.00656217 0.03745990
v 0.01065302 0.00612132 0.03501402
v 0.01076588 0.00612132 0.03254638
v 0.01080307 0.00612132 0.03007643
v 0.01076429 0.00612132 0.02760205
v 0.01079969 0.00556054 0.03502297
v 0.01091276 0.00556054 0.03255083
v 0.01095002 0.00556054 0.03007638
v 0.01091117 0.00556054 0.02759750
v 0.01091088 0.00478173 0.03502975
v 0.01102411 0.00478173 0.03255421
v 0.01106142 0.00478173 0.03007635
v 0.01102252 0.00478173 0.02759405
v 0.00978128 0.00686965 0.02025574
v 0.01000816 0.00656217 0.02022771
v 0.01019368 0.00612132 0.02020479
v 0.01033952 0.00556054 0.02018677
v 0.01045007 0.00478173 0.02017312
v 0.01008432 0.00697013 0.02516491
v 0.01023483 0.00686965 0.02515563
v 0.01046301 0.00656217 0.02514154
v 0.01064958 0.00612132 0.02513003
v 0.01079625 0.00556054 0.02512099
v 0.01090743 0.00478173 0.02511413
v 0.00989538 0.00697013 0.02271611
v 0.01004554 0.00686965 0.02270222
v 0.01027317 0.00656217 0.02268115
v 0.01045930 0.00612132 0.02266393
v 0.01060563 0.00556054 0.02265039
v 0.01071655 0.00478173 0.02264012
v 0.00971981 -0.00612132 0.01692137
v 0.00968734 -0.00594998 0.01641145
v 0.00978359 -0.00565385 0.01653294
v 0.00894747 -0.00695977 0.01565769
v 0.00919470 -0.00678264 0.01584104
v 0.00952489 -0.00697013 0.01944225
v 0.00930984 -0.00686965 0.01698922
v 0.00941999 -0.00650064 0.01608602
v 0.00973703 -0.00697013 0.03903552
v 0.00981413 -0.00697013 0.02188067
v 0.00967435 -0.00686965 0.01942220
v 0.00953539 -0.00656217 0.01695189
v 0.00948727 -0.00638890 0.01616560
v 0.00918875 -0.00686965 0.04392252
v 0.00957511 -0.00686965 0.04149290
v 0.00988689 -0.00686965 0.03905234
v 0.01012371 -0.00686965 0.03660336
v 0.01002845 -0.00697013 0.02432620
v 0.00996413 -0.00686965 0.02186520
v 0.00990093 -0.00656217 0.01939180
v 0.00980142 -0.00656217 0.04152534
v 0.01011408 -0.00656217 0.03907783
v 0.01035157 -0.00656217 0.03662188
v 0.01051367 -0.00656217 0.03416055
v 0.01016779 -0.00697013 0.02677713
v 0.01017886 -0.00686965 0.02431533
v 0.01019154 -0.00656217 0.02184176
v 0.01008619 -0.00612132 0.01936694
v 0.00986478 -0.00556054 0.01689737
v 0.00991583 -0.00505179 0.01670200
v 0.01029984 -0.00612132 0.03909867
v 0.01053789 -0.00612132 0.03663702
v 0.01070036 -0.00612132 0.03416998
v 0.01078722 -0.00612132 0.03169912
v 0.01023203 -0.00697013 0.02923211
v 0.01031846 -0.00686965 0.02677088
v 0.01040688 -0.00656217 0.02429886
v 0.01037748 -0.00612132 0.02182259
v 0.01023184 -0.00556054 0.01934740
v 0.00997469 -0.00478173 0.01687919
v 0.00998031 -0.00449293 0.01678511
v 0.01094528 -0.00556054 0.02922439
v 0.01093414 -0.00556054 0.03170203
v 0.01084712 -0.00556054 0.03417739
v 0.01068435 -0.00556054 0.03664892
v 0.01099177 -0.00478173 0.02674294
v 0.01105667 -0.00478173 0.02922318
v 0.01104552 -0.00478173 0.03170424
v 0.01095837 -0.00478173 0.03418301
v 0.01079538 -0.00478173 0.03665794
v 0.01034225 -0.00478173 0.01933258
v 0.01052365 -0.00556054 0.02180751
v 0.01059332 -0.00612132 0.02428539
v 0.01054688 -0.00656217 0.02676140
v 0.01038282 -0.00686965 0.02923048
v 0.01022099 -0.00697013 0.03168790
v 0.01063447 -0.00478173 0.02179609
v 0.01073989 -0.00556054 0.02427480
v 0.01073364 -0.00612132 0.02675365
v 0.01061142 -0.00656217 0.02922800
v 0.01037176 -0.00686965 0.03169089
v 0.01013474 -0.00697013 0.03414142
v 0.01085100 -0.00478173 0.02426678
v 0.01088046 -0.00556054 0.02674755
v 0.01079834 -0.00612132 0.02922598
v 0.01060034 -0.00656217 0.03169542
v 0.01028535 -0.00686965 0.03414903
v 0.00997341 -0.00697013 0.03659115
v 0.00902500 -0.00682099 0.01550561
v 0.00998621 -0.00400000 0.01676119
v 0.00996727 -0.00400000 0.01671704
v 0.00996888 -0.00448763 0.01673847
v 0.00990533 -0.00503998 0.01665525
v 0.00977544 -0.00563345 0.01648582
v 0.00968143 -0.00592412 0.01636390
v 0.00948824 -0.00635166 0.01611654
v 0.00942429 -0.00645937 0.01603616
v 0.00921705 -0.00672721 0.01578639
v 0.00901491 -0.00689589 0.01558908
v 0.00905292 -0.00680166 0.01553420
v 0.00922118 -0.00666187 0.01573873
v 0.00941605 -0.00641373 0.01599082
v 0.00947776 -0.00631090 0.01607157
v 0.00966635 -0.00589640 0.01631954
v 0.00975887 -0.00561172 0.01644158
v 0.00988717 -0.00502748 0.01661110
v 0.00995009 -0.00448204 0.01669432
v 0.00998588 0.00400000 0.01676076
v 0.00996693 0.00400000 0.01671660
v 0.00916147 0.00671797 0.01566335
v 0.00931932 0.00654988 0.01586493
v 0.00939239 0.00644939 0.01595993
v 0.00958301 0.00610063 0.01620977
v 0.00968648 0.00583960 0.01634606
v 0.00982986 0.00532786 0.01653536
v 0.00993538 0.00465154 0.01667486
v 0.00915018 0.00679152 0.01571248
v 0.00932280 0.00660425 0.01591113
v 0.00939964 0.00649701 0.01600545
v 0.00959638 0.00613385 0.01625435
v 0.00970192 0.00586600 0.01639041
v 0.00984738 0.00534474 0.01657955
v 0.00995403 0.00465918 0.01671901
v -0.01160044 -0.00231144 0.04828810
v -0.01160044 -0.00308076 0.04818302
v -0.01160044 -0.00369446 0.04770734
v -0.01160044 -0.00388301 0.04621924
v -0.01160044 -0.00398810 0.04698855
v -0.01160044 -0.00268856 0.04531191
v -0.01160044 -0.00340735 0.04560555
v -0.01160044 0.00248423 0.04829992
v -0.01160044 0.00323631 0.04810684
v -0.01160044 0.00379108 0.04756361
v -0.01160044 0.00399992 0.04681576
v -0.01160044 0.00380685 0.04606370
v -0.01160044 0.00326361 0.04550891
v -0.01160044 0.00251576 0.04530009
v 0.00742195 0.00800000 0.01420000
v -0.00750000 0.00800000 0.01420000
v 0.00719284 0.00800000 0.01367481
v -0.00769134 0.00796194 0.01420000
v -0.00785355 0.00785355 0.01420000
v 0.00734248 0.00796910 0.01358789
v 0.00749856 0.00785355 0.01349724
v 0.00759847 0.00767306 0.01343921
v 0.00787962 0.00769524 0.01412484
v 0.00776934 0.00785750 0.01414196
v 0.00760833 0.00796343 0.01416805
v 0.00158675 0.00805000 0.01316100
v 0.00141325 0.00805000 0.01183900
v 0.00216100 0.00805000 0.01241324
v 0.00202906 0.00805000 0.01209437
v 0.00175536 0.00805000 0.01188418
v 0.00190563 0.00805000 0.01302906
v 0.00211582 0.00805000 0.01275536
v -0.00416100 0.00805000 0.01258676
v -0.00402906 0.00805000 0.01290563
v -0.00375536 0.00805000 0.01311582
v -0.00341324 0.00805000 0.01316100
v -0.00358676 0.00805000 0.01183900
v -0.00390563 0.00805000 0.01197094
v -0.00411582 0.00805000 0.01224463
v 0.00764575 -0.00770742 0.01423041
v 0.00751674 -0.00781401 0.01423614
v 0.00724111 -0.00794994 0.01425006
v 0.00707985 -0.00793819 0.01378737
v 0.00677759 -0.00800000 0.01395601
v 0.00759689 -0.00734612 0.01349889
v 0.00739509 -0.00770711 0.01361149
v 0.00689288 -0.00800000 0.01420000
v -0.01100000 -0.00400000 0.05990877
v -0.01100000 0.00550000 0.05990877
v -0.01050000 0.00600000 0.05990877
v -0.01050000 -0.00450000 0.05990877
v -0.01071892 0.00550000 0.06117662
v -0.01026577 0.00600000 0.06096531
v -0.00992836 0.00550000 0.06220690
v -0.00960697 0.00600000 0.06182388
v -0.00960697 -0.00450000 0.06182388
v -0.00992836 -0.00400000 0.06220690
v -0.01071892 -0.00400000 0.06117662
v -0.01026577 -0.00450000 0.06096531
v 0.00950000 -0.00400000 0.05580000
v 0.00376343 -0.00450000 0.06413396
v 0.00398037 -0.00400000 0.06458444
v 0.00551728 -0.00450000 0.06303193
v 0.00582903 -0.00400000 0.06342285
v 0.00698194 -0.00450000 0.06156728
v 0.00737286 -0.00400000 0.06187903
v 0.00808396 -0.00450000 0.05981342
v 0.00853445 -0.00400000 0.06003036
v 0.00876808 -0.00450000 0.05785833
v 0.00925555 -0.00400000 0.05796958
v -0.00075000 -0.00450000 0.06609999
v -0.00095711 -0.00400000 0.06660000
v -0.00432890 -0.00400000 0.06660000
v -0.00432890 -0.00450000 0.06609999
v -0.00467092 -0.00400000 0.06653970
v -0.00449991 -0.00450000 0.06606985
v -0.00497169 -0.00400000 0.06636604
v -0.00465029 -0.00450000 0.06598302
v -0.00465029 0.00600000 0.06598302
v -0.00497169 0.00550000 0.06636604
v -0.00467092 0.00550000 0.06653970
v -0.00449991 0.00600000 0.06606985
v -0.00432890 0.00550000 0.06660000
v -0.00432890 0.00600000 0.06609999
v -0.00095711 0.00550000 0.06660000
v -0.00075000 0.00600000 0.06609999
v 0.00398037 0.00550000 0.06458444
v 0.00376343 0.00600000 0.06413396
v 0.00582903 0.00550000 0.06342285
v 0.00551728 0.00600000 0.06303193
v 0.00737286 0.00550000 0.06187903
v 0.00698194 0.00600000 0.06156728
v 0.00853445 0.00550000 0.06003036
v 0.00808396 0.00600000 0.05981342
v 0.00925555 0.00550000 0.05796958
v 0.00876808 0.00600000 0.05785833
v 0.00950000 0.00550000 0.05580000
v 0.00900000 0.00600000 0.05580000
v -0.00075000 -0.00379289 0.06660000
v -0.00075000 0.00529289 0.06660000
v 0.00700000 -0.00800000 0.01464120
v 0.00733635 -0.00794174 0.01454619
v 0.00749906 -0.00786657 0.01451731
v -0.00770710 -0.00770712 0.01450147
v -0.00735642 -0.00793433 0.01454199
v -0.00700000 0.00800000 0.04595879
v -0.00547129 0.00800000 0.04610000
v -0.00738268 0.00792388 0.04606325
v 0.00729760 -0.00795469 0.04604521
v 0.00700000 -0.00800000 0.04595879
v 0.00547129 -0.00800000 0.04610000
v 0.00750000 -0.00786603 0.04608282
v 0.00770710 -0.00770712 0.04609852
v 0.00547129 0.00800000 0.04610000
v 0.00700000 0.00800000 0.04595879
v 0.00738268 0.00792388 0.04606325
v -0.00547129 -0.00800000 0.04610000
v -0.00700000 -0.00800000 0.04595879
v -0.00729760 -0.00795469 0.04604521
v -0.00770711 -0.00770710 0.04609852
v -0.00750000 -0.00786603 0.04608282
f 324 325 9
f 8 220 1
f 9 325 311
f 9 311 10
f 307 315 316
f 308 315 307
f 4 217 25
f 25 217 255
f 4 1 218
f 218 217 4
f 255 217 216
f 7 10 310
f 310 211 7
f 212 220 8
f 255 259 256
f 63 62 68
f 231 226 221
f 62 63 231
f 322 62 231
f 231 321 322
f 221 321 231
f 227 231 230
f 226 231 227
f 138 128 158
f 138 315 308
f 308 128 138
f 290 312 288
f 288 312 285
f 237 232 321
f 321 232 320
f 320 292 321
f 285 312 261
f 261 312 259
f 219 1 220
f 219 218 1
f 215 214 255
f 255 216 215
f 8 7 210
f 210 7 211
f 299 300 298
f 298 300 322
f 322 321 298
f 298 321 296
f 302 300 299
f 302 303 304
f 322 300 302
f 79 303 83
f 301 302 299
f 303 302 301
f 304 303 65
f 61 62 322
f 322 60 61
f 69 63 68
f 20 227 18
f 226 227 20
f 221 226 223
f 92 231 63
f 18 227 228
f 85 32 34
f 277 317 316
f 273 315 318
f 107 309 247
f 254 208 209
f 209 211 254
f 254 207 208
f 214 207 254
f 255 214 254
f 324 323 280
f 290 288 289
f 288 287 289
f 286 288 285
f 286 287 288
f 276 26 117
f 26 319 117
f 117 319 318
f 238 237 321
f 313 312 290
f 222 239 2
f 312 239 222
f 312 313 242
f 314 224 256
f 259 312 314
f 314 256 259
f 312 222 314
f 314 222 224
f 25 24 5
f 4 25 5
f 213 212 8
f 8 210 213
f 81 77 80
f 80 85 81
f 151 145 150
f 30 83 27
f 27 83 303
f 64 302 304
f 304 65 64
f 59 60 322
f 59 64 65
f 226 20 22
f 22 223 226
f 23 223 22
f 231 92 98
f 98 99 230
f 230 231 98
f 63 69 93
f 93 92 63
f 99 98 93
f 93 98 92
f 198 3 197
f 18 228 19
f 230 99 87
f 87 49 230
f 318 315 165
f 35 85 34
f 32 85 84
f 30 32 84
f 84 83 30
f 85 80 84
f 79 83 84
f 84 80 79
f 86 35 37
f 85 35 86
f 42 43 44
f 16 15 249
f 249 252 247
f 249 15 252
f 16 250 17
f 315 269 267
f 316 315 267
f 267 277 316
f 269 270 267
f 271 269 315
f 315 273 271
f 274 271 273
f 299 298 297
f 297 298 296
f 305 278 268
f 268 267 270
f 278 277 268
f 277 267 268
f 326 211 310
f 258 259 255
f 260 261 258
f 258 261 259
f 324 280 282
f 325 324 282
f 282 284 325
f 306 293 291
f 291 293 292
f 281 282 279
f 279 282 280
f 276 274 275
f 275 274 273
f 275 26 276
f 275 319 26
f 275 273 318
f 318 319 275
f 240 239 312
f 2 239 245
f 256 224 225
f 33 151 150
f 34 32 33
f 33 35 34
f 74 65 303
f 303 73 74
f 79 80 75
f 75 303 79
f 75 73 303
f 66 61 60
f 60 59 66
f 66 59 65
f 65 74 66
f 66 74 73
f 58 59 322
f 64 59 58
f 322 302 58
f 302 64 58
f 230 49 50
f 50 49 51
f 51 49 47
f 47 87 88
f 49 87 47
f 186 11 187
f 185 11 186
f 174 11 3
f 12 183 13
f 197 3 21
f 21 196 197
f 195 196 21
f 197 196 204
f 193 19 228
f 193 21 19
f 318 165 171
f 171 112 318
f 315 138 159
f 159 165 315
f 159 164 165
f 159 138 158
f 158 164 159
f 318 112 119
f 119 171 120
f 112 171 119
f 149 166 38
f 150 145 149
f 36 38 37
f 37 35 36
f 35 33 36
f 36 33 150
f 150 149 36
f 36 149 38
f 55 56 41
f 37 38 39
f 160 42 44
f 13 183 172
f 172 251 13
f 252 15 14
f 13 251 14
f 14 251 252
f 185 186 179
f 248 250 16
f 16 249 248
f 248 253 250
f 307 253 248
f 308 307 248
f 248 309 308
f 247 309 248
f 248 249 247
f 272 270 269
f 269 271 272
f 271 274 272
f 292 293 294
f 296 321 294
f 321 292 294
f 295 297 296
f 296 294 295
f 295 294 293
f 121 128 308
f 308 309 121
f 247 252 246
f 257 254 211
f 211 326 257
f 283 282 281
f 284 282 283
f 312 242 241
f 241 240 312
f 244 243 2
f 2 245 244
f 233 236 23
f 235 223 23
f 23 236 235
f 221 223 235
f 31 33 32
f 151 33 31
f 31 32 30
f 30 29 31
f 145 151 146
f 76 80 77
f 76 75 80
f 61 66 67
f 68 62 67
f 62 61 67
f 101 95 102
f 102 90 101
f 82 77 81
f 81 85 82
f 85 86 82
f 70 71 77
f 70 69 68
f 68 71 70
f 70 93 69
f 229 227 230
f 229 228 227
f 51 47 46
f 46 47 54
f 56 90 91
f 41 56 91
f 91 43 41
f 192 174 3
f 143 133 144
f 183 12 184
f 184 12 11
f 184 11 185
f 203 204 196
f 203 196 195
f 54 47 48
f 57 90 56
f 57 48 90
f 195 21 194
f 21 193 194
f 165 164 170
f 120 171 170
f 170 171 165
f 120 170 127
f 118 117 318
f 318 119 118
f 276 117 118
f 156 162 140
f 38 166 45
f 45 39 38
f 45 160 44
f 166 160 45
f 44 43 45
f 43 39 45
f 97 86 37
f 37 39 97
f 97 82 86
f 155 160 166
f 178 105 179
f 178 186 187
f 178 179 186
f 104 105 132
f 113 121 309
f 122 121 113
f 113 114 122
f 123 104 131
f 327 257 326
f 327 311 325
f 327 326 310
f 325 284 262
f 263 264 262
f 221 235 234
f 234 321 221
f 234 238 321
f 137 146 136
f 28 153 29
f 28 27 303
f 28 29 30
f 30 27 28
f 29 153 152
f 152 31 29
f 151 31 152
f 152 146 151
f 73 75 72
f 75 76 72
f 77 71 72
f 72 76 77
f 72 66 73
f 72 67 66
f 72 71 68
f 68 67 72
f 100 101 88
f 88 87 100
f 100 87 99
f 77 82 78
f 78 82 95
f 78 70 77
f 95 70 78
f 200 50 51
f 230 50 200
f 200 229 230
f 200 193 228
f 228 229 200
f 3 198 199
f 199 192 3
f 174 192 191
f 192 199 191
f 11 174 190
f 190 189 11
f 41 43 40
f 43 42 40
f 182 172 183
f 182 107 247
f 247 246 182
f 182 246 252
f 252 251 182
f 251 172 182
f 89 101 90
f 90 48 89
f 88 101 89
f 89 47 88
f 89 48 47
f 56 55 52
f 52 57 56
f 195 194 202
f 202 203 195
f 202 46 54
f 54 203 202
f 125 119 120
f 167 149 145
f 145 162 167
f 157 163 158
f 157 140 162
f 82 97 96
f 102 95 96
f 95 82 96
f 103 39 43
f 103 97 39
f 43 91 103
f 103 90 102
f 103 91 90
f 102 96 103
f 103 96 97
f 141 123 131
f 156 140 141
f 160 155 154
f 154 133 143
f 143 144 154
f 42 160 154
f 154 40 42
f 144 40 154
f 177 178 187
f 309 114 109
f 109 113 309
f 114 113 109
f 104 123 115
f 122 114 130
f 114 123 130
f 130 141 140
f 123 141 130
f 325 262 265
f 265 327 325
f 257 327 265
f 265 262 264
f 265 264 254
f 254 257 265
f 145 146 168
f 146 137 168
f 168 162 145
f 163 157 168
f 168 157 162
f 163 168 169
f 169 168 137
f 136 127 169
f 169 137 136
f 158 163 169
f 169 164 158
f 169 170 164
f 169 127 170
f 153 148 147
f 147 152 153
f 146 152 147
f 136 146 147
f 95 101 94
f 101 100 94
f 94 70 95
f 93 70 94
f 99 93 94
f 94 100 99
f 201 194 193
f 193 200 201
f 201 202 194
f 201 200 51
f 51 46 201
f 46 202 201
f 206 55 41
f 41 191 206
f 206 191 199
f 206 199 198
f 189 190 175
f 175 40 144
f 173 191 41
f 41 40 173
f 174 191 173
f 40 175 173
f 173 190 174
f 173 175 190
f 53 52 204
f 57 52 53
f 48 57 53
f 54 48 53
f 53 203 54
f 204 203 53
f 120 127 126
f 126 125 120
f 124 118 119
f 119 125 124
f 276 118 124
f 124 125 276
f 156 141 161
f 161 141 155
f 161 162 156
f 161 167 162
f 161 155 166
f 166 149 161
f 149 167 161
f 158 128 139
f 139 157 158
f 140 157 139
f 142 154 155
f 142 132 133
f 133 154 142
f 142 141 131
f 155 141 142
f 131 104 142
f 104 132 142
f 133 177 176
f 189 175 176
f 176 144 133
f 176 175 144
f 106 132 105
f 105 178 106
f 178 177 106
f 133 132 106
f 106 177 133
f 188 177 187
f 187 11 188
f 11 189 188
f 189 176 188
f 188 176 177
f 110 123 114
f 110 115 123
f 110 114 309
f 107 182 110
f 309 107 110
f 205 52 55
f 55 206 205
f 205 206 198
f 204 52 205
f 205 198 197
f 197 204 205
f 135 127 136
f 135 126 127
f 136 147 135
f 135 147 148
f 125 126 135
f 128 121 129
f 129 139 128
f 129 121 122
f 140 139 129
f 122 130 129
f 129 130 140
f 185 179 180
f 180 184 185
f 116 105 104
f 179 105 116
f 104 115 116
f 115 111 116
f 116 180 179
f 111 180 116
f 108 110 182
f 108 111 115
f 115 110 108
f 266 135 148
f 266 148 153
f 276 125 266
f 153 28 266
f 266 28 303
f 183 184 181
f 181 182 183
f 181 108 182
f 184 180 181
f 181 180 111
f 111 108 181
f 125 135 134
f 134 266 125
f 135 266 134
f 255 256 24
f 24 25 255
f 323 317 280
f 317 277 280
f 286 261 260
f 285 261 286
f 292 320 313
f 290 292 313
f 242 313 320
f 242 320 232
f 209 208 213
f 213 207 214
f 213 219 220
f 220 212 213
f 213 211 209
f 217 218 213
f 213 216 217
f 208 207 213
f 214 215 213
f 218 219 213
f 213 215 216
f 213 210 211
f 316 317 17
f 17 324 9
f 17 307 316
f 17 323 324
f 17 317 323
f 17 253 307
f 250 253 17
f 276 301 274
f 274 301 299
f 306 305 268
f 268 293 306
f 291 292 290
f 290 289 291
f 279 278 305
f 279 305 306
f 306 291 279
f 279 291 289
f 279 287 281
f 279 289 287
f 279 280 277
f 279 277 278
f 6 222 2
f 224 222 6
f 225 24 256
f 225 5 24
f 225 6 5
f 224 6 225
f 14 6 2
f 14 1 4
f 9 10 14
f 8 1 14
f 14 21 3
f 14 7 8
f 14 20 18
f 10 7 14
f 2 23 14
f 18 19 14
f 4 5 14
f 23 22 14
f 14 17 9
f 14 22 20
f 3 11 14
f 14 12 13
f 14 15 16
f 16 17 14
f 5 6 14
f 11 12 14
f 19 21 14
f 272 274 299
f 299 297 272
f 295 272 297
f 270 272 295
f 293 268 295
f 295 268 270
f 281 287 283
f 287 286 283
f 283 286 260
f 260 263 283
f 264 258 255
f 255 254 264
f 264 263 260
f 260 258 264
f 233 23 2
f 2 243 233
f 327 10 311
f 310 10 327
f 262 283 263
f 284 283 262
f 232 237 234
f 234 245 239
f 234 242 232
f 237 238 234
f 239 240 234
f 234 233 243
f 234 241 242
f 243 244 234
f 240 241 234
f 234 244 245
f 236 233 234
f 234 235 236
f 266 301 276
f 303 301 266

