# https://github.com/mikedh/trimesh
v 0.00250000 -0.00149884 -0.00005892
v 0.00250000 -0.00149711 0.00009302
v -0.00250000 -0.00149711 0.00009302
v -0.00250000 -0.00148002 0.00024400
v 0.00250000 -0.00148002 0.00024400
v 0.00250000 -0.00140061 0.00053693
v -0.00250000 -0.00140061 0.00053693
v 0.00250000 -0.00126386 0.00080788
v -0.00250000 -0.00126386 0.00080788
v 0.00250000 -0.00107536 0.00104575
v -0.00250000 -0.00107536 0.00104575
v 0.00250000 -0.00084284 0.00124082
v -0.00250000 -0.00084284 0.00124082
v 0.00250000 -0.00057581 0.00138508
v -0.00250000 -0.00057581 0.00138508
v 0.00250000 -0.00028521 0.00147264
v -0.00250000 -0.00028521 0.00147264
v 0.00250000 0.00001707 0.00149990
v -0.00250000 0.00001707 0.00149990
v 0.00250000 0.00031865 0.00146576
v -0.00250000 0.00031865 0.00146576
v 0.00250000 0.00060718 0.00137162
v -0.00250000 0.00060718 0.00137162
v 0.00250000 0.00087086 0.00122132
v -0.00250000 0.00087086 0.00122132
v 0.00250000 0.00109888 0.00102101
v -0.00250000 0.00109888 0.00102101
v 0.00250000 0.00128191 0.00077891
v -0.00250000 0.00128191 0.00077891
v 0.00250000 0.00141247 0.00050492
v -0.00250000 0.00141247 0.00050492
v 0.00250000 0.00148519 0.00021026
v -0.00250000 0.00148519 0.00021026
v 0.00250000 0.00149711 -0.00009302
v -0.00250000 0.00149711 -0.00009302
v 0.00250000 0.00144774 -0.00039248
v -0.00250000 0.00144774 -0.00039248
v 0.00250000 0.00133910 -0.00067587
v -0.00250000 0.00133910 -0.00067587
v 0.00250000 0.00117564 -0.00093160
v -0.00250000 0.00117564 -0.00093160
v 0.00250000 0.00096404 -0.00114918
v -0.00250000 0.00096404 -0.00114918
v 0.00250000 0.00071298 -0.00131972
v -0.00250000 0.00071298 -0.00131972
v 0.00250000 0.00043273 -0.00143623
v -0.00250000 0.00043273 -0.00143623
v 0.00250000 0.00013476 -0.00149393
v -0.00250000 0.00013476 -0.00149393
v 0.00250000 -0.00016872 -0.00149048
v -0.00250000 -0.00016872 -0.00149048
v 0.00250000 -0.00046530 -0.00142601
v -0.00250000 -0.00046530 -0.00142601
v 0.00250000 -0.00074283 -0.00130315
v -0.00250000 -0.00074283 -0.00130315
v 0.00250000 -0.00098995 -0.00112695
v -0.00250000 -0.00098995 -0.00112695
v 0.00250000 -0.00119653 -0.00090460
v -0.00250000 -0.00119653 -0.00090460
v 0.00250000 -0.00135414 -0.00064522
v -0.00250000 -0.00135414 -0.00064522
v 0.00250000 -0.00145630 -0.00035943
v -0.00250000 -0.00145630 -0.00035943
v -0.00250000 -0.00149884 -0.00005892
f 3 64 2
f 2 64 1
f 4 2 5
f 3 2 4
f 4 5 6
f 6 7 4
f 9 8 10
f 10 11 9
f 6 8 9
f 9 7 6
f 17 16 18
f 18 19 17
f 14 16 17
f 17 15 14
f 10 12 13
f 13 11 10
f 13 12 14
f 14 15 13
f 33 31 32
f 32 31 30
f 62 64 63
f 1 64 62
f 45 43 44
f 44 43 42
f 26 28 29
f 27 26 29
f 29 28 30
f 30 31 29
f 35 32 34
f 33 32 35
f 37 35 36
f 36 35 34
f 39 37 36
f 36 38 39
f 20 19 18
f 20 21 19
f 23 21 20
f 20 22 23
f 27 25 24
f 24 26 27
f 24 25 23
f 23 22 24
f 50 52 53
f 51 50 53
f 53 52 54
f 54 55 53
f 60 61 59
f 59 58 60
f 63 61 60
f 60 62 63
f 56 57 55
f 56 55 54
f 59 57 56
f 56 58 59
f 38 40 41
f 39 38 41
f 41 40 42
f 42 43 41
f 45 44 47
f 44 46 47
f 48 2 1
f 48 56 54
f 48 52 50
f 48 28 26
f 48 36 34
f 18 16 48
f 10 8 48
f 48 12 10
f 34 32 48
f 42 40 48
f 6 5 48
f 48 16 14
f 48 8 6
f 14 12 48
f 30 28 48
f 48 20 18
f 48 60 58
f 1 62 48
f 5 2 48
f 48 32 30
f 54 52 48
f 26 24 48
f 48 40 38
f 48 44 42
f 38 36 48
f 22 20 48
f 48 24 22
f 62 60 48
f 58 56 48
f 48 46 44
f 19 21 49
f 49 9 11
f 11 13 49
f 59 61 49
f 33 35 49
f 39 41 49
f 49 37 39
f 49 64 3
f 3 4 49
f 49 17 19
f 51 53 49
f 63 64 49
f 49 61 63
f 49 25 27
f 49 57 59
f 49 4 7
f 7 9 49
f 15 17 49
f 49 13 15
f 49 31 33
f 27 29 49
f 49 21 23
f 23 25 49
f 55 57 49
f 49 43 45
f 49 29 31
f 49 35 37
f 49 53 55
f 49 41 43
f 45 47 49
f 49 50 51
f 49 48 50
f 49 47 46
f 46 48 49

