# https://github.com/mikedh/trimesh
v -0.00389273 0.03478313 0.00738620
v -0.00466043 0.03677946 0.00422032
v -0.00423774 0.03597841 0.00591814
v -0.00563791 0.03703894 0.00053594
v -0.00513633 0.03713992 0.00239097
v -0.00660221 0.03550240 -0.00282659
v -0.00613614 0.03648237 -0.00123745
v -0.00738214 0.03247736 -0.00527555
v -0.00700915 0.03415574 -0.00413954
v -0.00830152 0.02573482 -0.00768000
v -0.00812273 0.02761593 -0.00729896
v -0.00779555 0.03012508 -0.00645992
v -0.00364534 0.03326277 0.00853956
v -0.00350990 0.03150530 0.00931148
v -0.00349425 0.02961239 0.00965731
v -0.00911937 0.03254810 -0.00480967
v -0.00874637 0.03422648 -0.00367367
v -0.00989117 0.02740875 -0.00690181
v -0.00977039 0.02846031 -0.00661655
v -0.00963460 0.02949832 -0.00626783
v -0.00953277 0.03019582 -0.00599404
v -0.00996227 0.02673599 -0.00704946
v -0.01014817 0.02474820 -0.00733333
v -0.00871026 0.02501773 -0.00768000
v -0.00905053 0.02414238 -0.00768000
v -0.01025235 0.02302138 -0.00740921
v -0.00922316 0.02325741 -0.00768000
v -0.01027983 0.02200258 -0.00742098
v -0.00979883 0.01869550 -0.00761166
v -0.00972590 0.01852095 -0.00763444
v -0.00957156 0.01829237 -0.00768000
v -0.01016050 0.01989096 -0.00749252
v -0.01028278 0.02105173 -0.00743804
v -0.01048335 0.02238628 -0.00704919
v -0.01049835 0.02110113 -0.00705449
v -0.01049827 0.02104253 -0.00705563
v -0.00842426 0.01442754 0.00741450
v -0.00837618 0.01469470 0.00747384
v -0.00852409 0.01342420 0.00731643
v -0.00846473 0.01414767 0.00736768
v -0.00524855 0.02915108 0.01014031
v -0.00523147 0.02968314 0.01012319
v -0.00524713 0.03157604 0.00977735
v -0.00538257 0.03333351 0.00900543
v -0.00562995 0.03485388 0.00785207
v -0.00597497 0.03604915 0.00638401
v -0.00639766 0.03685020 0.00468619
v -0.00687355 0.03721066 0.00285685
v -0.00697616 0.03722783 0.00247164
v -0.00737513 0.03710968 0.00100181
v -0.00787337 0.03655311 -0.00077158
v -0.00833944 0.03557314 -0.00236072
v -0.00975581 0.03008663 -0.00565005
v -0.00985597 0.02940058 -0.00591935
v -0.00859065 0.03534727 -0.00210406
v -0.00898232 0.03405111 -0.00336777
v -0.00934919 0.03240028 -0.00448513
v -0.00717974 0.03692338 0.00291784
v -0.00672168 0.03657643 0.00467859
v -0.00598277 0.03465497 0.00772575
v -0.00631485 0.03580543 0.00631275
v -0.00727849 0.03693990 0.00254708
v -0.00766251 0.03682619 0.00113237
v -0.00814206 0.03629049 -0.00057451
v -0.00561567 0.02916603 0.00992818
v -0.00559923 0.02967814 0.00991170
v -0.00561430 0.03150006 0.00957883
v -0.00574466 0.03319163 0.00883586
v -0.00998952 0.02837961 -0.00626234
v -0.01010827 0.02734649 -0.00654281
v -0.01046406 0.02302545 -0.00704219
v -0.01045614 0.02323423 -0.00703970
v -0.01036110 0.02473457 -0.00696641
v -0.01017818 0.02668593 -0.00668789
v 0.00250473 -0.00843601 0.00750000
v -0.00796597 -0.00373943 0.00750000
v -0.00686667 -0.00550352 0.00750000
v 0.00441352 -0.00761320 0.00750000
v 0.00607607 -0.00636564 0.00750000
v 0.00739962 -0.00476294 0.00750000
v 0.00855853 -0.00089016 0.00750000
v 0.00856196 -0.00170077 0.00750000
v 0.00831035 -0.00289450 0.00750000
v -0.00538428 -0.00696057 0.00750000
v -0.00360149 -0.00802928 0.00750000
v -0.00161777 -0.00865002 0.00750000
v 0.00045621 -0.00878817 0.00750000
v -0.00879473 0.00030458 0.00750000
v -0.00862083 -0.00176671 0.00750000
v 0.00876131 -0.00171682 0.00500000
v 0.00849922 -0.00296029 0.00500000
v 0.00756780 -0.00487119 0.00500000
v 0.00621416 -0.00651032 0.00500000
v 0.00451382 -0.00778623 0.00500000
v 0.00256166 -0.00862774 0.00500000
v 0.00046658 -0.00898790 0.00500000
v 0.00850450 -0.00048212 0.00750001
v -0.00814409 -0.00382304 0.00730323
v -0.00827732 -0.00353355 0.00730000
v -0.00814844 -0.00382138 0.00719441
v -0.00798093 -0.00414579 0.00730651
v -0.00795641 -0.00420661 0.00707947
v -0.00754823 -0.00490144 0.00693305
v -0.00747145 -0.00499386 0.00731328
v -0.00701004 -0.00561844 0.00731626
v -0.00729191 -0.00527523 0.00688144
v -0.00702301 -0.00562826 0.00684861
v -0.00687481 -0.00578242 0.00731671
v -0.00619178 -0.00650852 0.00731674
v -0.00673985 -0.00596443 0.00683177
v -0.00612528 -0.00659401 0.00684252
v -0.00567638 -0.00696518 0.00731473
v -0.00580275 -0.00687954 0.00686987
v -0.00549827 -0.00710792 0.00731371
v -0.00550599 -0.00711928 0.00690735
v -0.00518634 -0.00735540 0.00696119
v -0.00487988 -0.00755146 0.00730901
v -0.00456436 -0.00775672 0.00711034
v -0.00402081 -0.00805190 0.00730000
v -0.00828336 0.01495956 0.00758261
v 0.00816779 0.03641097 -0.00159329
v 0.00705049 0.03530360 -0.00559148
v 0.00968715 0.03289079 0.00460689
v 0.00984419 0.03110771 0.00546326
v 0.00987121 0.02916352 0.00585924
v 0.00985221 0.02853614 0.00588367
v 0.00941025 0.03439736 0.00334556
v 0.00903141 0.03552993 0.00176090
v 0.00857515 0.03621519 -0.00004455
v 0.00660020 0.03407630 -0.00708425
v 0.00622982 0.03249577 -0.00822537
v 0.00755157 0.03609824 -0.00384367
v 0.00807099 0.03640881 -0.00195393
v 0.00815247 0.03641182 -0.00165055
v 0.00596333 0.03066430 -0.00894098
v 0.00581743 0.02870044 -0.00918680
v 0.00971091 0.02854189 0.00612862
v 0.00751060 0.02927576 0.00669885
v 0.00973039 0.02918536 0.00610356
v 0.00970268 0.03117940 0.00569743
v 0.00748289 0.03126980 0.00629271
v 0.00954161 0.03300820 0.00481910
v 0.00732182 0.03309859 0.00541438
v 0.00925761 0.03455340 0.00352543
v 0.00703782 0.03464380 0.00412071
v 0.00886906 0.03571501 0.00190013
v 0.00664927 0.03580540 0.00249542
v 0.00840110 0.03641784 0.00004840
v 0.00618131 0.03650824 0.00064368
v 0.00566422 0.03670682 -0.00131466
v 0.00798329 0.03661864 -0.00154006
v 0.00796758 0.03661951 -0.00159879
v 0.00788401 0.03661642 -0.00190994
v 0.00735127 0.03629790 -0.00384814
v 0.00513148 0.03638829 -0.00325286
v 0.00683735 0.03548288 -0.00564077
v 0.00461756 0.03557327 -0.00504549
v 0.00637551 0.03422410 -0.00717181
v 0.00415572 0.03431450 -0.00657653
v 0.00599563 0.03260305 -0.00834219
v 0.00572231 0.03072462 -0.00907615
v 0.00557729 0.02871022 -0.00932728
v -0.00871138 0.00848992 0.00730001
v -0.00899461 0.00031150 0.00730000
v -0.00881676 -0.00180686 0.00730000
v -0.00368334 -0.00821176 0.00730000
v -0.00165454 -0.00884661 0.00730000
v 0.00046658 -0.00898790 0.00730000
v 0.00256166 -0.00862774 0.00730000
v 0.00451382 -0.00778623 0.00730000
v 0.00621416 -0.00651032 0.00730000
v 0.00756780 -0.00487119 0.00730000
v 0.00849922 -0.00296029 0.00730000
v 0.00876131 -0.00171682 0.00730000
v 0.00875774 -0.00087243 0.00730000
v -0.00888586 -0.00044371 -0.00788000
v -0.00828207 0.01452740 -0.00788000
v -0.00910061 -0.00102601 -0.00768000
v 0.00680809 -0.00224066 -0.00788000
v 0.00689380 -0.00153562 -0.00788000
v 0.00709322 -0.00155081 -0.00768000
v -0.00890062 -0.00102375 -0.00788000
v -0.00863876 -0.00295491 -0.00788000
v -0.00883212 -0.00300600 -0.00768000
v -0.00791262 -0.00476341 -0.00788000
v -0.00808762 -0.00486023 -0.00768000
v -0.00676628 -0.00633944 -0.00788000
v -0.00691230 -0.00647611 -0.00768000
v -0.00526936 -0.00758730 -0.00788000
v -0.00537752 -0.00775553 -0.00768000
v -0.00351274 -0.00843123 -0.00788000
v -0.00357648 -0.00862081 -0.00768000
v -0.00160308 -0.00881999 -0.00788000
v -0.00161853 -0.00901940 -0.00768000
v 0.00034367 -0.00872998 -0.00788000
v 0.00037746 -0.00892710 -0.00768000
v 0.00220931 -0.00816665 -0.00788000
v 0.00229027 -0.00834953 -0.00768000
v 0.00388056 -0.00716421 -0.00788000
v 0.00400378 -0.00732174 -0.00768000
v 0.00525594 -0.00578354 -0.00788000
v 0.00541394 -0.00590615 -0.00768000
v 0.00625194 -0.00410845 -0.00788000
v 0.00643513 -0.00418870 -0.00768000
v 0.00700535 -0.00227368 -0.00768000
v 0.00720884 0.00234359 -0.00768000
v 0.00701386 0.00182153 -0.00788000
v -0.00910061 -0.00102601 -0.00648000
v -0.00883212 -0.00300600 -0.00648000
v -0.00808762 -0.00486023 -0.00648000
v -0.00691230 -0.00647611 -0.00648000
v -0.00537752 -0.00775553 -0.00648000
v -0.00357648 -0.00862081 -0.00648000
v -0.00161853 -0.00901940 -0.00648000
f 90 181 125
f 162 136 180
f 41 87 75
f 86 87 41
f 168 75 87
f 168 86 167
f 87 86 168
f 25 162 27
f 162 177 27
f 126 90 125
f 174 90 126
f 175 81 174
f 78 79 41
f 41 75 78
f 25 27 26
f 26 27 28
f 34 28 35
f 34 26 28
f 71 26 34
f 72 39 73
f 72 26 71
f 41 81 42
f 161 11 12
f 17 8 16
f 8 12 16
f 16 56 17
f 16 57 56
f 73 74 22
f 167 213 214
f 214 168 167
f 85 86 41
f 106 210 211
f 162 183 182
f 182 183 184
f 184 178 182
f 194 196 96
f 36 178 208
f 97 81 139
f 139 15 97
f 97 42 81
f 15 42 97
f 161 12 160
f 160 12 8
f 206 128 127
f 127 123 206
f 125 181 206
f 140 139 125
f 137 175 174
f 174 126 137
f 139 81 137
f 81 175 137
f 125 139 137
f 137 126 125
f 82 81 41
f 41 83 82
f 174 81 82
f 82 173 174
f 83 173 82
f 181 90 205
f 194 193 195
f 195 196 194
f 195 193 162
f 202 93 200
f 202 204 92
f 92 93 202
f 179 205 204
f 162 180 179
f 179 180 181
f 181 205 179
f 95 96 196
f 71 34 164
f 164 34 35
f 35 36 164
f 164 208 165
f 164 36 208
f 138 15 139
f 138 42 15
f 43 42 138
f 19 54 20
f 20 12 19
f 19 12 11
f 10 22 11
f 10 11 161
f 161 162 10
f 73 22 23
f 23 72 73
f 26 72 23
f 25 26 23
f 22 10 23
f 57 16 53
f 33 182 178
f 178 36 33
f 35 28 33
f 33 36 35
f 41 88 89
f 165 99 89
f 89 164 165
f 88 164 89
f 119 85 117
f 117 118 119
f 166 85 119
f 166 213 167
f 166 119 213
f 167 86 166
f 86 85 166
f 209 210 99
f 209 99 165
f 165 208 209
f 98 210 101
f 211 109 110
f 162 182 176
f 176 177 162
f 155 51 50
f 144 123 127
f 49 58 48
f 181 180 207
f 207 206 181
f 207 180 136
f 136 206 207
f 129 206 121
f 128 206 129
f 129 148 128
f 125 206 124
f 124 206 123
f 124 140 125
f 123 140 124
f 139 140 14
f 14 138 139
f 43 138 14
f 43 14 141
f 141 14 140
f 79 78 171
f 92 204 91
f 91 205 90
f 204 205 91
f 172 173 83
f 79 171 172
f 204 202 201
f 200 199 201
f 201 202 200
f 201 199 162
f 198 95 196
f 196 195 198
f 198 199 200
f 95 198 94
f 200 93 94
f 94 198 200
f 169 78 75
f 75 168 169
f 71 164 163
f 163 72 71
f 39 72 163
f 65 88 41
f 65 164 88
f 18 22 74
f 11 22 18
f 18 19 11
f 54 19 69
f 73 39 69
f 39 54 69
f 25 23 24
f 24 23 10
f 24 162 25
f 24 10 162
f 21 53 16
f 21 12 20
f 21 16 12
f 20 54 21
f 54 53 21
f 40 54 39
f 40 53 54
f 57 53 40
f 56 57 40
f 194 192 191
f 191 193 194
f 162 193 191
f 185 183 162
f 162 187 185
f 184 183 185
f 190 191 192
f 99 210 100
f 100 98 99
f 210 98 100
f 76 89 99
f 99 98 76
f 76 98 101
f 41 89 76
f 107 106 211
f 107 105 106
f 101 210 102
f 102 103 101
f 210 103 102
f 106 105 104
f 210 106 104
f 104 103 210
f 101 103 104
f 104 76 101
f 156 158 6
f 6 158 159
f 52 159 17
f 52 6 159
f 50 51 64
f 51 155 7
f 151 129 121
f 148 129 151
f 156 7 154
f 154 7 155
f 62 49 50
f 58 49 62
f 50 49 150
f 43 141 44
f 156 122 130
f 130 158 156
f 122 206 130
f 206 131 130
f 160 158 130
f 130 131 160
f 9 158 160
f 9 8 17
f 9 160 8
f 17 159 9
f 159 158 9
f 135 206 136
f 135 131 206
f 135 162 161
f 135 136 162
f 161 160 135
f 160 131 135
f 79 172 80
f 80 172 83
f 41 79 80
f 80 83 41
f 203 179 204
f 204 201 203
f 162 179 203
f 203 201 162
f 199 198 197
f 197 198 195
f 162 199 197
f 197 195 162
f 78 169 170
f 170 171 78
f 70 74 73
f 73 69 70
f 70 18 74
f 19 18 70
f 70 69 19
f 182 33 32
f 32 29 182
f 32 33 28
f 28 27 32
f 31 176 182
f 177 176 31
f 31 27 177
f 184 185 186
f 187 190 188
f 188 185 187
f 188 186 185
f 189 190 187
f 191 190 189
f 189 187 162
f 162 191 189
f 213 119 212
f 119 118 212
f 118 117 212
f 109 112 84
f 84 85 41
f 84 112 114
f 84 117 85
f 84 114 117
f 77 104 105
f 76 104 77
f 109 84 77
f 41 76 77
f 77 84 41
f 156 6 157
f 6 52 157
f 157 52 51
f 157 7 156
f 51 7 157
f 51 52 55
f 55 64 51
f 17 56 55
f 55 52 17
f 56 40 55
f 40 64 55
f 148 151 5
f 48 149 5
f 5 149 148
f 5 49 48
f 5 151 49
f 153 154 4
f 50 150 4
f 4 150 153
f 4 155 50
f 4 154 155
f 133 154 153
f 142 140 123
f 123 144 142
f 142 144 1
f 127 128 146
f 146 144 127
f 128 148 146
f 50 64 63
f 63 62 50
f 49 151 152
f 152 150 49
f 153 150 152
f 152 133 153
f 152 151 121
f 45 61 60
f 46 61 45
f 45 145 46
f 45 44 143
f 1 144 45
f 144 145 45
f 45 142 1
f 143 142 45
f 68 45 60
f 44 45 68
f 43 44 68
f 68 67 43
f 41 42 66
f 66 65 41
f 66 42 43
f 43 67 66
f 60 61 38
f 38 68 60
f 61 59 38
f 67 68 38
f 38 66 67
f 38 163 164
f 39 163 38
f 38 40 39
f 182 29 30
f 30 31 182
f 29 32 30
f 30 32 27
f 27 31 30
f 117 114 116
f 116 212 117
f 111 109 211
f 211 212 113
f 212 112 113
f 113 111 211
f 113 112 109
f 109 111 113
f 109 77 108
f 108 77 105
f 108 110 109
f 105 107 108
f 211 110 108
f 108 107 211
f 154 133 132
f 132 122 156
f 156 154 132
f 132 206 122
f 132 133 206
f 143 44 13
f 13 142 143
f 140 142 13
f 13 141 140
f 13 44 141
f 147 46 3
f 3 146 147
f 144 146 3
f 3 145 144
f 46 145 3
f 147 146 2
f 148 149 2
f 2 146 148
f 134 152 121
f 133 152 134
f 121 206 134
f 206 133 134
f 37 59 58
f 37 38 59
f 58 62 37
f 40 38 37
f 62 63 37
f 37 64 40
f 37 63 64
f 65 66 120
f 66 38 120
f 164 65 120
f 120 38 164
f 115 116 114
f 212 116 115
f 114 112 115
f 115 112 212
f 47 46 147
f 147 2 47
f 47 149 48
f 47 2 149
f 48 58 47
f 58 59 47
f 47 61 46
f 47 59 61
f 192 214 213
f 194 214 192
f 96 214 194
f 168 214 96
f 208 178 209
f 209 178 184
f 174 173 91
f 91 90 174
f 172 91 173
f 92 91 172
f 172 93 92
f 172 171 93
f 168 96 169
f 96 95 169
f 170 169 95
f 95 94 170
f 93 171 170
f 170 94 93
f 186 209 184
f 210 209 186
f 210 186 188
f 211 210 188
f 212 192 213
f 212 190 192
f 211 188 212
f 212 188 190

