# https://github.com/mikedh/trimesh
v -0.00887518 -0.00446656 -0.01415113
v -0.00703398 -0.00408100 -0.01451763
v -0.00682943 -0.00404415 -0.01455192
v -0.00459318 -0.00371867 -0.01485749
v -0.00275263 -0.00355633 -0.01502709
v -0.00247653 -0.00354013 -0.01504674
v 0.00181183 -0.00355838 -0.01517222
v 0.00159551 -0.00354542 -0.01517371
v -0.00020785 -0.00348692 -0.01515407
v -0.00228149 -0.00352996 -0.01505974
v 0.00432125 -0.00380116 -0.01509362
v 0.00206175 -0.00357494 -0.01516947
v 0.00962346 -0.00486535 -0.01452626
v 0.00885332 -0.00466492 -0.01464670
v 0.00662904 -0.00417319 -0.01491853
v 0.00604189 -0.00406512 -0.01497284
v -0.01224889 -0.00542695 -0.01269242
v -0.01054297 -0.00490008 -0.01353621
v -0.01128354 -0.00511847 -0.01328373
v -0.01139521 -0.00515279 -0.01322328
v -0.00925041 -0.00455708 -0.01401660
v -0.01650000 -0.00864150 0.00850000
v -0.01679101 -0.00861885 0.00850000
v -0.01685022 -0.00961453 0.00850000
v -0.01715237 -0.01987921 0.00850000
v -0.01716362 -0.02245248 0.00850000
v -0.01715660 -0.02598486 0.00850000
v -0.01719508 -0.04302733 0.00850000
v -0.01716729 -0.04491506 0.00850000
v -0.01713864 -0.04526322 0.00850000
v -0.01715989 -0.04526443 0.00850000
v -0.01685178 -0.00964221 0.00850000
v -0.01692495 -0.01105078 0.00850000
v -0.01697573 -0.01219231 0.00850000
v -0.01706299 -0.01471428 0.00850000
v -0.01714824 -0.01940174 0.00850000
v 0.01528073 -0.00680613 -0.01438290
v 0.01527171 -0.00680240 -0.01244244
v 0.01599402 -0.00710855 -0.01386037
v 0.01529058 -0.00681024 -0.01242696
v 0.01708334 -0.00759514 -0.01292875
v 0.01630118 -0.00724286 -0.01148700
v 0.01739052 -0.00773785 -0.01262310
v 0.01646755 -0.00731654 -0.01130475
v 0.01789830 -0.00797869 -0.01205538
v 0.01698532 -0.00755028 -0.01065579
v 0.01839102 -0.00821842 -0.01139754
v 0.01854827 -0.00829624 -0.01115560
v 0.01731317 -0.00770176 -0.01014888
v 0.01907011 -0.00855907 -0.01016873
v 0.01749125 -0.00778516 -0.00982273
v 0.01782340 -0.00794283 -0.00904636
v 0.01945070 -0.00875469 -0.00909052
v 0.01808406 -0.00806848 -0.00807605
v 0.01955606 -0.00880950 -0.00866022
v 0.01967752 -0.00887315 -0.00797094
v 0.01815927 -0.00810505 -0.00761257
v 0.01974924 -0.00891093 -0.00726087
v 0.01819724 -0.00812356 -0.00723583
v 0.01822333 -0.00813631 -0.00687781
v 0.01981950 -0.00894801 -0.00555006
v 0.01983087 -0.00895385 -0.00469966
v 0.01982162 -0.00894908 -0.00393423
v 0.01829546 -0.00817163 -0.00391208
v 0.01967550 -0.00887220 -0.00109029
v 0.01814575 -0.00809846 -0.00102433
v 0.01945020 -0.00875461 0.00117708
v 0.01791686 -0.00798761 0.00120703
v 0.01914821 -0.00859896 0.00310949
v 0.01760415 -0.00783843 0.00312165
v 0.01870597 -0.00837510 0.00506190
v 0.01718324 -0.00764137 0.00490740
v 0.01815047 -0.00810076 0.00685101
v 0.01600000 -0.00711124 0.00850000
v 0.01747902 -0.00777940 0.00850000
v 0.01599998 -0.00711122 0.00810106
v 0.01666209 -0.00740352 0.00653053
v 0.01054216 -0.00512463 -0.01591554
v 0.01054279 -0.00512479 -0.01435998
v 0.01077481 -0.00519381 -0.01587286
v 0.01136885 -0.00537656 -0.01419459
v 0.01302285 -0.00593340 -0.01538152
v 0.01299858 -0.00592472 -0.01371874
v 0.01406242 -0.00631915 -0.01509829
v 0.01360116 -0.00614460 -0.01355497
v 0.01459999 -0.00652939 -0.01483875
v 0.01387105 -0.00624608 -0.01346123
v 0.01455982 -0.00651344 -0.01299157
v 0.00853211 -0.00458599 -0.01622957
v 0.00794246 -0.00444789 -0.01630444
v 0.00625865 -0.00410432 -0.01647931
v 0.00604137 -0.00406550 -0.01649786
v 0.00390546 -0.00375005 -0.01663403
v 0.00164901 -0.00354851 -0.01669077
v 0.00159555 -0.00354541 -0.01669106
v 0.00061012 -0.00350275 -0.01668787
v -0.00063400 -0.00348694 -0.01666035
v -0.00275232 -0.00355689 -0.01655169
v -0.00290937 -0.00356698 -0.01654044
v -0.00509949 -0.00378008 -0.01633484
v -0.00627638 -0.00395058 -0.01618386
v -0.00703362 -0.00408094 -0.01606995
v -0.00726001 -0.00412311 -0.01603316
v -0.00912235 -0.00452604 -0.01567653
v -0.01518616 -0.00653564 -0.00779354
v -0.01493451 -0.00643065 -0.00790808
v -0.01502035 -0.00646624 -0.01257729
v -0.01440010 -0.00621392 -0.00800000
v -0.01394179 -0.00603403 -0.01347996
v -0.01309591 -0.00572066 -0.00732701
v -0.01224888 -0.00542721 -0.00755448
v -0.01361530 -0.00591106 -0.00779436
v -0.01426582 -0.00616080 -0.00799436
v -0.01317195 -0.00574772 -0.01401212
v -0.01100662 -0.00503494 -0.01519283
v -0.01128499 -0.00511891 -0.01508389
v -0.01168220 -0.00524301 -0.01487874
v -0.01262286 -0.00555417 -0.01435236
v -0.01598782 -0.00688276 -0.00620294
v -0.01599944 -0.00688794 -0.00644241
v -0.01705249 -0.00737362 0.00770892
v -0.01695235 -0.00732600 0.00794934
v -0.01667804 -0.00719709 0.00751188
v -0.01746321 -0.00757212 0.00650007
v -0.01665352 -0.00718567 0.00745529
v -0.01657666 -0.00715003 0.00721843
v -0.01657346 -0.00714855 0.00720397
v -0.01655932 -0.00714201 0.00712353
v -0.01666570 -0.00719134 0.00651596
v -0.01763017 -0.00765428 0.00583969
v -0.01688815 -0.00729563 0.00577168
v -0.01772046 -0.00769906 0.00540736
v -0.01792238 -0.00780000 0.00402657
v -0.01700000 -0.00734862 0.00470455
v -0.01794162 -0.00780979 0.00382937
v -0.01775353 -0.00771559 -0.00368485
v -0.01799870 -0.00783861 0.00010224
v -0.01803114 -0.00785503 0.00208211
v -0.01765548 -0.00766681 -0.00589174
v -0.01685718 -0.00728102 -0.00545454
v -0.01676348 -0.00723700 -0.00564217
v -0.01669517 -0.00720507 -0.00574332
v -0.01660032 -0.00716098 -0.00584870
v -0.01649175 -0.00711071 -0.01074626
v -0.01665540 -0.00718654 -0.01045441
v -0.01551599 -0.00667613 -0.00754655
v -0.01586886 -0.00682958 -0.01165151
v -0.01754722 -0.00761326 -0.00751841
v -0.01590676 -0.00684679 -0.00693822
v -0.01733330 -0.00750853 -0.00868947
v -0.01576989 -0.00678649 -0.00722669
v -0.01725192 -0.00746909 -0.00898727
v -0.01697028 -0.00733437 -0.00978702
v 0.01344403 -0.05161002 0.00850000
v -0.01746521 -0.04301231 0.00783402
v -0.01794466 -0.03791424 0.00681717
v -0.01790515 -0.00957183 0.00544713
v -0.01815465 -0.00953439 0.00366452
v -0.01779809 -0.04704010 0.00206777
v -0.01827184 -0.04286192 0.00057244
v -0.01872463 -0.03776412 -0.00044408
v -0.01902201 -0.03260136 -0.00114093
v -0.01911075 -0.03000019 -0.00136490
v -0.01915499 -0.02740497 -0.00150325
v -0.01915424 -0.02481767 -0.00155642
v -0.01910842 -0.02223828 -0.00152505
v -0.01901748 -0.01966679 -0.00140975
v -0.01888134 -0.01710320 -0.00121118
v -0.01869995 -0.01454749 -0.00092995
v -0.01847324 -0.01199967 -0.00056672
v -0.01744475 -0.00960960 0.00713888
v -0.01679594 -0.00815994 0.00843071
v -0.01680039 -0.00811015 0.00841479
v -0.01690036 -0.00753565 0.00810927
v -0.01687811 -0.00763239 0.00817591
v -0.01778196 -0.01214888 0.00669346
v -0.01789634 -0.02500364 0.00729000
v -0.01787091 -0.02242404 0.00732113
v -0.01777974 -0.01985255 0.00743642
v -0.01762137 -0.01728919 0.00763527
v -0.01739434 -0.01473396 0.00791705
v -0.01709718 -0.01218685 0.00828115
v -0.01785749 -0.02759135 0.00734366
v -0.01728200 -0.04609163 0.00807424
v -0.01794456 -0.04297435 0.00614204
v -0.01731302 -0.04616092 0.00796368
v -0.01740152 -0.04627170 0.00763217
v -0.01723396 -0.04594277 0.00823971
v -0.01718985 -0.04572868 0.00838700
v -0.01717803 -0.04564240 0.00842649
v -0.01753853 -0.04635965 0.00703779
v -0.01820831 -0.04293676 0.00435926
v -0.01773825 -0.04654685 0.00573127
v -0.01821779 -0.01211136 0.00500201
v -0.01844884 -0.01207412 0.00321963
v -0.01847406 -0.01465888 0.00463841
v -0.01869166 -0.01462178 0.00285619
v -0.01867460 -0.01721439 0.00435695
v -0.01888348 -0.01717737 0.00257484
v -0.01882006 -0.01977788 0.00415826
v -0.01902469 -0.01974091 0.00237620
v -0.01891110 -0.02234937 0.00404297
v -0.01911569 -0.02231240 0.00226091
v -0.01894836 -0.02492885 0.00401170
v -0.01915685 -0.02489183 0.00222959
v -0.01893250 -0.02751632 0.00406507
v -0.01914855 -0.02747923 0.00228287
v -0.01886417 -0.03011179 0.00420372
v -0.01909118 -0.03007458 0.00242138
v -0.01874603 -0.03271327 0.00442805
v -0.01898643 -0.03267593 0.00264555
v -0.01783863 -0.04679126 0.00394957
v -0.01830217 -0.04289936 0.00249846
v -0.01867015 -0.03783888 0.00334263
v -0.01841396 -0.03787638 0.00512532
v -0.01805613 -0.01469621 0.00632964
v -0.01826827 -0.01725160 0.00604804
v -0.01841938 -0.01981504 0.00584928
v -0.01851048 -0.02238653 0.00573399
v -0.01854256 -0.02496606 0.00570278
v -0.01851664 -0.02755364 0.00575628
v -0.01843371 -0.03014925 0.00589510
v -0.01829775 -0.03275091 0.00611965
v -0.01851927 -0.01203695 0.00135911
v -0.01875244 -0.01458470 0.00099579
v -0.01893802 -0.01714037 0.00071452
v -0.01907619 -0.01970394 0.00051592
v -0.01916716 -0.02227543 0.00040063
v -0.01921110 -0.02485484 0.00036927
v -0.01920822 -0.02744218 0.00042249
v -0.01915872 -0.03003745 0.00056091
v -0.01906355 -0.03263869 0.00078495
v -0.01875859 -0.03780152 0.00148189
v 0.01541352 -0.04931208 0.00850000
v 0.01590661 -0.04710365 0.00790949
v 0.01565788 -0.04783418 0.00850000
v 0.01991374 -0.01253224 -0.00456822
v 0.01976223 -0.01647983 -0.00142718
v 0.01993688 -0.01610988 -0.00504062
v 0.01973125 -0.01952641 -0.00169427
v 0.01988834 -0.01965617 -0.00535104
v 0.01964436 -0.02257373 -0.00184717
v 0.01976636 -0.02318865 -0.00550450
v 0.01949974 -0.02562178 -0.00188640
v 0.01929555 -0.02867053 -0.00181248
v 0.01529744 -0.05308197 0.00278945
v 0.01604420 -0.05002872 0.00182918
v 0.01671673 -0.04697593 0.00097787
v 0.01731684 -0.04392363 0.00023605
v 0.01784639 -0.04087185 -0.00039577
v 0.01830720 -0.03782062 -0.00091705
v 0.01870111 -0.03476997 -0.00132728
v 0.01902995 -0.03171993 -0.00162593
v 0.01457931 -0.05576258 0.00372029
v 0.01450480 -0.05571561 0.00550000
v 0.01447673 -0.05557724 0.00627659
v 0.01448668 -0.05567631 0.00587573
v 0.01504672 -0.05314656 0.00621323
v 0.01457779 -0.05418571 0.00799839
v 0.01453965 -0.05454032 0.00775097
v 0.01449664 -0.05503448 0.00726412
v 0.01448057 -0.05530214 0.00688266
v 0.01555403 -0.05012521 0.00700344
v 0.01472393 -0.05312001 0.00842360
v 0.01480442 -0.05317731 0.00790619
v 0.01466136 -0.05353511 0.00830615
v 0.01776543 -0.03187977 0.00717702
v 0.01745142 -0.03024689 0.00850000
v 0.01715375 -0.03513261 0.00850000
v 0.01786864 -0.01358871 0.00780418
v 0.01759534 -0.01495928 0.00850000
v 0.01804714 -0.01663606 0.00742209
v 0.01764393 -0.01970473 0.00850000
v 0.01814802 -0.01968391 0.00715251
v 0.01764660 -0.02126714 0.00850000
v 0.01817079 -0.02273223 0.00699433
v 0.01760840 -0.02532010 0.00850000
v 0.01811494 -0.02578101 0.00694643
v 0.01797998 -0.02883019 0.00700770
v 0.01966381 -0.01038905 -0.00054830
v 0.01946587 -0.01042308 0.00128930
v 0.01917983 -0.01045567 0.00309868
v 0.01878768 -0.01048653 0.00487408
v 0.01827141 -0.01051537 0.00660974
v 0.01761300 -0.01054189 0.00829990
v 0.01757430 -0.01359903 0.00850000
v 0.01787142 -0.03490053 0.00575900
v 0.01747077 -0.03492972 0.00745328
v 0.01749431 -0.03795079 0.00614070
v 0.01709552 -0.03798000 0.00783536
v 0.01704170 -0.04100142 0.00662710
v 0.01663919 -0.04103060 0.00832214
v 0.01645925 -0.04704197 0.00447979
v 0.01705495 -0.04399024 0.00376914
v 0.01682594 -0.04402193 0.00550307
v 0.01757883 -0.04093893 0.00316375
v 0.01632701 -0.04319878 0.00850000
v 0.01651275 -0.04405238 0.00721708
v 0.01622749 -0.04707341 0.00620205
v 0.01484895 -0.05241169 0.00850000
v 0.01579032 -0.05009409 0.00529479
v 0.01803230 -0.03788806 0.00266452
v 0.01841680 -0.03483767 0.00227237
v 0.01849269 -0.03181995 0.00375233
v 0.01873373 -0.03178779 0.00198819
v 0.01873337 -0.02877059 0.00358118
v 0.01898453 -0.02873845 0.00181290
v 0.01890595 -0.02572176 0.00351875
v 0.01917060 -0.02568970 0.00174741
v 0.01901159 -0.02267348 0.00356609
v 0.01929338 -0.02264154 0.00179262
v 0.01905143 -0.01962578 0.00372424
v 0.01935426 -0.01959403 0.00194945
v 0.01902662 -0.01657870 0.00399426
v 0.01935469 -0.01654720 0.00221879
v 0.01893832 -0.01353228 0.00437719
v 0.01817387 -0.03185067 0.00548312
v 0.01840250 -0.02880124 0.00531420
v 0.01855817 -0.02575227 0.00525335
v 0.01864170 -0.02270378 0.00530171
v 0.01865395 -0.01965582 0.00546041
v 0.01859576 -0.01660842 0.00573056
v 0.01846796 -0.01356159 0.00611329
v 0.01670601 -0.03999626 0.00850000
v 0.01973914 -0.01343404 -0.00104536
v 0.01955756 -0.01346822 0.00079215
v 0.01929607 -0.01350106 0.00260157
v 0.00388480 -0.05069065 -0.01318691
v 0.01233107 -0.05442332 -0.00890833
v 0.01300182 -0.05480634 -0.00805383
v 0.01139601 -0.05391264 -0.00982891
v 0.01043202 -0.05341312 -0.01055934
v 0.00930047 -0.05286080 -0.01122465
v 0.00856124 -0.05252002 -0.01159364
v 0.00768213 -0.05213391 -0.01198266
v 0.00597963 -0.05143977 -0.01260855
v 0.00406603 -0.05075127 -0.01314407
v 0.01474329 -0.05586613 -0.00283751
v 0.01471546 -0.05584877 -0.00331590
v 0.01450694 -0.05571609 -0.00458482
v 0.01415170 -0.05549391 -0.00581300
v 0.01301517 -0.05481409 -0.00803457
v 0.01328405 -0.05497136 -0.00762287
v 0.01365423 -0.05519124 -0.00696477
v 0.01398365 -0.05539066 -0.00624959
v -0.00879050 -0.04819238 -0.01359033
v -0.00655467 -0.04840336 -0.01387141
v -0.00625292 -0.04843868 -0.01389703
v -0.00433557 -0.04870382 -0.01399584
v -0.00211857 -0.04909950 -0.01397741
v -0.00103979 -0.04932759 -0.01391759
v 0.00010530 -0.04959667 -0.01381668
v 0.00208579 -0.05013034 -0.01354644
v 0.00251566 -0.05025756 -0.01347092
v -0.01198080 -0.04803956 -0.01284834
v -0.01178726 -0.04804412 -0.01291231
v -0.01155929 -0.04805114 -0.01298211
v -0.01059166 -0.04808542 -0.01323334
v -0.01315794 -0.04802759 -0.01235731
v -0.01405231 -0.04803278 -0.01183933
v -0.01455805 -0.04804094 -0.01147221
v -0.01488230 -0.04804814 -0.01120093
v -0.01561324 -0.04807030 -0.01045285
v -0.01734569 -0.04815612 -0.00649999
v -0.01707152 -0.04813954 -0.00771707
v -0.01668243 -0.04811807 -0.00875699
v -0.01651221 -0.04810888 -0.00910708
v -0.01622262 -0.04809467 -0.00961570
v 0.01994362 -0.01453278 -0.00505466
v 0.01989131 -0.01606297 -0.00844044
v 0.01995577 -0.01469083 -0.00681720
v 0.01990307 -0.02072301 -0.00628240
v 0.01963681 -0.02688874 -0.00751173
v 0.01975135 -0.02313673 -0.00897542
v 0.01988322 -0.02087758 -0.00804517
v 0.01985766 -0.01961076 -0.00878719
v 0.01914021 -0.03287277 -0.00698006
v 0.01931193 -0.03013895 -0.00888760
v 0.01957024 -0.02664480 -0.00900812
v 0.01855276 -0.03710137 -0.00819247
v 0.01897377 -0.03362316 -0.00861542
v 0.01903901 -0.03301225 -0.00867411
v 0.01840349 -0.03883075 -0.00645008
v 0.01793736 -0.04179913 -0.00618577
v 0.01804561 -0.04057749 -0.00761893
v 0.01676136 -0.04770946 -0.00565888
v 0.01671651 -0.04773244 -0.00596429
v 0.01675776 -0.04753854 -0.00601753
v 0.01544930 -0.05344831 -0.00337031
v 0.01614853 -0.05058357 -0.00451429
v 0.01620227 -0.05051104 -0.00363260
v 0.01639202 -0.04921120 -0.00554281
v 0.01606440 -0.05062898 -0.00511316
v 0.01507627 -0.05453523 -0.00380004
v 0.01534771 -0.05351073 -0.00416279
v 0.01596859 -0.05103072 -0.00498687
v 0.01546930 -0.05337212 -0.00248886
v 0.01740097 -0.04460317 -0.00415934
v 0.01958868 -0.02672679 -0.00574945
v 0.01985424 -0.01248962 -0.00793146
v 0.01617785 -0.05043003 -0.00275146
v 0.01684320 -0.04756162 -0.00389568
v 0.01739522 -0.04475927 -0.00592200
v 0.01744862 -0.04405532 -0.00689432
v -0.01815318 -0.01307980 -0.00855183
v -0.01814299 -0.01252429 -0.00803006
v -0.01779308 -0.00961975 -0.00794211
v -0.01739879 -0.04811587 -0.00617373
v -0.01769545 -0.04581709 -0.00671027
v -0.01783068 -0.04453390 -0.00712601
v -0.01885050 -0.02277433 -0.00764305
v -0.01746912 -0.04796856 -0.00503781
v -0.01802430 -0.04325823 -0.00681844
v -0.01818342 -0.04096114 -0.00791591
v -0.01860640 -0.01765010 -0.00783903
v -0.01843240 -0.01653570 -0.00900825
v -0.01850840 -0.01769828 -0.00912758
v -0.01863204 -0.01999158 -0.00931254
v -0.01875301 -0.02345161 -0.00946512
v -0.01806938 -0.04321309 -0.00566779
v -0.01850277 -0.03813922 -0.00703073
v -0.01878788 -0.03301881 -0.00723866
v -0.01890440 -0.02789718 -0.00744278
v -0.01879584 -0.02691998 -0.00946570
v -0.01879342 -0.02797523 -0.00943566
v -0.01876069 -0.03040094 -0.00931322
v -0.01864734 -0.03389867 -0.00900590
v -0.01845522 -0.03741737 -0.00854122
v -0.01842630 -0.03818414 -0.00818066
v -0.01677548 -0.04588508 -0.00971780
v -0.01711422 -0.04257815 -0.01051218
v -0.01623176 -0.04257218 -0.01178747
v 0.01776304 -0.02642993 -0.01308077
v 0.01749451 -0.02972287 -0.01295839
v 0.01630863 -0.02969795 -0.01406513
v 0.01442546 -0.00660871 -0.01496846
v 0.01393643 -0.00660131 -0.01517851
v 0.01871064 -0.03306327 -0.01005916
v -0.01810638 -0.01621483 -0.01046161
v -0.01751150 -0.00964425 -0.00944498
v -0.01772130 -0.04258908 -0.00904939
v -0.01737013 -0.04589614 -0.00825572
v -0.01478112 -0.04587784 -0.01206693
v -0.01173170 -0.04589104 -0.01357900
v -0.00955641 -0.04590695 -0.01410166
v -0.00660993 -0.04593138 -0.01456325
v -0.00031511 -0.04599164 -0.01485763
v -0.00349933 -0.04595991 -0.01481493
v 0.00259242 -0.04932814 -0.01375725
v -0.00044797 -0.04929546 -0.01392137
v 0.00553284 -0.04936223 -0.01338645
v 0.00829108 -0.04939687 -0.01280991
v 0.01057777 -0.04942824 -0.01210531
v 0.01275798 -0.05277555 -0.00944927
v 0.01146726 -0.05275212 -0.01033764
v 0.00995867 -0.05272857 -0.01104618
v 0.01382039 -0.05279870 -0.00838785
v 0.01464405 -0.05282137 -0.00716016
v 0.01521851 -0.05284338 -0.00577298
v 0.01600601 -0.04954481 -0.00682585
v 0.01958728 -0.01002596 -0.00890613
v 0.01838424 -0.00998077 -0.01173372
v 0.01734906 -0.00995529 -0.01301919
v 0.01599517 -0.00992736 -0.01423725
v 0.01312704 -0.00659010 -0.01543725
v 0.01145149 -0.00656778 -0.01589625
v 0.00792451 -0.00652403 -0.01658635
v 0.00423401 -0.00977195 -0.01735397
v 0.00053733 -0.00973304 -0.01748321
v 0.00057710 -0.00644364 -0.01710358
v -0.00300901 -0.00640904 -0.01695847
v -0.00638049 -0.00637955 -0.01656273
v -0.01155398 -0.00634306 -0.01520362
v -0.01077901 -0.00634710 -0.01552956
v -0.00942019 -0.00635617 -0.01593024
v -0.01323078 -0.00633865 -0.01412845
v -0.01461875 -0.00633833 -0.01295241
v -0.01693474 -0.00963236 -0.01096322
v -0.01608068 -0.00962489 -0.01234293
v 0.01840202 -0.02974672 -0.01170238
v 0.01866022 -0.02645380 -0.01181375
v 0.01885875 -0.02316184 -0.01179132
v 0.01900095 -0.01987087 -0.01163526
v 0.01797856 -0.02313798 -0.01307193
v 0.01658390 -0.02640486 -0.01420529
v 0.01484971 -0.02967204 -0.01501978
v 0.01902583 -0.02976941 -0.01029990
v 0.01927275 -0.02647644 -0.01040542
v 0.01945435 -0.02318440 -0.01037577
v 0.01957363 -0.01989329 -0.01021097
v 0.01963355 -0.01660317 -0.00991107
v 0.01963711 -0.01331405 -0.00947611
v 0.01909016 -0.01658091 -0.01134577
v 0.01814475 -0.01984706 -0.01293233
v 0.01681313 -0.02311280 -0.01421842
v 0.01512550 -0.02637865 -0.01518612
v 0.01312309 -0.02964523 -0.01581953
v 0.01243369 -0.02304193 -0.01649222
v 0.01336643 -0.01975985 -0.01626007
v 0.01362401 -0.02305841 -0.01611235
v 0.01382767 -0.01976647 -0.01609291
v 0.01556282 -0.01979494 -0.01515789
v 0.01573263 -0.01650466 -0.01496651
v 0.01714933 -0.01653183 -0.01386730
v 0.01726426 -0.01324300 -0.01350490
v 0.01834390 -0.01326843 -0.01226275
v 0.01912292 -0.01000420 -0.01036724
v 0.01430038 -0.00989662 -0.01540152
v 0.01381881 -0.00988945 -0.01559840
v 0.01302621 -0.00987853 -0.01584688
v 0.01137883 -0.00985669 -0.01628914
v 0.00788764 -0.00981354 -0.01695963
v 0.01912970 -0.01329202 -0.01092303
v 0.01826530 -0.01655719 -0.01266245
v 0.01700027 -0.01982177 -0.01410545
v 0.01536182 -0.02308628 -0.01523162
v 0.01339051 -0.02635133 -0.01602207
v 0.01221988 -0.02633517 -0.01639154
v 0.01197246 -0.02962937 -0.01618056
v 0.01069980 -0.02631527 -0.01677933
v 0.01047877 -0.02960980 -0.01656222
v 0.00741214 -0.02627492 -0.01738548
v 0.00724349 -0.02957007 -0.01716095
v 0.00389393 -0.02623486 -0.01776738
v 0.00377508 -0.02953053 -0.01754105
v 0.00026452 -0.02619626 -0.01792701
v 0.00019042 -0.02949236 -0.01770356
v -0.00335674 -0.02616032 -0.01786636
v -0.00339361 -0.02945672 -0.01764950
v -0.00685051 -0.02612823 -0.01758742
v -0.00686012 -0.02942479 -0.01737988
v -0.01009745 -0.02610115 -0.01709216
v -0.01009223 -0.02939773 -0.01689574
v -0.01159105 -0.02608987 -0.01676404
v -0.01158387 -0.02938640 -0.01657354
v -0.01243918 -0.02608405 -0.01652739
v -0.01243124 -0.02938050 -0.01634428
v -0.01422174 -0.02607463 -0.01578966
v -0.01420858 -0.02937080 -0.01563466
v -0.01571762 -0.02607037 -0.01485769
v -0.01570167 -0.02936633 -0.01472300
v -0.01692574 -0.02607122 -0.01373784
v -0.01690888 -0.02936704 -0.01361693
v -0.01784500 -0.02607711 -0.01243645
v -0.01782855 -0.02937282 -0.01232406
v -0.01847430 -0.02608798 -0.01095989
v -0.01845903 -0.02938364 -0.01085202
v -0.01842094 -0.02279463 -0.01093075
v -0.01779581 -0.02278365 -0.01241295
v -0.01688105 -0.02277759 -0.01372494
v -0.01567704 -0.02277649 -0.01486194
v -0.01418419 -0.02278042 -0.01581916
v -0.01240288 -0.02278943 -0.01659183
v -0.01155759 -0.02279511 -0.01683770
v -0.01006882 -0.02280626 -0.01717325
v -0.00682117 -0.02283318 -0.01768248
v -0.00331417 -0.02286528 -0.01797324
v 0.00033121 -0.02290136 -0.01804233
v 0.00399404 -0.02294025 -0.01788654
v 0.00755336 -0.02298074 -0.01750267
v 0.01088822 -0.02302168 -0.01688752
v -0.01829846 -0.01950357 -0.01076464
v -0.01768059 -0.01949244 -0.01225371
v -0.01677449 -0.01948614 -0.01357861
v -0.01557971 -0.01948471 -0.01473648
v -0.01409578 -0.01948820 -0.01572443
v -0.01232223 -0.01949662 -0.01653958
v -0.01148344 -0.01950211 -0.01679668
v -0.01000641 -0.01951304 -0.01714132
v -0.00677214 -0.01953962 -0.01766771
v -0.00326571 -0.01957153 -0.01797302
v 0.00039116 -0.01960761 -0.01805256
v 0.00407674 -0.01964667 -0.01790165
v 0.00766933 -0.01968754 -0.01751559
v 0.01104718 -0.01972902 -0.01688970
v 0.01261754 -0.01974964 -0.01648535
v -0.01749893 -0.01620349 -0.01195890
v -0.01660578 -0.01619688 -0.01329924
v -0.01542542 -0.01619501 -0.01448205
v -0.01395637 -0.01619791 -0.01550672
v -0.01219712 -0.01620560 -0.01637265
v -0.01136855 -0.01621083 -0.01664318
v -0.00991028 -0.01622144 -0.01699872
v -0.00670350 -0.01624750 -0.01754572
v -0.00321116 -0.01627907 -0.01786855
v 0.00044504 -0.01631499 -0.01796075
v 0.00414341 -0.01635411 -0.01781584
v 0.00776224 -0.01639527 -0.01742733
v 0.01117983 -0.01643731 -0.01678876
v 0.01277514 -0.01645830 -0.01637368
v 0.01353776 -0.01646873 -0.01614183
v 0.01400556 -0.01647551 -0.01596627
v 0.01587537 -0.01321546 -0.01465910
v -0.01494515 -0.00962183 -0.01358928
v -0.01352401 -0.00962315 -0.01470747
v -0.01181310 -0.00962884 -0.01570268
v -0.01101638 -0.00963335 -0.01600743
v -0.00961711 -0.00964303 -0.01639084
v -0.00650762 -0.00966750 -0.01699060
v -0.00308300 -0.00969786 -0.01735841
v -0.01784423 -0.01292838 -0.01002171
v -0.01725044 -0.01291679 -0.01152868
v -0.01637460 -0.01290979 -0.01288722
v -0.01521397 -0.01290738 -0.01409941
v -0.01376583 -0.01290957 -0.01516732
v -0.01202745 -0.01291635 -0.01609302
v -0.01121288 -0.01292125 -0.01637937
v -0.00978049 -0.01293145 -0.01674778
v -0.00661530 -0.01295681 -0.01731914
v -0.00315032 -0.01298786 -0.01766273
v 0.00049354 -0.01302348 -0.01776996
v 0.00419538 -0.01306255 -0.01763224
v 0.00783428 -0.01310394 -0.01724098
v 0.01128933 -0.01314653 -0.01658761
v 0.01291013 -0.01316793 -0.01615994
v 0.01368724 -0.01317859 -0.01592039
v 0.01416177 -0.01318556 -0.01573496
v -0.01531666 -0.03926688 -0.01352885
v -0.01649189 -0.03926761 -0.01244748
v -0.01738929 -0.03927345 -0.01116982
v -0.01800626 -0.03928430 -0.00970581
v -0.01403066 -0.03596914 -0.01494310
v -0.01550098 -0.03596459 -0.01405932
v -0.01669166 -0.03596523 -0.01297213
v -0.01760030 -0.03597099 -0.01169091
v -0.01822453 -0.03598180 -0.01022502
v -0.01237917 -0.03267881 -0.01604051
v -0.01414484 -0.03266897 -0.01535290
v -0.01562939 -0.03266441 -0.01445713
v -0.01683075 -0.03266504 -0.01336182
v -0.01774685 -0.03267078 -0.01207560
v -0.01837561 -0.03268157 -0.01060708
v 0.01213495 -0.04945230 -0.01139462
v 0.01346703 -0.04947617 -0.01050460
v 0.01456335 -0.04949967 -0.00944200
v 0.01541323 -0.04952262 -0.00821350
v 0.00285219 -0.04602562 -0.01469231
v 0.00591208 -0.04606093 -0.01431993
v 0.00877402 -0.04609665 -0.01374143
v 0.01113438 -0.04612879 -0.01303449
v 0.01273426 -0.04615333 -0.01231956
v 0.01410218 -0.04617760 -0.01142642
v 0.01522746 -0.04620142 -0.01036162
v 0.01609941 -0.04622461 -0.00913172
v 0.01670735 -0.04624697 -0.00774326
v 0.01786344 -0.03965352 -0.00917188
v 0.01732550 -0.04294986 -0.00852526
v 0.01723612 -0.03963092 -0.01056349
v 0.01670593 -0.04292737 -0.00991498
v 0.01633391 -0.03960736 -0.01179919
v 0.01581642 -0.04290397 -0.01114720
v 0.01516668 -0.03958301 -0.01287320
v 0.01466741 -0.04287987 -0.01221564
v 0.01374427 -0.03955803 -0.01377975
v 0.01326932 -0.04285523 -0.01311407
v 0.01207650 -0.03953259 -0.01451309
v 0.01163260 -0.04283024 -0.01383624
v 0.01099175 -0.03951758 -0.01485841
v 0.00920543 -0.04279738 -0.01454662
v -0.01338692 -0.04588183 -0.01293287
v -0.01365156 -0.04257556 -0.01373435
v -0.01195923 -0.04258509 -0.01438533
v -0.01214306 -0.03928108 -0.01506303
v -0.00973175 -0.04260150 -0.01490986
v -0.00987294 -0.03929789 -0.01559103
v -0.00669994 -0.04262678 -0.01537253
v -0.00676990 -0.03932386 -0.01605620
v -0.00348801 -0.04265634 -0.01562478
v -0.00347198 -0.03935426 -0.01631029
v -0.00019375 -0.04268918 -0.01566746
v -0.00008319 -0.03938805 -0.01635393
v 0.00308509 -0.04272430 -0.01550143
v 0.00329248 -0.03942415 -0.01618773
v 0.00625074 -0.04276070 -0.01512753
v 0.00655103 -0.03946150 -0.01581235
v 0.00958846 -0.03949906 -0.01522840
v 0.01832416 -0.03635798 -0.00968317
v 0.01808083 -0.03304057 -0.01145700
v 0.01769330 -0.03633532 -0.01107744
v 0.01716927 -0.03301678 -0.01270432
v 0.01678363 -0.03631162 -0.01231807
v 0.01598332 -0.03299202 -0.01379701
v 0.01560400 -0.03628705 -0.01340001
v 0.01453033 -0.03296641 -0.01473101
v 0.01416323 -0.03626175 -0.01431820
v 0.01281767 -0.03294007 -0.01550220
v 0.01247016 -0.03623587 -0.01506756
v 0.01168775 -0.03292450 -0.01585654
v 0.01136207 -0.03622058 -0.01541674
v 0.01022197 -0.03290527 -0.01623330
v 0.00992625 -0.03620169 -0.01578966
v 0.00704521 -0.03286620 -0.01682597
v 0.00681512 -0.03616334 -0.01637747
v 0.00363612 -0.03282728 -0.01720442
v 0.00347571 -0.03612515 -0.01675436
v 0.00010822 -0.03278967 -0.01736893
v 0.00001724 -0.03608822 -0.01692007
v -0.00342497 -0.03275448 -0.01731978
v -0.00345103 -0.03605365 -0.01687434
v -0.00684993 -0.03272289 -0.01705725
v -0.00681987 -0.03602257 -0.01661690
v -0.01005312 -0.03269603 -0.01658163
v -0.00998004 -0.03599607 -0.01614751
v -0.01228307 -0.03597900 -0.01561409
v -0.01386619 -0.03927134 -0.01440401
v -0.01507664 -0.04257130 -0.01286497
v -0.01591156 -0.04587895 -0.01099173
v -0.01674388 -0.00792591 0.00833169
f 159 212 213
f 341 340 366
f 402 403 398
f 401 402 247
f 352 351 450
f 408 412 409
f 364 409 410
f 408 409 364
f 364 339 338
f 442 364 410
f 324 277 75
f 326 327 315
f 240 311 242
f 338 397 254
f 254 364 338
f 391 402 401
f 248 247 402
f 248 301 247
f 574 559 573
f 486 682 684
f 560 559 574
f 522 524 560
f 560 524 559
f 518 521 520
f 522 560 520
f 670 669 671
f 483 514 493
f 376 491 370
f 371 375 370
f 370 375 376
f 435 486 496
f 682 486 435
f 494 514 483
f 480 678 434
f 653 652 650
f 650 652 681
f 459 340 341
f 551 540 542
f 542 550 551
f 629 628 623
f 623 630 629
f 350 351 352
f 619 432 620
f 707 362 363
f 366 442 430
f 621 626 620
f 365 442 366
f 364 442 365
f 365 366 340
f 340 339 365
f 339 364 365
f 67 69 281
f 327 326 281
f 75 74 22
f 22 74 23
f 290 288 269
f 269 324 290
f 290 324 292
f 154 324 75
f 266 264 190
f 300 264 265
f 264 266 265
f 265 266 259
f 176 216 181
f 181 216 180
f 213 212 192
f 148 130 124
f 138 224 158
f 708 74 175
f 77 74 75
f 197 224 225
f 229 228 165
f 423 411 424
f 423 165 411
f 209 208 206
f 420 412 159
f 420 409 412
f 162 421 161
f 421 420 161
f 422 421 162
f 162 163 422
f 422 423 426
f 163 423 422
f 626 621 428
f 424 411 419
f 546 419 548
f 424 419 546
f 548 549 546
f 239 240 241
f 238 240 239
f 67 281 280
f 280 281 326
f 288 317 267
f 267 269 288
f 307 245 244
f 244 245 399
f 399 243 244
f 244 243 242
f 398 403 384
f 403 404 384
f 296 302 289
f 289 302 303
f 303 302 252
f 252 253 303
f 372 239 241
f 242 243 372
f 372 375 371
f 371 239 372
f 241 240 372
f 372 240 242
f 259 188 260
f 260 265 259
f 246 254 397
f 401 247 246
f 246 391 401
f 397 391 246
f 261 260 188
f 572 573 558
f 558 573 559
f 588 575 574
f 574 573 588
f 518 520 561
f 561 520 560
f 574 575 561
f 561 560 574
f 496 486 517
f 517 500 496
f 699 669 701
f 531 530 528
f 528 529 531
f 655 652 653
f 655 654 652
f 521 692 523
f 522 520 523
f 523 520 521
f 519 521 518
f 434 678 680
f 680 681 682
f 680 435 434
f 682 435 680
f 490 491 376
f 490 489 483
f 483 493 490
f 490 493 491
f 379 378 488
f 488 489 379
f 485 435 496
f 434 435 485
f 682 681 683
f 681 652 683
f 684 682 683
f 683 685 684
f 683 654 685
f 652 654 683
f 433 480 434
f 434 485 433
f 482 494 483
f 484 494 482
f 483 489 482
f 482 489 488
f 677 678 438
f 678 480 438
f 592 502 501
f 500 499 501
f 515 494 484
f 225 224 170
f 604 605 579
f 580 605 606
f 579 605 580
f 581 580 606
f 566 580 581
f 606 597 607
f 607 581 606
f 644 635 643
f 635 634 643
f 340 459 395
f 432 619 706
f 660 706 661
f 333 456 332
f 331 359 332
f 547 631 632
f 426 547 632
f 630 631 543
f 542 540 543
f 545 631 547
f 542 543 545
f 545 543 631
f 566 551 565
f 579 580 565
f 565 580 566
f 565 551 550
f 552 538 540
f 540 551 552
f 552 551 566
f 553 538 552
f 702 701 703
f 703 704 702
f 628 537 627
f 537 535 627
f 702 704 627
f 627 535 702
f 704 663 705
f 662 661 705
f 705 663 662
f 628 629 539
f 539 537 628
f 637 638 449
f 637 449 352
f 449 638 451
f 638 639 451
f 624 631 630
f 624 630 623
f 366 430 367
f 341 366 367
f 367 345 341
f 368 707 363
f 368 430 707
f 368 367 430
f 368 363 344
f 344 345 368
f 345 367 368
f 441 430 442
f 441 442 410
f 282 281 69
f 327 281 282
f 506 493 514
f 514 505 506
f 277 324 268
f 324 269 268
f 268 267 279
f 269 267 268
f 293 299 301
f 301 248 293
f 289 290 291
f 290 292 291
f 291 296 289
f 301 299 263
f 300 265 263
f 176 181 182
f 35 181 180
f 35 27 154
f 178 179 218
f 177 26 178
f 193 192 212
f 215 192 185
f 191 187 185
f 185 193 191
f 192 193 185
f 215 222 210
f 210 222 208
f 177 178 220
f 220 204 206
f 215 185 156
f 96 97 9
f 175 74 174
f 74 122 174
f 123 122 74
f 171 124 176
f 121 124 171
f 171 122 121
f 171 174 122
f 175 174 171
f 176 182 171
f 171 182 175
f 9 74 8
f 8 96 9
f 95 96 8
f 8 94 95
f 11 74 16
f 11 12 74
f 16 74 15
f 74 14 15
f 86 464 436
f 471 472 100
f 98 97 471
f 201 226 227
f 227 167 228
f 227 226 168
f 168 167 227
f 158 224 195
f 224 197 195
f 196 195 197
f 203 228 229
f 229 205 203
f 203 227 228
f 201 227 203
f 230 205 229
f 426 423 425
f 425 423 424
f 425 547 426
f 424 546 425
f 425 546 547
f 160 161 420
f 160 159 213
f 160 420 159
f 213 233 160
f 160 233 161
f 414 441 410
f 414 428 621
f 621 441 414
f 228 167 166
f 166 167 411
f 166 165 228
f 411 165 166
f 371 237 369
f 369 239 371
f 238 239 369
f 238 369 325
f 325 369 237
f 325 326 238
f 325 280 326
f 315 312 313
f 313 326 315
f 238 326 313
f 313 240 238
f 311 240 313
f 320 312 321
f 321 276 320
f 311 308 309
f 307 244 309
f 242 311 309
f 309 244 242
f 307 309 306
f 306 309 308
f 310 308 311
f 311 313 310
f 310 313 312
f 319 308 310
f 310 320 319
f 312 320 310
f 252 383 377
f 377 253 252
f 383 380 377
f 399 245 377
f 245 253 377
f 383 384 385
f 385 380 383
f 385 384 404
f 249 402 398
f 249 248 402
f 294 293 249
f 249 293 248
f 252 302 251
f 302 296 251
f 251 383 252
f 289 303 287
f 287 317 288
f 287 290 289
f 287 288 290
f 247 301 258
f 258 246 247
f 260 261 258
f 265 260 258
f 301 263 258
f 258 263 265
f 186 185 187
f 186 156 185
f 559 524 526
f 526 558 559
f 526 529 528
f 528 558 526
f 613 588 612
f 612 468 613
f 612 586 611
f 611 468 612
f 16 15 91
f 589 588 613
f 613 614 589
f 575 588 589
f 498 499 500
f 518 561 498
f 498 561 575
f 498 517 518
f 500 517 498
f 698 699 701
f 696 699 698
f 701 669 667
f 667 703 701
f 668 669 670
f 668 667 669
f 666 667 668
f 329 331 454
f 454 634 635
f 635 457 454
f 525 524 522
f 522 523 525
f 674 675 676
f 672 675 674
f 674 637 672
f 638 637 674
f 673 675 672
f 673 672 670
f 670 671 673
f 676 689 658
f 691 689 676
f 676 675 691
f 688 689 691
f 687 654 656
f 685 654 687
f 656 658 687
f 687 658 689
f 497 486 684
f 497 517 486
f 518 517 497
f 497 519 518
f 374 379 489
f 374 490 376
f 489 490 374
f 376 375 374
f 516 485 496
f 496 500 516
f 500 501 516
f 516 501 502
f 480 433 481
f 481 482 488
f 481 433 484
f 484 482 481
f 487 438 480
f 487 481 488
f 480 481 487
f 488 378 487
f 381 377 380
f 381 380 677
f 677 438 381
f 495 515 484
f 484 433 495
f 495 433 485
f 485 516 495
f 502 515 495
f 495 516 502
f 563 549 548
f 148 124 150
f 579 565 564
f 564 565 550
f 564 550 549
f 549 563 564
f 567 568 553
f 566 581 567
f 553 552 567
f 567 552 566
f 572 558 557
f 557 558 528
f 528 530 557
f 553 568 554
f 556 555 570
f 556 557 530
f 608 607 598
f 598 607 597
f 605 604 595
f 596 597 606
f 606 605 596
f 473 115 596
f 605 595 596
f 596 595 473
f 636 635 644
f 636 457 635
f 642 643 634
f 642 634 633
f 650 648 651
f 653 650 651
f 651 642 653
f 643 642 651
f 679 650 681
f 679 648 650
f 681 680 679
f 679 680 678
f 679 678 677
f 677 648 679
f 647 385 404
f 394 339 340
f 340 395 394
f 459 460 396
f 396 395 459
f 618 706 619
f 618 624 623
f 619 624 618
f 623 705 618
f 661 706 618
f 618 705 661
f 706 660 443
f 361 362 443
f 362 707 443
f 443 707 432
f 432 706 443
f 333 357 334
f 360 331 329
f 360 359 331
f 360 329 361
f 361 443 360
f 660 359 360
f 360 443 660
f 356 357 333
f 333 332 356
f 331 332 455
f 455 332 633
f 633 634 455
f 455 454 331
f 634 454 455
f 626 428 427
f 427 632 626
f 426 632 427
f 427 422 426
f 421 422 427
f 427 428 421
f 541 543 540
f 541 539 629
f 541 629 630
f 630 543 541
f 540 538 541
f 538 539 541
f 547 546 544
f 544 545 547
f 544 546 549
f 542 545 544
f 544 550 542
f 549 550 544
f 530 531 533
f 533 531 702
f 702 535 533
f 704 705 622
f 628 627 622
f 622 627 704
f 623 628 622
f 622 705 623
f 353 350 352
f 352 449 353
f 449 354 353
f 328 354 449
f 449 451 328
f 631 624 625
f 620 626 625
f 625 619 620
f 625 624 619
f 626 632 625
f 625 632 631
f 430 441 431
f 620 432 431
f 431 621 620
f 431 441 621
f 432 707 431
f 707 430 431
f 283 282 69
f 278 276 277
f 277 268 278
f 278 268 279
f 278 320 276
f 278 279 319
f 319 320 278
f 53 69 67
f 53 50 69
f 491 493 513
f 493 506 513
f 593 464 505
f 234 236 324
f 234 154 300
f 324 154 234
f 300 263 234
f 297 292 324
f 324 236 297
f 297 291 292
f 291 297 298
f 294 296 295
f 296 291 295
f 291 298 295
f 295 298 299
f 295 293 294
f 299 293 295
f 180 179 36
f 36 35 180
f 179 178 36
f 34 182 181
f 181 35 34
f 177 220 221
f 221 183 177
f 222 183 221
f 221 220 206
f 206 208 221
f 208 222 221
f 219 178 218
f 219 220 178
f 204 220 219
f 189 188 259
f 189 266 190
f 259 266 189
f 223 222 215
f 215 156 223
f 223 156 222
f 471 97 470
f 97 96 470
f 470 96 95
f 95 94 470
f 125 74 9
f 125 123 74
f 139 130 148
f 74 12 7
f 7 8 74
f 7 12 94
f 94 8 7
f 13 14 74
f 74 79 13
f 75 73 68
f 68 70 75
f 44 41 39
f 45 506 463
f 463 506 505
f 505 464 463
f 463 464 39
f 39 41 463
f 52 68 45
f 70 68 52
f 72 77 75
f 45 463 43
f 43 463 41
f 80 82 466
f 81 79 74
f 80 79 81
f 81 82 80
f 118 595 476
f 128 111 110
f 110 112 128
f 111 118 110
f 109 477 107
f 107 479 147
f 146 107 147
f 128 112 113
f 113 112 109
f 99 100 4
f 471 100 99
f 99 98 471
f 104 1 103
f 18 104 115
f 2 1 111
f 111 3 2
f 103 1 2
f 102 472 103
f 103 2 102
f 102 2 3
f 4 100 101
f 101 3 4
f 101 102 3
f 101 100 472
f 472 102 101
f 216 196 217
f 180 216 217
f 218 179 217
f 217 179 180
f 199 226 201
f 225 226 199
f 199 197 225
f 200 219 218
f 200 199 201
f 132 133 158
f 136 133 132
f 130 139 132
f 132 139 136
f 158 195 194
f 195 196 194
f 194 216 176
f 194 196 216
f 165 423 164
f 229 165 164
f 164 230 229
f 164 423 163
f 163 230 164
f 205 230 207
f 207 209 206
f 206 204 207
f 207 204 205
f 162 161 232
f 161 233 232
f 215 210 214
f 214 192 215
f 213 192 214
f 214 233 213
f 421 428 429
f 429 414 421
f 428 414 429
f 413 420 421
f 421 414 413
f 413 414 410
f 410 409 413
f 409 420 413
f 418 419 411
f 548 419 418
f 225 170 169
f 169 226 225
f 168 226 169
f 602 577 439
f 439 601 602
f 307 306 304
f 304 287 303
f 304 306 317
f 317 287 304
f 318 308 319
f 318 306 308
f 317 306 318
f 319 279 318
f 279 267 318
f 318 267 317
f 399 377 373
f 378 379 373
f 373 377 378
f 375 372 373
f 373 374 375
f 379 374 373
f 373 243 399
f 373 372 243
f 250 251 296
f 250 296 294
f 294 249 250
f 398 384 250
f 250 249 398
f 250 384 383
f 383 251 250
f 256 186 187
f 184 261 188
f 587 588 573
f 587 612 588
f 586 612 587
f 587 573 572
f 572 586 587
f 93 470 94
f 468 470 93
f 94 12 93
f 12 11 93
f 14 13 89
f 613 468 512
f 512 614 613
f 590 589 614
f 576 498 575
f 499 498 576
f 576 590 499
f 575 589 576
f 589 590 576
f 700 698 701
f 700 701 702
f 702 531 700
f 700 531 529
f 529 698 700
f 703 667 665
f 704 703 665
f 665 663 704
f 665 667 666
f 662 445 444
f 357 356 444
f 444 661 662
f 444 660 661
f 336 335 346
f 447 668 670
f 351 350 447
f 447 450 351
f 670 672 447
f 672 637 447
f 352 450 447
f 447 637 352
f 527 526 524
f 524 525 527
f 527 525 696
f 529 526 527
f 696 698 527
f 527 698 529
f 695 673 671
f 693 691 675
f 693 695 692
f 675 673 693
f 673 695 693
f 688 691 690
f 521 519 690
f 690 519 688
f 690 692 521
f 690 693 692
f 691 693 690
f 686 689 688
f 686 687 689
f 688 519 686
f 519 497 686
f 686 497 684
f 684 685 686
f 685 687 686
f 378 377 382
f 377 381 382
f 382 381 438
f 382 487 378
f 438 487 382
f 602 601 478
f 478 479 602
f 147 479 478
f 594 477 109
f 594 107 477
f 479 107 594
f 594 595 604
f 109 476 594
f 476 595 594
f 578 604 579
f 579 564 578
f 578 563 577
f 578 564 563
f 570 555 569
f 568 583 569
f 569 554 568
f 555 554 569
f 581 607 582
f 582 583 568
f 582 607 608
f 608 583 582
f 568 567 582
f 582 567 581
f 611 586 585
f 585 610 611
f 599 472 471
f 608 598 599
f 599 598 472
f 532 533 535
f 530 533 532
f 532 556 530
f 555 556 532
f 103 472 475
f 472 598 475
f 475 104 103
f 475 598 597
f 597 596 474
f 474 596 115
f 474 475 597
f 115 104 474
f 104 475 474
f 343 457 344
f 343 342 457
f 344 363 343
f 363 362 343
f 362 342 343
f 330 362 361
f 330 342 362
f 361 329 330
f 329 454 330
f 330 454 457
f 457 342 330
f 344 457 458
f 457 636 458
f 458 345 344
f 341 345 458
f 458 459 341
f 458 460 459
f 458 636 460
f 649 651 648
f 649 647 644
f 644 643 649
f 643 651 649
f 644 647 645
f 645 636 644
f 460 636 645
f 645 647 404
f 385 647 646
f 677 380 646
f 380 385 646
f 646 648 677
f 646 649 648
f 647 649 646
f 338 339 389
f 339 394 389
f 389 397 338
f 389 394 395
f 389 391 397
f 391 389 390
f 395 396 390
f 390 389 395
f 355 332 359
f 355 356 332
f 355 359 660
f 660 444 355
f 355 444 356
f 657 640 639
f 657 658 656
f 655 640 657
f 656 654 657
f 654 655 657
f 641 640 655
f 641 642 633
f 641 655 653
f 653 642 641
f 633 332 453
f 453 332 456
f 453 641 633
f 640 641 453
f 453 456 333
f 333 334 453
f 337 451 336
f 337 328 451
f 75 277 286
f 285 73 75
f 285 270 73
f 75 286 285
f 271 270 285
f 285 286 271
f 274 276 321
f 277 276 274
f 274 275 277
f 321 312 314
f 315 327 314
f 314 312 315
f 71 283 69
f 69 50 71
f 50 48 71
f 62 237 371
f 492 370 491
f 491 513 492
f 47 71 48
f 504 593 505
f 504 505 514
f 514 494 504
f 494 515 504
f 28 27 26
f 154 27 28
f 28 29 154
f 28 26 177
f 177 183 28
f 28 183 222
f 154 29 30
f 300 154 30
f 155 189 190
f 222 156 155
f 188 189 155
f 155 28 222
f 29 28 155
f 155 184 188
f 156 186 155
f 186 184 155
f 299 298 235
f 236 234 235
f 235 297 236
f 235 298 297
f 235 263 299
f 235 234 263
f 23 74 172
f 175 182 173
f 182 24 173
f 173 708 175
f 173 24 23
f 23 172 173
f 74 708 173
f 173 172 74
f 25 178 26
f 25 36 178
f 35 36 25
f 26 27 25
f 27 35 25
f 23 24 32
f 32 24 182
f 32 22 23
f 75 22 32
f 32 154 75
f 32 35 154
f 611 610 469
f 469 468 611
f 469 470 468
f 138 133 137
f 137 133 136
f 136 139 137
f 224 138 137
f 137 170 224
f 135 138 158
f 158 133 135
f 135 133 138
f 46 44 77
f 41 44 46
f 77 72 46
f 46 72 41
f 74 77 42
f 77 44 42
f 42 44 39
f 75 70 51
f 51 43 75
f 70 52 51
f 51 52 45
f 45 43 51
f 49 72 75
f 75 43 49
f 41 72 49
f 49 43 41
f 83 81 74
f 82 81 83
f 74 85 83
f 85 82 83
f 614 512 511
f 436 464 508
f 464 593 508
f 39 40 76
f 76 40 74
f 76 42 39
f 74 42 76
f 37 40 39
f 39 464 37
f 464 86 37
f 84 88 86
f 84 82 85
f 84 86 436
f 84 437 82
f 436 508 84
f 509 437 84
f 84 508 509
f 86 88 38
f 38 37 86
f 40 37 38
f 74 40 38
f 38 88 74
f 473 595 117
f 595 118 117
f 114 110 118
f 114 476 109
f 114 118 476
f 109 112 114
f 112 110 114
f 128 106 105
f 105 146 128
f 106 107 105
f 107 146 105
f 108 106 128
f 128 113 108
f 108 107 106
f 109 107 108
f 108 113 109
f 111 18 19
f 19 18 115
f 111 1 21
f 21 18 111
f 1 104 21
f 104 18 21
f 204 219 202
f 219 200 202
f 205 204 202
f 202 203 205
f 201 203 202
f 202 200 201
f 198 217 196
f 199 200 198
f 218 217 198
f 198 200 218
f 198 196 197
f 197 199 198
f 157 132 158
f 158 194 157
f 130 132 157
f 157 124 130
f 176 124 157
f 157 194 176
f 231 232 209
f 209 207 231
f 231 207 230
f 231 230 163
f 231 163 162
f 162 232 231
f 211 232 233
f 233 214 211
f 209 232 211
f 211 214 210
f 208 209 211
f 211 210 208
f 411 167 415
f 415 418 411
f 415 167 168
f 417 418 415
f 168 169 415
f 562 418 417
f 417 439 562
f 548 418 562
f 562 563 548
f 577 563 562
f 562 439 577
f 148 150 407
f 407 139 148
f 170 137 407
f 407 137 139
f 307 304 305
f 305 304 303
f 305 303 253
f 305 245 307
f 305 253 245
f 246 258 255
f 254 246 255
f 364 254 255
f 408 364 255
f 262 258 261
f 262 256 258
f 186 256 262
f 261 184 262
f 262 184 186
f 468 93 92
f 92 93 11
f 92 11 16
f 16 91 92
f 467 512 468
f 468 92 467
f 467 92 91
f 467 511 512
f 499 590 591
f 592 501 591
f 591 501 499
f 615 590 614
f 614 511 615
f 615 591 590
f 662 663 664
f 663 665 664
f 664 445 662
f 664 665 666
f 445 346 358
f 357 444 358
f 358 444 445
f 358 346 335
f 358 334 357
f 335 334 358
f 350 353 349
f 349 353 354
f 446 346 445
f 446 664 666
f 445 664 446
f 448 447 350
f 668 447 448
f 350 349 448
f 349 446 448
f 666 668 448
f 448 446 666
f 692 695 694
f 694 523 692
f 694 525 523
f 696 525 694
f 697 695 671
f 697 699 696
f 696 694 697
f 697 694 695
f 697 671 669
f 669 699 697
f 121 122 134
f 134 153 121
f 122 153 134
f 121 153 152
f 152 124 121
f 152 150 124
f 604 578 603
f 603 594 604
f 479 594 603
f 602 479 603
f 603 577 602
f 603 578 577
f 571 586 572
f 571 585 586
f 572 557 571
f 570 585 571
f 571 556 570
f 557 556 571
f 600 599 471
f 600 469 610
f 471 470 600
f 470 469 600
f 584 585 570
f 610 585 584
f 570 569 584
f 584 569 583
f 534 532 535
f 534 535 537
f 534 554 555
f 555 532 534
f 460 645 387
f 659 657 639
f 658 657 659
f 676 658 659
f 659 674 676
f 659 639 638
f 638 674 659
f 452 334 335
f 452 453 334
f 452 335 336
f 639 640 452
f 640 453 452
f 336 451 452
f 452 451 639
f 273 270 271
f 271 286 273
f 273 286 277
f 277 275 273
f 284 71 73
f 73 270 284
f 282 283 316
f 327 282 316
f 316 314 327
f 237 62 63
f 55 53 67
f 507 492 513
f 507 48 50
f 507 513 48
f 50 53 507
f 53 492 507
f 462 47 48
f 462 513 506
f 48 513 462
f 462 506 45
f 45 47 462
f 593 504 503
f 503 502 592
f 503 515 502
f 503 504 515
f 31 155 190
f 29 155 31
f 31 30 29
f 190 264 31
f 31 264 300
f 300 30 31
f 33 34 35
f 35 32 33
f 182 34 33
f 33 32 182
f 10 125 9
f 9 97 10
f 97 98 10
f 98 6 10
f 5 99 4
f 98 99 5
f 5 6 98
f 510 511 466
f 510 615 511
f 87 84 85
f 88 84 87
f 87 85 74
f 74 88 87
f 17 118 111
f 111 117 17
f 17 117 118
f 151 146 147
f 128 146 151
f 151 119 128
f 116 19 115
f 116 115 473
f 473 117 116
f 417 415 416
f 416 439 417
f 601 439 416
f 416 405 601
f 406 415 169
f 405 416 406
f 406 416 415
f 406 169 170
f 406 407 405
f 170 407 406
f 601 405 440
f 405 407 440
f 440 407 150
f 150 152 440
f 440 152 153
f 440 478 601
f 440 153 478
f 258 256 257
f 257 255 258
f 191 193 257
f 257 193 212
f 257 187 191
f 257 256 187
f 212 159 257
f 159 412 257
f 257 412 408
f 408 255 257
f 90 467 91
f 89 467 90
f 90 91 15
f 90 15 14
f 14 89 90
f 511 467 78
f 80 466 78
f 466 511 78
f 78 467 89
f 78 89 13
f 78 79 80
f 78 13 79
f 592 591 616
f 591 615 616
f 616 510 509
f 615 510 616
f 346 446 347
f 336 346 347
f 347 337 336
f 328 337 347
f 131 153 122
f 131 140 153
f 122 123 131
f 478 153 145
f 610 584 609
f 609 600 610
f 599 600 609
f 608 599 609
f 609 583 608
f 609 584 583
f 536 534 537
f 536 538 553
f 553 554 536
f 554 534 536
f 536 539 538
f 537 539 536
f 460 387 392
f 388 645 404
f 388 387 645
f 322 316 283
f 322 274 321
f 321 314 322
f 314 316 322
f 272 284 270
f 270 273 272
f 275 274 272
f 272 273 275
f 65 55 67
f 65 63 62
f 67 280 65
f 237 63 65
f 65 325 237
f 280 325 65
f 54 68 73
f 45 68 54
f 54 47 45
f 54 57 47
f 6 5 126
f 125 10 126
f 126 10 6
f 126 5 4
f 4 3 126
f 126 3 111
f 82 437 465
f 465 466 82
f 465 510 466
f 465 437 509
f 509 510 465
f 147 119 149
f 149 151 147
f 119 151 149
f 20 116 117
f 19 116 20
f 20 117 111
f 111 19 20
f 592 616 617
f 617 503 592
f 509 508 617
f 617 616 509
f 617 508 593
f 593 503 617
f 348 446 349
f 348 347 446
f 348 349 354
f 354 328 348
f 328 347 348
f 123 125 129
f 129 145 123
f 125 145 129
f 141 131 123
f 140 131 141
f 153 140 141
f 141 145 153
f 147 478 144
f 478 145 144
f 393 396 460
f 460 392 393
f 393 390 396
f 393 392 390
f 387 388 386
f 390 392 386
f 386 392 387
f 391 390 386
f 386 404 403
f 386 388 404
f 403 402 386
f 402 391 386
f 323 322 283
f 283 71 323
f 71 284 323
f 284 272 323
f 274 322 323
f 323 272 274
f 61 62 371
f 61 58 62
f 55 65 56
f 56 65 62
f 62 58 56
f 64 60 73
f 47 60 64
f 73 71 64
f 71 47 64
f 47 57 59
f 59 60 47
f 73 60 59
f 66 54 73
f 57 54 66
f 73 59 66
f 66 59 57
f 143 145 125
f 125 126 143
f 143 144 145
f 126 144 143
f 127 111 128
f 127 126 111
f 128 144 127
f 127 144 126
f 123 145 142
f 142 141 123
f 145 141 142
f 120 119 147
f 147 144 120
f 128 119 120
f 120 144 128
f 400 61 371
f 58 61 400
f 371 370 400
f 400 56 58
f 370 492 400
f 55 56 461
f 461 492 53
f 53 55 461
f 461 400 492
f 56 400 461

