# https://github.com/mikedh/trimesh
v 0.00150000 0.03265208 -0.04465714
v -0.00043512 0.02144735 -0.04889000
v -0.00104337 0.02145932 -0.04889000
v 0.00150000 0.02453670 -0.04810943
v 0.00150000 0.02692515 -0.04748759
v -0.00104336 0.02696806 -0.04733104
v 0.00150000 0.02694145 -0.04748258
v -0.00104336 0.02744470 -0.04718400
v 0.00150000 0.02996979 -0.04629466
v -0.00104330 0.03518577 -0.04260064
v -0.00050301 0.03449259 -0.04324287
v -0.00104336 0.03410743 -0.04364463
v -0.00104336 0.03399030 -0.04374585
v -0.00104336 0.03243938 -0.04490483
v -0.00104336 0.03154033 -0.04544976
v 0.00150000 0.03039781 -0.04607578
v -0.00104336 0.03007781 -0.04618748
v -0.00104336 0.02923035 -0.04654766
v 0.00350000 0.04134352 -0.02600949
v 0.00150000 0.04168623 -0.02354873
v 0.00350000 0.04236803 -0.01717618
v 0.00150000 0.04236803 -0.01717618
v 0.00150000 0.04296490 -0.01051805
v 0.00350000 0.04348895 -0.00319293
v 0.00150000 0.04348895 -0.00319293
v 0.00350000 0.04361423 0.00691810
v 0.00150000 0.04366551 0.00255394
v 0.00150000 0.04361423 0.00691810
v 0.00350000 0.04037218 0.03641037
v 0.00350000 0.03881777 0.03661161
v 0.00350000 0.04345763 0.01051441
v 0.00350000 0.04246898 0.02171489
v -0.00105469 -0.04735121 0.03156099
v -0.00819939 -0.04542900 0.03202784
v -0.00816482 -0.04545232 0.03202229
v -0.00289782 -0.04727037 0.03158097
v -0.00415487 -0.04708749 0.03162605
v -0.00746539 -0.04588390 0.03191890
v -0.00689997 -0.04618090 0.03184726
v -0.00676579 -0.04624508 0.03183172
v -0.00520232 -0.04683432 0.03168821
v -0.00464056 -0.04698265 0.03165183
v -0.00840642 -0.04528524 0.03206208
v -0.00973290 -0.04417540 0.03232315
v -0.01092630 -0.04282190 0.03263389
v -0.01150000 -0.04200437 0.03281753
v -0.01573471 0.03421746 0.02650586
v -0.01511994 -0.03957563 0.02956690
v -0.01726731 -0.01783410 0.03689750
v -0.01751699 -0.01573368 0.03713116
v -0.01776767 0.00550402 0.03843294
v -0.01773860 0.00659972 0.03844806
v -0.01687591 0.01204420 0.03844777
v -0.01650000 0.01360841 0.03842445
v -0.01745542 0.00921356 0.03846360
v -0.01764025 0.00328517 0.03838672
v -0.01650000 -0.00849120 0.03779136
v -0.01670034 -0.00924804 0.03773289
v -0.01730632 -0.01185238 0.03751295
v -0.01751809 -0.01365374 0.03734381
v -0.01589682 -0.02396203 0.03610657
v -0.01622355 -0.02236530 0.03632839
v -0.01701006 -0.01911173 0.03674604
v -0.01573377 -0.02823394 0.03545829
v -0.01598295 -0.03121713 0.03495796
v -0.01599517 -0.03317795 0.03460764
v -0.01574512 -0.03520494 0.03422750
v -0.01523811 -0.03727648 0.03382001
v -0.01474892 -0.03930326 0.03221286
v -0.01474092 -0.03877702 0.03351279
v -0.01371771 -0.04121303 0.03299238
v -0.01453857 -0.04138928 0.02811392
v -0.01562244 -0.03953629 0.02696048
v -0.01470017 -0.04166752 0.02650586
v -0.01510112 0.03223441 0.03734748
v -0.01587960 0.03046713 0.03751327
v -0.01635288 0.02874541 0.03766190
v -0.01648734 0.02777144 0.03774035
v -0.01650000 0.02614363 0.03786243
v -0.01668360 -0.03621780 0.02706555
v -0.01695485 -0.03288174 0.02960954
v -0.01822979 -0.02804693 0.02619402
v -0.01585185 -0.03748431 0.02975695
v -0.01646852 -0.03524363 0.02975426
v -0.01741502 -0.03308688 0.02682277
v -0.01769983 -0.03157599 0.02664760
v -0.01863754 -0.02413010 0.02576171
v -0.01901591 -0.01671693 0.02546970
v -0.01905371 -0.01462664 0.02548136
v -0.01566992 -0.02601636 0.03580480
v -0.01433110 0.03357834 0.03721243
v -0.01650000 -0.00145212 0.03821814
v -0.01724612 0.00114468 0.03832235
v -0.01797676 0.02844985 0.02654885
v -0.01815400 0.02751576 0.02638184
v -0.01666416 0.03251603 0.02688367
v -0.01688937 0.03201098 0.02691312
v -0.01709127 0.03151291 0.02691405
v -0.01754835 0.03016551 0.02681113
v -0.01784318 0.02905181 0.02665075
v -0.01850995 0.02483384 0.02593350
v -0.01859915 0.02385661 0.02580609
v -0.01878683 0.02091067 0.02556886
v -0.01891038 0.01727746 0.02547668
v -0.01891829 0.01691510 0.02547537
v -0.01650000 0.02589478 0.03788009
v -0.01650000 -0.00446763 0.03806115
v -0.01101424 0.03518016 0.03704130
v -0.01150000 0.03469984 0.03709378
v -0.01006693 0.03599745 0.03694973
v -0.00985834 0.03615890 0.03693129
v -0.00830933 0.03717960 0.03681215
v -0.00665951 0.03796606 0.03671728
v -0.00558148 0.03833431 0.03667194
v -0.00373267 0.03873105 0.03662243
v -0.00179461 0.03886991 0.03660494
v -0.00104336 -0.05008851 0.01347075
v -0.00104336 -0.04981712 0.01948856
v -0.00296403 -0.04964064 0.02020638
v -0.00104336 -0.04953695 0.02372132
v -0.00491277 -0.04914637 0.02304795
v -0.01414775 -0.04250376 0.02675622
v -0.01438200 -0.04203252 0.02705253
v -0.01162318 -0.04600769 0.02343119
v -0.01384010 -0.04300260 0.02660742
v -0.01359770 -0.04359706 0.02561399
v -0.01328137 -0.04405925 0.02530614
v -0.01273988 -0.04477553 0.02473750
v -0.01133354 -0.04488494 0.03135968
v -0.01081226 -0.04673737 0.02239507
v -0.01251393 -0.04336309 0.03209690
v -0.01330478 -0.04199642 0.03281930
v -0.00672395 -0.04844518 0.02560632
v -0.00887830 -0.04682232 0.03169115
v -0.00839770 -0.04751555 0.02785924
v -0.00932670 -0.04651662 0.03176579
v -0.01074640 -0.04533723 0.03204971
v -0.01200524 -0.04394695 0.03237618
v -0.01221532 -0.04367364 0.03243933
v -0.00298981 -0.04881084 0.03119505
v -0.00484329 -0.04851502 0.03127002
v -0.00477441 -0.04876690 0.02852133
v -0.00564554 -0.04830639 0.03132264
v -0.00732638 -0.04767786 0.03147995
v -0.00104320 -0.04889626 0.03117333
v -0.00750971 -0.04873800 0.01769313
v -0.00612274 -0.04925387 0.01557094
v -0.00444782 -0.04970134 0.01293882
v -0.00336866 -0.04990753 0.01121405
v -0.00104336 -0.05018023 0.00744754
v -0.00961826 -0.04761569 0.02076963
v -0.00860525 -0.04821365 0.01931875
v -0.00104336 -0.05006294 0.00168581
v -0.00104336 -0.04992166 -0.00112996
v -0.00104336 -0.04552843 -0.02511960
v -0.00104336 -0.04507678 -0.02630475
v 0.00150000 -0.04929285 -0.00821607
v 0.00023595 -0.04906913 -0.00994942
v 0.00023595 -0.04840021 -0.01415868
v 0.00150000 -0.05002336 0.00033819
v 0.00150000 -0.05019392 0.00666093
v 0.00023595 -0.05018712 0.00705188
v -0.00104337 -0.02160947 -0.04889000
v 0.00150000 -0.04989692 -0.00180109
v 0.00150000 -0.04741950 -0.01853261
v 0.00023595 -0.03152928 -0.04528358
v 0.00023595 -0.02966628 -0.04631527
v 0.00150000 -0.02960288 -0.04634712
v 0.00023595 -0.02770126 -0.04713707
v 0.00150000 -0.02703870 -0.04741353
v 0.00150000 -0.02564821 -0.04783915
v -0.00104336 -0.04625571 -0.02301778
v -0.00104336 -0.04807857 -0.01596975
v -0.00104336 -0.04761206 -0.01811980
v -0.00104336 -0.04721750 -0.01971901
v -0.00104336 -0.04692091 -0.02081568
v -0.00104336 -0.04973225 -0.00379931
v -0.00104336 -0.04911100 -0.00967255
v -0.00104336 -0.04903185 -0.01026294
v -0.00104336 -0.04866676 -0.01271420
v -0.00104336 -0.03292317 -0.04439706
v -0.00104336 -0.03118233 -0.04553394
v -0.00104336 -0.02974039 -0.04627844
v -0.00104336 -0.02774020 -0.04708254
v -0.00104336 -0.02597415 -0.04763132
v -0.00104336 -0.03646980 -0.04107653
v -0.00104336 -0.03582794 -0.04178608
v -0.00104336 -0.03338182 -0.04404749
v -0.00104336 -0.04474421 -0.02713010
v -0.00104336 -0.04390898 -0.02905811
v -0.00104336 -0.04335536 -0.03024153
v -0.00104336 -0.04209097 -0.03272196
v -0.01719074 0.03290430 0.02211737
v -0.02181839 0.00882406 -0.00887637
v -0.02225668 0.00375024 -0.00879711
v -0.00194699 0.03931214 -0.03517206
v -0.00363720 0.03943709 -0.03377588
v -0.00413381 0.04033506 -0.02998707
v -0.02283190 0.00378973 -0.02157060
v -0.02291650 -0.00136354 -0.02156070
v -0.02234095 -0.00135060 -0.00877743
v -0.02181704 0.01347583 -0.03063318
v -0.02097049 -0.00611312 0.00726490
v -0.01875786 -0.02790632 0.02124693
v -0.01561772 -0.04277914 0.01696700
v -0.01666680 -0.04029505 0.00017085
v -0.01383514 -0.03914179 -0.02108881
v -0.00290636 -0.04523671 -0.02548966
v -0.00308263 -0.04597268 -0.02321978
v -0.00562514 -0.04619796 -0.02093574
v -0.00150000 0.03883649 -0.03656484
v -0.00150000 0.03790885 -0.03857588
v -0.00174810 0.03800135 -0.03832667
v -0.00150000 0.03681933 -0.04040902
v -0.00150000 0.03639283 -0.04100950
v -0.00162803 0.03637538 -0.04099032
v -0.00369928 0.02108887 -0.04889000
v -0.00507661 0.02073914 -0.04889000
v -0.01264260 0.01657521 -0.04889000
v -0.01329435 0.01594882 -0.04889000
v -0.00191365 -0.03663181 -0.04091951
v -0.00202031 -0.03878615 -0.03825941
v -0.00219334 -0.04081370 -0.03515229
v -0.00273693 -0.04444407 -0.02764157
v -0.00371683 -0.04829114 -0.01275691
v -0.01271802 -0.03886385 -0.02621206
v -0.01307132 -0.03831656 -0.02617729
v -0.01302759 -0.03830500 -0.02636550
v -0.01323248 -0.03784113 -0.02665501
v -0.01284007 0.03855481 -0.01207228
v -0.01265351 0.03873829 -0.01207153
v -0.01181056 0.03882035 -0.01601273
v -0.01070397 0.03962058 0.01978093
v -0.01000165 0.03990691 0.02040300
v -0.01175852 0.03917426 0.01867948
v -0.01128750 0.03939963 0.01901438
v -0.00985874 0.04058417 0.01467713
v -0.01087905 0.03956785 0.01945232
v -0.01071440 0.03961840 0.01975377
v -0.01467347 0.03752276 0.01557376
v -0.01451033 0.03731869 0.01800125
v -0.01260155 0.03931017 0.01327692
v -0.01369166 0.03798772 0.01800118
v -0.01334231 0.03823707 0.01806001
v -0.01237581 0.03884239 0.01836577
v -0.01229876 0.03896547 0.01779972
v -0.01446823 0.03673388 0.02165083
v -0.01465056 0.03657865 0.02156082
v -0.01543664 0.03467334 0.02631403
v -0.01523061 0.03607718 0.02109962
v -0.01557456 0.03579320 0.02058239
v -0.01577189 0.03567682 0.01997743
v -0.01630864 0.03551650 0.01700254
v -0.01580863 0.03572783 0.01947710
v -0.01573298 0.03590507 0.01901018
v -0.01555305 0.03618218 0.01861897
v -0.01517884 0.03664624 0.01824455
v -0.01461345 0.03722396 0.01801962
v -0.00877136 0.04124266 -0.01248371
v -0.01044441 0.04061658 -0.01028114
v -0.00962461 0.04130501 -0.00558117
v -0.01048168 0.04062052 -0.01000467
v -0.00779483 0.04099305 -0.01865981
v -0.00991403 0.04008438 -0.01713436
v -0.01067273 0.04041344 -0.01099156
v -0.01049228 0.04055803 -0.01061429
v -0.01176449 0.03954871 -0.01185540
v -0.01111579 0.04007554 -0.01146560
v -0.01100597 0.04016021 -0.01137210
v -0.01190660 0.03942628 -0.01191272
v -0.01348739 0.03788507 -0.01192678
v -0.01346357 0.03720912 -0.01531309
v -0.01356629 0.03780037 -0.01189000
v -0.01389039 0.03806041 -0.00825595
v -0.01433146 0.03747839 -0.00854211
v -0.01461313 0.03715508 -0.00825662
v -0.01458737 0.03706151 -0.00894472
v -0.01587428 0.03512544 -0.00792925
v -0.01471756 0.03676735 -0.00949020
v -0.01471160 0.03666271 -0.01003827
v -0.01464156 0.03668489 -0.01042450
v -0.01486074 0.03525326 -0.01504026
v -0.01441974 0.03688003 -0.01101455
v -0.01438090 0.03691945 -0.01108646
v -0.01406313 0.03725899 -0.01152037
v -0.01049918 0.04061605 -0.00994394
v -0.01069023 0.04054086 -0.00955725
v -0.01203472 0.04015072 -0.00317978
v -0.01115180 0.04030624 -0.00905701
v -0.01188311 0.03985651 -0.00857600
v -0.01381102 0.03815405 -0.00823003
v -0.01565887 0.03684555 -0.00033447
v -0.01319326 0.03880326 -0.00817565
v -0.01405487 0.03865587 -0.00141908
v -0.01293185 0.03904364 -0.00820924
v -0.01213584 0.03968010 -0.00845630
v -0.01413832 -0.03475635 -0.03027831
v -0.01324021 -0.03715300 -0.02819502
v -0.01326230 -0.03715228 -0.02811536
v -0.01335592 -0.03723665 -0.02757023
v -0.01190712 -0.03829034 -0.02992392
v -0.01249403 -0.03729407 -0.03032655
v -0.01123695 -0.03903701 -0.03011009
v -0.01082957 -0.03927127 -0.03057144
v -0.01244369 -0.03774275 -0.02954228
v -0.01261876 -0.03757790 -0.02935853
v -0.01300668 -0.03726103 -0.02878119
v -0.01049215 -0.04103329 -0.02772984
v -0.01029587 -0.04108098 -0.02806272
v -0.00988754 -0.04196314 -0.02698410
v -0.01104020 -0.04073747 -0.02706023
v -0.01008949 -0.04103804 -0.02859105
v -0.01003265 -0.04089041 -0.02901544
v -0.00915811 -0.04065451 -0.03105864
v -0.01009076 -0.04064861 -0.02939461
v -0.01024714 -0.04034277 -0.02969486
v -0.01061478 -0.03980524 -0.02999374
v -0.01113881 -0.03915220 -0.03011231
v -0.00150000 0.04063431 -0.03054524
v -0.00222423 0.04034236 -0.03153456
v -0.00150000 0.04094003 -0.02900950
v -0.00257268 0.04112764 -0.02742618
v -0.00149402 0.04097492 -0.02882017
v -0.00373933 0.04249158 -0.01216439
v -0.00104336 0.04220708 -0.01884560
v -0.00338176 0.04214724 -0.01778314
v -0.00104336 0.04177272 -0.02324472
v -0.00297176 0.04171165 -0.02284957
v -0.00104338 0.04122699 -0.02741851
v -0.00130707 0.04113366 -0.02795102
v -0.00398652 0.04291287 -0.00230175
v -0.00104336 0.04324941 -0.00640742
v -0.00104336 0.04299633 -0.00972635
v -0.00104336 0.04360713 0.00320484
v -0.00104336 0.04352747 -0.00121472
v -0.00395139 0.04299695 0.00163616
v -0.00104336 0.04347133 -0.00259664
v -0.00384537 -0.04909408 -0.00644217
v -0.00382067 -0.04941811 -0.00287064
v -0.00372762 -0.04968283 0.00111731
v -0.00357052 -0.04986315 0.00571333
v -0.00343139 -0.04725897 -0.01829099
v -0.00326008 -0.04664768 -0.02082381
v -0.00626150 -0.04732662 -0.01538245
v -0.00824913 -0.01966611 -0.04889000
v -0.00630611 -0.02053525 -0.04889000
v -0.01346023 -0.01595146 -0.04889000
v -0.01273120 -0.01666538 -0.04889000
v -0.01216746 -0.01713970 -0.04889000
v -0.01011956 -0.01857793 -0.04889000
v -0.01473481 -0.01436222 -0.04889000
v -0.01585111 -0.01262976 -0.04889000
v -0.01692667 -0.01067858 -0.04889000
v -0.01744470 -0.00961442 -0.04889000
v -0.01852259 -0.00699228 -0.04889000
v -0.01872995 -0.00638903 -0.04889000
v -0.01940107 -0.00396179 -0.04889000
v -0.01977453 -0.00164246 -0.04889000
v -0.01983512 -0.00084226 -0.04889000
v -0.01984607 0.00058665 -0.04889000
v -0.01965099 0.00261802 -0.04889000
v -0.01920471 0.00476304 -0.04889000
v -0.01853135 0.00692197 -0.04889000
v -0.01764443 0.00909285 -0.04889000
v -0.01655558 0.01126172 -0.04889000
v -0.01505511 0.01373250 -0.04889000
v -0.00933359 0.01891500 -0.04889000
v -0.01102495 0.01784194 -0.04889000
v -0.00724568 0.01995644 -0.04889000
v -0.00823914 0.01949783 -0.04889000
v -0.00150599 0.02142270 -0.04889000
v -0.00163972 0.03197190 -0.04490164
v -0.00138098 0.03575883 -0.04184612
v -0.00127340 0.03552398 -0.04215329
v -0.00158852 0.03438796 -0.04317081
v -0.00150000 0.03992511 -0.03339156
v -0.00150000 0.03904077 -0.03604840
v -0.00243406 -0.04271011 -0.03161202
v -0.00400013 -0.04151594 -0.03384216
v -0.00444035 -0.04326003 -0.03012713
v -0.00575527 -0.04174483 -0.03271151
v -0.00634950 -0.04334113 -0.02884726
v -0.00747064 -0.04146836 -0.03177783
v -0.00816430 -0.04291997 -0.02779278
v -0.00499378 -0.04483098 -0.02583826
v -0.00709716 -0.04475566 -0.02428613
v -0.00903978 -0.04418318 -0.02301066
v -0.01081436 -0.04307860 -0.02203737
v -0.00795139 -0.04596773 -0.01897231
v -0.01004446 -0.04524505 -0.01736263
v -0.01188743 -0.04399296 -0.01613983
v -0.01476393 -0.03976181 -0.01497387
v -0.01346335 -0.04217450 -0.01533708
v -0.01241363 -0.04140700 -0.02139174
v -0.01381936 -0.04377056 -0.00871802
v -0.01152201 -0.04043719 -0.02644161
v -0.01228672 -0.03949684 -0.02623842
v -0.01172066 -0.04015491 -0.02650223
v -0.01113157 -0.04067196 -0.02697049
v -0.00881381 -0.04694558 -0.01288449
v -0.01106395 -0.04607633 -0.01084011
v -0.01298759 -0.04467933 -0.00929228
v -0.00678114 -0.04819842 -0.00914954
v -0.00976547 -0.04826698 0.00545055
v -0.00696421 -0.04905195 0.00160637
v -0.00952641 -0.04833925 0.00967560
v -0.00679034 -0.04921542 0.00572099
v -0.00912426 -0.04833135 0.01423215
v -0.00649820 -0.04929610 0.01029450
v -0.01076704 -0.04773292 0.01138832
v -0.01220351 -0.04701651 0.00859542
v -0.00951895 -0.04766555 -0.00605294
v -0.01190271 -0.04665009 -0.00352096
v -0.01390489 -0.04510961 -0.00160745
v -0.00701225 -0.04882501 -0.00219683
v -0.00983209 -0.04812853 0.00144753
v -0.00974072 -0.04792826 -0.00238274
v -0.01228013 -0.04695932 0.00442756
v -0.01216860 -0.04683737 0.00038607
v -0.01433160 -0.04527203 0.00667991
v -0.01420125 -0.04522420 0.00247811
v -0.01520814 -0.04150829 -0.00799483
v -0.01456038 -0.04271504 -0.00828403
v -0.01549795 -0.04300166 -0.00036627
v -0.01475429 -0.04412922 -0.00089945
v -0.01520088 -0.04421994 0.00751340
v -0.01425742 -0.04525384 0.01097450
v -0.01483445 -0.04404613 0.01627750
v -0.01395579 -0.04516901 0.01536641
v -0.01343276 -0.04501324 0.01991017
v -0.01192012 -0.04700642 0.01291334
v -0.01143900 -0.04692003 0.01745959
v -0.01661159 -0.04167110 0.00855668
v -0.01630395 -0.04136271 0.01742775
v -0.01642318 -0.03953174 0.02224140
v -0.01596173 -0.04302132 0.00814122
v -0.01613305 -0.04172216 -0.00001357
v -0.01576939 -0.04015401 -0.00784067
v -0.02203752 -0.00639202 -0.00883674
v -0.01715680 -0.04017428 0.00877417
v -0.01798854 -0.03679450 0.00874318
v -0.01801473 -0.03657883 0.01317313
v -0.01852034 -0.03242087 0.01721943
v -0.01713847 -0.04001818 0.01319664
v -0.01689728 -0.03980245 0.01767515
v -0.01784082 -0.03630973 0.01766696
v -0.01744486 -0.03599593 0.02225600
v -0.01820751 -0.03207919 0.02183349
v -0.02006666 -0.01053685 0.01598368
v -0.01990192 -0.01507194 0.01587682
v -0.01967187 -0.01953786 0.01589200
v -0.01937570 -0.02393502 0.01611549
v -0.01900799 -0.02825604 0.01661016
v -0.02256866 -0.00645001 -0.02159446
v -0.02234208 0.00891584 -0.02161357
v -0.02110983 -0.00129302 0.00735239
v -0.01451258 0.03198704 -0.03032732
v -0.01630589 0.02926443 -0.03042058
v -0.01486933 0.03251709 -0.02620601
v -0.01320887 0.03479012 -0.02620615
v -0.01265482 0.03424358 -0.03034228
v -0.01078624 0.03607203 -0.03054501
v -0.01148502 0.03664720 -0.02641784
v -0.00894540 0.03750031 -0.03099033
v -0.00970711 0.03812464 -0.02690372
v -0.00713873 0.03853482 -0.03168036
v -0.00788367 0.03922954 -0.02766499
v -0.00536856 0.03917919 -0.03261043
v -0.00602309 0.03996523 -0.02869499
v -0.00684748 0.04056570 -0.02406097
v -0.00882567 0.03974541 -0.02283832
v -0.01067781 0.03856674 -0.02193727
v -0.01238898 0.03703058 -0.02136903
v -0.01394856 0.03513309 -0.02113481
v -0.02084664 0.00843119 0.00720115
v -0.02106298 0.00357980 0.00732135
v -0.01950658 0.02129865 0.01597314
v -0.01975221 0.01722378 0.01586690
v -0.02009102 0.00820946 0.01605916
v -0.02020342 -0.00125755 0.01621841
v -0.01884752 0.02811609 0.01689956
v -0.01921457 0.02494560 0.01632819
v -0.01879090 0.02882132 0.00800127
v -0.01825798 0.03164630 0.00849443
v -0.01683379 0.03473782 0.00006098
v -0.01767019 0.03229603 -0.00007185
v -0.00475817 0.04102674 -0.02559399
v -0.00547379 0.04153819 -0.02057093
v -0.00620943 0.04188823 -0.01490307
v -0.00685075 0.04209366 -0.00858784
v -0.00395781 0.04278807 -0.00584377
v -0.00724056 0.04216759 -0.00160912
v -0.01014286 0.04117519 0.00195275
v -0.01264077 0.03984249 0.00479932
v -0.01471033 0.03820110 0.00688807
v -0.01632759 0.03628263 0.00817650
v -0.01748119 0.03411066 0.00864853
v -0.01749826 0.03331801 0.01754594
v -0.01831002 0.03087902 0.01740864
v -0.01804146 0.03050130 0.02200696
v -0.01758729 0.03372756 0.01306722
v -0.01642088 0.03591922 0.01255726
v -0.01479316 0.03788626 0.01118552
v -0.01271427 0.03960327 0.00896895
v -0.01020582 0.04103613 0.00595235
v -0.00728937 0.04215071 0.00218051
v -0.00104336 0.04297079 -0.01003756
v -0.01011149 0.04084249 0.01015784
v -0.00703831 0.04194044 0.01078347
v -0.00722190 0.04208349 0.00626231
v -0.00385285 0.04299626 0.00616389
v -0.00104336 0.04353267 0.00762465
v -0.00347932 0.04290517 0.01125304
v -0.00585083 0.04206681 0.01469925
v -0.00675839 0.04167772 0.01598850
v -0.00802675 0.04106160 0.01775545
v -0.01395632 0.01521068 -0.04889000
v -0.00328040 0.03829269 -0.03699634
v -0.00306325 0.03683919 -0.03969496
v -0.00489795 0.03816682 -0.03588333
v -0.00460892 0.03684855 -0.03860683
v -0.00660333 0.03762359 -0.03499239
v -0.00627098 0.03640960 -0.03773209
v -0.00839914 0.03666285 -0.03432830
v -0.00805534 0.03552851 -0.03707684
v -0.01028799 0.03528446 -0.03389583
v -0.00996794 0.03421145 -0.03664723
v -0.01226521 0.03348630 -0.03369338
v -0.01200547 0.03246297 -0.03644303
v -0.01426958 0.03125103 -0.03366964
v -0.01409281 0.03027543 -0.03641460
v -0.01621331 0.02855415 -0.03374993
v -0.01612110 0.02763537 -0.03648907
v -0.01800847 0.02537113 -0.03385947
v -0.01798130 0.02452932 -0.03659343
v -0.01957267 0.02168718 -0.03393064
v -0.01957262 0.02095207 -0.03666165
v -0.02086765 0.01756533 -0.03395288
v -0.02086011 0.01696404 -0.03668316
v -0.02184030 0.01265709 -0.03667391
v -0.00224624 -0.02151634 -0.04889000
v -0.00430023 -0.02115476 -0.04889000
v -0.01180331 0.02620904 -0.04291191
v -0.01362603 0.02453354 -0.04288683
v -0.01539288 0.02249825 -0.04293881
v -0.01703504 0.02006976 -0.04301378
v -0.01848704 0.01722329 -0.04306281
v -0.01971017 0.01400260 -0.04307793
v -0.02067850 0.01048423 -0.04307076
v -0.02136618 0.00674492 -0.04305304
v -0.02174737 0.00286143 -0.04303653
v -0.02179639 -0.00108948 -0.04303289
v -0.02150781 -0.00502836 -0.04304630
v -0.02091531 -0.00887053 -0.04306642
v -0.02005699 -0.01253075 -0.04308126
v -0.01897096 -0.01592377 -0.04307885
v -0.01769532 -0.01896433 -0.04304720
v -0.01626848 -0.02157506 -0.04297818
v -0.01473157 -0.02375234 -0.04289969
v -0.01312720 -0.02553281 -0.04285930
v -0.00298745 0.03498154 -0.04193027
v -0.00306945 0.03259133 -0.04377478
v -0.00450130 0.03509663 -0.04088365
v -0.00459395 0.03273813 -0.04282056
v -0.00613755 0.03474708 -0.04003859
v -0.00622045 0.03243415 -0.04204734
v -0.00790371 0.03394678 -0.03940275
v -0.00795619 0.03170126 -0.04146347
v -0.00980725 0.03270958 -0.03898376
v -0.00980839 0.03056129 -0.04107733
v -0.01184588 0.03104750 -0.03878300
v -0.01177553 0.02903313 -0.04089139
v -0.01394097 0.02895816 -0.03875292
v -0.01378774 0.02711240 -0.04086241
v -0.01597807 0.02643241 -0.03882303
v -0.01574310 0.02478384 -0.04092567
v -0.01784251 0.02346106 -0.03892268
v -0.01753950 0.02203211 -0.04101633
v -0.01942869 0.02004228 -0.03898798
v -0.01908232 0.01884932 -0.04107572
v -0.02070293 0.01623284 -0.03900857
v -0.02033670 0.01528692 -0.04109430
v -0.02166603 0.01211754 -0.03899971
v -0.02129634 0.01142474 -0.04108601
v -0.02231894 0.00778136 -0.03897683
v -0.02195514 0.00734277 -0.04106496
v -0.02266268 0.00330927 -0.03895536
v -0.02230696 0.00312102 -0.04104525
v -0.02269824 -0.00121380 -0.03895063
v -0.02234578 -0.00116053 -0.04104090
v -0.02243095 -0.00570784 -0.03896815
v -0.02207399 -0.00542252 -0.04105694
v -0.02187438 -0.01010235 -0.03899443
v -0.02151034 -0.00958683 -0.04108100
v -0.02104305 -0.01432790 -0.03901382
v -0.02067539 -0.01357548 -0.04109876
v -0.01995148 -0.01831508 -0.03901066
v -0.01958974 -0.01731050 -0.04109588
v -0.01861420 -0.02199446 -0.03896932
v -0.01827396 -0.02071391 -0.04105802
v -0.01704966 -0.02529943 -0.03887914
v -0.01675162 -0.02371289 -0.04097546
v -0.01531305 -0.02818963 -0.03877641
v -0.01507427 -0.02628296 -0.04088152
v -0.01347969 -0.03063905 -0.03872298
v -0.01330873 -0.02842602 -0.04083306
v -0.01162505 -0.03262183 -0.03878102
v -0.01152199 -0.03014425 -0.04088718
v -0.00982447 -0.03411217 -0.03901252
v -0.00978085 -0.03143983 -0.04110084
v -0.00812353 -0.03509719 -0.03945692
v -0.00812491 -0.03231619 -0.04151029
v -0.00650415 -0.03559164 -0.04010535
v -0.00653545 -0.03277945 -0.04210736
v -0.00494007 -0.03561383 -0.04094270
v -0.00498621 -0.03283608 -0.04287817
v -0.00340499 -0.03518207 -0.04195385
v -0.00345096 -0.03249253 -0.04380884
v -0.00187263 -0.03431468 -0.04312368
v -0.00190345 -0.03175528 -0.04488549
v -0.02250993 0.00812326 -0.03665002
v -0.02286573 0.00345459 -0.03662761
v -0.02290450 -0.00125697 -0.03662271
v -0.02263002 -0.00592902 -0.03664105
v -0.02205963 -0.01049762 -0.03666855
v -0.02121218 -0.01490096 -0.03668882
v -0.02010653 -0.01907718 -0.03668551
v -0.01876155 -0.02296445 -0.03664225
v -0.01719937 -0.02650206 -0.03654789
v -0.01547293 -0.02963957 -0.03643999
v -0.01365196 -0.03233221 -0.03638272
v -0.01180638 -0.03453523 -0.03644054
v -0.01000593 -0.03620404 -0.03667776
v -0.00829296 -0.03731458 -0.03713528
v -0.00665115 -0.03788692 -0.03780389
v -0.00505659 -0.03794676 -0.03866792
v -0.00348539 -0.03751981 -0.03971168
v -0.00368286 -0.03960975 -0.03702332
v -0.00532631 -0.03996111 -0.03595564
v -0.00696971 -0.03981039 -0.03507257
v -0.00863212 -0.03912774 -0.03439032
v -0.01033260 -0.03788331 -0.03392510
v -0.01208449 -0.03605415 -0.03368645
v -0.01385664 -0.03367054 -0.03363208
v -0.01559713 -0.03078770 -0.03369552
v -0.01725394 -0.02746097 -0.03381012
v -0.02011525 -0.01969741 -0.03395514
v -0.02209614 -0.01109904 -0.03062651
v -0.02273848 -0.00626984 -0.03059423
v -0.02305239 -0.00132644 -0.03057269
v -0.02299254 0.00367560 -0.03057844
v -0.02256822 0.00864586 -0.03060483
v 0.00150000 -0.04887266 0.03117934
v 0.00150000 -0.04984226 0.01893616
v 0.00150000 -0.05011171 0.01283809
v -0.00923822 0.03839899 0.03666392
v -0.01057454 0.03753804 0.03659307
v -0.01087181 0.03729469 0.03679844
v -0.00104336 0.04239713 0.02216882
v -0.00104336 0.04272184 0.01917105
v -0.00323930 0.04211581 0.02203023
v -0.00104336 0.04311055 0.01490797
v -0.00104335 0.04040979 0.03640538
v -0.00104336 0.04146802 0.02940537
v -0.00235420 0.04040431 0.03640611
v -0.00315004 0.04131247 0.02922818
v -0.00527551 0.04060324 0.03145084
v -0.00899240 0.03869795 0.03514476
v -0.00750042 0.03927069 0.03655400
v -0.00722451 0.03972571 0.03342685
v -0.00630248 0.03971365 0.03649687
v -0.00436674 0.04018885 0.03643465
v -0.00745183 0.04030848 0.02729657
v -0.00543469 0.04129221 0.02481930
v -0.01171219 0.03659838 0.03688055
v -0.01313653 0.03515933 0.03704360
v -0.00096493 0.04124188 -0.02729949
v 0.00150000 0.04037218 0.03641039
v 0.00150000 0.04149042 0.02920760
v 0.00150000 0.04246898 0.02171489
v 0.00150000 0.04319510 0.01437296
v 0.00150000 0.04345763 0.01051441
v 0.00350000 -0.02155289 -0.04889000
v 0.00350000 0.02141287 -0.04889000
v -0.01150000 0.02554518 0.03790446
v -0.01150000 0.01368012 0.03842314
v -0.01150000 0.01071649 0.03845942
v -0.01150000 0.00180399 0.03834425
v -0.01150000 -0.00446763 0.03806115
v -0.01150000 -0.01005313 0.03766800
v -0.01150000 -0.02186122 0.03639610
v -0.01150000 -0.03359037 0.03453178
v 0.00350000 -0.04887283 0.03117919
v 0.00350000 -0.04732678 0.03156703
v -0.01073463 0.00180884 0.03819208
v -0.01073463 -0.01004064 0.03751628
v 0.00350000 0.02694145 -0.04748258
v 0.00350000 0.03039781 -0.04607578
v 0.00350000 0.03345690 -0.04400950
v 0.00350000 -0.04984226 0.01893616
v 0.00350000 -0.05019392 0.00666093
v 0.00350000 -0.05002336 0.00033819
v 0.00350000 -0.04929285 -0.00821607
v 0.00350000 -0.04812503 -0.01546396
v 0.00350000 -0.04628052 -0.02245613
v 0.00350000 -0.04360955 -0.02918918
v 0.00350000 -0.04015398 -0.03557124
v 0.00350000 -0.03670952 -0.04042064
v 0.00350000 -0.03388974 -0.04339856
v 0.00350000 -0.03057096 -0.04582587
v 0.00350000 -0.02703870 -0.04741353
f 481 484 483
f 87 50 88
f 88 450 87
f 88 51 89
f 50 51 88
f 442 444 446
f 622 623 650
f 481 652 455
f 652 199 455
f 484 501 497
f 497 501 496
f 484 538 202
f 202 483 484
f 202 652 481
f 481 483 202
f 477 195 478
f 200 454 439
f 650 649 200
f 200 649 454
f 106 54 685
f 106 53 54
f 55 53 106
f 512 334 511
f 26 24 27
f 29 32 679
f 485 497 496
f 486 497 485
f 334 27 335
f 692 66 67
f 89 51 480
f 476 480 479
f 479 480 51
f 87 450 451
f 451 204 87
f 439 454 453
f 701 700 655
f 700 117 655
f 161 701 655
f 700 693 120
f 171 683 711
f 651 199 652
f 651 622 650
f 650 200 651
f 651 200 199
f 482 195 477
f 482 101 481
f 481 455 482
f 536 497 486
f 536 538 484
f 484 497 536
f 486 485 536
f 540 202 538
f 652 202 540
f 475 195 476
f 476 478 475
f 475 478 195
f 104 51 52
f 477 478 102
f 102 482 477
f 101 482 102
f 78 101 102
f 102 52 78
f 499 484 481
f 499 501 484
f 201 200 439
f 476 195 201
f 201 195 199
f 199 200 201
f 439 451 201
f 685 78 79
f 79 106 685
f 55 106 79
f 79 52 55
f 78 52 79
f 24 21 23
f 26 27 28
f 334 512 28
f 28 27 334
f 19 699 211
f 292 485 496
f 261 492 490
f 490 492 331
f 25 27 24
f 25 335 27
f 25 23 332
f 24 23 25
f 491 489 490
f 490 331 491
f 491 331 335
f 365 546 366
f 545 366 546
f 445 446 444
f 436 205 434
f 434 445 444
f 435 445 434
f 440 444 442
f 424 422 423
f 423 425 424
f 436 424 426
f 426 424 425
f 428 426 427
f 428 205 436
f 436 426 428
f 67 66 81
f 81 86 67
f 66 86 81
f 448 446 447
f 447 445 435
f 446 445 447
f 82 66 50
f 82 86 66
f 82 50 87
f 87 204 82
f 82 204 448
f 448 86 82
f 456 88 89
f 89 480 456
f 456 480 476
f 476 201 456
f 30 689 694
f 29 671 30
f 671 669 30
f 30 76 685
f 75 76 30
f 30 109 75
f 687 53 55
f 55 52 687
f 105 51 104
f 104 479 105
f 105 479 51
f 452 451 439
f 439 453 452
f 204 451 452
f 452 453 204
f 448 204 443
f 204 453 443
f 443 446 448
f 442 446 443
f 443 453 454
f 454 649 443
f 443 648 442
f 443 649 648
f 705 175 176
f 165 705 704
f 704 175 165
f 165 175 705
f 210 385 209
f 704 703 180
f 395 425 423
f 414 425 395
f 395 402 414
f 700 120 118
f 140 120 145
f 145 120 693
f 694 692 70
f 408 409 147
f 683 171 163
f 199 195 194
f 195 482 194
f 194 455 199
f 194 482 455
f 485 292 278
f 652 540 621
f 621 651 652
f 622 651 621
f 539 540 538
f 539 536 537
f 538 536 539
f 103 102 478
f 104 52 103
f 52 102 103
f 103 478 476
f 476 479 103
f 103 479 104
f 95 101 78
f 481 101 95
f 98 193 500
f 500 499 481
f 481 95 500
f 500 95 94
f 99 76 98
f 98 500 99
f 96 76 75
f 75 109 91
f 109 676 91
f 248 676 675
f 20 21 19
f 19 327 20
f 20 327 21
f 328 327 329
f 21 327 325
f 325 327 328
f 328 326 325
f 31 681 32
f 376 319 19
f 328 487 488
f 488 326 328
f 489 326 488
f 488 263 489
f 672 671 29
f 29 679 663
f 664 680 659
f 664 663 679
f 665 663 664
f 664 679 32
f 32 680 664
f 658 113 656
f 674 661 514
f 296 294 288
f 336 331 492
f 511 334 336
f 334 335 336
f 335 331 336
f 332 326 324
f 324 326 489
f 489 491 324
f 9 698 697
f 699 698 1
f 699 12 11
f 574 545 576
f 576 545 546
f 517 545 220
f 366 545 517
f 580 548 582
f 74 434 205
f 435 434 74
f 74 73 435
f 433 440 206
f 444 440 433
f 436 434 433
f 433 434 444
f 442 648 441
f 441 440 442
f 411 404 410
f 418 404 411
f 427 426 420
f 420 411 427
f 418 411 420
f 205 428 126
f 429 428 427
f 67 86 85
f 85 86 448
f 448 447 85
f 50 66 49
f 450 88 449
f 88 456 449
f 115 669 656
f 656 30 115
f 656 113 114
f 114 30 656
f 113 30 114
f 111 30 112
f 112 30 113
f 113 658 112
f 675 111 112
f 112 658 675
f 109 30 108
f 108 676 109
f 93 59 107
f 54 53 686
f 53 687 686
f 685 54 686
f 686 30 685
f 686 687 30
f 30 687 688
f 688 52 51
f 688 687 52
f 189 190 706
f 192 707 706
f 209 385 208
f 708 707 222
f 172 176 209
f 172 208 155
f 209 208 172
f 155 705 172
f 705 176 172
f 343 210 209
f 209 176 343
f 343 176 175
f 158 180 703
f 403 338 415
f 341 409 407
f 407 409 406
f 406 404 407
f 409 408 406
f 410 404 406
f 406 408 410
f 403 400 344
f 654 117 700
f 700 118 654
f 654 118 117
f 117 118 119
f 119 120 140
f 119 118 120
f 140 145 653
f 653 145 693
f 694 70 46
f 68 692 67
f 68 70 692
f 73 70 68
f 435 73 68
f 68 83 435
f 146 408 147
f 362 548 363
f 581 539 537
f 100 500 94
f 100 99 500
f 97 193 98
f 97 96 193
f 98 76 97
f 76 96 97
f 193 253 498
f 501 499 498
f 499 500 498
f 498 500 193
f 496 501 502
f 501 498 502
f 502 498 253
f 250 248 257
f 676 248 250
f 677 327 19
f 19 329 677
f 677 329 327
f 322 487 328
f 328 329 322
f 22 23 21
f 21 325 22
f 22 325 23
f 23 325 507
f 507 325 326
f 681 31 682
f 512 662 682
f 682 662 681
f 682 28 512
f 660 661 659
f 660 662 661
f 681 662 660
f 659 680 660
f 32 681 660
f 660 680 32
f 514 661 513
f 661 662 513
f 513 662 512
f 513 512 511
f 19 211 377
f 377 376 19
f 471 263 470
f 470 467 471
f 470 488 487
f 263 488 470
f 471 467 465
f 678 672 29
f 665 672 678
f 29 663 678
f 678 663 665
f 657 658 656
f 656 669 668
f 514 513 509
f 511 336 506
f 506 336 492
f 671 672 667
f 667 674 671
f 661 674 667
f 279 278 292
f 285 275 273
f 294 293 291
f 295 296 270
f 295 293 294
f 294 296 295
f 337 491 335
f 337 324 491
f 332 324 337
f 337 25 332
f 335 25 337
f 15 698 16
f 16 9 15
f 698 9 16
f 699 1 14
f 14 698 15
f 14 1 698
f 544 545 574
f 220 545 544
f 578 580 577
f 578 576 546
f 525 567 569
f 523 567 525
f 575 578 577
f 576 578 575
f 563 561 564
f 519 561 563
f 471 465 472
f 463 473 472
f 472 465 463
f 232 472 473
f 73 74 72
f 437 433 206
f 422 424 437
f 437 424 436
f 436 433 437
f 437 438 422
f 416 404 418
f 418 419 416
f 416 419 417
f 417 415 416
f 421 419 418
f 418 420 421
f 414 419 421
f 421 425 414
f 421 426 425
f 421 420 426
f 127 126 428
f 122 74 205
f 428 429 430
f 128 127 430
f 430 127 428
f 430 137 128
f 430 429 432
f 432 429 431
f 410 432 431
f 431 411 410
f 427 411 431
f 431 429 427
f 80 85 447
f 80 68 67
f 83 68 80
f 80 447 435
f 435 83 80
f 50 49 691
f 691 692 694
f 691 64 692
f 66 692 65
f 692 64 65
f 65 49 66
f 450 449 203
f 203 449 456
f 203 456 201
f 203 451 450
f 203 201 451
f 116 30 669
f 669 115 116
f 116 115 30
f 110 30 111
f 110 108 30
f 676 108 110
f 675 676 110
f 110 111 675
f 60 51 50
f 689 107 57
f 92 107 689
f 92 93 107
f 689 688 92
f 92 688 93
f 689 30 695
f 695 688 689
f 30 688 695
f 56 688 51
f 93 688 56
f 51 60 56
f 59 93 56
f 56 60 59
f 710 709 181
f 706 705 156
f 156 189 706
f 156 705 155
f 708 222 186
f 223 378 379
f 192 378 223
f 707 192 223
f 223 222 707
f 702 164 703
f 178 703 157
f 704 180 159
f 159 173 704
f 180 173 159
f 342 343 175
f 210 343 342
f 342 344 210
f 179 703 178
f 179 158 703
f 180 158 179
f 340 415 339
f 339 415 338
f 405 415 340
f 405 341 407
f 340 341 405
f 405 416 415
f 407 404 405
f 404 416 405
f 150 655 117
f 117 119 149
f 149 150 117
f 341 150 149
f 225 173 180
f 403 344 225
f 225 342 173
f 344 342 225
f 180 179 225
f 225 338 403
f 178 338 225
f 225 179 178
f 121 146 147
f 133 146 121
f 132 131 139
f 126 127 139
f 139 131 126
f 132 46 71
f 71 46 70
f 71 74 132
f 71 72 74
f 73 72 71
f 152 146 133
f 408 146 152
f 133 144 152
f 423 422 392
f 2 3 684
f 2 371 3
f 697 684 4
f 684 3 4
f 564 562 219
f 219 543 564
f 15 368 219
f 220 544 219
f 219 544 543
f 6 217 218
f 367 368 17
f 17 18 367
f 17 368 15
f 15 9 17
f 9 18 17
f 547 546 365
f 548 580 547
f 547 363 548
f 547 578 546
f 580 578 547
f 623 622 587
f 622 621 587
f 582 548 549
f 549 548 362
f 585 621 540
f 585 587 621
f 579 580 582
f 582 581 579
f 579 581 537
f 577 580 579
f 540 539 583
f 539 581 583
f 583 585 540
f 586 585 583
f 76 99 77
f 99 100 77
f 77 78 685
f 685 76 77
f 77 100 94
f 77 95 78
f 94 95 77
f 47 253 193
f 47 252 253
f 193 96 47
f 47 96 75
f 75 91 47
f 676 250 251
f 251 255 252
f 257 248 258
f 675 241 258
f 332 23 333
f 23 507 333
f 333 326 332
f 333 507 326
f 487 322 198
f 376 377 196
f 196 377 211
f 523 525 522
f 522 525 524
f 245 657 656
f 504 242 508
f 508 509 505
f 505 504 508
f 661 667 666
f 666 667 672
f 659 661 666
f 666 664 659
f 666 672 665
f 665 664 666
f 674 516 673
f 515 674 514
f 515 516 674
f 514 509 515
f 515 509 508
f 508 516 515
f 292 275 276
f 276 279 292
f 278 279 280
f 272 273 271
f 272 232 473
f 285 273 272
f 272 284 285
f 271 273 274
f 274 291 271
f 274 273 275
f 274 275 292
f 274 292 294
f 294 291 274
f 489 263 259
f 490 489 259
f 259 261 490
f 288 261 287
f 13 12 699
f 699 14 13
f 13 14 562
f 213 214 519
f 564 543 566
f 566 563 564
f 572 570 543
f 543 544 572
f 572 544 574
f 574 571 572
f 572 571 569
f 569 567 572
f 567 570 572
f 463 465 462
f 464 465 467
f 464 462 465
f 464 524 526
f 526 462 464
f 569 571 527
f 527 525 569
f 527 571 529
f 527 529 526
f 526 524 527
f 524 525 527
f 574 576 573
f 576 575 573
f 573 571 574
f 529 571 573
f 270 232 231
f 231 295 270
f 293 295 231
f 393 395 423
f 423 392 393
f 414 402 413
f 402 401 413
f 413 419 414
f 417 419 413
f 400 401 390
f 132 74 123
f 123 122 132
f 74 122 123
f 125 131 132
f 132 122 125
f 126 131 125
f 205 126 125
f 125 122 205
f 67 85 84
f 84 80 67
f 85 80 84
f 61 691 62
f 62 64 61
f 62 65 64
f 690 691 694
f 689 57 690
f 59 60 690
f 50 691 690
f 690 60 50
f 61 64 90
f 90 691 61
f 64 691 90
f 107 59 58
f 58 57 107
f 59 690 58
f 58 690 57
f 711 710 168
f 710 182 168
f 182 183 168
f 350 183 182
f 166 182 710
f 710 181 166
f 166 181 182
f 188 181 709
f 189 156 224
f 155 208 224
f 224 156 155
f 190 189 224
f 224 208 385
f 190 378 191
f 191 378 192
f 706 190 191
f 191 192 706
f 187 709 708
f 708 186 187
f 187 188 709
f 638 223 379
f 222 223 638
f 153 702 701
f 153 701 161
f 153 341 340
f 153 150 341
f 174 342 175
f 173 342 174
f 174 175 704
f 704 173 174
f 409 341 148
f 341 149 148
f 147 409 148
f 148 149 119
f 148 121 147
f 119 121 148
f 133 121 142
f 142 119 140
f 142 121 119
f 143 693 694
f 694 144 143
f 143 144 133
f 133 142 143
f 136 130 134
f 134 41 136
f 43 44 137
f 694 44 43
f 137 44 138
f 44 139 138
f 138 127 128
f 138 139 127
f 45 139 44
f 45 44 694
f 694 46 45
f 45 46 132
f 132 139 45
f 69 70 73
f 69 71 70
f 151 152 144
f 151 432 410
f 151 130 432
f 134 130 151
f 410 408 151
f 408 152 151
f 562 14 372
f 372 219 562
f 372 14 15
f 15 219 372
f 367 18 370
f 18 369 370
f 218 369 8
f 8 6 218
f 8 369 18
f 371 217 5
f 217 6 5
f 3 371 5
f 5 4 3
f 697 4 5
f 364 547 365
f 363 547 364
f 623 587 589
f 589 587 590
f 361 549 362
f 552 360 359
f 551 360 552
f 551 361 360
f 586 583 584
f 582 549 584
f 584 581 582
f 584 583 581
f 249 47 91
f 252 47 249
f 249 251 252
f 249 91 676
f 676 251 249
f 253 255 256
f 257 502 256
f 256 502 253
f 256 250 257
f 256 251 250
f 255 251 256
f 253 252 254
f 254 255 253
f 252 255 254
f 240 502 257
f 257 258 240
f 240 258 241
f 247 248 675
f 675 258 247
f 247 258 248
f 330 322 329
f 330 323 322
f 19 319 321
f 321 329 19
f 319 322 321
f 322 323 321
f 321 330 329
f 323 330 321
f 469 470 487
f 487 198 469
f 469 198 468
f 467 470 469
f 319 376 320
f 320 322 319
f 320 198 322
f 468 198 197
f 198 320 197
f 376 196 197
f 197 320 376
f 658 657 244
f 657 245 244
f 656 668 234
f 234 668 669
f 669 673 234
f 656 238 236
f 236 238 242
f 510 505 509
f 511 506 510
f 510 513 511
f 510 509 513
f 492 261 493
f 493 506 492
f 493 261 288
f 493 510 506
f 505 510 493
f 670 669 671
f 670 673 669
f 671 674 670
f 674 673 670
f 277 276 275
f 277 275 285
f 285 284 277
f 277 284 283
f 283 279 277
f 279 276 277
f 267 232 270
f 270 296 267
f 264 259 263
f 264 263 471
f 471 472 264
f 472 232 264
f 232 267 264
f 264 267 268
f 286 287 261
f 288 287 289
f 265 289 287
f 212 211 699
f 212 213 211
f 699 214 212
f 214 213 212
f 519 214 216
f 216 561 519
f 216 373 561
f 12 13 375
f 375 13 562
f 375 562 564
f 564 561 375
f 543 570 568
f 568 566 543
f 568 570 567
f 466 522 524
f 524 464 466
f 468 522 466
f 466 464 467
f 467 469 466
f 466 469 468
f 463 462 461
f 284 272 474
f 283 284 474
f 474 282 283
f 533 575 577
f 230 231 232
f 230 272 271
f 232 272 230
f 271 291 230
f 230 291 293
f 293 231 230
f 646 392 422
f 417 413 412
f 412 413 401
f 412 401 400
f 412 400 403
f 403 415 412
f 412 415 417
f 400 390 389
f 210 344 389
f 389 344 400
f 63 691 49
f 63 62 691
f 49 65 63
f 65 62 63
f 694 689 696
f 696 690 694
f 689 690 696
f 167 168 183
f 183 184 169
f 169 167 183
f 168 167 169
f 345 184 183
f 183 350 345
f 380 378 190
f 190 224 380
f 379 378 380
f 380 224 385
f 609 607 608
f 349 614 348
f 349 350 182
f 162 153 161
f 150 153 162
f 161 655 162
f 655 150 162
f 164 702 160
f 702 153 160
f 177 338 178
f 177 339 338
f 178 157 177
f 703 164 177
f 177 157 703
f 33 144 694
f 694 36 33
f 33 36 144
f 134 144 37
f 144 36 37
f 37 36 694
f 141 653 693
f 693 143 141
f 140 653 141
f 141 142 140
f 141 143 142
f 39 136 40
f 40 136 41
f 694 39 40
f 40 41 694
f 137 136 38
f 38 136 39
f 38 39 694
f 128 137 129
f 129 138 128
f 137 138 129
f 73 71 48
f 48 69 73
f 71 69 48
f 135 144 134
f 134 151 135
f 135 151 144
f 626 441 648
f 440 441 626
f 206 440 626
f 6 8 7
f 7 5 6
f 7 8 18
f 7 18 9
f 7 9 697
f 697 5 7
f 549 361 550
f 586 584 550
f 550 584 549
f 550 551 586
f 361 551 550
f 552 590 588
f 588 551 552
f 590 587 588
f 586 551 588
f 588 585 586
f 587 585 588
f 495 292 496
f 294 292 495
f 242 504 503
f 503 240 242
f 504 495 503
f 502 240 503
f 496 502 503
f 503 495 496
f 211 213 518
f 518 196 211
f 518 197 196
f 518 213 519
f 658 244 243
f 675 658 243
f 243 241 675
f 243 240 241
f 242 240 243
f 243 244 242
f 656 234 233
f 237 673 516
f 237 234 673
f 237 516 508
f 238 234 237
f 508 242 237
f 242 238 237
f 656 236 235
f 235 236 242
f 504 505 494
f 505 493 494
f 494 493 288
f 494 495 504
f 288 294 494
f 294 495 494
f 283 282 281
f 281 282 280
f 281 279 283
f 281 280 279
f 261 259 262
f 262 286 261
f 262 259 260
f 260 286 262
f 290 289 268
f 290 267 296
f 268 267 290
f 290 296 288
f 288 289 290
f 269 264 268
f 269 265 264
f 268 289 269
f 289 265 269
f 260 259 266
f 266 265 287
f 259 264 266
f 264 265 266
f 266 286 260
f 287 286 266
f 215 216 214
f 373 216 215
f 215 214 699
f 561 373 374
f 374 375 561
f 563 566 565
f 566 568 565
f 565 568 567
f 565 567 523
f 528 462 526
f 528 461 462
f 530 461 528
f 526 529 528
f 457 461 530
f 531 573 575
f 575 533 531
f 529 573 531
f 531 533 530
f 531 528 529
f 530 528 531
f 535 533 577
f 535 579 537
f 577 579 535
f 645 393 392
f 393 394 391
f 402 395 391
f 395 393 391
f 391 401 402
f 391 390 401
f 170 171 711
f 711 168 170
f 168 169 170
f 170 169 184
f 170 185 171
f 184 185 170
f 184 345 346
f 221 187 186
f 221 186 222
f 635 613 636
f 181 188 619
f 619 221 617
f 188 187 619
f 187 221 619
f 614 349 616
f 633 632 607
f 607 609 633
f 633 609 634
f 631 632 643
f 607 632 605
f 603 604 605
f 605 631 603
f 632 631 605
f 164 160 154
f 154 160 153
f 154 177 164
f 154 153 340
f 340 339 154
f 339 177 154
f 694 41 42
f 42 37 694
f 42 41 134
f 134 37 42
f 130 136 124
f 124 136 137
f 124 430 432
f 432 130 124
f 137 430 124
f 137 38 35
f 35 38 694
f 351 558 352
f 623 589 624
f 650 623 624
f 624 649 650
f 647 627 206
f 206 626 647
f 647 626 627
f 357 356 555
f 555 356 556
f 627 626 595
f 592 590 552
f 521 518 519
f 519 563 521
f 521 565 523
f 563 565 521
f 239 234 238
f 239 233 234
f 239 238 656
f 656 233 239
f 246 235 242
f 242 244 246
f 246 244 245
f 246 245 656
f 656 235 246
f 12 375 10
f 375 374 10
f 10 11 12
f 699 11 10
f 10 215 699
f 373 215 10
f 10 374 373
f 530 533 532
f 532 457 530
f 533 535 532
f 461 457 460
f 460 473 463
f 463 461 460
f 460 457 474
f 460 272 473
f 460 474 272
f 597 595 596
f 627 595 597
f 392 646 629
f 629 645 392
f 542 185 184
f 184 346 542
f 379 380 381
f 641 633 634
f 387 389 390
f 635 634 611
f 611 613 635
f 634 609 611
f 611 609 608
f 615 636 613
f 615 616 617
f 615 613 614
f 614 616 615
f 638 636 637
f 222 638 637
f 637 221 222
f 617 221 637
f 637 615 617
f 636 615 637
f 618 616 349
f 617 616 618
f 181 619 618
f 618 619 617
f 608 607 606
f 607 605 606
f 606 605 604
f 558 604 602
f 602 604 603
f 644 631 643
f 694 43 34
f 34 35 694
f 34 43 137
f 137 35 34
f 557 352 558
f 557 556 354
f 600 556 557
f 557 602 600
f 558 602 557
f 354 556 355
f 355 556 356
f 598 556 600
f 598 597 596
f 598 596 555
f 555 556 598
f 600 599 598
f 599 597 598
f 625 626 648
f 648 649 625
f 649 624 625
f 553 592 552
f 553 359 358
f 552 359 553
f 593 595 626
f 626 625 593
f 523 522 520
f 520 521 523
f 518 521 520
f 520 522 468
f 468 197 520
f 197 518 520
f 282 474 459
f 474 457 459
f 457 532 459
f 534 532 535
f 537 536 534
f 534 535 537
f 534 536 485
f 485 278 534
f 393 645 207
f 601 629 599
f 601 602 603
f 601 599 600
f 600 602 601
f 603 631 630
f 630 601 603
f 629 601 630
f 631 644 630
f 645 629 630
f 630 644 645
f 599 629 628
f 628 629 646
f 627 597 628
f 628 597 599
f 206 627 628
f 628 646 422
f 628 437 206
f 422 438 628
f 438 437 628
f 541 163 171
f 171 185 541
f 185 542 541
f 639 638 379
f 379 381 639
f 639 636 638
f 635 636 639
f 382 380 385
f 382 381 380
f 383 381 382
f 348 614 612
f 614 613 612
f 613 611 612
f 182 181 620
f 181 618 620
f 620 349 182
f 620 618 349
f 559 606 604
f 559 558 351
f 559 604 558
f 302 644 643
f 353 557 354
f 352 557 353
f 358 357 554
f 554 553 358
f 555 596 554
f 554 357 555
f 592 593 591
f 591 624 589
f 591 625 624
f 591 593 625
f 591 589 590
f 590 592 591
f 282 459 458
f 458 459 532
f 278 280 458
f 280 282 458
f 458 534 278
f 532 534 458
f 297 207 645
f 229 207 297
f 645 644 297
f 226 397 394
f 227 394 393
f 227 226 394
f 228 226 227
f 393 207 227
f 227 207 229
f 383 641 640
f 640 381 383
f 640 639 381
f 635 639 640
f 640 634 635
f 640 641 634
f 389 387 386
f 210 389 386
f 385 210 386
f 386 382 385
f 643 632 642
f 632 633 642
f 633 641 642
f 383 382 384
f 384 386 387
f 382 386 384
f 610 611 608
f 610 612 611
f 608 348 610
f 348 612 610
f 347 559 351
f 347 348 608
f 592 553 594
f 553 554 594
f 594 593 592
f 594 554 596
f 596 595 594
f 595 593 594
f 307 297 644
f 397 226 307
f 314 642 641
f 314 641 383
f 383 384 314
f 388 391 394
f 394 396 388
f 388 396 399
f 390 391 388
f 388 387 390
f 606 559 560
f 559 347 560
f 608 606 560
f 560 347 608
f 297 307 298
f 298 226 228
f 298 307 226
f 644 302 306
f 306 307 644
f 397 307 306
f 316 314 315
f 642 314 316
f 394 397 398
f 398 396 394
f 387 388 310
f 310 384 387
f 310 314 384
f 399 396 301
f 301 303 399
f 396 398 301
f 643 303 301
f 301 302 643
f 228 227 299
f 299 298 228
f 297 298 299
f 397 306 305
f 305 398 397
f 305 301 398
f 305 306 302
f 302 301 305
f 308 310 388
f 308 317 316
f 315 314 313
f 314 310 313
f 300 227 229
f 300 299 227
f 229 297 300
f 297 299 300
f 642 316 304
f 316 317 304
f 643 642 304
f 304 303 643
f 317 308 311
f 399 303 311
f 311 388 399
f 311 308 388
f 315 313 312
f 312 316 315
f 312 313 310
f 303 304 318
f 318 304 317
f 318 311 303
f 317 311 318
f 309 308 316
f 316 312 309
f 310 308 309
f 309 312 310
f 682 31 26
f 26 28 682
f 711 683 702
f 702 32 29
f 697 698 702
f 702 700 701
f 19 21 702
f 702 684 697
f 702 705 706
f 702 699 19
f 706 707 702
f 702 24 26
f 708 709 702
f 702 693 700
f 29 30 702
f 683 684 702
f 702 21 24
f 702 710 711
f 704 705 702
f 694 693 702
f 702 698 699
f 702 30 694
f 26 31 702
f 702 707 708
f 702 703 704
f 702 31 32
f 702 709 710
f 218 217 347
f 358 359 347
f 347 517 220
f 347 684 683
f 347 349 348
f 367 370 347
f 683 163 347
f 365 366 347
f 220 219 347
f 366 517 347
f 347 2 684
f 347 368 367
f 362 363 347
f 347 369 218
f 347 364 365
f 371 2 347
f 347 217 371
f 347 219 368
f 347 357 358
f 347 361 362
f 354 355 347
f 347 353 354
f 347 370 369
f 363 364 347
f 360 361 347
f 347 359 360
f 347 345 350
f 350 349 347
f 163 541 347
f 347 346 345
f 351 352 347
f 356 357 347
f 347 542 346
f 347 355 356
f 347 541 542
f 352 353 347

